<svg width="32" height="32" viewBox="0 0 32 32" fill="none" xmlns="http://www.w3.org/2000/svg">
<path d="M8.66667 21.3573C9.77089 21.3573 10.8452 21.4825 11.8897 21.733C12.9341 21.9834 13.9709 22.3762 15 22.9113V9.80332C14.0633 9.1931 13.0497 8.73544 11.959 8.43032C10.8683 8.12521 9.77089 7.97266 8.66667 7.97266C7.824 7.97266 7.00389 8.04832 6.20633 8.19966C5.409 8.35099 4.67356 8.59077 4 8.91899V22.183C4.70089 21.9163 5.45389 21.712 6.259 21.57C7.06411 21.4282 7.86667 21.3573 8.66667 21.3573ZM17 22.9113C18.0291 22.3762 19.0659 21.9834 20.1103 21.733C21.1548 21.4825 22.2291 21.3573 23.3333 21.3573C24.1333 21.3573 24.9359 21.4282 25.741 21.57C26.5461 21.712 27.2991 21.9163 28 22.183V8.91899C27.3264 8.59077 26.591 8.35099 25.7937 8.19966C24.9961 8.04832 24.176 7.97266 23.3333 7.97266C22.2291 7.97266 21.1317 8.12521 20.041 8.43032C18.9503 8.73544 17.9367 9.1931 17 9.80332V22.9113ZM16 25.8443C14.9249 25.0512 13.7651 24.4384 12.5207 24.006C11.2762 23.5735 9.99156 23.3573 8.66667 23.3573C7.53156 23.3573 6.37733 23.5453 5.204 23.9213C4.03044 24.2973 2.96244 24.8452 2 25.565V7.74466C2.86667 7.18044 3.89489 6.7441 5.08467 6.43566C6.27444 6.12699 7.46844 5.97266 8.66667 5.97266C9.964 5.97266 11.2316 6.14999 12.4693 6.50466C13.7069 6.85955 14.8838 7.3831 16 8.07532C17.1162 7.3831 18.2931 6.85955 19.5307 6.50466C20.7684 6.14999 22.036 5.97266 23.3333 5.97266C24.5316 5.97266 25.7234 6.12699 26.909 6.43566C28.0943 6.7441 29.1247 7.18044 30 7.74466V25.565C29.0513 24.8452 27.9868 24.2973 26.8063 23.9213C25.6261 23.5453 24.4684 23.3573 23.3333 23.3573C22.0084 23.3573 20.7238 23.5735 19.4793 24.006C18.2349 24.4384 17.0751 25.0512 16 25.8443ZM18.5897 12.9933V11.2393C19.3146 10.9027 20.0731 10.6501 20.8653 10.4817C21.6578 10.3132 22.4804 10.229 23.3333 10.229C23.8684 10.229 24.3881 10.2671 24.8923 10.3433C25.3966 10.4193 25.9026 10.5198 26.4103 10.6447V12.3163C25.9112 12.1419 25.415 12.0153 24.9217 11.9367C24.4286 11.858 23.8991 11.8187 23.3333 11.8187C22.4804 11.8187 21.6543 11.92 20.855 12.1227C20.0559 12.3253 19.3008 12.6155 18.5897 12.9933ZM18.5897 20.301V18.5213C19.2974 18.1847 20.0539 17.9321 20.859 17.7637C21.6641 17.5954 22.4889 17.5113 23.3333 17.5113C23.8684 17.5113 24.3881 17.5493 24.8923 17.6253C25.3966 17.7013 25.9026 17.8018 26.4103 17.9267V19.5983C25.9112 19.4239 25.415 19.2973 24.9217 19.2187C24.4286 19.1402 23.8991 19.101 23.3333 19.101C22.4804 19.101 21.6543 19.2031 20.855 19.4073C20.0559 19.6115 19.3008 19.9094 18.5897 20.301ZM18.5897 16.66V14.8803C19.3146 14.5437 20.0731 14.2911 20.8653 14.1227C21.6578 13.9542 22.4804 13.87 23.3333 13.87C23.8684 13.87 24.3881 13.9081 24.8923 13.9843C25.3966 14.0603 25.9026 14.1608 26.4103 14.2857V15.9573C25.9112 15.7829 25.415 15.6563 24.9217 15.5777C24.4286 15.4992 23.8991 15.46 23.3333 15.46C22.4804 15.46 21.6543 15.5655 20.855 15.7767C20.0559 15.9878 19.3008 16.2822 18.5897 16.66Z" fill="#1F1F1F"/>
</svg>
