<svg width="25" height="18" viewBox="0 0 25 18" fill="none" xmlns="http://www.w3.org/2000/svg">
<path d="M18.725 8.11067L14.9984 4.38404L16.2458 3.16575L18.725 5.64492L23.6833 0.686583L24.9127 1.93404L18.725 8.11067ZM5.86367 6.96967C5.06567 6.17186 4.66667 5.20975 4.66667 4.08333C4.66667 2.95711 5.06567 1.995 5.86367 1.197C6.66167 0.398999 7.62378 0 8.75 0C9.87622 0 10.8383 0.398999 11.6363 1.197C12.4343 1.995 12.8333 2.95711 12.8333 4.08333C12.8333 5.20975 12.4343 6.17186 11.6363 6.96967C10.8383 7.76767 9.87622 8.16667 8.75 8.16667C7.62378 8.16667 6.66167 7.76767 5.86367 6.96967ZM0 17.0514V14.4576C0 13.8863 0.155167 13.3573 0.4655 12.8704C0.775833 12.3835 1.19058 12.0092 1.70975 11.7475C2.86281 11.1822 4.02607 10.7582 5.19954 10.4755C6.37301 10.1928 7.5565 10.0514 8.75 10.0514C9.9435 10.0514 11.127 10.1928 12.3005 10.4755C13.4739 10.7582 14.6372 11.1822 15.7902 11.7475C16.3094 12.0092 16.7242 12.3835 17.0345 12.8704C17.3448 13.3573 17.5 13.8863 17.5 14.4576V17.0514H0Z" fill="#1F1F1F"/>
</svg>
