<svg width="24" height="18" viewBox="0 0 24 18" fill="none" xmlns="http://www.w3.org/2000/svg">
<path d="M13.4613 9.87175C12.6462 9.87175 11.9563 9.58942 11.3916 9.02475C10.8272 8.46008 10.5449 7.7702 10.5449 6.95508C10.5449 6.13978 10.8272 5.44989 11.3916 4.88542C11.9563 4.32075 12.6462 4.03842 13.4613 4.03842C14.2766 4.03842 14.9665 4.32075 15.531 4.88542C16.0956 5.44989 16.378 6.13978 16.378 6.95508C16.378 7.7702 16.0956 8.46008 15.531 9.02475C14.9665 9.58942 14.2766 9.87175 13.4613 9.87175ZM3.23079 13.9102V0H23.6921V13.9102H3.23079ZM7.08954 12.5863H19.8333C19.8333 11.8818 20.0802 11.2832 20.5739 10.7905C21.0676 10.2976 21.6658 10.0511 22.3685 10.0511V3.85875C21.664 3.85875 21.0653 3.6119 20.5724 3.11821C20.0797 2.62432 19.8333 2.02611 19.8333 1.32358H7.08954C7.08954 2.02806 6.84269 2.62675 6.349 3.11967C5.85511 3.61239 5.2569 3.85875 4.55437 3.85875V10.0511C5.25885 10.0511 5.85754 10.2981 6.35046 10.792C6.84318 11.2857 7.08954 11.8838 7.08954 12.5863ZM0 17.141V3.47754H1.32358V15.8171H20.2145V17.141H0Z" fill="#1F1F1F"/>
</svg>
