<svg width="78" height="78" viewBox="0 0 78 78" fill="none" xmlns="http://www.w3.org/2000/svg">
<path d="M39 55.0062C39.65 55.0062 40.2188 54.7625 40.7062 54.275C41.1937 53.7875 41.4375 53.2188 41.4375 52.5687C41.4375 51.9187 41.1937 51.35 40.7062 50.8625C40.2188 50.375 39.65 50.1312 39 50.1312C38.35 50.1312 37.7812 50.375 37.2937 50.8625C36.8062 51.35 36.5625 51.9187 36.5625 52.5687C36.5625 53.2188 36.8062 53.7875 37.2937 54.275C37.7812 54.7625 38.35 55.0062 39 55.0062ZM39 41.4375C39.65 41.4375 40.2188 41.1937 40.7062 40.7062C41.1937 40.2187 41.4375 39.65 41.4375 39C41.4375 38.35 41.1937 37.7812 40.7062 37.2937C40.2188 36.8062 39.65 36.5625 39 36.5625C38.35 36.5625 37.7812 36.8062 37.2937 37.2937C36.8062 37.7812 36.5625 38.35 36.5625 39C36.5625 39.65 36.8062 40.2187 37.2937 40.7062C37.7812 41.1937 38.35 41.4375 39 41.4375ZM39 27.8687C39.65 27.8687 40.2188 27.625 40.7062 27.1375C41.1937 26.65 41.4375 26.0812 41.4375 25.4312C41.4375 24.7812 41.1937 24.2125 40.7062 23.725C40.2188 23.2375 39.65 22.9937 39 22.9937C38.35 22.9937 37.7812 23.2375 37.2937 23.725C36.8062 24.2125 36.5625 24.7812 36.5625 25.4312C36.5625 26.0812 36.8062 26.65 37.2937 27.1375C37.7812 27.625 38.35 27.8687 39 27.8687ZM6.5 65V47.6937C8.50417 47.2604 10.1698 46.2448 11.4969 44.6469C12.824 43.049 13.4875 41.1667 13.4875 39C13.4875 36.8333 12.824 34.9375 11.4969 33.3125C10.1698 31.6875 8.50417 30.6854 6.5 30.3062V13H71.5V30.3062C69.4958 30.6854 67.8302 31.6875 66.5031 33.3125C65.176 34.9375 64.5125 36.8333 64.5125 39C64.5125 41.1667 65.176 43.049 66.5031 44.6469C67.8302 46.2448 69.4958 47.2604 71.5 47.6937V65H6.5ZM11.375 60.125H66.625V51.2687C64.5667 49.8604 62.8875 48.1 61.5875 45.9875C60.2875 43.875 59.6375 41.5458 59.6375 39C59.6375 36.4542 60.2875 34.125 61.5875 32.0125C62.8875 29.9 64.5667 28.1396 66.625 26.7312V17.875H11.375V26.7312C13.4875 28.1396 15.1802 29.9 16.4531 32.0125C17.726 34.125 18.3625 36.4542 18.3625 39C18.3625 41.5458 17.726 43.875 16.4531 45.9875C15.1802 48.1 13.4875 49.8604 11.375 51.2687V60.125Z" fill="white"/>
</svg>
