<svg width="78" height="78" viewBox="0 0 78 78" fill="none" xmlns="http://www.w3.org/2000/svg">
<path d="M36.8062 55.25H41.6812V35.75H36.8062V55.25ZM40.9094 28.99C41.424 28.4917 41.6812 27.8742 41.6812 27.1375C41.6812 26.3548 41.4245 25.6988 40.911 25.1696C40.3975 24.6399 39.761 24.375 39.0016 24.375C38.2422 24.375 37.6052 24.6399 37.0906 25.1696C36.576 25.6988 36.3187 26.3548 36.3187 27.1375C36.3187 27.8742 36.5755 28.4917 37.089 28.99C37.6025 29.4883 38.239 29.7375 38.9984 29.7375C39.7578 29.7375 40.3948 29.4883 40.9094 28.99ZM39.0219 71.5C34.5402 71.5 30.3287 70.6469 26.3876 68.9406C22.4459 67.2344 18.999 64.9052 16.0469 61.9531C13.0948 59.001 10.7656 55.5522 9.05937 51.6068C7.35312 47.6613 6.5 43.4455 6.5 38.9594C6.5 34.4733 7.35312 30.2575 9.05937 26.312C10.7656 22.3665 13.0948 18.9312 16.0469 16.0062C18.999 13.0812 22.4477 10.7656 26.3932 9.05937C30.3387 7.35312 34.5545 6.5 39.0406 6.5C43.5267 6.5 47.7425 7.35312 51.688 9.05937C55.6335 10.7656 59.0687 13.0812 61.9937 16.0062C64.9187 18.9312 67.2344 22.3708 68.9406 26.325C70.6469 30.2792 71.5 34.4969 71.5 38.9781C71.5 43.4598 70.6469 47.6713 68.9406 51.6124C67.2344 55.5541 64.9187 58.9962 61.9937 61.9385C59.0687 64.8803 55.6292 67.2095 51.675 68.926C47.7208 70.642 43.5031 71.5 39.0219 71.5ZM39.0406 66.625C46.7052 66.625 53.2188 63.9302 58.5812 58.5406C63.9437 53.151 66.625 46.624 66.625 38.9594C66.625 31.2948 63.9489 24.7812 58.5967 19.4187C53.2445 14.0562 46.7122 11.375 39 11.375C31.3625 11.375 24.849 14.0511 19.4594 19.4033C14.0698 24.7555 11.375 31.2877 11.375 39C11.375 46.6375 14.0698 53.151 19.4594 58.5406C24.849 63.9302 31.376 66.625 39.0406 66.625Z" fill="white"/>
</svg>
