<svg width="78" height="78" viewBox="0 0 78 78" fill="none" xmlns="http://www.w3.org/2000/svg">
<path d="M9.75 68.25V9.75H31.2812C31.5521 7.85417 32.4187 6.29688 33.8812 5.07812C35.3438 3.85938 37.05 3.25 39 3.25C40.95 3.25 42.6562 3.85938 44.1187 5.07812C45.5812 6.29688 46.4479 7.85417 46.7188 9.75H68.25V68.25H9.75ZM14.625 63.375H63.375V14.625H14.625V63.375ZM22.75 55.25H44.9312V50.375H22.75V55.25ZM22.75 41.4375H55.25V36.5625H22.75V41.4375ZM22.75 27.625H55.25V22.75H22.75V27.625ZM40.9906 12.3906C41.5594 11.8219 41.8438 11.1583 41.8438 10.4C41.8438 9.64167 41.5594 8.97812 40.9906 8.40937C40.4219 7.84062 39.7583 7.55625 39 7.55625C38.2417 7.55625 37.5781 7.84062 37.0094 8.40937C36.4406 8.97812 36.1562 9.64167 36.1562 10.4C36.1562 11.1583 36.4406 11.8219 37.0094 12.3906C37.5781 12.9594 38.2417 13.2437 39 13.2437C39.7583 13.2437 40.4219 12.9594 40.9906 12.3906Z" fill="white"/>
</svg>
