<svg width="78" height="78" viewBox="0 0 78 78" fill="none" xmlns="http://www.w3.org/2000/svg">
<path d="M36.5625 55.25H41.4375V39H36.5625V55.25ZM40.7469 30.9823C41.2073 30.5126 41.4375 29.9303 41.4375 29.2354C41.4375 28.541 41.2024 27.9635 40.7323 27.5031C40.2626 27.0427 39.6803 26.8125 38.9854 26.8125C38.291 26.8125 37.7135 27.0476 37.2531 27.5177C36.7927 27.9874 36.5625 28.5697 36.5625 29.2646C36.5625 29.959 36.7976 30.5365 37.2677 30.9969C37.7374 31.4573 38.3197 31.6875 39.0146 31.6875C39.709 31.6875 40.2865 31.4524 40.7469 30.9823ZM13 68.25V29.25L39 9.75L65 29.25V68.25H13ZM17.875 63.375H60.125V31.3625L39 16.0062L17.875 31.3625V63.375Z" fill="white"/>
</svg>
