<svg width="20" height="23" viewBox="0 0 20 23" fill="none" xmlns="http://www.w3.org/2000/svg">
<path d="M9.89829 9.23242C9.20587 9.23242 8.61894 8.98926 8.1375 8.50296C7.65586 8.01685 7.41504 7.42758 7.41504 6.73517C7.41504 6.04275 7.6581 5.45572 8.14421 4.97408C8.63032 4.49244 9.21968 4.25163 9.91229 4.25163C10.6047 4.25163 11.1916 4.49468 11.6731 4.98079C12.1547 5.4671 12.3955 6.05646 12.3955 6.74888C12.3955 7.44129 12.1525 8.02832 11.6664 8.50996C11.1803 8.9916 10.5909 9.23242 9.89829 9.23242ZM0 13.484V0H19.822V13.484H0ZM3.85875 12.1602H15.9629C15.9629 11.4557 16.2099 10.8571 16.7038 10.3644C17.1974 9.87146 17.7956 9.625 18.4981 9.625V3.85904C17.7936 3.85904 17.195 3.6121 16.7023 3.11821C16.2094 2.62451 15.9629 2.0264 15.9629 1.32388H3.85875C3.85875 2.02835 3.6119 2.62694 3.11821 3.11967C2.62432 3.61258 2.02611 3.85904 1.32358 3.85904V9.625C2.02806 9.625 2.62675 9.87185 3.11967 10.3655C3.61239 10.8594 3.85875 11.4576 3.85875 12.1602ZM9.91637 22.1667L13.4455 18.6375L12.5236 17.7152L10.5785 19.6607V15.5257H9.2435V19.6607L7.29808 17.7152L6.37613 18.6375L9.91637 22.1667Z" fill="#1F1F1F"/>
</svg>
