<svg width="19" height="17" viewBox="0 0 19 17" fill="none" xmlns="http://www.w3.org/2000/svg">
<path d="M3.7115 3.61525V0H14.7115V3.61525H3.7115ZM15.0193 8.5C15.3026 8.5 15.5401 8.40417 15.7318 8.2125C15.9234 8.02083 16.0193 7.78333 16.0193 7.5C16.0193 7.21667 15.9234 6.97917 15.7318 6.7875C15.5401 6.59583 15.3026 6.5 15.0193 6.5C14.7359 6.5 14.4984 6.59583 14.3068 6.7875C14.1151 6.97917 14.0193 7.21667 14.0193 7.5C14.0193 7.78333 14.1151 8.02083 14.3068 8.2125C14.4984 8.40417 14.7359 8.5 15.0193 8.5ZM5.2115 15.1923H13.2115V10.923H5.2115V15.1923ZM3.7115 16.6923V12.6923H0V4.5H18.423V12.6923H14.7115V16.6923H3.7115Z" fill="white"/>
</svg>
