<svg width="24" height="24" viewBox="0 0 24 24" fill="none" xmlns="http://www.w3.org/2000/svg">
<path d="M19.875 21.6758L13.15 14.9758C12.6667 15.3591 12.0959 15.6591 11.4375 15.8758C10.7792 16.0924 10.0667 16.2008 9.30005 16.2008C7.38338 16.2008 5.75838 15.5341 4.42505 14.2008C3.09172 12.8674 2.42505 11.2591 2.42505 9.37578C2.42505 7.49245 3.09172 5.88411 4.42505 4.55078C5.75838 3.21745 7.37505 2.55078 9.27505 2.55078C11.1584 2.55078 12.7625 3.21745 14.0875 4.55078C15.4125 5.88411 16.075 7.49245 16.075 9.37578C16.075 10.1258 15.9709 10.8216 15.7625 11.4633C15.5542 12.1049 15.2417 12.7091 14.825 13.2758L21.575 19.9758L19.875 21.6758ZM9.27505 13.8508C10.525 13.8508 11.5792 13.4174 12.4375 12.5508C13.2959 11.6841 13.725 10.6258 13.725 9.37578C13.725 8.12578 13.2959 7.06745 12.4375 6.20078C11.5792 5.33411 10.525 4.90078 9.27505 4.90078C8.02505 4.90078 6.96255 5.33411 6.08755 6.20078C5.21255 7.06745 4.77505 8.12578 4.77505 9.37578C4.77505 10.6258 5.21255 11.6841 6.08755 12.5508C6.96255 13.4174 8.02505 13.8508 9.27505 13.8508Z" fill="#1F1F1F"/>
</svg>
