<svg xmlns="http://www.w3.org/2000/svg" width="109" height="28" fill="none"><path fill="#808285" d="M80.989 5.037V6.43h-1.535v.994h1.535v.967h-1.535v1.002h1.535v1.814h2.078V5.037zM78.918 10.991c-2.099 0-3.867 1.387-3.867 3.349 0 1.961 1.768 3.348 3.867 3.348s3.867-1.387 3.867-3.348c0-1.962-1.76-3.349-3.867-3.349m0 5.703c-1.12 0-1.789-1.051-1.789-2.354s.67-2.354 1.79-2.354c1.119 0 1.788 1.05 1.788 2.354 0 1.303-.662 2.354-1.789 2.354M44.47 8.007v-2.97h-2.077v8.413h2.078V9.002h1.542v-.995zM44.47 16.343H37.45v-3.376h-2.085v3.075c0 .715.584 1.296 1.303 1.296h7.804zM70.319 16.336h-6.903V13.57h-2.084v2.473c0 .707.577 1.282 1.288 1.296h7.691v-.995zM107.45 7.846V5.03h-2.078v4.812s-.641.617-3.036.617h-2.76V6.298h3.894v-.995h-5.972v4.862c0 .714.584 1.296 1.303 1.296h3.542c2.43 0 3.036-.617 3.036-.617v2.592h2.078V8.841h1.542v-.995h-1.549M107.45 16.343h-7.022v-3.411H98.35v3.117c0 .715.585 1.296 1.303 1.296h7.804v-.995zM70.319 7.341V5.03H68.24v5.884s-.831.708-2.817.708H64.36v-.589c1.48-.315 2.353-1.373 2.353-2.627 0-.68-.254-1.296-.719-1.772h.916v-.995h-2.444V4.476h-2.078V5.64h-2.444v.995h.916a2.5 2.5 0 0 0-.719 1.772c0 1.261.874 2.312 2.353 2.627v.582H59.76v.994h5.634c1.973 0 2.846-.68 2.846-.68v2.355h2.078V8.336h1.528V7.334h-1.528zm-6.896-.665c.796 0 1.198.876 1.198 1.702 0 .827-.402 1.703-1.198 1.703s-1.197-.876-1.197-1.703c0-.826.409-1.702 1.197-1.702M57.07 9.618s.451-.574.451-1.821V6.396c0-.715-.584-1.296-1.303-1.296h-8.38v1.002h7.599v1.695c0 1.366-.599 1.821-.599 1.821h-7.881v.995h4.5v1.702h-3.902v.995h7.882v4.007h2.077v-3.706c0-.714-.584-1.296-1.303-1.296h-2.655v-1.702h4.557v-.995h-1.056zM41.11 5.632h-2.626V4.476h-2.078v1.156h-2.62v.995h1.134c-.578.567-.937 1.324-.937 2.158 0 1.744 1.353 3.159 3.466 3.159s3.465-1.415 3.465-3.16c0-.84-.36-1.597-.937-2.157h1.134zm-3.661 5.31c-.937 0-1.367-1.065-1.367-2.122 0-1.058.437-2.123 1.367-2.123s1.366 1.058 1.366 2.123c0 1.064-.437 2.122-1.366 2.122M95.653 10.557h-1.38s.675-.582.675-1.983V6.473c0-.715-.577-1.296-1.302-1.296h-8.234v.995h7.452v2.395c0 1.556-.824 1.983-.824 1.983H90.3V7.88h-2.12v2.67h-3.472v.98h2.303a3.46 3.46 0 0 0-1.007 2.46c0 2.15 1.838 3.691 4.106 3.691s4.106-1.541 4.106-3.692c0-.973-.38-1.828-1.007-2.459h2.437v-.98zm-5.53 6.136c-1.253 0-2.02-1.149-2.02-2.57 0-1.423.76-2.571 2.02-2.571 1.262 0 2.015 1.148 2.015 2.57s-.76 2.571-2.014 2.571M72.798 11.51v-1.205c2.592-.379 3.655-1.843 3.874-4.007h-3.874v-.995h5.043c.767 0 1.12.476 1 1.338-.141 1.058-.831 4.497-6.043 4.869"/><path fill="#80C342" d="M82.884 20.448a1.64 1.64 0 0 0-.705-.189c-.697 0-1.204.484-1.204 1.254s.556 1.268 1.218 1.268c.261 0 .5-.07.684-.168l.19.42c-.211.12-.57.232-.902.232-1.176 0-1.916-.771-1.916-1.766 0-.918.74-1.723 1.93-1.723.352 0 .683.126.916.26l-.211.405zM83.482 21.976c0-.778.62-1.233 1.268-1.233s1.275.448 1.275 1.233c0 .784-.514 1.296-1.275 1.296s-1.268-.547-1.268-1.296m1.86 0c0-.4-.141-.876-.592-.876s-.585.476-.585.876c0 .427.127.938.585.938s.592-.511.592-.938M87.187 21.226l.134-.19c.077-.104.218-.293.415-.293.148 0 .303.077.437.217l-.24.441c-.105-.049-.175-.084-.302-.084-.226 0-.444.182-.444.7v1.192h-.64v-2.41h.64v.427M89.13 21.135h.008a.97.97 0 0 1 .775-.392c.76 0 1.07.68 1.07 1.212 0 .637-.437 1.317-1.127 1.317a.95.95 0 0 1-.725-.358v1.506h-.648v-3.614h.648zm0 .897c0 .504.247.847.593.847.43 0 .577-.504.577-.924s-.183-.827-.55-.827c-.408 0-.62.35-.62.904M91.378 21.976c0-.778.62-1.233 1.267-1.233.648 0 1.275.448 1.275 1.233 0 .784-.514 1.296-1.275 1.296s-1.267-.547-1.267-1.296m1.86 0c0-.4-.142-.876-.593-.876s-.584.476-.584.876c0 .427.127.938.584.938.458 0 .592-.511.592-.938M95.082 21.226h.007l.134-.19c.078-.104.219-.293.416-.293.14 0 .296.077.436.217l-.246.441c-.106-.049-.176-.084-.303-.084-.225 0-.444.182-.444.7v1.192h-.64v-2.41h.64v.427M97.575 22.977c-.176.14-.394.288-.62.288-.38 0-.69-.288-.69-.729s.331-.722.895-.876l.57-.168a.44.44 0 0 0-.436-.364.93.93 0 0 0-.641.245l-.212-.308c.303-.245.6-.322.93-.322.444 0 .993.147.993.896v.981c0 .196.021.42.106.588h-.683c-.05-.083-.064-.217-.064-.35zm-.204-1.05q-.474.145-.472.553c0 .21.134.357.289.357.254 0 .592-.315.542-1.023zM99.752 20.806h.634v.329h-.634v1.184c0 .392.12.56.338.56a.56.56 0 0 0 .31-.084l.112.315c-.19.105-.422.155-.633.155-.529 0-.761-.28-.761-.771v-1.366h-.338v-.33h.338v-.58l.64-.148v.722zM100.808 20.077a.38.38 0 0 1 .374-.371c.218 0 .401.182.401.371 0 .21-.148.406-.387.406s-.381-.196-.381-.406zm.712.729v2.41h-.641v-2.41zM102.041 21.976c0-.778.62-1.233 1.268-1.233.647 0 1.274.448 1.274 1.233 0 .784-.514 1.296-1.274 1.296-.761 0-1.268-.547-1.268-1.296m1.859 0c0-.4-.141-.876-.591-.876-.451 0-.585.476-.585.876 0 .427.127.938.585.938s.591-.511.591-.938M105.745 21.086c.219-.231.529-.343.832-.343.563 0 .866.308.866.917v1.549h-.641V21.73c0-.336-.155-.56-.486-.56-.317 0-.564.21-.564.602v1.437h-.64v-2.41h.64v.287zM38.294 21.975c0-.777.62-1.233 1.268-1.233s1.275.449 1.275 1.233c0 .785-.515 1.296-1.275 1.296-.761 0-1.268-.546-1.268-1.296m1.86 0c0-.399-.142-.875-.592-.875-.451 0-.585.476-.585.875 0 .428.127.94.585.94s.591-.512.591-.94M41.999 21.226h.007l.133-.19c.078-.097.219-.294.416-.294.148 0 .303.078.437.218l-.24.44c-.105-.048-.176-.083-.303-.083-.225 0-.443.182-.443.7v1.191h-.648v-2.41h.64v.428M43.85 22.067c-.013.448.31.791.705.791.24 0 .493-.084.648-.196l.183.336c-.33.19-.676.273-.95.273-.733 0-1.282-.518-1.282-1.31 0-.742.542-1.211 1.232-1.211.754 0 1.07.602 1.021 1.317h-1.57zm.966-.35c.02-.365-.106-.617-.43-.617-.366 0-.535.294-.528.616h.958M47.14 22.977c-.176.14-.394.287-.62.287-.38 0-.69-.287-.69-.728 0-.442.331-.722.895-.876l.57-.168a.44.44 0 0 0-.444-.364.94.94 0 0 0-.64.245l-.212-.308c.303-.245.599-.323.93-.323.45 0 .993.148.993.897v.98c0 .197.028.421.106.59h-.684c-.049-.085-.063-.218-.063-.351l-.148.12zm-.204-1.05q-.474.145-.472.553c0 .21.134.357.289.357.26 0 .591-.315.542-1.023zM36.674 21.345l1.275-1.513h-.712l-1.176 1.464h-.014v-1.464h-.683v3.376h.683v-1.702h.014l1.254 1.702h.852zM51.838 20.287h-1.141v.925h1.113v.455h-1.113v1.086h1.345v.455h-2.028v-3.37h1.824zM53.211 21.086c.219-.231.529-.343.831-.343.564 0 .867.308.867.917v1.549h-.641V21.73c0-.336-.148-.56-.486-.56-.317 0-.564.21-.564.602v1.437h-.64v-2.41h.64v.287zM58.015 20.077a.38.38 0 0 1 .373-.371c.218 0 .394.182.394.371 0 .21-.148.406-.387.406s-.38-.196-.38-.406m.711.729v2.41h-.64v-2.41zM60.022 21.226h.014l.127-.19c.077-.097.218-.293.415-.293.148 0 .303.077.437.217l-.24.441c-.105-.049-.176-.084-.302-.084-.226 0-.437.182-.437.7v1.192h-.648v-2.41h.64v.42zM61.191 21.976c0-.778.62-1.233 1.268-1.233s1.275.448 1.275 1.233c0 .784-.514 1.296-1.275 1.296s-1.268-.547-1.268-1.296m1.86 0c0-.4-.141-.876-.592-.876s-.585.476-.585.876c0 .427.127.938.585.938s.591-.511.591-.938M64.896 21.086c.218-.231.521-.343.824-.343.57 0 .866.308.866.917v1.549h-.64V21.73c0-.336-.149-.56-.487-.56-.317 0-.563.21-.563.602v1.437h-.641v-2.41h.64zM67.889 21.086h.007c.162-.217.479-.343.768-.343.303 0 .563.119.711.343.204-.196.521-.336.803-.343.55 0 .831.322.845.882v1.576h-.648v-1.464c0-.28-.098-.567-.415-.567s-.507.182-.507.602v1.437h-.641v-1.472c0-.336-.155-.567-.43-.567-.303 0-.493.21-.493.616v1.422h-.641v-2.41h.641zM72.235 22.067c-.014.448.302.791.704.791a1.2 1.2 0 0 0 .648-.196l.19.336c-.33.19-.676.273-.95.273-.733 0-1.283-.518-1.283-1.31 0-.742.543-1.211 1.24-1.211.754 0 1.07.602 1.021 1.317zm.957-.35c.022-.365-.105-.617-.422-.617-.366 0-.535.294-.528.616zM74.967 21.086c.219-.231.522-.343.824-.343.57 0 .867.308.867.917v1.549h-.641V21.73c0-.336-.155-.56-.486-.56-.317 0-.564.21-.564.602v1.437h-.64v-2.41h.64zM78.08 20.806h.634v.329h-.634v1.184c0 .392.12.56.331.56a.56.56 0 0 0 .31-.084l.113.315c-.19.105-.423.155-.634.155-.528 0-.76-.28-.76-.771v-1.366h-.346v-.33h.345v-.58l.641-.148v.736M57.134 20.806l-.676 1.667-.605-1.667h-.663l1.015 2.403h.45l1.085-2.403z"/><path fill="url(#a)" d="M.338 17.023c-.669-3.153.296-5.317 1.275-6.606 1.43-1.878 3.775-3.132 6.994-3.762a9.2 9.2 0 0 1 5.472-1.8c2.05 0 3.944.665 5.473 1.8 3.225.63 5.57 1.884 6.993 3.762.98 1.289 1.944 3.453 1.275 6.606a13.8 13.8 0 0 0 .338-3.02C28.158 6.284 21.841 0 14.08 0 6.318 0 0 6.277 0 14.004c0 1.036.12 2.045.331 3.019z"/><path fill="url(#b)" d="M4.88 13.997c0 .686.078 1.351.22 1.996-.346-1.66.21-2.396.408-2.655.655-.862 2.64-2.312 8.571-2.319 5.93 0 7.924 1.45 8.579 2.319.197.26.746.995.401 2.655.14-.645.218-1.31.218-1.99 0-3.012-1.472-5.68-3.725-7.355q-2.409-.474-5.473-.476-3.064.001-5.472.476a9.12 9.12 0 0 0-3.726 7.349"/><path fill="#007DB6" d="M26.545 10.41c-1.43-1.878-3.775-3.132-6.994-3.762a9.12 9.12 0 0 1 3.508 9.345l-.063.273a.05.05 0 0 1-.014.035c-.015.056-.022.112-.043.168-.02.077-.049.154-.07.232 0 0 0 .014-.007.02-.042.134-.085.26-.134.393 0 .014-.007.02-.014.035-.05.133-.106.266-.155.4a1 1 0 0 1-.05.097 4 4 0 0 1-.12.26l-.105.217c-.028.042-.049.09-.07.133a5 5 0 0 1-.141.252c-.014.02-.028.049-.042.07a9.23 9.23 0 0 1-6.748 4.49c-.049 0-.091.014-.14.021-.078.007-.155.021-.233.028l-.232.021c-.064 0-.12.007-.176.014-.141 0-.282.007-.43.007q-.22.002-.43-.007-.093-.002-.176-.014c-.077 0-.155-.014-.232-.02-.078 0-.155-.015-.232-.029-.05 0-.092-.014-.141-.02a9.21 9.21 0 0 1-6.748-4.491c-.014-.021-.028-.05-.042-.07-.05-.084-.091-.168-.14-.252l-.064-.126c-.035-.07-.078-.148-.113-.218-.042-.084-.077-.175-.12-.259q-.021-.054-.042-.098c-.056-.133-.113-.266-.162-.4 0-.013 0-.02-.014-.034-.042-.126-.084-.26-.127-.386q.002-.01-.007-.02c-.02-.078-.05-.155-.07-.232-.021-.063-.028-.112-.042-.168 0-.014-.007-.028-.007-.035-.022-.09-.05-.182-.064-.273a9.121 9.121 0 0 1 3.507-9.345c-3.218.63-5.563 1.884-6.993 3.762-.98 1.289-1.951 3.453-1.275 6.606.028.105.05.21.077.315q.031.128.07.266c.043.161.085.315.135.47.014.042.028.098.042.14.056.16.106.322.169.483a14.24 14.24 0 0 0 .275.729c.028.056.056.119.084.175q.083.198.176.385c.05.105.099.203.155.308.042.077.078.154.12.231q.093.181.197.35c.028.057.064.106.092.162.077.133.155.259.232.392l.042.063a14.2 14.2 0 0 0 9.572 6.319c.148.02.296.049.444.063.077.014.155.02.225.028.113.014.24.028.36.035.119.007.239.02.359.028.091 0 .175.014.267.014.218.014.43.014.655.014s.437 0 .655-.014c.092 0 .176-.007.268-.014q.18-.009.359-.028c.12-.014.232-.021.352-.035.078-.007.155-.021.225-.028l.451-.063a14.18 14.18 0 0 0 9.565-6.319l.042-.063c.084-.133.162-.26.24-.392.028-.056.063-.105.091-.161q.104-.171.197-.35c.043-.078.078-.155.12-.232.056-.105.106-.203.155-.308.063-.126.12-.26.176-.392.021-.056.056-.12.078-.182.084-.19.154-.386.232-.582q.019-.073.05-.147c.056-.161.119-.322.168-.483.014-.042.028-.099.042-.14.05-.155.092-.316.134-.47l.064-.266q.04-.158.07-.315c.67-3.153-.296-5.317-1.275-6.606"/><defs><linearGradient id="a" x1="27.137" x2="-.007" y1="8.511" y2="8.511" gradientUnits="userSpaceOnUse"><stop stop-color="#80C342"/><stop offset="1" stop-color="#BCD85F"/></linearGradient><linearGradient id="b" x1="21.845" x2="3.459" y1="11.912" y2="11.912" gradientUnits="userSpaceOnUse"><stop stop-color="#00ABEA"/><stop offset="1" stop-color="#44C8F5"/></linearGradient></defs></svg>