<svg xmlns="http://www.w3.org/2000/svg" width="153" height="28" fill="none"><path fill="#4C4C4E" d="M61.89 10.31a.295.295 0 0 1-.296.296h-3.981c-.642.132-1.102.346-1.398.659-.428.478-.642.972-.642 1.5 0 .526.164.938.51 1.235q.518.445 1.234.445c.411 0 .839-.099 1.168-.396.329-.296.543-.61.543-1.136 0-.116-.033-.248-.066-.38-.23-.625-.066-1.318.477-1.697l.148-.098c.773.642 1.168 1.384 1.168 2.076 0 .972-.345 1.697-1.036 2.307s-1.48.922-2.386.922q-1.53 0-2.566-.939c-.691-.626-1.037-1.4-1.037-2.356 0-.758.297-1.467.872-2.142h-1.628a.295.295 0 0 1-.296-.297v-.922c0-.165.131-.297.296-.297h8.604c.164 0 .296.132.296.297v.922zM59.998 8.38h-3.06c-.46 0-.888-.049-1.316-.148-.822-.198-1.267-1.12-.937-1.895 1.036.297 1.859.462 2.484.462h1.25c.872 0 1.58.708 1.58 1.581m4.574 13.462h-6.45c-.97 0-1.743-.79-1.743-1.747V17.18c0-.165.132-.296.296-.296h1.234c.165 0 .296.131.296.296v3.081h6.367c.164 0 .296.132.296.297v.988a.295.295 0 0 1-.296.297m2.418-9.342h-2.303v4.976a.295.295 0 0 1-.296.296h-1.234a.295.295 0 0 1-.296-.296V6.075c0-.165.132-.297.296-.297h1.234c.164 0 .296.132.296.297v4.745h2.303c.165 0 .296.132.296.297v1.07a.295.295 0 0 1-.296.297zM79.12 6.453c.165 0 .313.132.313.313 0 1.022-.082 2.077-.214 3.148a112 112 0 0 1-.296 2.125h3.307c.164 0 .296.132.296.297v1.005a.295.295 0 0 1-.296.296h-6.153v2.521h1.398c.971 0 1.744.791 1.744 1.747v3.954a.295.295 0 0 1-.296.297h-1.267a.295.295 0 0 1-.296-.297V17.74h-6.498a.295.295 0 0 1-.296-.297v-.988c0-.165.131-.297.296-.297h3.323v-2.52h-6.153a.295.295 0 0 1-.296-.297v-1.005c0-.165.132-.297.296-.297h9.049q.197-1.062.296-2.076c.115-1.005.164-1.648.164-1.928H72.13c-.872 0-1.58-.708-1.58-1.582zM92.476 9.617a.295.295 0 0 1-.296.297h-4.475c-.33.082-.609.214-.806.379-.445.379-.675.758-.675 1.186 0 .445.148.775.428.989.28.23.658.346 1.118.346s.905-.116 1.202-.346c.296-.231.477-.462.477-.89 0-.626.329-1.203.855-1.5l.181-.098c.214.214.378.445.51.692s.181.51.181.807c0 .873-.33 1.565-.97 2.06-.445.346-.938.56-1.498.675v.923c.379 0 .806 0 1.267-.017a19 19 0 0 0 2.797-.28.304.304 0 0 1 .362.297v.988a.3.3 0 0 1-.247.297c-.921.181-1.843.28-2.78.297-1.02.016-1.909.033-2.682.033h-4.31a.295.295 0 0 1-.296-.297v-.988c0-.165.131-.297.296-.297h3.767v-.94a3.8 3.8 0 0 1-1.448-.675c-.658-.494-.987-1.186-.987-2.06 0-.444.148-.873.46-1.252a4 4 0 0 1 .264-.296h-1.744a.295.295 0 0 1-.296-.297v-.939c0-.165.132-.297.296-.297h8.769c.165 0 .296.132.296.297v.94zm2.648 12.226h-6.778c-.97 0-1.744-.79-1.744-1.747V17.79c0-.165.132-.297.297-.297h1.217c.165 0 .296.132.296.297v2.438h6.712c.165 0 .297.132.297.297v1.021a.295.295 0 0 1-.297.297m2.517-9.046h-2.369v5.652a.295.295 0 0 1-.296.296h-1.234a.295.295 0 0 1-.296-.296V6.075c0-.165.132-.297.296-.297h1.234c.165 0 .296.132.296.297v5.14h2.37c.164 0 .296.132.296.297v.989a.295.295 0 0 1-.297.296M105.602 7.31c-.445 2.785-1.909 5.224-4.376 7.333-.79.659-1.991.642-2.731-.083 2.763-1.96 4.425-3.954 4.968-6.014h-3.241a1.563 1.563 0 0 1-1.563-1.565h6.63c.181 0 .329.165.296.346zm4.754 11.485c0 .939-.362 1.746-1.102 2.422-.724.675-1.711 1.021-2.945 1.021s-2.188-.346-2.912-1.021c-.724-.676-1.102-1.483-1.102-2.422s.362-1.747 1.102-2.422c.724-.676 1.711-1.022 2.912-1.022s2.205.346 2.945 1.022c.74.675 1.102 1.483 1.102 2.422m-1.842 0c0-.495-.181-.923-.56-1.302-.378-.379-.921-.56-1.628-.56-.708 0-1.234.181-1.596.56-.379.38-.56.808-.56 1.302s.181.922.56 1.301c.378.38.905.56 1.596.56s1.25-.18 1.628-.56c.379-.378.56-.807.56-1.301m.181-8.403h-2.945a.295.295 0 0 1-.296-.297v-.989c0-.164.131-.296.296-.296h2.945V6.075c0-.165.131-.297.296-.297h1.217c.165 0 .296.132.296.297v9.111a.295.295 0 0 1-.296.297h-1.217a.295.295 0 0 1-.296-.297v-1.581h-2.945a.295.295 0 0 1-.296-.297v-.989c0-.164.131-.296.296-.296h2.945v-1.631M126.429 19.553h-14.197a.295.295 0 0 1-.296-.297v-1.005c0-.165.131-.297.296-.297h6.153V16.06c0-.164.131-.296.296-.296h1.283c.164 0 .296.132.296.297v1.894h6.153c.164 0 .296.132.296.297v1.005a.295.295 0 0 1-.296.297zm-3.158-4.219h-7.897a.295.295 0 0 1-.296-.296v-7.86c1.02 0 1.859.824 1.859 1.862v.857h4.787V7.178c1.02 0 1.859.824 1.859 1.862v5.998a.295.295 0 0 1-.296.297zm-1.547-3.855h-4.787v2.257h4.787zM131.989 11.281l3.422 3.213a1.89 1.89 0 0 1-2.55-.05l-1.925-1.844a18 18 0 0 1-2.435 2.207c-.773.594-1.859.511-2.566-.148h-.017q4.788-3.385 5.578-5.981h-3.011a1.563 1.563 0 0 1-1.563-1.565h6.449c.181 0 .329.164.296.346-.247 1.318-.806 2.587-1.678 3.839zm6.482 10.562h-6.63c-.971 0-1.744-.79-1.744-1.747v-3.51c0-.164.132-.296.296-.296h1.234c.165 0 .296.132.296.297v3.69h6.548c.164 0 .296.133.296.297v.989a.295.295 0 0 1-.296.297zm-.099-4.482h-1.234a.295.295 0 0 1-.296-.296v-5.273h-2.714a.295.295 0 0 1-.296-.296V10.49c0-.165.131-.297.296-.297h2.714v-4.12c0-.164.132-.296.296-.296h1.234c.165 0 .296.132.296.297v10.973a.295.295 0 0 1-.296.297zM145.646 14.857v1.928a.295.295 0 0 1-.296.296h-1.25a.295.295 0 0 1-.296-.296v-1.928h-3.521a.295.295 0 0 1-.296-.297v-.988c0-.165.131-.297.296-.297h4.541c.658 0 1.513-.016 2.582-.05a19 19 0 0 0 2.879-.312.29.29 0 0 1 .346.296v.972a.3.3 0 0 1-.247.297 18 18 0 0 1-2.862.33q-1.037.024-1.876.049m-4.524-5.207c0-.857.345-1.582 1.053-2.191.707-.61 1.645-.907 2.78-.907s2.057.297 2.78.907c.724.61 1.086 1.334 1.086 2.191s-.362 1.598-1.086 2.192c-.723.593-1.645.89-2.78.89q-1.702 0-2.764-.89c-.707-.594-1.053-1.335-1.069-2.192m1.859 0c0 .412.165.775.51 1.071.345.297.823.445 1.464.445.642 0 1.119-.148 1.481-.445.362-.296.526-.659.526-1.07 0-.413-.181-.775-.526-1.072-.362-.296-.839-.445-1.481-.445-.641 0-1.119.149-1.464.445s-.51.66-.51 1.071m9.723 12.193h-7.173c-.971 0-1.744-.79-1.744-1.747v-2.323c0-.165.132-.296.296-.296h1.267c.165 0 .296.131.296.296v2.488h7.058c.164 0 .296.132.296.297v.988a.295.295 0 0 1-.296.297m-1.629-3.559v-1.252h-3.34a.295.295 0 0 1-.296-.297v-.972c0-.165.132-.296.296-.296h3.34V6.075c0-.165.132-.297.296-.297h1.234c.165 0 .296.132.296.297v12.209a.295.295 0 0 1-.296.297h-1.234a.295.295 0 0 1-.296-.297M90.5 7.805h-3.077a6 6 0 0 1-1.316-.149c-.823-.197-1.267-1.12-.938-1.895 1.036.297 1.859.462 2.484.462h1.25c.872 0 1.58.708 1.58 1.582z"/><path fill="#00A000" d="M0 11.38v10.858c2.172-.23 4.343-3.213 4.343-5.618V5.76C2.172 5.992 0 8.974 0 11.381"/><path fill="#5FFF00" d="M7.146 15.418c.082-.33.213-.643.394-.923a4 4 0 0 1 .214-.33c.05-.066.099-.115.148-.181-.05-.05-.098-.115-.148-.181a2.3 2.3 0 0 1-.214-.33 4.2 4.2 0 0 1-.394-.923 3.55 3.55 0 0 1 1.332-3.756s.017 0 .033-.017c0 0-.016 0-.033.017a5.93 5.93 0 0 0-3.043 5.174 5.91 5.91 0 0 0 3.043 5.173l.033.017s-.016 0-.033-.017a3.55 3.55 0 0 1-1.332-3.756z"/><path fill="#00A000" d="m8.788 14.741 2.633 1.45c.806.445 1.53 1.236 2.04 2.126.18.33.345.659.477 1.005.378 1.021.46 2.076.131 2.916l-5.544-3.031-.033-.033a3.55 3.55 0 0 1-1.332-3.757c.082-.33.214-.643.395-.923a4 4 0 0 1 .213-.33c.05-.065.1-.115.149-.18q.369.444.888.74h.016zM42.83 11.38v10.858c2.172-.23 4.343-3.213 4.343-5.618V5.76c-2.171.231-4.343 3.213-4.343 5.62M36.803 18.103q-.493.123-1.036.148c-2.287.033-4.245-1.845-4.31-4.136-.066-2.405 1.859-4.383 4.244-4.383.379 0 .74.05 1.102.149 1.563.412 3.241.066 4.377-1.088l.18-.181a7.75 7.75 0 0 0-5.626-2.422c-3.356 0-6.416 2.125-7.403 5.322-1.645 5.339 2.303 10.249 7.403 10.249 2.221 0 4.228-.94 5.643-2.422l-.165-.165c-1.151-1.154-2.83-1.5-4.392-1.088z"/><path fill="#00A000" d="M27.756 19.19c-1.151-1.154-2.83-1.5-4.393-1.088a5.2 5.2 0 0 1-1.036.149c-1.974.033-3.702-1.368-4.179-3.23h5.446c.05-.33.082-.675.082-1.021s-.033-.709-.082-1.022h-5.446c.461-1.845 2.123-3.23 4.113-3.23.379 0 .74.05 1.102.149 1.563.428 3.242.066 4.377-1.088l.18-.18a7.75 7.75 0 0 0-5.626-2.423c-3.356 0-6.416 2.126-7.403 5.322-1.629 5.339 2.303 10.249 7.403 10.249 2.221 0 4.228-.94 5.643-2.422l-.165-.165z"/><path fill="#009901" d="m8.788 13.259 2.633-1.45c.806-.445 1.53-1.236 2.04-2.126.18-.33.345-.66.477-1.005.378-1.022.46-2.076.131-2.917L8.525 8.793l-.033.033a3.55 3.55 0 0 0-1.332 3.757c.082.33.214.643.395.923.065.115.131.214.213.33.05.065.1.114.149.18q.369-.444.888-.741h.016zM24.084 12.452h1.448a3.5 3.5 0 0 0-.954-1.236c-.033-.032-.066-.049-.099-.082-.099-.082-.214-.148-.329-.23a3.6 3.6 0 0 0-.806-.38c.329.495.576 1.17.74 1.912zM22.245 17.64c.411 0 .954-.856 1.234-2.092H21.01c.28 1.236.823 2.093 1.234 2.093M18.967 12.45h1.415c.132-.724.346-1.4.658-1.877-.18.065-.362.131-.526.23a3.65 3.65 0 0 0-1.547 1.648M18.969 15.548a3.61 3.61 0 0 0 2.171 1.912c-.329-.495-.576-1.17-.74-1.912h-1.448zM20.994 12.451h2.501c-.28-1.235-.823-2.092-1.234-2.092-.526 0-1.02.857-1.267 2.092M25.532 15.548h-1.448c-.148.742-.412 1.417-.74 1.912a4 4 0 0 0 .625-.264 3.65 3.65 0 0 0 1.546-1.648zM25.729 12.978h-1.563c.05.346.066.692.066 1.022s-.033.692-.066 1.021h1.563A3.6 3.6 0 0 0 25.877 14c0-.346-.05-.709-.148-1.022"/></svg>