<svg xmlns="http://www.w3.org/2000/svg" width="161" height="28" fill="none"><g clip-path="url(#a)"><path fill="#002E6D" d="M0 16.13h2.438v5.065h.036l4.129-5.065h2.568l-4.593 5.25 5.078 6.396H6.683l-4.206-5.633h-.036v5.633H0zM23.753 19.8c-.018.09-1.325 5.904-1.325 5.904S20.45 19.879 20.42 19.8h-1.094l-1.825 6.002-1.507-6.002h-1.956c.043.144 2.213 7.893 2.235 7.976h1.843l1.692-5.095s1.85 5.022 1.88 5.095h1.858c.022-.087 1.923-7.835 1.96-7.976zM31.773 26.532v1.244h2.151V22.36c0-1.425-.402-2.745-3.314-2.745-2.31 0-3.546.857-3.575 2.48h2.3c0-.032.004-.068.004-.068.032-.56.097-1.736 1.253-1.736.826 0 1.18.492 1.18 1.645v1.418h-.054c-1.238.05-5.005.199-5.005 2.65 0 1.117 1.046 1.963 2.434 1.963 1.796 0 2.626-1.435 2.626-1.435m-1.746.38c-.674 0-1.09-.463-1.09-1.2 0-.952.927-1.516 2.77-1.675l.066-.007v.665c0 1.103-.602 2.22-1.746 2.22zM39.72 27.967c.5 0 1-.047 1.524-.097h.004v-1.06c-.315.087-.67.105-.949.105-.913 0-1.22-.35-1.22-1.388V20.67h2.51v-.868h-2.51v-3.106c-.164.083-2.094 1.143-2.152 1.175v1.931H35.26v.868h1.666v5.113c0 1.822 1.068 2.187 2.789 2.187zM46.656 27.968c1.275 0 1.829-.16 2.825-.546v-.727c-.475.159-1.08.332-1.684.332-2.623 0-3.47-2.776-3.47-4.122v-.057h5.324v-.246c0-1.924-1.264-2.987-3.56-2.987-2.598 0-3.916 1.277-3.916 3.8 0 4.111 3.13 4.553 4.477 4.553zm-2.33-5.923c.08-.524.403-1.75 1.692-1.75 1.514 0 1.557 1.584 1.557 1.76v.059h-3.26zM56.605 21.622v-2.003c-1.572.123-2.347 1.124-2.977 2.202l-.08.126v-2.15H51.4v7.975h2.148v-3.561c0-1.851.859-2.582 3.057-2.593z"/><path fill="url(#b)" d="M14.043 16.054a40.2 40.2 0 0 1 21.221-6.024 40.4 40.4 0 0 1 21.356 6.103v-5.315a44.9 44.9 0 0 0-21.102-5.384 46 46 0 0 0-21.475 10.497v.123"/><path fill="#002E6D" d="M14.043 10.75v5.18A46 46 0 0 1 35.518 5.435h-.254a44.8 44.8 0 0 0-21.221 5.315"/><path fill="url(#c)" d="M44.305 0C33.25 0 22.739 3.51 14.043 9.997v.752a44.8 44.8 0 0 1 21.221-5.315h.254c2.85-.55 5.78-.838 8.79-.838 6.256 0 12.221 1.25 17.665 3.518V3.17A50.5 50.5 0 0 0 44.305 0"/><path fill="#595857" d="M72.992 18.23c0-.647-.229-1.294-.634-1.836h1.532v-1.219h-3.14v-1.63h-2.007v1.63h-3.137v1.219h1.532a3.1 3.1 0 0 0-.634 1.836c0 1.707 1.486 3.146 3.246 3.146s3.245-1.439 3.245-3.146zm-4.644.051c0-1.048.612-1.88 1.395-1.88.782 0 1.39.813 1.39 1.88s-.597 1.88-1.39 1.88c-.794 0-1.395-.82-1.395-1.88M76.827 13.902h-1.941v9.85h1.941V18.82h1.822V17.6h-1.822zM70.271 23.151h-1.937v4.01c0 .286.25.539.525.539h8.106V26.48h-6.697v-3.333zM90.283 14.35H81.16v1.216h7.186v3.652H79.48v1.214h5.266v2.456H81.16v1.218h7.049v3.673h1.938v-4.892H86.7v-2.455h5.267v-1.214h-1.681V14.35zM94.63 20.364c1.923-.26 3.676-1.136 4.82-2.401 1.145 1.262 2.898 2.137 4.825 2.4h.033c.025 0 .764-.932.764-.932l.025-.033-.126-.018c-2.188-.35-4.495-1.873-4.495-3.995v-1.193h-2.025v1.21c0 2.08-2.318 3.602-4.513 3.982l-.127.018.764.965c.026.004.055 0 .055 0zM93.21 21.698v1.222h5.266v4.86h1.953v-4.86h5.266v-1.222H93.206zM117.977 13.902h-1.941v13.874h1.941v-8.36h1.822v-1.218h-1.822zM125.12 19.424c1.67 0 3.028-1.273 3.028-2.835s-1.358-2.838-3.028-2.838-3.039 1.272-3.039 2.838c0 1.565 1.362 2.835 3.039 2.835m0-4.589c.739 0 1.181.655 1.181 1.754s-.442 1.75-1.181 1.75-1.188-.655-1.188-1.75c0-1.096.442-1.754 1.188-1.754M123.863 23.162h1.952v-2.09h3.42v-1.207H120.9v1.207h2.963zM125.714 23.893h-1.941v3.272c0 .285.25.538.525.538h8.11v-1.218h-6.697v-2.596z"/><path fill="#595857" d="M127.63 23.086h2.699v1.107h1.941V13.899h-1.941v7.98h-2.699v1.2069999999999999M145.161 14.35h-9.124v1.216h7.186v4.36h-2.228V17.11h-1.97v2.816h-4.669v1.219h12.489v-1.219h-1.681v-5.575zM152.829 17.395v-3.102h-1.978v3.102c0 2.162-1.412 4.34-3.238 4.957l-.109.037.891.91a.2.2 0 0 0 .058-.006c1.232-.41 2.619-1.588 3.387-2.882.768 1.294 2.155 2.473 3.387 2.881l.032.011c.029-.003.891-.886.891-.886l.026-.029-.109-.036c-1.826-.622-3.238-2.798-3.238-4.957M159.175 18.198v-4.296h-1.938v13.874h1.938v-8.32H161v-1.258zM140.601 21.962c-2.543 0-4.321 1.247-4.321 3.04 0 1.794 1.778 2.998 4.321 2.998s4.317-1.233 4.317-2.997c0-1.765-1.778-3.041-4.317-3.041m0 4.856c-1.424 0-2.42-.756-2.42-1.837s1.04-1.837 2.42-1.837 2.423.788 2.423 1.837-.996 1.837-2.423 1.837M112.497 19.861a5.75 5.75 0 0 1-.518-2.31v-1.812h2.452v-1.218h-6.881v1.218h2.448v1.812c0 .083-.004.159-.007.238a5.7 5.7 0 0 1-.612 2.293c-.859 1.598-2.34 2.346-2.695 2.466l.887.904a.1.1 0 0 0 .062-.008c1.239-.408 2.59-1.583 3.354-2.863.735 1.233 2.017 2.368 3.213 2.816q.093.038.137.047l.033.011c.025-.007.887-.882.887-.882l.029-.029c-.539-.195-2.01-1.041-2.8-2.68z"/></g><defs><linearGradient id="b" x1="7.59" x2="51.283" y1="4.787" y2="4.787" gradientUnits="userSpaceOnUse"><stop offset=".4" stop-color="#00B9EF"/><stop offset="1" stop-color="#4794D1"/></linearGradient><linearGradient id="c" x1="7.591" x2="56.776" y1="-.764" y2="-.764" gradientUnits="userSpaceOnUse"><stop stop-color="#ED6D00"/><stop offset="1" stop-color="#FDD000"/></linearGradient><clipPath id="a"><path fill="#fff" d="M0 0h161v28H0z"/></clipPath></defs></svg>