<svg xmlns="http://www.w3.org/2000/svg" width="163" height="28" fill="none"><g clip-path="url(#a)"><path fill="#07B152" d="m22.55 14.003-2.166 6.53-1.751-6.53 1.751-6.536z"/><path fill="#007DC5" d="m30.952 14.003-3.01-6.536h-7.558l2.166 6.536z"/><path fill="#005387" d="m22.55 14.003-2.166 6.53h7.559l3.009-6.53z"/><path fill="#07B152" d="M18.633 0H9.316v9.333h9.317z"/><path fill="#007DC5" d="M9.316 9.333H0v9.334h9.316z"/><path fill="#07B152" d="M9.316 18.667H0V28h9.316z"/><path fill="#007DC5" d="M18.633 18.667H9.316V28h9.317z"/><path fill="#231F20" d="M39.188 8.839h3.529l1.863 4.702h1.923c-.099-.217-2.608-5.956-2.654-6.048h-5.787c-.04.092-2.528 5.83-2.627 6.048h1.91l1.85-4.703zM40.083 20.91h1.725v-4.724h5.13v-1.365H34.881v1.365h5.201zM59.44 16.582h-4.773v-3.04h3.825v-1.346H50.81V8.832h7.69V7.486h-9.435v6.062h3.845v3.04h-4.786v1.366h11.324V16.59zM63.285 15.923h-1.112v4.61h9.645v-1.345h-7.927v-2.652h1.113v-2.988h3.555v-1.365h-.665V7.486H61.08v1.346h5.09v3.344h-5.551v1.365h2.66v2.375z"/><path fill="#231F20" d="M69.87 16.965H71.6V7.124H69.87v2.288h-1.528v1.366h1.528zM79.87 7.473h-5.662v9.149h5.663zm-1.718 7.803H75.94v-6.45h2.212zM82.524 11.582h1.27v9.334h1.64V7.09h-1.64v3.16h-1.27V7.09h-1.508v13.442h1.508zM96.765 16.457h-5.754v-1.431h-1.692v5.507h9.184V7.097h-1.738v5.87H89.51V11.53h5.365V7.473h-6.992V8.82h5.366v1.398h-5.366v4.096h8.882zm0 2.73h-5.754v-1.385h5.754zM102.25 16.853c.026-.126 1.784-8.04 1.784-8.04h1.336l1.785 8.04h1.771l-1.857-8.04h1.508V7.466h-7.73v1.345h1.508l-1.863 8.04h1.771zM111.52 7.097h-1.738v13.806h1.738zM119.506 12.315h1.719V7.473h-7.328V8.82h5.609z"/><path fill="#231F20" d="M122.752 16.958h1.732v-6.12h1.514V9.491h-1.514V7.124h-1.732v6.497h-5.32v-2.982h-1.718v2.982h-2.068v1.345h9.106v1.999zM117.162 15.91h-1.639v4.623h9.06v-1.345h-7.335v-3.279h-.08600000000000001M135.795 20.91h1.738V7.096h-1.738v8.516h-6.373v-2.91h4.576V7.468h-6.203v1.365h4.576v2.52h-4.576v5.6h7.993v3.95zM147.238 12.236h1.574v-4.77h-8.691v1.346h7.117v3.424"/><path fill="#231F20" d="M149.687 12.836h-5.293v-2.23h-1.613v2.23h-3.371V14.2h10.277zM147.85 20.23c.731-.541 1.1-1.3 1.1-2.243s-.369-1.754-1.106-2.308c-.757-.568-1.87-.858-3.305-.858s-2.568.29-3.332.857c-.724.555-1.093 1.326-1.093 2.31 0 .982.369 1.7 1.093 2.242.771.58 1.89.87 3.332.87s2.541-.296 3.305-.87zm-6.103-2.25c0-.52.231-.943.698-1.292.52-.383 1.225-.574 2.094-.574q1.305 0 2.067.574c.481.35.711.771.711 1.293 0 .474-.237.877-.711 1.226-.52.383-1.218.574-2.074.574s-1.573-.191-2.094-.574c-.474-.35-.697-.752-.697-1.227zM154.336 8.819h1.139l1.678 8.258h1.785c-.046-.198-2.153-9.479-2.18-9.604h-3.72c-.026.125-2.106 9.413-2.153 9.604h1.758zM161.486 11.371H163V10.06h-1.514V7.104h-1.738v13.812h1.738z"/></g><defs><clipPath id="a"><path fill="#fff" d="M0 0h163v28H0z"/></clipPath></defs></svg>