<svg xmlns="http://www.w3.org/2000/svg" width="98" height="28" fill="none"><g clip-path="url(#a)"><path fill="#fff" d="M27.952 14c0 7.73-6.258 14-13.976 14C6.26 28 0 21.73 0 14S6.259 0 13.976 0s13.976 6.27 13.976 14"/><path fill="#003863" d="M20.532 13.023c-2.221-1.513-5.065-.899-6.56 1.377a4.63 4.63 0 0 1-3.852 2.137c-2.38 0-4-1.676-4.484-3.407 0 0-.01-.033-.014-.052l-.014-.055c-.19-.726-.237-1.066-.237-1.834 0-4.138 4.242-8.75 10.347-8.75 6.106 0 9.837 4.77 10.761 7.423a3 3 0 0 1-.046-.14C24.653 4.534 19.747.806 13.963.806 6.694.805.793 6.711.793 14c0 6.516 4.689 12.087 11.198 12.087 5.185 0 8.675-2.913 10.273-6.93.878-2.197.256-4.78-1.733-6.134"/><path fill="#E4032E" d="M26.558 10.114c-.771-2.588-4.377-7.68-10.84-7.68-6.105 0-10.347 4.612-10.347 8.75 0 .768.047 1.112.237 1.834a4 4 0 0 1-.12-.94c0-4.315 4.306-7.298 8.739-7.298 5.998 0 10.863 4.868 10.863 10.877 0 4.71-2.704 8.787-6.635 10.747a13.185 13.185 0 0 0 8.684-12.409c0-1.35-.181-2.541-.576-3.881"/><path fill="#575756" d="M34.104 9.723V8.336h7.578v1.387H38.51l3.47 8.238-1.37.596-2.667-6.446-2.625 6.544-1.413-.596 3.485-8.34h-3.29zm9.623-2.16h1.565v12.609h-1.565zM51.217 7.489l3.963 6.064-1.269.82-2.694-4.185-2.681 4.282-1.297-.819zm-2.807 7.903h10.06v4.663h-1.566V16.78H48.41zm8.494-7.829h1.565v7.08h-1.565zM60.486 9.723V8.336h6.152v1.387h-2.542l2.82 8.438-1.324.396-1.988-6.065-1.975 6.163-1.37-.396 2.834-8.536H60.48zm9.92-2.16h1.496v12.609h-1.496v-5.92H68.95v5.85h-1.454V7.582h1.454v5.232h1.455V7.562M77.222 7.489l3.865 6.46-1.268.763-2.597-4.496-2.57 4.594-1.296-.763zm-1.371 8.215v2.825h8.466v1.387H74.285v-4.212zm8.14-.075H82.44V7.56h1.552v2.969H85.8v1.54H83.99zM89.846 8.89V7.544h1.677V8.89h3.006v1.34h-3.187l3.443 7.745-1.297.581-2.792-6.385-2.778 6.488-1.325-.596 3.443-7.828H86.72v-1.34h3.131zm6.588 5.073H94.01v-1.401h2.425V7.558H98v12.609h-1.566z"/></g><defs><clipPath id="a"><path fill="#fff" d="M0 0h98v28H0z"/></clipPath></defs></svg>