<svg width="199" height="40" viewBox="0 0 199 40" fill="none" xmlns="http://www.w3.org/2000/svg">
<g clip-path="url(#clip0_199_8800)">
<path d="M30.9452 19.0872C27.4629 16.7245 23.004 17.6848 20.6555 21.2408C18.7072 24.212 15.7536 24.5781 14.6151 24.5781C10.8851 24.5781 8.34129 21.9634 7.58386 19.2536C7.57433 19.2251 7.56956 19.2013 7.5648 19.1776C7.55527 19.1443 7.55051 19.1158 7.54098 19.0872C7.24563 17.9558 7.16941 17.4186 7.16941 16.2158C7.16941 9.75042 13.8243 2.54813 23.3994 2.54813C32.9745 2.54813 38.8244 9.99762 40.2726 14.1431C40.244 14.067 40.2202 13.9957 40.1963 13.9244C37.4143 5.82363 29.7161 0 20.6508 0C9.2464 0 0 9.22272 0 20.6133C0 30.7915 7.3552 39.4961 17.5591 39.4961C25.6956 39.4961 31.1643 34.9465 33.6653 28.6713C35.042 25.2389 34.0702 21.2075 30.9452 19.0872Z" fill="#003863"/>
<path d="M40.4012 14.5424C39.1912 10.5015 33.5414 2.5481 23.3995 2.5481C13.8244 2.5481 7.16943 9.75038 7.16943 16.2158C7.16943 17.4138 7.24565 17.951 7.541 19.0872C7.41715 18.5928 7.35522 18.0984 7.35522 17.6182C7.35522 10.8818 14.115 6.21342 21.0605 6.21342C30.4688 6.21342 38.0908 13.8245 38.0908 23.2089C38.0908 30.5633 33.8463 36.9336 27.6868 39.9952C35.6327 37.1286 41.3063 29.5317 41.3063 20.6132C41.3063 18.5025 41.0205 16.6389 40.4012 14.5471V14.5424Z" fill="#E4032E"/>
<path d="M59.3132 22.4817V21.2504H51.1292V19.0493H70.1078V21.2504H61.8999V22.4817C62.1381 22.553 62.4001 22.6243 62.6336 22.7194C63.2481 22.9808 63.7959 23.3089 64.2723 23.7367C64.7486 24.1883 65.125 24.6828 65.4108 25.2532C65.6728 25.8475 65.8157 26.4608 65.8157 27.1263C65.8157 27.7919 65.6728 28.4051 65.4108 28.9709C65.125 29.5603 64.7439 30.0833 64.2723 30.5064C63.7959 30.9342 63.2528 31.286 62.6336 31.5237C61.9952 31.7852 61.3283 31.9041 60.6185 31.9041C59.9087 31.9041 59.218 31.7852 58.6034 31.5237C57.9651 31.286 57.4173 30.9295 56.9647 30.5064C56.4931 30.0833 56.112 29.5603 55.85 28.9709C55.5642 28.4004 55.4213 27.7871 55.4213 27.1263C55.4213 26.4655 55.5642 25.8475 55.85 25.2532C56.112 24.6828 56.4931 24.1883 56.9647 23.7367C57.4173 23.3089 57.9603 22.9808 58.6034 22.7194C58.8416 22.6243 59.0798 22.553 59.3132 22.4817ZM68.7788 12.7978H61.8047L69.1599 16.7056L67.9975 18.5977L60.6185 14.6661L53.2395 18.5977L52.0771 16.7056L59.4323 12.7978H52.4582V10.6205H68.7788V12.7978ZM63.2767 27.1263C63.2767 26.418 63.0147 25.7999 62.4954 25.2818C61.9476 24.7826 61.3331 24.5211 60.6185 24.5211C59.9039 24.5211 59.2894 24.7826 58.7702 25.2818C58.2223 25.7999 57.9651 26.418 57.9651 27.1263C57.9651 27.8347 58.2271 28.4527 58.7702 28.9471C59.2942 29.4653 59.9087 29.7267 60.6185 29.7267C61.3283 29.7267 61.9476 29.4653 62.4954 28.9471C63.0194 28.4479 63.2767 27.8347 63.2767 27.1263Z" fill="#575756"/>
<path d="M80.4785 27.1928V21.2741H83.0652V27.1928H91.2731V29.4652H72.2944V27.1928H80.4785ZM81.7838 14.6233L74.905 23.2185L72.9137 21.7257L81.7885 10.668L90.6634 21.7257L88.6721 23.2185L81.7933 14.6233H81.7838Z" fill="#575756"/>
<path d="M103.235 21.7496H94.2932V10.8106H96.737V13.7724H100.843V10.8106H103.239V21.7496H103.235ZM95.1697 30.5825V23.6939H97.7326V28.31H112.467V30.5825H95.1697ZM100.839 15.9735H96.7322V19.5485H100.839V15.9735ZM105.869 10.3828H108.289V23.4515H105.869V17.1525H103.711V14.9038H105.869V10.3828ZM109.804 10.3638H112.272V23.5751H109.804V10.3638Z" fill="#575756"/>
<path d="M120.294 12.5411V10.34H123.047V12.5411H127.982V14.7422H122.738L128.406 27.4068L126.272 28.3528L121.67 17.8893L117.116 28.5192L114.935 27.5494L120.603 14.7422H115.144V12.5411H120.294ZM131.112 20.8272H127.125V18.5548H131.112V10.3637H133.675V30.9865H131.112V20.832V20.8272Z" fill="#575756"/>
<path d="M147.109 28.2815H144.546V13.934H136.624V11.6378H147.109V28.2815ZM152.277 10.3638H154.84V30.9865H152.277V10.3638Z" fill="#575756"/>
<path d="M169.979 15.7595C169.979 16.4917 169.837 17.181 169.555 17.7942C169.246 18.436 168.846 18.978 168.346 19.4534C167.85 19.924 167.278 20.3043 166.612 20.5658C165.926 20.8511 165.211 20.9937 164.454 20.9937C163.696 20.9937 162.982 20.8511 162.319 20.5658C161.633 20.3043 161.038 19.924 160.562 19.4534C160.038 18.978 159.661 18.436 159.375 17.7942C159.066 17.181 158.923 16.4917 158.923 15.7595C158.923 15.0274 159.066 14.3619 159.375 13.7011C159.661 13.0878 160.038 12.5173 160.562 12.0419C161.038 11.5665 161.629 11.191 162.319 10.9057C162.986 10.6443 163.696 10.5016 164.454 10.5016C165.211 10.5016 165.926 10.6443 166.612 10.9057C167.274 11.191 167.845 11.5665 168.346 12.0419C168.846 12.5173 169.246 13.083 169.555 13.7011C169.841 14.3666 169.979 15.0512 169.979 15.7595ZM160.3 21.8684H162.815V23.808H173.967V21.8684H176.482V30.5825H160.304V21.8684H160.3ZM167.512 15.7595C167.512 14.9323 167.202 14.2192 166.635 13.606C166.021 13.0117 165.306 12.7075 164.477 12.7075C163.648 12.7075 162.91 13.0165 162.319 13.606C161.705 14.224 161.419 14.9323 161.419 15.7595C161.419 16.5867 161.705 17.3236 162.319 17.8893C162.915 18.5073 163.625 18.7878 164.477 18.7878C165.33 18.7878 166.021 18.5026 166.635 17.8893C167.202 17.3188 167.512 16.6105 167.512 15.7595ZM173.967 25.8903H162.815V28.4479H173.967V25.8903ZM170.646 14.6471H173.919V10.3638H176.482V21.2789H173.919V16.9005H170.646V14.6519V14.6471Z" fill="#575756"/>
<path d="M180.021 23.4087H199V25.6811H190.792V30.9818H188.206V25.6811H180.021V23.4087ZM184.075 13.3208H194.941V10.7156H197.481V20.6371H181.536V10.7156H184.075V13.3208ZM194.941 15.5456H184.075V18.3885H194.941V15.5456Z" fill="#575756"/>
</g>
<defs>
<clipPath id="clip0_199_8800">
<rect width="199" height="40" fill="white"/>
</clipPath>
</defs>
</svg>
