<svg width="228" height="40" viewBox="0 0 228 40" fill="none" xmlns="http://www.w3.org/2000/svg">
<rect width="227.914" height="40" fill="black"/>
<path d="M44.9055 13.2344V21.4219H42.9211V20.0312H39.718V18.4375H42.9211V17.0781H39.8586C38.9758 19.3281 36.9602 20.875 33.8274 21.7344L33.0461 20.1562C36.3196 19.2969 37.9211 17.7344 38.2024 15.7812H33.8118V14.1875H40.3743C40.3743 14.6484 40.343 15.0938 40.2805 15.5156H42.9211V13.2344H44.9055ZM40.1711 21.5938C43.0618 21.5938 44.9993 22.7031 45.0149 24.4688C44.9993 26.25 43.0618 27.375 40.1711 27.375C37.2493 27.375 35.2961 26.25 35.3118 24.4688C35.2961 22.7031 37.2493 21.5938 40.1711 21.5938ZM40.1711 23.1562C38.3743 23.1406 37.2961 23.5938 37.2961 24.4688C37.2961 25.3438 38.3743 25.7969 40.1711 25.7969C41.9368 25.7969 43.0149 25.3438 43.0149 24.4688C43.0149 23.5938 41.9368 23.1406 40.1711 23.1562ZM58.5264 13.2188V27.4375H56.5108V13.2188H58.5264ZM54.2608 14.7031C54.2608 19.0156 52.7451 22.5938 47.667 25L46.6201 23.4062C50.292 21.6719 51.9092 19.4219 52.2295 16.2656H47.3858V14.7031H54.2608ZM72.1316 13.2344V23.4531H70.1316V13.2344H72.1316ZM72.5066 25.5938V27.1875H62.6004V22.4219H64.616V25.5938H72.5066ZM64.3348 14.1406C66.5223 14.1406 68.2254 15.6406 68.2254 17.7188C68.2254 19.8438 66.5223 21.3281 64.3348 21.3281C62.1473 21.3281 60.4441 19.8438 60.4441 17.7188C60.4441 15.6406 62.1473 14.1406 64.3348 14.1406ZM64.3348 15.875C63.2254 15.8594 62.3816 16.5625 62.3973 17.7188C62.3816 18.9062 63.2254 19.5938 64.3348 19.5938C65.4129 19.5938 66.2566 18.9062 66.2566 17.7188C66.2566 16.5625 65.4129 15.8594 64.3348 15.875ZM79.1119 16.5625C79.1119 18.1562 80.1588 19.7969 82.4713 20.5L81.5181 22.0469C79.9244 21.5938 78.7994 20.6172 78.1588 19.375C77.5259 20.7188 76.3931 21.7734 74.7525 22.2812L73.7838 20.7188C76.0963 20.0312 77.1275 18.2969 77.1275 16.5625V16.4531H74.2681V14.8906H77.1275V13.3125H79.1431V14.8906H81.9869V16.4531H79.1119V16.5625ZM85.8619 13.2344V23.7812H83.8775V18.9844H81.5181V17.375H83.8775V13.2344H85.8619ZM86.2056 25.5938V27.1875H76.4244V22.875H78.4244V25.5938H86.2056ZM99.4828 13.2188V27.4375H97.4671V13.2188H99.4828ZM95.2171 14.7031C95.2171 19.0156 93.7015 22.5938 88.6234 25L87.5765 23.4062C91.2484 21.6719 92.8656 19.4219 93.1859 16.2656H88.3421V14.7031H95.2171ZM113.51 13.2188V27.4375H111.635V13.2188H113.51ZM110.541 13.5312V26.8125H108.651V22.125H106.635V20.5156H108.651V18.5781H106.901C106.236 20.9219 104.799 22.9062 102.135 24.4844L100.963 23.0781C103.846 21.375 105.111 19.3047 105.385 16.5156H101.791V14.9062H107.369C107.369 15.6172 107.322 16.3047 107.244 16.9688H108.651V13.5312H110.541ZM121.24 22.0781C124.35 22.0781 126.303 23.0625 126.318 24.7656C126.303 26.4375 124.35 27.4375 121.24 27.4375C118.162 27.4375 116.178 26.4375 116.178 24.7656C116.178 23.0625 118.162 22.0781 121.24 22.0781ZM121.24 23.5625C119.287 23.5625 118.162 23.9688 118.162 24.7656C118.162 25.5312 119.287 25.9219 121.24 25.9219C123.193 25.9219 124.334 25.5312 124.334 24.7656C124.334 23.9688 123.193 23.5625 121.24 23.5625ZM126.24 13.8594V15.0156C126.24 16.1406 126.24 17.3594 125.834 18.8281L123.881 18.6406C124.193 17.3516 124.232 16.3906 124.256 15.4219H116.318V13.8594H126.24ZM127.771 19.5625V21.1719H114.865V19.5625H119.709V17.0781H121.678V19.5625H127.771ZM132.455 13.8281C134.275 13.8125 135.72 14.8516 136.111 16.375H138.486V13.2188H140.47V20.8594H138.486V17.9688H136.127C135.752 19.5312 134.291 20.5938 132.455 20.5938C130.267 20.5938 128.658 19.1719 128.674 17.1875C128.658 15.2344 130.267 13.8125 132.455 13.8281ZM132.455 15.4844C131.345 15.4688 130.549 16.125 130.564 17.1875C130.549 18.25 131.345 18.9219 132.455 18.9219C133.533 18.9219 134.314 18.25 134.314 17.1875C134.314 16.125 133.533 15.4688 132.455 15.4844ZM132.955 21.4844V22.8594H138.486V21.4844H140.47V27.2812H130.986V21.4844H132.955ZM132.955 25.6719H138.486V24.3906H132.955V25.6719ZM150.076 14.4531V16.0156H142.169V14.4531H145.232V13.0938H147.216V14.4531H150.076ZM146.201 16.4219C148.154 16.4219 149.56 17.4844 149.576 19.0156C149.56 20.5469 148.154 21.5938 146.201 21.5938C144.232 21.5938 142.857 20.5469 142.873 19.0156C142.857 17.4844 144.232 16.4219 146.201 16.4219ZM146.201 17.9062C145.294 17.9062 144.716 18.2969 144.732 19.0156C144.716 19.7344 145.294 20.1406 146.201 20.1406C147.091 20.1406 147.716 19.7344 147.716 19.0156C147.716 18.2969 147.091 17.9062 146.201 17.9062ZM154.123 13.2188V21.6875H152.138V20.6562H150.201V19.0625H152.138V17.8594H150.232V16.25H152.138V13.2188H154.123ZM146.529 22.2188V23.2656H152.154V22.2188H154.123V27.2812H144.529V22.2188H146.529ZM146.529 25.75H152.154V24.75H146.529V25.75ZM168.79 19.9375V21.5H155.79V19.9375H161.322V18.7188H157.368V13.8438H167.228V15.3906H159.353V17.1562H167.306V18.7188H163.275V19.9375H168.79ZM162.259 22.2188C165.337 22.2188 167.197 23.1562 167.212 24.8438C167.197 26.5 165.337 27.4531 162.259 27.4531C159.15 27.4531 157.275 26.5 157.275 24.8438C157.275 23.1562 159.15 22.2188 162.259 22.2188ZM162.259 23.7344C160.29 23.7344 159.29 24.1094 159.306 24.8438C159.29 25.5938 160.29 25.9375 162.259 25.9375C164.181 25.9375 165.197 25.5938 165.212 24.8438C165.197 24.1094 164.181 23.7344 162.259 23.7344ZM182.458 24.1719V25.7812H169.442V24.1719H174.942V21H176.942V24.1719H182.458ZM181.317 14.2969V15.9062H176.989C177.153 17.7812 178.919 19.5234 181.974 19.9688L181.192 21.5469C178.7 21.1094 176.856 19.8906 175.942 18.2031C175.036 19.9219 173.208 21.1719 170.755 21.625L169.974 20.0469C172.927 19.5703 174.7 17.7891 174.864 15.9062H170.521V14.2969H181.317ZM194.376 13.2188V16.6406H196.298V18.2969H194.376V21.5469H192.376V13.2188H194.376ZM187.048 22.0938V23.1719H192.376V22.0938H194.376V27.2812H185.063V22.0938H187.048ZM187.048 25.7188H192.376V24.7031H187.048V25.7188ZM191.532 14.4688V16.0312H183.094V14.4688H186.329V13.125H188.313V14.4688H191.532ZM187.313 16.4375C189.376 16.4375 190.813 17.4375 190.813 18.9531C190.813 20.4688 189.376 21.4688 187.313 21.4688C185.219 21.4688 183.782 20.4688 183.782 18.9531C183.782 17.4375 185.219 16.4375 187.313 16.4375ZM187.313 17.9062C186.36 17.8906 185.719 18.2812 185.735 18.9531C185.719 19.6406 186.36 20.0156 187.313 20.0156C188.266 20.0156 188.923 19.6406 188.923 18.9531C188.923 18.2812 188.266 17.8906 187.313 17.9062Z" fill="white"/>
</svg>
