<svg width="228" height="40" viewBox="0 0 228 40" fill="none" xmlns="http://www.w3.org/2000/svg">
<rect width="227.914" height="40" fill="black"/>
<path d="M64.1806 13.2344V17.5938H66.1024V19.2188H64.1806V23.8438H62.1806V13.2344H64.1806ZM61.3368 14.7188V16.2969H52.8993V14.7188H56.1337V13.2031H58.1181V14.7188H61.3368ZM57.1181 16.7969C59.1806 16.7969 60.6181 17.9062 60.6181 19.5469C60.6181 21.1875 59.1806 22.2656 57.1181 22.2656C55.0399 22.2656 53.5868 21.1875 53.5868 19.5469C53.5868 17.9062 55.0399 16.7969 57.1181 16.7969ZM57.1181 18.3125C56.1649 18.3281 55.5243 18.7656 55.5399 19.5469C55.5243 20.3281 56.1649 20.75 57.1181 20.75C58.0712 20.75 58.7274 20.3281 58.7274 19.5469C58.7274 18.7656 58.0712 18.3281 57.1181 18.3125ZM64.6962 25.5938V27.1875H54.9618V23.0312H56.9462V25.5938H64.6962ZM78.0202 13.8438V14.9531C78.0202 16 78.0202 17.2031 77.7389 18.7344H79.5671V20.3281H74.0358V22.375H78.0358V27.4375H76.0358V23.9375H67.8639V22.375H72.0358V20.3281H66.5514V18.7344H75.7233C75.9889 17.4062 76.028 16.3594 76.0358 15.4219H68.1452V13.8438H78.0202ZM85.4536 17.0938C85.4379 19.2656 86.5942 21.7656 88.9379 22.8438L87.8286 24.4062C86.2426 23.6797 85.1098 22.2266 84.4848 20.5156C83.8442 22.3984 82.6801 23.9922 81.0317 24.7656L79.8754 23.1875C82.2504 22.0781 83.4379 19.4375 83.4536 17.0938V16.2188H80.4379V14.5938H88.3129V16.2188H85.4536V17.0938ZM91.4223 13.2188V18.6406H93.5161V20.3125H91.4223V27.4375H89.4223V13.2188H91.4223ZM106.856 19.9375V21.5H93.8557V19.9375H99.3869V18.7188H95.4338V13.8438H105.293V15.3906H97.4182V17.1562H105.371V18.7188H101.34V19.9375H106.856ZM100.324 22.2188C103.403 22.2188 105.262 23.1562 105.278 24.8438C105.262 26.5 103.403 27.4531 100.324 27.4531C97.2151 27.4531 95.3401 26.5 95.3401 24.8438C95.3401 23.1562 97.2151 22.2188 100.324 22.2188ZM100.324 23.7344C98.3557 23.7344 97.3557 24.1094 97.3713 24.8438C97.3557 25.5938 98.3557 25.9375 100.324 25.9375C102.246 25.9375 103.262 25.5938 103.278 24.8438C103.262 24.1094 102.246 23.7344 100.324 23.7344ZM112.648 17.6719C112.648 19.6875 113.695 21.9844 115.961 23.0469L114.852 24.5469C113.336 23.8672 112.281 22.5234 111.68 20.9375C111.07 22.6484 109.945 24.0938 108.336 24.7969L107.242 23.25C109.555 22.2344 110.664 19.8125 110.68 17.6719V17.125H107.742V15.5312H110.664V13.5312H112.664V15.5312H115.555V17.125H112.648V17.6719ZM118.727 13.2188V18.7344H120.82V20.4062H118.727V27.4375H116.727V13.2188H118.727ZM132.535 13.2188V17.8906H134.347V19.5312H132.535V24.3125H130.535V13.2188H132.535ZM133.019 25.5938V27.1875H123.004V23.5781H125.004V25.5938H133.019ZM121.004 21.3906C122.027 21.3906 123.215 21.3828 124.457 21.3438V20.5156C122.91 20.3047 121.941 19.5312 121.957 18.4219C121.941 17.0156 123.332 16.1875 125.441 16.2031C127.535 16.1875 128.91 17.0156 128.926 18.4219C128.91 19.5234 127.965 20.2969 126.441 20.5156V21.25C127.613 21.1797 128.785 21.0703 129.879 20.9062L130.019 22.2812C127.019 22.8594 123.66 22.8906 121.207 22.9219L121.004 21.3906ZM129.519 14.375V15.7969H121.379V14.375H124.457V13.1719H126.441V14.375H129.519ZM125.441 17.5312C124.426 17.5312 123.847 17.8125 123.863 18.4219C123.847 18.9531 124.426 19.25 125.441 19.25C126.441 19.25 127.004 18.9531 127.019 18.4219C127.004 17.8125 126.441 17.5312 125.441 17.5312ZM146.796 13.2344V21.4219H144.812V20.0312H141.609V18.4375H144.812V17.0781H141.75C140.867 19.3281 138.851 20.875 135.718 21.7344L134.937 20.1562C138.21 19.2969 139.812 17.7344 140.093 15.7812H135.703V14.1875H142.265C142.265 14.6484 142.234 15.0938 142.171 15.5156H144.812V13.2344H146.796ZM142.062 21.5938C144.953 21.5938 146.89 22.7031 146.906 24.4688C146.89 26.25 144.953 27.375 142.062 27.375C139.14 27.375 137.187 26.25 137.203 24.4688C137.187 22.7031 139.14 21.5938 142.062 21.5938ZM142.062 23.1562C140.265 23.1406 139.187 23.5938 139.187 24.4688C139.187 25.3438 140.265 25.7969 142.062 25.7969C143.828 25.7969 144.906 25.3438 144.906 24.4688C144.906 23.5938 143.828 23.1406 142.062 23.1562ZM156.402 14.4531V16.0156H148.495V14.4531H151.558V13.0938H153.542V14.4531H156.402ZM152.527 16.4219C154.48 16.4219 155.886 17.4844 155.902 19.0156C155.886 20.5469 154.48 21.5938 152.527 21.5938C150.558 21.5938 149.183 20.5469 149.199 19.0156C149.183 17.4844 150.558 16.4219 152.527 16.4219ZM152.527 17.9062C151.62 17.9062 151.042 18.2969 151.058 19.0156C151.042 19.7344 151.62 20.1406 152.527 20.1406C153.417 20.1406 154.042 19.7344 154.042 19.0156C154.042 18.2969 153.417 17.9062 152.527 17.9062ZM160.449 13.2188V21.6875H158.464V20.6562H156.527V19.0625H158.464V17.8594H156.558V16.25H158.464V13.2188H160.449ZM152.855 22.2188V23.2656H158.48V22.2188H160.449V27.2812H150.855V22.2188H152.855ZM152.855 25.75H158.48V24.75H152.855V25.75ZM174.069 13.2188V27.4375H172.085V13.2188H174.069ZM162.179 23.4219C163.265 23.4141 164.507 23.4141 165.804 23.375V22.1719C164.241 21.8984 163.226 20.9297 163.241 19.5938C163.226 18 164.679 16.9219 166.773 16.9219C168.882 16.9219 170.351 18 170.351 19.5938C170.351 20.9219 169.335 21.8906 167.773 22.1719V23.3125C168.96 23.2578 170.163 23.1641 171.304 23.0156L171.444 24.4844C168.335 25.0156 164.976 25.0469 162.444 25.0469L162.179 23.4219ZM171.101 14.7969V16.3594H162.46V14.7969H165.804V13.2812H167.788V14.7969H171.101ZM166.773 18.4375C165.804 18.4375 165.116 18.8594 165.132 19.5938C165.116 20.3438 165.804 20.75 166.773 20.75C167.773 20.75 168.444 20.3438 168.444 19.5938C168.444 18.8594 167.773 18.4375 166.773 18.4375Z" fill="white"/>
</svg>
