<svg width="219" height="40" viewBox="0 0 219 40" fill="none" xmlns="http://www.w3.org/2000/svg">
<g clip-path="url(#clip0_199_8803)">
<path d="M74.6256 17.0287L72.8702 17.0192V16.9812V10.3636H69.3121V22.1535H61.266L61.285 15.3363L67.5378 15.3078V11.9515H57.8787V25.5574H69.3121V31.0625H72.8702V20.347V20.3375L74.6256 20.3565V31.0625H78.1457V10.3636H74.6256V17.0287Z" fill="#010101"/>
<path d="M99.6748 13.2446V10.3922H96.1072V22.7716H99.6748C99.6748 22.7716 99.6748 16.6485 99.6748 16.6389H103.385V13.2446C103.385 13.2446 99.7222 13.2541 99.6748 13.2446Z" fill="#010101"/>
<path d="M144.592 19.4628V10.3922H131.622V13.72H141.101V19.4628H138.055V16.0875H134.478V19.4628H127.722V22.9332H133.453C133.036 23.7414 132.817 24.6351 132.817 25.605C132.817 27.2118 133.396 28.6095 134.554 29.7599C135.702 30.9104 137.097 31.4999 138.7 31.4999C140.304 31.4999 141.717 30.9104 142.866 29.7599C144.004 28.6095 144.583 27.2118 144.583 25.605C144.583 24.6351 144.374 23.7414 143.957 22.9332H148.596V19.4628H144.583H144.592ZM140.569 27.478C140.047 27.9914 139.44 28.2482 138.71 28.2482C137.979 28.2482 137.362 27.9914 136.85 27.478C136.338 26.9551 136.081 26.3466 136.081 25.6145C136.081 24.8823 136.338 24.2643 136.85 23.7319C137.372 23.2089 137.979 22.9522 138.71 22.9522C139.44 22.9522 140.047 23.2089 140.569 23.7319C141.091 24.2643 141.338 24.8728 141.338 25.6145C141.338 26.3561 141.082 26.9551 140.569 27.478Z" fill="#010101"/>
<path d="M166.482 15.4314V23.247H160.922V22.2106C161.937 21.8493 162.782 21.2313 163.446 20.366C164.148 19.4533 164.499 18.3789 164.499 17.1999C164.499 16.7435 164.451 16.3061 164.338 15.8973C164.281 15.6596 164.176 15.4409 164.081 15.2127H165.457V11.942H161.036V9.6886H157.468V11.942H152.743V15.2127C152.743 15.2127 154.128 15.2127 154.261 15.2127C154.176 15.4409 154.071 15.6501 154.005 15.8878C153.9 16.2966 153.853 16.7245 153.853 17.1904C153.853 18.3979 154.214 19.4723 154.916 20.3851C155.589 21.2598 156.462 21.8873 157.487 22.2391V23.2374H152.041V26.5938H166.473V31.053H170.031V10.3922H166.473C166.473 10.3922 166.454 14.4521 166.473 15.4314H166.482ZM159.185 19.2441C158.645 19.2441 158.199 19.0539 157.81 18.6641C157.421 18.2743 157.231 17.8274 157.231 17.2855C157.231 16.7435 157.421 16.2966 157.81 15.9068C158.199 15.517 158.645 15.3268 159.185 15.3268C159.726 15.3268 160.172 15.517 160.561 15.9068C160.95 16.2966 161.14 16.7435 161.14 17.2855C161.14 17.8274 160.95 18.2743 160.561 18.6641C160.172 19.0539 159.726 19.2441 159.185 19.2441Z" fill="#010101"/>
<path d="M181.625 22.2867C183.333 22.2867 184.804 21.6686 186.009 20.4516C187.214 19.2346 187.821 17.7609 187.821 16.078C187.821 14.3951 187.214 12.8928 186.009 11.6853C184.804 10.4778 183.333 9.86926 181.625 9.86926C179.917 9.86926 178.475 10.4778 177.261 11.6853C176.046 12.8928 175.429 14.3665 175.429 16.078C175.429 17.7894 176.046 19.2346 177.251 20.4516C178.466 21.6686 179.936 22.2772 181.616 22.2772L181.625 22.2867ZM179.661 14.1003C180.202 13.5393 180.847 13.2731 181.616 13.2731C182.384 13.2731 183.03 13.5393 183.57 14.1003C184.121 14.6613 184.386 15.3078 184.386 16.078C184.386 16.8481 184.121 17.4946 183.58 18.0366C183.039 18.5786 182.394 18.8448 181.625 18.8448C180.857 18.8448 180.212 18.5786 179.661 18.0366C179.12 17.4946 178.855 16.8481 178.855 16.078C178.855 15.3078 179.12 14.6518 179.661 14.1003Z" fill="#010101"/>
<path d="M190.222 23.2755H175.154V26.7459H190.222V31.129H193.856V10.3636H190.222V23.2755Z" fill="#010101"/>
<path d="M210.403 25.2531V21.6495H206.826V25.2531H198.135V28.6474H219.019V25.2531C219.019 25.2531 210.451 25.2531 210.413 25.2531H210.403Z" fill="#010101"/>
<path d="M91.344 21.2027C92.3782 20.1663 92.9095 18.8828 92.9095 17.409C92.9095 16.8195 92.8241 16.2681 92.6628 15.7451C92.549 15.4029 92.3972 15.0796 92.2264 14.7753H93.4599V11.7423H89.1427V9.58398H85.9831C85.9831 9.58398 85.9831 11.7138 85.9831 11.7423C85.9261 11.7423 81.552 11.7423 81.552 11.7423V14.8039H82.8899C82.7286 15.0986 82.5862 15.4124 82.4724 15.7451C82.2921 16.2681 82.2067 16.8291 82.2067 17.4185C82.2067 18.8923 82.7286 20.1759 83.7723 21.2122C84.816 22.2581 86.0874 22.781 87.5581 22.781C89.0288 22.781 90.3002 22.2486 91.344 21.2122V21.2027ZM85.4897 17.4471C85.4897 16.2871 86.429 15.3363 87.5961 15.3363C88.7631 15.3363 89.7025 16.2776 89.7025 17.4471C89.7025 18.6165 88.7631 19.5578 87.5961 19.5578C86.429 19.5578 85.4897 18.6165 85.4897 17.4471Z" fill="#010101"/>
<path d="M90.86 27.6776V23.922H87.4158V31.0625H99.6937V27.6776C99.6937 27.6776 90.898 27.7062 90.86 27.6776Z" fill="#010101"/>
<path d="M122.779 14.0147V10.3922H119.221V19.767L118.67 19.3392C118.67 19.3392 116.222 17.2189 115.331 16.4012C114.439 15.5835 113.689 14.7373 113.689 14.7183C113.746 14.338 113.926 13.5203 113.926 12.4935V10.3827H110.093V12.4935C110.093 15.2032 108.129 16.8386 107.351 17.5992C106.563 18.3599 104.21 19.9667 104.21 19.9667L106.44 22.4578C106.44 22.4578 108.319 21.2693 109.305 20.4231C110.245 19.6244 111.061 18.7877 111.753 17.932C112.332 18.4645 113.433 19.3962 114.439 20.2329C113.822 20.5182 113.253 20.908 112.74 21.4309C111.592 22.5719 111.004 23.9791 111.004 25.6049C111.004 27.2308 111.583 28.6095 112.74 29.7599C113.888 30.9104 115.293 31.4999 116.887 31.4999C118.481 31.4999 119.904 30.9104 121.052 29.7599C122.191 28.6095 122.769 27.2118 122.769 25.6049V17.3806H126.47V14.0052H122.769L122.779 14.0147ZM118.756 27.478C118.234 27.9914 117.627 28.2482 116.896 28.2482C116.165 28.2482 115.549 27.9914 115.036 27.478C114.515 26.9551 114.268 26.3466 114.268 25.6144C114.268 24.8823 114.524 24.2643 115.036 23.7319C115.558 23.2089 116.165 22.9522 116.896 22.9522C117.627 22.9522 118.234 23.2089 118.756 23.7319C119.278 24.2643 119.524 24.8728 119.524 25.6144C119.524 26.3561 119.268 26.9551 118.756 27.478Z" fill="#010101"/>
<path d="M208.439 17.1238C210.925 19.7005 215.318 22.0585 215.318 22.0585L217.491 19.3107C213.136 16.8671 211.087 14.8514 210.28 13.9197C210.498 13.2446 210.622 12.5315 210.622 11.7994V10.2971H206.845V11.7043C206.845 12.3699 206.912 15.3934 199.833 19.3297L202.187 21.8683C202.187 21.8683 205.934 20.1093 208.439 17.1238Z" fill="#010101"/>
<path d="M54.5105 0.019043H18.7395V39.962H54.5105V0.019043Z" fill="url(#paint0_linear_199_8803)"/>
<path d="M29.3947 2.49112C29.7458 2.49112 30.0399 2.18687 30.0399 1.81606C30.0399 1.44525 29.7553 1.14099 29.3947 1.14099C29.0342 1.14099 28.7495 1.44525 28.7495 1.81606C28.7495 2.18687 29.0342 2.49112 29.3947 2.49112Z" fill="white"/>
<path d="M36.9663 22.6385C36.9663 22.8001 37.0897 22.9332 37.2415 22.9332C37.3838 22.9332 37.5166 22.8001 37.5166 22.6385C37.5166 22.4769 37.3933 22.3438 37.2415 22.3438C37.0897 22.3438 36.9663 22.4769 36.9663 22.6385Z" fill="white"/>
<path d="M37.2794 28.4668C37.1086 28.4668 36.9568 28.6189 36.9568 28.8091C36.9568 28.9992 37.0991 29.1419 37.2794 29.1419C37.4597 29.1419 37.602 28.9897 37.602 28.8091C37.602 28.6284 37.4597 28.4668 37.2794 28.4668Z" fill="white"/>
<path d="M31.3302 7.4447C31.074 7.4447 30.8748 7.65388 30.8748 7.9201C30.8748 8.18632 31.074 8.40501 31.3302 8.40501C31.5579 8.40501 31.7856 8.18632 31.7856 7.9201C31.7856 7.65388 31.5864 7.4447 31.3302 7.4447Z" fill="white"/>
<path d="M35.7614 18.3028C35.7614 18.027 35.5527 17.8083 35.2965 17.8083C35.0403 17.8083 34.8315 18.027 34.8315 18.3028C34.8315 18.5785 35.0403 18.7972 35.2965 18.7972C35.5242 18.7972 35.7614 18.5785 35.7614 18.3028Z" fill="white"/>
<path d="M35.287 23.3515C35.5812 23.3515 35.8658 23.0758 35.8658 22.7335C35.8658 22.3912 35.6096 22.125 35.287 22.125C34.9644 22.125 34.7083 22.4007 34.7083 22.7335C34.7083 23.0663 34.9644 23.3515 35.287 23.3515Z" fill="white"/>
<path d="M35.0876 20.5657C35.0876 20.6988 35.192 20.8129 35.3249 20.8129C35.4387 20.8129 35.5526 20.6988 35.5526 20.5657C35.5526 20.4326 35.4482 20.3185 35.3249 20.3185C35.2015 20.3185 35.0876 20.4326 35.0876 20.5657Z" fill="white"/>
<path d="M33.266 20.0048C32.9814 20.0048 32.7537 20.2425 32.7537 20.5372C32.7537 20.832 32.9814 21.0792 33.266 21.0792C33.5222 21.0792 33.7689 20.832 33.7689 20.5372C33.7689 20.2425 33.5412 20.0048 33.266 20.0048Z" fill="white"/>
<path d="M37.4978 18.3884C37.4978 18.2648 37.4029 18.1697 37.2891 18.1697C37.1752 18.1697 37.0803 18.2648 37.0803 18.3884C37.0803 18.512 37.1752 18.607 37.2891 18.607C37.3934 18.607 37.4978 18.512 37.4978 18.3884Z" fill="white"/>
<path d="M37.2226 12.579C37.4123 12.579 37.5926 12.3983 37.5926 12.1891C37.5926 11.98 37.4218 11.7993 37.2226 11.7993C37.0233 11.7993 36.8525 11.98 36.8525 12.1891C36.8525 12.3983 37.0233 12.5885 37.2226 12.579Z" fill="white"/>
<path d="M37.2225 14.8038C37.4882 14.8038 37.7444 14.5471 37.7444 14.2429C37.7444 13.9386 37.5072 13.6819 37.2225 13.6819C36.9379 13.6819 36.7007 13.9291 36.7007 14.2429C36.7007 14.5566 36.9379 14.8038 37.2225 14.8038Z" fill="white"/>
<path d="M37.6875 16.2491C37.6875 15.9829 37.4883 15.7737 37.2416 15.7737C36.9949 15.7737 36.7861 15.9924 36.7861 16.2491C36.7861 16.5058 36.9854 16.734 37.2416 16.7245C37.4693 16.7245 37.6875 16.5058 37.6875 16.2491Z" fill="white"/>
<path d="M23.4171 2.17725C23.6638 2.17725 23.8631 1.96808 23.8631 1.70185C23.8631 1.43563 23.6638 1.23596 23.4171 1.23596C23.1704 1.23596 22.9712 1.44514 22.9712 1.70185C22.9712 1.95857 23.1704 2.17725 23.4171 2.17725Z" fill="white"/>
<path d="M25.5138 2.17734C25.7226 2.17734 25.8839 1.99669 25.8839 1.77801C25.8839 1.55933 25.7226 1.38818 25.5138 1.38818C25.3051 1.38818 25.1438 1.56883 25.1438 1.77801C25.1438 1.98719 25.3146 2.17734 25.5138 2.17734Z" fill="white"/>
<path d="M31.3492 9.6886C31.131 9.6886 30.9602 9.86925 30.9602 10.0974C30.9602 10.3256 31.131 10.5158 31.3492 10.5063C31.539 10.5063 31.7382 10.3256 31.7382 10.0974C31.7382 9.86925 31.5675 9.6886 31.3492 9.6886Z" fill="white"/>
<path d="M33.3987 10.4777C33.579 10.4777 33.7497 10.3066 33.7497 10.1069C33.7497 9.90723 33.5884 9.73608 33.3987 9.73608C33.2089 9.73608 33.0476 9.89772 33.0476 10.1069C33.0476 10.3161 33.2089 10.4777 33.3987 10.4777Z" fill="white"/>
<path d="M35.3439 10.4207C35.4958 10.4207 35.6381 10.2781 35.6381 10.107C35.6381 9.93583 35.5052 9.79321 35.3439 9.79321C35.1826 9.79321 35.0498 9.93583 35.0498 10.107C35.0498 10.2781 35.1826 10.4207 35.3439 10.4207Z" fill="white"/>
<path d="M33.3417 4.02191C33.4651 4.02191 33.5695 3.90781 33.5695 3.78421C33.5695 3.6606 33.4651 3.54651 33.3417 3.54651C33.2184 3.54651 33.114 3.6511 33.114 3.78421C33.114 3.91732 33.2089 4.02191 33.3417 4.02191Z" fill="white"/>
<path d="M33.3417 6.09454C33.4651 6.09454 33.5695 5.98995 33.5695 5.85684C33.5695 5.72373 33.4651 5.61914 33.3417 5.61914C33.2184 5.61914 33.114 5.72373 33.114 5.85684C33.114 5.98995 33.2089 6.09454 33.3417 6.09454Z" fill="white"/>
<path d="M31.3493 2.17734C31.558 2.17734 31.7193 1.99669 31.7193 1.77801C31.7193 1.55933 31.558 1.38818 31.3493 1.38818C31.1405 1.38818 30.9792 1.56883 30.9792 1.77801C30.9792 1.98719 31.1405 2.17734 31.3493 2.17734Z" fill="white"/>
<path d="M27.5065 2.44351C27.8291 2.44351 28.1042 2.15828 28.1042 1.81599C28.1042 1.4737 27.8385 1.17896 27.5065 1.17896C27.1744 1.17896 26.9087 1.46419 26.9087 1.81599C26.9087 2.16778 27.1744 2.44351 27.5065 2.44351Z" fill="white"/>
<path d="M37.2132 25.2151C37.4788 25.2151 37.6971 24.9869 37.6971 24.7017C37.6971 24.4164 37.4788 24.1882 37.2132 24.1882C36.9475 24.1882 36.7292 24.4164 36.7292 24.7017C36.7292 24.9869 36.9475 25.2151 37.2132 25.2151Z" fill="white"/>
<path d="M37.2416 26.2134C36.957 26.2134 36.7292 26.4511 36.7292 26.7553C36.7292 27.0596 36.957 27.2878 37.2416 27.2878C37.5263 27.2878 37.7445 27.0501 37.7445 26.7553C37.7445 26.4606 37.5168 26.2134 37.2416 26.2134Z" fill="white"/>
<path d="M23.4644 36.5011C23.1229 36.5011 22.8572 36.7863 22.8572 37.1476C22.8572 37.5089 23.1323 37.7942 23.4644 37.7942C23.7965 37.7942 24.0717 37.5089 24.0717 37.1476C24.0717 36.7863 23.7965 36.5011 23.4644 36.5011Z" fill="white"/>
<path d="M35.2963 28.134C34.9737 28.134 34.7175 28.4098 34.7175 28.7521C34.7175 29.0943 34.9737 29.3701 35.2963 29.3701C35.6189 29.3701 35.8751 29.0943 35.8751 28.7521C35.8751 28.4098 35.6189 28.134 35.2963 28.134Z" fill="white"/>
<path d="M31.6813 30.9199C31.6813 30.7107 31.52 30.53 31.3208 30.53C31.1215 30.53 30.9602 30.7012 30.9602 30.9199C30.9602 31.1385 31.1215 31.3002 31.3208 31.3002C31.52 31.3002 31.6813 31.129 31.6813 30.9199Z" fill="white"/>
<path d="M30.7896 33.1257C30.7896 33.4205 31.0173 33.6582 31.2924 33.6582C31.5676 33.6582 31.7953 33.4205 31.7953 33.1257C31.7953 32.831 31.5676 32.5933 31.2924 32.5933C31.0173 32.5933 30.7896 32.831 30.7896 33.1257Z" fill="white"/>
<path d="M31.2734 36.5581C30.9603 36.5581 30.7136 36.8243 30.7136 37.1571C30.7136 37.4899 30.9603 37.7466 31.2734 37.7466C31.5865 37.7466 31.8332 37.4804 31.8332 37.1571C31.8332 36.8338 31.5865 36.5581 31.2734 36.5581Z" fill="white"/>
<path d="M33.3325 36.986C33.2091 36.986 33.1047 37.0905 33.1047 37.2237C33.1047 37.3568 33.2091 37.4614 33.3325 37.4614C33.4558 37.4614 33.5602 37.3568 33.5602 37.2237C33.5602 37.0905 33.4558 36.986 33.3325 36.986Z" fill="white"/>
<path d="M33.3133 34.8942C33.171 34.8942 33.0667 35.0083 33.0667 35.1604C33.0667 35.3125 33.1805 35.4266 33.3133 35.4266C33.4462 35.4266 33.56 35.3125 33.56 35.1604C33.56 35.0083 33.4462 34.8942 33.3133 34.8942Z" fill="white"/>
<path d="M33.3988 30.6251C33.266 30.6251 33.1521 30.7392 33.1521 30.8913C33.1521 31.0435 33.266 31.1576 33.3988 31.1576C33.5316 31.1576 33.6455 31.0435 33.6455 30.8913C33.6455 30.7392 33.5316 30.6251 33.3988 30.6251Z" fill="white"/>
<path d="M35.3819 30.6821C35.268 30.6821 35.1826 30.7772 35.1826 30.8913C35.1826 31.0054 35.268 31.1005 35.3819 31.1005C35.4957 31.1005 35.5716 31.0054 35.5716 30.8913C35.5716 30.7772 35.4862 30.6821 35.3819 30.6821Z" fill="white"/>
<path d="M35.5241 13.2065C35.5241 13.2065 35.5241 13.1685 35.5241 13.1495C35.5241 12.7311 35.8562 12.7121 35.9227 12.2843C35.9986 11.8184 35.5526 11.3145 35.0023 11.6092C34.7935 11.7233 34.6797 11.9135 34.6797 12.1797C34.6797 12.6075 35.0118 12.6646 35.0118 13.0734C35.0118 13.4157 34.7651 13.7485 34.4235 13.7485C33.9775 13.7485 33.7593 13.4347 33.7593 13.0354C33.7593 12.6931 34.1483 12.522 34.1483 12.1417C34.1483 11.7233 33.8827 11.4381 33.4652 11.4381C33.0002 11.4381 32.8579 12.0561 32.3835 12.0561C31.966 12.0561 31.8332 11.4571 31.3967 11.4571C30.8938 11.4571 30.9887 11.7804 30.4479 11.942C30.391 11.961 30.2581 12.0276 30.0399 11.923C29.5939 11.7138 29.5655 11.2859 29.5655 11.1243C29.5655 11.0197 29.6888 10.6964 29.7647 10.6394C30.0114 10.4873 30.1158 10.202 30.1158 10.0214C30.1158 9.60303 29.8406 9.28927 29.4421 9.28927C28.9677 9.28927 28.9962 9.57451 28.6641 9.66959C28.2751 9.77417 27.8955 9.49844 27.8955 9.01354C27.8955 8.64272 28.1992 8.3765 28.4933 8.3765C28.9013 8.3765 28.9298 8.69977 29.3472 8.69977C29.556 8.69977 29.7078 8.64272 29.8786 8.48109C30.1063 8.26241 30.2012 7.8916 30.0304 7.54931C29.964 7.40669 29.8501 7.27358 29.7647 7.14047C29.6414 6.88375 29.6793 6.5795 29.7647 6.41786C29.8596 6.25623 30.0778 6.05656 30.4099 6.09459C30.5523 6.11361 30.7041 6.18967 30.78 6.25623C31.0646 6.48442 31.4062 6.589 31.7383 6.30377C31.8996 6.17065 31.9565 5.95197 31.9281 5.7428C31.9091 5.56215 31.8142 5.38149 31.6434 5.27691C31.1216 4.96314 30.9033 5.42903 30.5902 5.52411C30.4004 5.58116 30.2012 5.54313 30.1063 5.48608C29.8122 5.29592 29.6319 5.06773 29.7363 4.62086C29.8596 4.24054 30.2961 3.86973 30.8938 4.26906C31.0362 4.38316 31.1975 4.46873 31.3303 4.46873C31.6339 4.46873 31.9376 4.18349 31.9376 3.82219C31.9376 3.46089 31.6624 3.17565 31.3303 3.17565C31.1311 3.17565 31.0077 3.26122 30.8559 3.40384C30.7041 3.54646 30.5238 3.64154 30.2486 3.55596C30.0399 3.47039 29.9735 3.3563 29.8881 3.21368C29.7837 2.85238 29.6224 2.73828 29.4137 2.73828C29.1195 2.73828 29.0531 2.90942 28.9013 3.17565C28.759 3.37531 28.5407 3.39433 28.4079 3.39433C28.2276 3.39433 28.0189 3.29925 27.7912 3.07106C27.6773 2.95696 27.5919 2.86188 27.4686 2.86188C27.2408 2.86188 27.0795 3.09958 26.9182 3.26122C26.7854 3.39433 26.6336 3.50842 26.4059 3.50842C26.2541 3.50842 26.0927 3.44187 25.9979 3.31827C25.7607 3.01401 25.3242 2.98549 25.1155 3.14712C24.6031 3.53695 24.7739 4.02185 25.0016 4.33562C25.1629 4.5543 25.2103 4.87757 24.9921 5.14379C24.8688 5.29592 24.7075 5.38149 24.5367 5.391C24.3469 5.41002 24.1571 5.32445 24.0148 5.1533C23.8345 4.95364 23.8345 4.56381 23.9579 4.39267C24.1002 4.18349 24.1951 4.03136 24.1382 3.75563C24.0338 3.20417 23.4929 3.0045 23.1039 3.2422C23.0375 3.28974 22.9806 3.33728 22.9426 3.39433C22.8193 3.52744 22.6864 3.62252 22.4303 3.62252C22.2595 3.62252 22.0223 3.47039 21.9748 3.41335C21.434 2.60517 22.269 2.33895 22.2025 1.60683C22.1741 1.27405 21.9179 1.0934 21.7566 0.808163C21.7376 0.741608 21.7281 0.675052 21.7091 0.598988C21.7281 0.389813 21.9558 0.209162 22.0697 -0.00952148H18.2744V9.65057C12.9704 9.70762 8.69116 14.2809 8.69116 19.9192C8.69116 25.5574 12.9704 30.1307 18.2744 30.1878V39.9905H21.8799C22.0128 39.8098 22.1836 39.6102 22.2025 39.382C22.2405 38.859 21.7661 38.7069 21.7281 38.2981C21.7281 38.2125 21.7471 38.1269 21.7945 38.0509C21.9369 37.8036 22.2405 37.604 22.2974 37.3282C22.3923 36.8148 21.6807 36.5676 21.9843 35.9021C22.1266 35.5883 22.4682 35.4742 22.7529 35.5693C23.2178 35.7404 23.0944 36.1683 23.5214 36.1683C23.9484 36.1683 23.8915 35.8355 24.1192 35.6739C24.5177 35.3981 24.9352 35.5598 25.1155 35.8735C25.2578 36.1207 25.2198 36.4345 25.1249 36.5771C25.0301 36.7292 24.8972 36.8624 24.8972 37.1191C24.8972 37.4899 25.1819 37.7846 25.5234 37.7846C25.865 37.7846 26.1497 37.4899 26.1497 37.1191C26.1497 36.9099 26.0548 36.7292 25.9125 36.6056C25.8271 36.5106 25.7891 36.3394 25.7891 36.1778C25.7891 35.8165 26.0453 35.5693 26.4248 35.5217C26.5672 35.5027 26.7759 35.5978 26.8613 35.6929C26.9562 35.7975 26.9941 35.9021 27.0321 35.9971C27.127 36.3109 26.9562 36.5581 26.8044 36.8243C26.719 36.9479 26.662 37.0905 26.662 37.2617C26.662 37.661 26.9752 37.9938 27.3547 37.9938C27.516 37.9938 27.6678 37.9272 27.7912 37.8227C28.0379 37.661 28.2846 37.4233 28.6166 37.5184C28.759 37.5564 28.8444 37.642 28.9487 37.7371C29.0816 37.8892 29.2713 37.9843 29.4801 37.9843C29.8786 37.9843 30.2012 37.642 30.2012 37.2237C30.2012 37.1191 30.1822 37.0145 30.1348 36.9194C30.1253 36.8909 30.1158 36.8719 30.0968 36.8433C30.0589 36.7673 30.0019 36.7007 29.945 36.6437C29.8596 36.5486 29.7742 36.444 29.7458 36.2634C29.6983 36.0257 29.7742 35.8355 29.8501 35.6929C29.9735 35.4647 30.334 35.3506 30.5902 35.4076C30.6756 35.4267 30.7515 35.4837 30.8274 35.5408C30.9413 35.7024 31.1216 35.7975 31.3208 35.7975C31.6624 35.7975 31.9376 35.5027 31.9376 35.1414C31.9376 34.7801 31.6624 34.4854 31.3208 34.4854C30.9033 34.4854 30.9128 34.8942 30.4194 34.8942C30.1822 34.8942 29.9925 34.7991 29.8501 34.5709C29.6698 34.2857 29.7458 33.9529 29.8312 33.7818C29.8976 33.6582 29.9925 33.5441 30.0684 33.4205C30.1822 33.2779 30.2486 33.1067 30.2486 32.907C30.2486 32.4697 29.9165 32.1084 29.4991 32.1084C29.3283 32.1084 29.167 32.1749 29.0436 32.27C29.0341 32.27 29.0246 32.289 29.0152 32.2985C29.0152 32.2985 28.9867 32.3366 28.9677 32.3461C28.9582 32.3461 28.9487 32.3651 28.9392 32.3746C28.8918 32.4221 28.8539 32.4507 28.759 32.4982C28.3035 32.7169 27.7912 32.1749 28.0189 31.69C28.0948 31.5189 28.2086 31.3763 28.3794 31.3382C28.8254 31.2432 28.8918 31.4618 29.0721 31.5949C29.167 31.6615 29.2808 31.6805 29.3947 31.6805C29.7742 31.6805 30.0778 31.3572 30.0778 30.9579C30.0778 30.6917 29.945 30.473 29.7552 30.3399C29.7363 30.3209 29.7173 30.3114 29.6983 30.3114C29.6129 30.2638 29.5085 30.2353 29.4042 30.2353C29.0531 30.2353 29.0057 30.454 28.7685 30.5396C28.4364 30.6727 28.1043 30.492 27.9809 30.1878C27.7722 29.6934 28.1802 29.1039 28.7495 29.275C28.9677 29.3416 29.0911 29.5222 29.2239 29.5983C29.3378 29.6648 29.4137 29.6838 29.537 29.6838C29.926 29.6838 30.2486 29.3511 30.2486 28.9327C30.2486 28.8662 30.2391 28.7996 30.2202 28.7426C30.2202 28.7426 30.2202 28.7235 30.2202 28.714C30.2012 28.5334 30.0114 28.3813 29.9165 28.2291C29.7268 27.9154 29.8691 27.516 30.1727 27.3164C30.3151 27.2213 30.5523 27.2023 30.7136 27.2593C30.9887 27.3544 31.2544 27.8013 31.0931 28.1055C30.9318 28.4193 30.799 28.4763 30.799 28.7235C30.799 29.1134 31.1595 29.3796 31.3777 29.3796C31.5011 29.3796 31.7288 29.3511 31.8617 29.1894C32.1748 28.8091 32.0419 28.5239 31.8617 28.2006C31.7478 28.0009 31.7288 27.7442 31.8617 27.516C31.9565 27.3544 32.1083 27.2118 32.2981 27.1737C32.6966 27.0977 33.1236 27.4495 33.0856 27.9154C33.0667 28.1721 32.9623 28.2386 32.8484 28.4288C32.6587 28.7426 32.8769 29.1799 33.171 29.3225C33.6075 29.5317 34.1483 29.1324 34.044 28.5714C33.9775 28.2386 33.7783 28.2196 33.7309 27.9819C33.7024 27.8108 33.6549 27.6872 33.8447 27.3734C34.044 27.0311 34.4899 27.0121 34.8505 27.2878C34.9738 27.3829 35.0687 27.5065 35.2015 27.5541C35.4387 27.6301 35.7044 27.5731 35.8752 27.4019C36.1788 27.1072 36.1599 26.7649 36.084 26.5557C35.9891 26.2895 35.6949 26.1184 35.6854 25.719C35.676 25.3102 35.9796 25.0725 36.1029 24.7777C36.1883 24.5876 36.2168 24.3594 36.0175 24.0551C35.9227 23.922 35.7803 23.8269 35.638 23.8079C35.4293 23.7794 35.2585 23.8365 35.0972 23.9315C34.8789 24.0742 34.6322 24.2928 34.3381 24.2168C34.2622 24.1978 34.0724 24.1787 33.9681 24.0456C33.617 23.6083 33.8447 23.266 34.006 22.9047C34.1388 22.6099 34.2053 22.2771 33.8922 21.9729C33.6549 21.7447 33.2564 21.7827 33.0002 21.9729C32.8769 22.0585 32.782 22.106 32.6682 22.2011C32.3456 22.3247 32.0989 22.2486 31.9186 22.068C31.7952 21.9444 31.7193 21.7162 31.7193 21.5545C31.7383 21.1457 32.1558 21.0316 32.1558 20.4801C32.1558 19.8526 31.6244 19.8811 31.6244 19.1871C31.6244 19.0349 31.7288 18.8067 31.8522 18.6926C32.0135 18.5595 32.1368 18.5025 32.2412 18.5025C32.9149 18.5025 32.7441 18.9398 33.3134 18.9398C33.4936 18.9398 33.6834 18.8353 33.8068 18.7022C34.0914 18.3979 33.9965 17.9225 33.8542 17.7609C33.6834 17.5707 33.5506 17.2379 33.7498 16.8671C33.9016 16.5819 34.2432 16.4393 34.5468 16.5629C34.7651 16.6484 34.7461 16.772 35.0023 16.9051C35.3913 17.1333 35.8373 16.9051 35.9891 16.5629C36.2832 15.8878 35.6854 15.7452 35.6665 15.2888C35.6475 14.7944 36.1409 14.6423 36.1883 14.2334C36.2453 13.796 35.657 13.5488 35.5811 13.14L35.5241 13.2065ZM28.4648 4.34513C28.6926 4.34513 28.8728 4.54479 28.8728 4.78249C28.8728 5.02019 28.6641 5.21986 28.4648 5.21986C28.2371 5.21986 28.0473 5.02019 28.0473 4.78249C28.0473 4.54479 28.2371 4.34513 28.4648 4.34513ZM28.5123 6.48442C28.7685 6.48442 28.9772 6.7031 28.9772 6.96932C28.9772 7.23555 28.7495 7.45423 28.5123 7.46374C28.2561 7.46374 28.0473 7.24505 28.0473 6.96932C28.0473 6.69359 28.2561 6.48442 28.5123 6.48442ZM28.5123 33.6582C28.74 33.6582 28.9203 33.8483 28.9203 34.0955C28.9203 34.3427 28.74 34.5329 28.5123 34.5329C28.2846 34.5329 28.1043 34.3332 28.1043 34.0955C28.1043 33.8578 28.2846 33.6582 28.5123 33.6582ZM28.4648 35.7404C28.74 35.7404 28.9677 35.9781 28.9677 36.2729C28.9677 36.5676 28.74 36.8053 28.4648 36.8053C28.1897 36.8053 27.9619 36.5676 27.9619 36.2729C27.9619 35.9781 28.1897 35.7404 28.4648 35.7404ZM26.4533 8.75682C26.5861 8.75682 26.6905 8.87092 26.6905 9.00403C26.6905 9.13714 26.5767 9.25123 26.4533 9.25123C26.3205 9.25123 26.2161 9.13714 26.2161 9.00403C26.2161 8.87092 26.3205 8.75682 26.4533 8.75682ZM26.2161 6.85523C26.2161 6.72212 26.3205 6.60802 26.4533 6.60802C26.5861 6.60802 26.6905 6.72212 26.6905 6.85523C26.6905 6.98834 26.5767 7.10244 26.4533 7.10244C26.3205 7.10244 26.2161 6.98834 26.2161 6.85523ZM26.4154 4.16447C26.7095 4.16447 26.9372 4.41168 26.9372 4.71594C26.9372 5.02019 26.6715 5.2674 26.4154 5.27691C26.1307 5.27691 25.8935 5.0297 25.8935 4.71594C25.8935 4.40217 26.1307 4.16447 26.4154 4.16447ZM20.2764 4.792C20.2764 4.60184 20.4282 4.44021 20.6085 4.44021C20.7888 4.44021 20.9406 4.59233 20.9406 4.792C20.9406 4.99167 20.7983 5.14379 20.6085 5.14379C20.4187 5.14379 20.2764 4.99167 20.2764 4.792ZM22.2405 6.85523C22.2405 6.68408 22.3733 6.55097 22.5346 6.55097C22.6959 6.55097 22.8288 6.68408 22.8288 6.85523C22.8288 7.02637 22.6864 7.15948 22.5346 7.16899C22.3733 7.16899 22.2405 7.02637 22.2405 6.85523ZM24.5082 6.47491C24.7075 6.47491 24.8688 6.64605 24.8688 6.85523C24.8688 7.0644 24.6885 7.23555 24.5082 7.23555C24.3089 7.23555 24.1476 7.0644 24.1476 6.85523C24.1476 6.64605 24.3089 6.47491 24.5082 6.47491ZM22.5536 4.10743C22.8857 4.10743 23.1514 4.39267 23.1514 4.73495C23.1514 5.07724 22.8857 5.37199 22.5536 5.37199C22.2215 5.37199 21.9558 5.08675 21.9558 4.73495C21.9558 4.38316 22.2215 4.10743 22.5536 4.10743ZM20.6654 0.0950661C20.9596 0.0950661 21.1968 0.351781 21.1968 0.656036C21.1968 0.960291 20.9596 1.21701 20.6654 1.21701C20.3713 1.21701 20.1341 0.960291 20.1341 0.656036C20.1341 0.351781 20.3713 0.0950661 20.6654 0.0950661ZM20.6275 2.17731C20.9026 2.17731 21.1209 2.41501 21.1209 2.70025C21.1209 2.98549 20.8931 3.22319 20.6275 3.22319C20.3618 3.22319 20.1341 2.98549 20.1341 2.70025C20.1341 2.41501 20.3523 2.17731 20.6275 2.17731ZM20.6275 35.8355C20.8362 35.8355 21.007 36.0162 21.007 36.2348C21.007 36.4535 20.8362 36.6342 20.6275 36.6342C20.4187 36.6342 20.2479 36.4535 20.2479 36.2348C20.2479 36.0162 20.4187 35.8355 20.6275 35.8355ZM20.3333 34.1336C20.3333 34.0195 20.4187 33.9244 20.5326 33.9244C20.6465 33.9244 20.7318 34.0195 20.7318 34.1336C20.7318 34.2477 20.6465 34.3427 20.5326 34.3427C20.4187 34.3427 20.3333 34.2477 20.3333 34.1336ZM20.6844 38.8115C20.4092 38.8115 20.1815 38.5738 20.1815 38.279C20.1815 37.9843 20.4092 37.7466 20.6844 37.7466C20.9596 37.7466 21.1873 37.9843 21.1873 38.279C21.1873 38.5738 20.9596 38.8115 20.6844 38.8115ZM22.5346 34.4854C22.3638 34.4854 22.231 34.3427 22.231 34.1621C22.231 33.9814 22.3638 33.8388 22.5346 33.8388C22.7054 33.8388 22.8383 33.9814 22.8383 34.1621C22.8383 34.3427 22.7054 34.4854 22.5346 34.4854ZM24.4513 34.5804C24.2425 34.5804 24.0717 34.3998 24.0717 34.1716C24.0717 33.9434 24.2425 33.7628 24.4513 33.7628C24.66 33.7628 24.8308 33.9529 24.8308 34.1716C24.8308 34.3903 24.66 34.5804 24.4513 34.5804ZM26.4628 34.3998C26.3205 34.3998 26.2161 34.2762 26.2161 34.1336C26.2161 33.991 26.33 33.8673 26.4628 33.8673C26.5956 33.8673 26.7095 33.991 26.7095 34.1336C26.7095 34.2762 26.5956 34.3998 26.4628 34.3998ZM26.2635 31.9943C26.2635 31.8707 26.3584 31.7661 26.4818 31.7661C26.6051 31.7661 26.7 31.8707 26.7 31.9943C26.7 32.1179 26.6051 32.2225 26.4818 32.2225C26.3584 32.2225 26.2635 32.1179 26.2635 31.9943ZM26.5102 30.1973C26.3679 30.1973 26.2635 30.0832 26.2635 29.9311C26.2635 29.7789 26.3774 29.6648 26.5102 29.6648C26.6431 29.6648 26.7569 29.7789 26.7569 29.9311C26.7569 30.0832 26.6431 30.1973 26.5102 30.1973ZM28.4648 28.3242C28.2181 28.3242 28.0189 28.115 28.0189 27.8488C28.0189 27.5826 28.2181 27.3734 28.4648 27.3734C28.7115 27.3734 28.9108 27.5826 28.9108 27.8488C28.9108 28.115 28.7115 28.3242 28.4648 28.3242ZM28.1517 13.1305C28.1517 12.9308 28.313 12.7597 28.5028 12.7597C28.6926 12.7597 28.8539 12.9213 28.8539 13.1305C28.8539 13.3397 28.6831 13.5013 28.5028 13.5013C28.313 13.5013 28.1517 13.3397 28.1517 13.1305ZM28.5218 11.6948C28.1897 11.6948 27.9145 11.4095 27.9145 11.0577C27.9145 10.706 28.1802 10.4207 28.5218 10.4207C28.8633 10.4207 29.1195 10.706 29.1195 11.0577C29.1195 11.4095 28.8254 11.6948 28.5218 11.6948ZM30.4574 12.503C30.761 12.503 31.0077 12.7597 31.0077 13.0829C31.0077 13.4062 30.7325 13.6629 30.4574 13.6629C30.1538 13.6629 29.9071 13.4062 29.9071 13.0829C29.9071 12.7597 30.1538 12.503 30.4574 12.503ZM30.4384 17.0478C30.6377 17.0478 30.799 17.2189 30.799 17.4281C30.799 17.6373 30.6187 17.8084 30.4384 17.8084C30.2391 17.8084 30.0778 17.6373 30.0778 17.4281C30.0778 17.2189 30.2391 17.0478 30.4384 17.0478ZM30.1917 15.2603C30.1917 15.1462 30.2771 15.0606 30.3815 15.0606C30.4858 15.0606 30.5712 15.1462 30.5712 15.2603C30.5712 15.3744 30.4764 15.4599 30.3815 15.4599C30.2771 15.4599 30.1917 15.3744 30.1917 15.2603ZM30.4194 26.0423C30.2771 26.0423 30.1538 25.9187 30.1538 25.7666C30.1538 25.6144 30.2771 25.4908 30.4194 25.4908C30.5618 25.4908 30.6851 25.6144 30.6851 25.7666C30.6851 25.9187 30.5712 26.0423 30.4194 26.0423ZM30.4194 23.903C30.2771 23.903 30.1538 23.7794 30.1538 23.6273C30.1538 23.4751 30.2771 23.342 30.4194 23.342C30.5618 23.342 30.6851 23.4656 30.6851 23.6273C30.6851 23.7889 30.5712 23.903 30.4194 23.903ZM30.5143 22.0204C30.2581 22.0204 30.0399 21.7922 30.0399 21.5165C30.0399 21.2408 30.2581 21.0126 30.5143 21.0126C30.7705 21.0126 30.9887 21.2408 30.9887 21.5165C30.9887 21.7922 30.7705 22.0204 30.5143 22.0204ZM30.5333 20.0047C30.2486 20.0047 30.0209 19.7575 30.0209 19.4628C30.0209 19.168 30.2486 18.9208 30.5333 18.9208C30.8179 18.9208 31.0457 19.168 31.0457 19.4628C31.0457 19.7575 30.7895 20.0047 30.5333 20.0047ZM34.4045 25.2151C34.6797 25.2151 34.9074 25.4528 34.9074 25.7476C34.9074 26.0423 34.6797 26.28 34.4045 26.28C34.1294 26.28 33.9016 26.0423 33.9016 25.7476C33.9016 25.4528 34.1294 25.2151 34.4045 25.2151ZM32.4025 26.0803C32.2317 26.0803 32.0989 25.9282 32.0989 25.7476C32.0989 25.5669 32.2317 25.4243 32.4025 25.4243C32.5733 25.4243 32.7156 25.5669 32.7156 25.7476C32.7156 25.9282 32.5733 26.0803 32.4025 26.0803ZM32.4594 23.0283C32.7251 23.0283 32.9433 23.2565 32.9433 23.5417C32.9433 23.8269 32.7251 24.0551 32.4594 24.0551C32.1937 24.0551 31.9755 23.8269 31.9755 23.5417C31.9755 23.2565 32.1937 23.0283 32.4594 23.0283ZM32.4404 14.937C32.6112 14.937 32.7536 15.0891 32.7536 15.2698C32.7536 15.4504 32.6017 15.6026 32.4404 15.6026C32.2696 15.6026 32.1273 15.4504 32.1273 15.2698C32.1273 15.0891 32.2696 14.937 32.4404 14.937ZM32.4499 18.1127C32.1178 18.1127 31.8522 17.8274 31.8522 17.4756C31.8522 17.1238 32.1178 16.8386 32.4499 16.8386C32.782 16.8386 33.0477 17.1238 33.0477 17.4756C33.0477 17.8274 32.7536 18.1031 32.4499 18.1127ZM34.395 15.8688C34.1104 15.8688 33.8827 15.6311 33.8827 15.3268C33.8827 15.0226 34.1104 14.7849 34.395 14.7849C34.6797 14.7849 34.9074 15.0226 34.9074 15.3268C34.9074 15.6311 34.6512 15.8688 34.395 15.8688Z" fill="white"/>
<path d="M31.3683 38.9255C31.1975 38.9255 31.0647 39.0682 31.0647 39.2488C31.0647 39.4295 31.1975 39.5721 31.3683 39.5721C31.5391 39.5721 31.6719 39.4295 31.6719 39.2488C31.6719 39.0682 31.5391 38.9255 31.3683 38.9255Z" fill="white"/>
<path d="M29.4041 38.7069C29.1384 38.7069 28.9297 38.9351 28.9297 39.2108C28.9297 39.4866 29.1384 39.7148 29.4041 39.7148C29.6698 39.7148 29.8785 39.4866 29.8785 39.2108C29.8785 38.9351 29.6603 38.7069 29.4041 38.7069Z" fill="white"/>
<path d="M27.5064 38.7069C27.2407 38.7069 27.032 38.9351 27.032 39.2108C27.032 39.4866 27.2502 39.7148 27.5064 39.7148C27.7626 39.7148 27.9808 39.4866 27.9808 39.2108C27.9808 38.9351 27.7721 38.7069 27.5064 38.7069Z" fill="white"/>
<path d="M25.5044 38.9541C25.3526 38.9541 25.2292 39.0872 25.2292 39.2488C25.2292 39.4105 25.3526 39.5436 25.5044 39.5436C25.6562 39.5436 25.7891 39.4105 25.7891 39.2488C25.7891 39.0872 25.6657 38.9541 25.5044 38.9541Z" fill="white"/>
<path d="M23.4361 38.84C23.2084 38.84 23.0281 39.0301 23.0281 39.2678C23.0281 39.5055 23.2084 39.6957 23.4361 39.6957C23.6638 39.6957 23.8346 39.5055 23.8346 39.2678C23.8346 39.0301 23.6543 38.84 23.4361 38.84Z" fill="white"/>
<path d="M11.9458 19.8336C11.9458 15.7737 15.0484 12.4745 18.8817 12.4745V0.019043H17.7621C17.2592 0.019043 16.8892 0.418377 16.8323 0.903283L16.3768 3.77469C16.263 4.31664 15.5988 4.52582 15.5988 4.52582C15.1718 4.6209 14.7543 4.73499 14.3463 4.87761C14.2514 4.89663 13.6632 5.01072 13.3406 4.63991L11.5947 2.39603C11.31 2.00621 10.7977 1.85408 10.3707 2.1203L8.49202 3.27077C8.06504 3.53699 7.92272 4.07894 8.103 4.53533L9.06132 7.26411C9.21313 7.78705 8.73871 8.31949 8.73871 8.31949H8.7482C8.43509 8.62375 8.12197 8.94702 7.83732 9.2798C7.83732 9.2798 7.33444 9.78372 6.84105 9.62208L4.26971 8.60473C3.84274 8.41457 3.32088 8.55719 3.07418 9.01357L1.98303 11.0102C1.73633 11.4666 1.87865 12.0086 2.23921 12.3128L4.35511 14.1669C4.70618 14.5092 4.59232 15.1367 4.57334 15.2318C4.4405 15.6691 4.33613 16.1065 4.24125 16.5629C4.24125 16.5629 4.04199 17.257 3.53911 17.3806L0.825451 17.856C0.360523 17.9225 -0.00952148 18.3124 -0.00952148 18.8448V21.1457C-0.00952148 21.6687 0.370011 22.068 0.825451 22.1346L3.53911 22.6195C4.04199 22.7431 4.24125 23.4467 4.24125 23.4467C4.33613 23.884 4.4405 24.3309 4.57334 24.7683C4.59232 24.8729 4.70618 25.4909 4.35511 25.8332L2.23921 27.6872C1.86917 27.9915 1.72684 28.5334 1.98303 28.9898L3.07418 30.9865C3.32088 31.4429 3.83325 31.5855 4.26971 31.3953L6.84105 30.378C7.33444 30.2163 7.83732 30.7203 7.83732 30.7203C8.13146 31.0435 8.43509 31.3668 8.7482 31.6806H8.73871C8.73871 31.6806 9.21313 32.2035 9.06132 32.7359L8.103 35.4647C7.92272 35.9211 8.05555 36.4631 8.49202 36.7293L10.3707 37.8797C10.7977 38.146 11.3195 37.9938 11.5947 37.604L13.3406 35.3601C13.6726 34.9798 14.2799 35.1129 14.3558 35.1319C14.7638 35.2746 15.1813 35.3887 15.6083 35.4837H15.5988C15.5988 35.4837 16.263 35.6929 16.3768 36.2254L16.8323 39.0968C16.8987 39.5817 17.2687 39.9905 17.7621 39.9905H18.8817V27.2213C15.0484 27.2213 11.9458 23.9316 11.9458 19.8717V19.8336Z" fill="url(#paint1_linear_199_8803)"/>
</g>
<defs>
<linearGradient id="paint0_linear_199_8803" x1="52.8003" y1="17.9545" x2="7.57744" y2="17.9545" gradientUnits="userSpaceOnUse">
<stop stop-color="white"/>
<stop offset="0.02" stop-color="#EFFAFE"/>
<stop offset="0.1" stop-color="#B1E6FA"/>
<stop offset="0.19" stop-color="#7BD5F6"/>
<stop offset="0.27" stop-color="#4EC7F3"/>
<stop offset="0.35" stop-color="#2CBCF1"/>
<stop offset="0.42" stop-color="#14B4F0"/>
<stop offset="0.49" stop-color="#05AFEF"/>
<stop offset="0.54" stop-color="#00AEEF"/>
<stop offset="0.62" stop-color="#04A1E5"/>
<stop offset="0.75" stop-color="#117FCC"/>
<stop offset="0.93" stop-color="#2549A3"/>
<stop offset="1" stop-color="#2E3192"/>
</linearGradient>
<linearGradient id="paint1_linear_199_8803" x1="61.934" y1="17.9549" x2="5.25536" y2="17.9549" gradientUnits="userSpaceOnUse">
<stop stop-color="white"/>
<stop offset="0.02" stop-color="#EFFAFE"/>
<stop offset="0.1" stop-color="#B1E6FA"/>
<stop offset="0.19" stop-color="#7BD5F6"/>
<stop offset="0.27" stop-color="#4EC7F3"/>
<stop offset="0.35" stop-color="#2CBCF1"/>
<stop offset="0.42" stop-color="#14B4F0"/>
<stop offset="0.49" stop-color="#05AFEF"/>
<stop offset="0.54" stop-color="#00AEEF"/>
<stop offset="0.62" stop-color="#04A1E5"/>
<stop offset="0.75" stop-color="#117FCC"/>
<stop offset="0.93" stop-color="#2549A3"/>
<stop offset="1" stop-color="#2E3192"/>
</linearGradient>
<clipPath id="clip0_199_8803">
<rect width="219" height="40" fill="white"/>
</clipPath>
</defs>
</svg>
