<svg width="228" height="40" viewBox="0 0 228 40" fill="none" xmlns="http://www.w3.org/2000/svg">
<rect width="227.914" height="40" fill="black"/>
<path d="M54.9997 14.6875H57.3591V22.0312C57.3591 24.5156 55.4841 26.1562 52.6716 26.1562C49.8591 26.1562 47.9997 24.5156 47.9997 22.0312V14.6875H50.3434V21.8438C50.3434 23.1406 51.2653 24.0938 52.6716 24.0938C54.0934 24.0938 54.9997 23.1406 54.9997 21.8438V14.6875ZM68.5268 14.6875V26H66.4956L61.5268 18.8125H61.4331V26H59.0893V14.6875H61.1518L66.0893 21.875H66.1987V14.6875H68.5268ZM72.6008 14.6875V26H70.2571V14.6875H72.6008ZM78.3154 26H74.3311V14.6875H78.3623C81.7686 14.6875 83.8467 16.8125 83.8467 20.3281C83.8467 23.875 81.7686 26 78.3154 26ZM76.6748 23.9844H78.2217C80.3779 23.9844 81.5029 22.8594 81.5029 20.3281C81.5029 17.8125 80.3779 16.7031 78.2373 16.7031H76.6748V23.9844ZM95.7332 20.3438C95.7332 24.0312 93.4363 26.1562 90.4519 26.1562C87.4363 26.1562 85.1551 24.0156 85.1551 20.3438C85.1551 16.6562 87.4363 14.5312 90.4519 14.5312C93.4363 14.5312 95.7332 16.6562 95.7332 20.3438ZM93.3426 20.3438C93.3426 17.9219 92.2019 16.6094 90.4519 16.6094C88.7019 16.6094 87.5457 17.9219 87.5457 20.3438C87.5457 22.7656 88.7019 24.0781 90.4519 24.0781C92.2019 24.0781 93.3426 22.7656 93.3426 20.3438ZM103.1 14.6875V26H100.756V14.6875H103.1ZM104.393 16.625V14.6875H113.658V16.625H110.19V26H107.861V16.625H104.393ZM114.935 26V14.6875H119.373C121.951 14.6875 123.42 16.2656 123.42 18.5C123.42 20.7656 121.92 22.3125 119.31 22.3125H117.279V26H114.935ZM117.279 20.4219H118.935C120.326 20.4219 120.998 19.6406 120.998 18.5C120.998 17.375 120.326 16.6094 118.935 16.6094H117.279V20.4219ZM135.088 20.3438C135.088 24.0312 132.791 26.1562 129.806 26.1562C126.791 26.1562 124.509 24.0156 124.509 20.3438C124.509 16.6562 126.791 14.5312 129.806 14.5312C132.791 14.5312 135.088 16.6562 135.088 20.3438ZM132.697 20.3438C132.697 17.9219 131.556 16.6094 129.806 16.6094C128.056 16.6094 126.9 17.9219 126.9 20.3438C126.9 22.7656 128.056 24.0781 129.806 24.0781C131.556 24.0781 132.697 22.7656 132.697 20.3438ZM140.111 26V14.6875H142.454V19.7031H142.611L146.72 14.6875H149.548L145.329 19.75L149.595 26H146.782L143.642 21.3281L142.454 22.7656V26H140.111ZM153.685 26.1719C151.122 26.1719 149.528 24.4062 149.528 21.7812C149.528 19.1562 151.122 17.4062 153.685 17.4062C156.247 17.4062 157.856 19.1562 157.856 21.7812C157.856 24.4062 156.247 26.1719 153.685 26.1719ZM153.7 24.375C154.888 24.375 155.497 23.2656 155.497 21.7812C155.497 20.2812 154.888 19.1719 153.7 19.1719C152.497 19.1719 151.872 20.2812 151.872 21.7812C151.872 23.2656 152.497 24.375 153.7 24.375ZM159.134 26V17.5156H161.368V18.9844H161.462C161.774 17.9375 162.555 17.3906 163.509 17.3906C163.743 17.3906 164.04 17.4219 164.243 17.4688V19.5312C164.024 19.4688 163.587 19.4062 163.259 19.4062C162.212 19.4062 161.446 20.1406 161.446 21.1719V26H159.134ZM168.77 26.1719C166.176 26.1719 164.583 24.4844 164.583 21.7969C164.583 19.1719 166.192 17.4062 168.676 17.4062C170.911 17.4062 172.661 18.8125 172.661 21.7031V22.3594H166.864C166.864 23.6406 167.629 24.4375 168.817 24.4375C169.598 24.4375 170.161 24.0938 170.395 23.5781H172.598C172.27 25.1406 170.864 26.1719 168.77 26.1719ZM166.864 20.9062H170.473C170.473 19.875 169.754 19.1406 168.723 19.1406C167.661 19.1406 166.903 19.9297 166.864 20.9062ZM173.532 23.625C173.532 21.7344 175.063 21.1094 176.688 21.0156C177.297 20.9766 178.438 20.9219 178.797 20.9062V20.2188C178.782 19.5156 178.297 19.0938 177.438 19.0938C176.657 19.0938 176.157 19.4531 176.032 20.0312H173.828C173.969 18.5625 175.25 17.4062 177.5 17.4062C179.344 17.4062 181.094 18.2344 181.094 20.2812V26H178.907V24.8281H178.844C178.422 25.6094 177.625 26.1562 176.36 26.1562C174.735 26.1562 173.532 25.3125 173.532 23.625ZM175.75 23.5625C175.75 24.2188 176.282 24.5625 177.016 24.5625C178.063 24.5625 178.813 23.8594 178.797 22.9688V22.3438C178.446 22.3594 177.461 22.4141 177.063 22.4531C176.266 22.5312 175.75 22.9062 175.75 23.5625Z" fill="white"/>
</svg>
