<svg width="135" height="40" viewBox="0 0 135 40" fill="none" xmlns="http://www.w3.org/2000/svg">
<g clip-path="url(#clip0_199_8799)">
<path d="M30.8381 19.0892C27.3691 16.7286 22.9262 17.6907 20.5958 21.2449C18.6478 24.2111 15.7081 24.5808 14.5696 24.5808C10.8605 24.5808 8.31659 21.9664 7.56498 19.2629C7.55609 19.2362 7.55164 19.2139 7.54719 19.1872C7.54274 19.156 7.5294 19.1293 7.52051 19.0936C7.22698 17.9668 7.15138 17.4235 7.15138 16.2254C7.15138 9.75838 13.778 2.55651 23.3265 2.55651C32.875 2.55651 38.6921 10.0078 40.1331 14.1499C40.1064 14.0786 40.0842 14.0029 40.0619 13.9272C37.2823 5.82563 29.6106 0 20.5824 0C9.2194 0 0 9.22837 0 20.6124C0 30.7894 7.32927 39.4967 17.496 39.4967C25.6035 39.4967 31.0516 34.9449 33.551 28.6694C34.9208 25.24 33.9512 21.2048 30.8381 19.0847" fill="#003964"/>
<path d="M40.2577 14.5462C39.0569 10.5066 33.4221 2.552 23.3221 2.552C13.7736 2.552 7.14697 9.75387 7.14697 16.2209C7.14697 17.4189 7.21813 17.9623 7.5161 19.0891C7.39158 18.5948 7.32487 18.1004 7.32487 17.6194C7.32487 10.8851 14.0626 6.21306 20.9827 6.21306C30.3534 6.21306 37.9539 13.8247 37.9539 23.2089C37.9539 30.5667 33.7289 36.9357 27.5827 39.9955C35.499 37.1272 41.156 29.5334 41.156 20.6124C41.156 18.5012 40.8714 16.6395 40.2488 14.5462" fill="#ED1A3B"/>
<path d="M65.1718 23.1511V28.8966H63.126V24.946H52.3011V23.1556H57.8158V20.7371H51.2693V18.9467H66.3904V20.7371H59.8438V23.1556H65.1718V23.1511ZM65.1718 12.7202V17.6328H63.126V14.5285H52.4879V12.7202H65.1762H65.1718Z" fill="#58595B"/>
<path d="M82.4142 22.8571H77.0684V25.8501H83.615V27.6406H68.4939V25.8501H75.0226V22.8571H69.708V13.219H82.3786V15.0094H71.7182V17.1517H82.3786V18.9066H71.7182V21.0667H82.4142V22.8571Z" fill="#58595B"/>
<path d="M89.312 25.8501V20.7371H91.2466V25.8501H93.9951V20.7371H95.9475V25.8501H100.835V27.6406H85.7141V25.8501H89.3076H89.312ZM97.5708 22.9506V15.0451H86.9327V13.219H99.621V22.9506H97.5753H97.5708Z" fill="#58595B"/>
<path d="M117.873 21.8061H102.752V20.127H109.299V19.0536H103.971V12.5732H116.637V14.2523H105.963V15.0674H116.637V16.5995H105.963V17.4279H116.677V19.0536H111.309V20.127H117.873V21.8061ZM114.351 25.8502C114.351 26.3668 114.244 26.8523 114.031 27.3066C113.813 27.7609 113.528 28.1573 113.172 28.4868C112.803 28.8298 112.381 29.1059 111.9 29.3108C111.42 29.5157 110.904 29.6137 110.353 29.6137C109.801 29.6137 109.281 29.5112 108.792 29.3108C108.307 29.1059 107.88 28.8342 107.511 28.4868C107.155 28.1528 106.87 27.7609 106.657 27.3066C106.439 26.8523 106.332 26.3668 106.332 25.8502C106.332 25.3335 106.439 24.8525 106.657 24.3982C106.87 23.9484 107.155 23.5564 107.511 23.2268C107.88 22.8839 108.307 22.6078 108.792 22.4073C109.276 22.2025 109.797 22.1045 110.353 22.1045C110.909 22.1045 111.42 22.2069 111.9 22.4073C112.381 22.6122 112.803 22.8839 113.172 23.2268C113.528 23.5609 113.813 23.9484 114.031 24.3982C114.244 24.848 114.351 25.3291 114.351 25.8502ZM112.376 25.8323C112.376 25.2801 112.176 24.8035 111.785 24.4027C111.393 24.0018 110.913 23.8014 110.348 23.8014C109.783 23.8014 109.299 24.0018 108.903 24.4027C108.503 24.8035 108.303 25.2801 108.303 25.8323C108.303 26.3846 108.503 26.8612 108.903 27.2531C109.303 27.6451 109.783 27.8455 110.348 27.8455C110.913 27.8455 111.393 27.6495 111.785 27.2531C112.176 26.8612 112.376 26.3846 112.376 25.8323Z" fill="#58595B"/>
<path d="M119.879 22.7903H135V24.5985H128.453V28.8475H126.408V24.5985H119.879V22.7903ZM123.108 14.7377H131.758V12.6533H133.786V20.5767H121.097V12.6533H123.108V14.7377ZM131.753 16.5104H123.103V18.7818H131.753V16.5104Z" fill="#58595B"/>
</g>
<defs>
<clipPath id="clip0_199_8799">
<rect width="135" height="40" fill="white"/>
</clipPath>
</defs>
</svg>
