<svg width="240" height="21" viewBox="0 0 240 21" fill="none" xmlns="http://www.w3.org/2000/svg">
<g clip-path="url(#clip0_199_8807)">
<path d="M194.974 7.81457C198.022 7.81457 199.608 6.26714 199.608 4.4257C199.608 2.58425 198.084 1.04456 194.974 1.04456C191.864 1.04456 190.355 2.65389 190.355 4.4257C190.355 6.19751 191.941 7.81457 194.974 7.81457ZM194.974 2.86279C196.683 2.86279 197.372 3.80672 197.372 4.43343C197.372 5.01372 196.676 5.91897 194.997 5.91897C193.318 5.91897 192.622 5.01372 192.622 4.43343C192.622 3.81446 193.287 2.86279 194.974 2.86279Z" fill="#595857"/>
<path d="M198.169 13.5942H202.192V15.0643H204.466V2.05035C204.466 1.66349 204.165 1.354 203.786 1.354H202.192V11.6135H198.169V13.5942Z" fill="#595857"/>
<path d="M192.947 13.9268H195.322V10.8474C196.513 10.8474 200.149 10.5921 201.596 10.2981V8.2168C200.753 8.40249 196.714 8.74292 194.819 8.74292H188.924V10.8706H192.947V13.9268Z" fill="#595857"/>
<path d="M194.192 14.6387H191.81V19.103H204.861V17.014H194.192V14.6387Z" fill="#595857"/>
<path d="M185.93 1.354H184.336V19.5209H186.603V2.05035C186.603 1.66349 186.309 1.354 185.93 1.354Z" fill="#595857"/>
<path d="M179.416 11.3041C179.385 11.2577 179.354 11.2267 179.331 11.1803C178.209 9.48585 177.946 7.05638 177.946 6.06603V5.30778H181.721V3.21875H171.764V5.30778H175.54V6.06603C175.54 7.10281 175.199 9.35432 174.24 11.0642C173.451 12.4569 172.267 13.633 170.89 14.5924C170.751 14.6852 170.619 14.7703 170.488 14.8632L172.375 16.4338C173.335 15.753 174.093 15.1572 174.89 14.2519C175.803 13.1765 176.375 12.2712 176.762 11.2422C177.18 12.1088 177.683 12.9676 178.449 13.8651C179.423 15.0025 180.305 15.5286 180.305 15.5286C180.336 15.5518 180.367 15.5673 180.398 15.5827C180.623 15.7297 180.793 15.8303 180.893 15.8845L182.363 14.0972C181.814 13.7645 180.46 12.8128 179.408 11.3273L179.416 11.3041Z" fill="#595857"/>
<path d="M222.732 2.05035C222.732 1.66349 222.423 1.354 222.044 1.354H220.543V14.6929H222.732V2.05035Z" fill="#595857"/>
<path d="M216.86 14.275H219.049V2.35206C219.049 1.9652 218.748 1.66345 218.353 1.66345H216.86V5.21481H214.346V7.40443H216.86V14.275Z" fill="#595857"/>
<path d="M212.698 10.4993C213.433 11.304 214.121 11.8843 214.601 12.0932L215.568 10.9172L216.009 10.391C215.901 10.3446 215.769 10.2595 215.622 10.1666C215.584 10.1047 215.529 10.0429 215.452 9.98869C215.452 9.98869 214.609 9.35425 213.781 8.31747C213.742 8.27104 213.719 8.23236 213.68 8.18593C212.876 7.17237 212.528 4.2864 212.528 4.2864C212.489 3.91502 212.435 3.29605 212.435 2.91692V2.54554C212.435 2.15868 212.141 1.85693 211.746 1.85693H210.029V3.60553C210.029 5.68683 209.58 7.00988 208.814 8.24783C208.783 8.30199 208.76 8.35615 208.721 8.39484C207.948 9.58636 206.764 10.5071 206.764 10.5071C206.702 10.5458 206.663 10.5922 206.625 10.6541C206.486 10.7624 206.362 10.8475 206.23 10.9249L207.948 12.4568C208.497 12.1009 209.023 11.629 209.797 10.7469C210.439 10.0042 211.073 8.91323 211.243 8.47221C211.452 8.95191 212.11 9.85716 212.698 10.4993Z" fill="#595857"/>
<path d="M212.241 13.4316H209.967V19.103H223.119V17.0139H212.241V13.4316Z" fill="#595857"/>
<path d="M239.319 1.354H237.733V7.66753H234.956V9.88036H237.733V19.5131H240V2.05035C240 1.66349 239.69 1.354 239.319 1.354Z" fill="#595857"/>
<path d="M228.805 13.6794C228.449 13.6794 228.225 13.6794 228.186 13.6794V10.422H233.996V8.23241H228.186V5.30776H234.244V3.14136H225.927V15.8303C226.121 15.8303 229.958 15.8535 232.155 15.7065C233.509 15.6137 234.801 15.4357 235.838 15.3119V13.2229C234.847 13.3467 233.308 13.5169 231.969 13.5943C230.724 13.6639 229.509 13.6794 228.805 13.6794Z" fill="#595857"/>
<path d="M138.157 8.71208C139.31 9.33105 140.904 9.67922 142.876 9.67922C145.019 9.67922 146.698 9.26142 147.835 8.58828C149.058 7.84552 149.684 6.79326 149.684 5.57079C149.684 4.18584 148.857 3.033 147.309 2.29797C146.219 1.77184 144.702 1.47009 142.869 1.47009C140.904 1.47009 139.333 1.81827 138.173 2.41403C136.78 3.15679 136.037 4.27095 136.037 5.57079C136.037 6.87063 136.772 7.96157 138.157 8.71208ZM142.869 3.35796C145.476 3.35796 147.209 4.30963 147.209 5.60948C147.209 6.90932 145.422 7.77588 142.869 7.77588C140.316 7.77588 138.443 6.85516 138.443 5.57079C138.443 4.28642 140.192 3.35796 142.869 3.35796Z" fill="#595857"/>
<path d="M134.235 13.5555H138.56V19.3042H140.161C140.532 19.3042 140.834 18.9947 140.834 18.6234V13.5555H145.019V19.5209H146.598C146.985 19.5209 147.286 19.2114 147.286 18.84V13.5632H150.791C151.185 13.5632 151.487 13.246 151.487 12.8669V11.4587H134.243V13.5632L134.235 13.5555Z" fill="#595857"/>
<path d="M162.163 9.26138H167.61V7.38898H156.771V6.33673H166.635C167.006 6.33673 167.308 6.0195 167.308 5.64812V4.6036H156.771V3.55135H166.689C167.068 3.55135 167.378 3.24186 167.378 2.87048V1.67896H154.411V9.26911H159.587V10.6076H152.253V12.5961H168.817C169.196 12.5961 169.505 12.2789 169.505 11.8997V10.6076H162.156V9.26911L162.163 9.26138Z" fill="#595857"/>
<path d="M160.894 13.4473C156.345 13.4473 153.932 14.7084 153.932 16.5653C153.932 18.4223 156.423 19.7608 160.894 19.7608C165.366 19.7608 167.88 18.5074 167.88 16.6505C167.88 14.7935 165.389 13.4473 160.894 13.4473ZM160.894 17.9039C158.365 17.9039 156.717 17.3545 156.717 16.5499C156.717 15.7065 158.388 15.3506 160.918 15.3506C163.447 15.3506 165.095 15.7684 165.095 16.5886C165.095 17.4087 163.393 17.9116 160.894 17.9116V17.9039Z" fill="#595857"/>
<path d="M58.4178 5.67134C58.588 4.68098 58.7737 2.93238 58.7737 2.93238C58.8124 2.55326 58.5339 2.24377 58.1548 2.24377H45.761V4.32507H56.2207C56.2207 4.38697 56.2052 4.4566 56.2052 4.52624C56.0505 6.00404 55.7333 7.57468 55.478 8.68109H43.8501V10.7701H50.9367V13.7721H45.8152V15.8767H56.6694V19.753H58.9516V14.4608C58.9516 14.0816 58.6422 13.7644 58.2631 13.7644H53.3195V10.7624H61.1024V8.67336H57.7989C58.0078 7.83001 58.147 7.04855 58.4101 5.6636L58.4178 5.67134Z" fill="#595857"/>
<path d="M41.0418 2.29798C41.0418 1.91886 40.7246 1.60938 40.3455 1.60938H38.7595V14.925H41.0418V8.98289H43.471V6.80101H41.0418V2.29798Z" fill="#595857"/>
<path d="M36.663 10.2672C36.663 8.51863 34.7985 7.07178 31.7659 7.07178C28.7332 7.07178 26.8223 8.49542 26.8223 10.2672C26.8223 11.9152 28.857 13.4317 31.7349 13.4317C34.7753 13.4317 36.663 11.9462 36.663 10.2672ZM29.3057 10.244C29.3057 9.42387 30.2727 8.9287 31.7736 8.9287C33.2745 8.9287 34.2028 9.42387 34.2028 10.244C34.2028 11.0642 33.2822 11.5671 31.7736 11.5671C30.265 11.5671 29.3057 11.0487 29.3057 10.244Z" fill="#595857"/>
<path d="M40.9413 17.2693H31.263V14.3137H28.8569V19.3506H41.6143V17.9502C41.6143 17.5711 41.3126 17.2693 40.9335 17.2693H40.9413Z" fill="#595857"/>
<path d="M37.2432 5.06027C37.2432 4.68114 36.926 4.37939 36.5391 4.37939H26.2651V6.29047H37.2354V5.06027H37.2432Z" fill="#595857"/>
<path d="M34.6282 2.1742C34.6282 1.79508 34.311 1.4856 33.9396 1.4856H28.8645V3.38894H34.6359V2.1742H34.6282Z" fill="#595857"/>
<path d="M63.3074 8.09308L64.2281 9.26913C65.1564 9.0757 66.6264 8.61921 68.0266 7.75264C69.1949 7.03309 70.1387 6.15879 70.51 5.47018C70.8891 6.15879 71.8485 7.02535 73.0167 7.75264C73.0863 7.79133 73.1482 7.83001 73.2023 7.86096C74.5407 8.65789 75.9256 9.0757 76.823 9.26913L78.1614 7.57469C77.2253 7.37352 75.4304 6.73908 74.0998 5.8493C72.6298 4.87442 71.8639 3.5591 71.8639 2.23605V1.89561C71.8639 1.70992 71.5622 1.55518 71.1831 1.55518H69.1716V2.23605C69.1716 3.5591 68.4212 4.87442 66.9513 5.8493C65.6206 6.73908 63.5472 7.34257 63.5472 7.34257C63.4854 7.35805 63.4389 7.389 63.4003 7.41221C63.2146 7.46637 63.0444 7.50505 62.8896 7.536L63.3074 8.08534H63.3151L63.3074 8.09308Z" fill="#595857"/>
<path d="M76.8616 17.2694H66.4329V14.1667H64.05V19.3506H77.5424V17.9502C77.5424 17.5711 77.2407 17.2694 76.8616 17.2694Z" fill="#595857"/>
<path d="M61.8838 12.3407H69.5119V15.9076H71.8483V12.3407H78.4475C78.8266 12.3407 79.1361 12.0235 79.1361 11.6521V10.2517H61.8838V12.3407Z" fill="#595857"/>
<path d="M91.3054 3.91504H80.9231V5.74875H91.3054V3.91504Z" fill="#595857"/>
<path d="M88.6674 2.08907C88.6674 1.70995 88.358 1.4082 87.9789 1.4082H83.5691V3.2187H88.6674V2.08907Z" fill="#595857"/>
<path d="M95.0655 17.2462H85.1706V15.0798H82.7336V19.3585H95.7541V17.9348C95.7541 17.5557 95.4446 17.2462 95.0655 17.2462Z" fill="#595857"/>
<path d="M92.2881 13.6175V11.7451C90.8413 11.9075 88.033 12.217 87.445 12.217V11.2499C89.5107 10.9636 90.8955 10.0197 90.8955 8.82041C90.8955 7.37356 88.915 6.2981 86.1763 6.2981C83.4376 6.2981 81.4338 7.39677 81.4338 8.82041C81.4338 9.97325 82.7026 10.9094 84.629 11.2112C84.7373 11.2189 84.8456 11.2499 84.9616 11.2499V12.2789H80.0413V14.1823H83.9017C86.8339 14.1823 90.7562 13.8109 92.2881 13.6252V13.6175ZM83.8631 8.81267C83.8631 8.21691 85.0158 7.89969 86.1763 7.89969C87.3367 7.89969 88.4895 8.21691 88.4895 8.81267C88.4895 9.40844 87.2903 9.71792 86.1531 9.71792C85.0158 9.71792 83.8631 9.41617 83.8631 8.81267Z" fill="#595857"/>
<path d="M95.1661 2.29798C95.1661 1.91886 94.8644 1.60938 94.4853 1.60938H92.8916V15.3738H95.1661V9.69471H96.8913C97.2704 9.69471 97.5799 9.38522 97.5799 9.01384V7.52831H95.1661V2.29798Z" fill="#595857"/>
<path d="M113.285 2.29798C113.285 1.91886 112.968 1.60938 112.596 1.60938H111.01V19.7685H113.293V10.9017H115.033C115.405 10.9017 115.722 10.5922 115.722 10.2054V8.62698H113.293V2.29798H113.285Z" fill="#595857"/>
<path d="M106.593 11.5516C106.577 11.513 106.531 11.4743 106.508 11.4279C105.378 9.72567 105.169 6.99446 105.169 6.99446C105.138 6.62307 105.107 6.14337 105.107 5.93446V5.55534H108.898V4.15492C108.898 3.7758 108.581 3.46631 108.21 3.46631H98.9336V5.54761H102.701V6.30585C102.701 7.33489 102.369 9.58641 101.409 11.2963C100.62 12.689 99.4442 13.8573 98.0671 14.8245C97.9356 14.9173 97.8118 15.0024 97.6648 15.0875L99.5448 16.6582C100.504 15.9773 101.262 15.3815 102.059 14.4686C102.972 13.3931 103.544 12.4801 103.947 11.4588C104.357 12.3254 104.867 13.1919 105.633 14.0817C106.616 15.2191 107.49 15.7529 107.49 15.7529C107.521 15.7684 107.552 15.7761 107.598 15.7993C107.807 15.9386 107.977 16.0469 108.078 16.1088L109.54 14.3138C108.991 13.9811 107.637 13.0372 106.585 11.5516H106.593Z" fill="#595857"/>
<path d="M122.638 8.06213C125.671 8.06213 127.257 6.5147 127.257 4.68099C127.257 2.84728 125.733 1.29211 122.638 1.29211C119.543 1.29211 118.004 2.90144 118.004 4.68099C118.004 6.46054 119.59 8.06213 122.638 8.06213ZM122.638 3.11035C124.332 3.11035 125.029 4.06202 125.029 4.68099C125.029 5.26128 124.332 6.16653 122.654 6.16653C120.975 6.16653 120.278 5.25354 120.278 4.68099C120.278 4.06976 120.944 3.11035 122.638 3.11035Z" fill="#595857"/>
<path d="M125.818 13.8496H129.841V15.3119H132.107V2.29798C132.107 1.91886 131.798 1.60938 131.434 1.60938H129.841V11.8689H125.818V13.8496Z" fill="#595857"/>
<path d="M131.821 17.2694H121.841V14.9019H119.458V19.3585H132.51V17.958C132.51 17.5789 132.2 17.2772 131.821 17.2772V17.2694Z" fill="#595857"/>
<path d="M120.603 14.1746H122.971V11.0952C124.178 11.0952 127.798 10.8244 129.253 10.5381V8.45679C128.402 8.65022 124.371 8.99839 122.452 8.99839H116.58V11.1261H120.596V14.1746H120.603Z" fill="#595857"/>
<path d="M19.2561 13.393C19.6197 13.1764 19.9524 12.8824 20.2309 12.542C20.5558 12.1551 20.8498 11.7141 21.0123 11.2112C21.2289 10.5535 21.2444 9.79527 21.0974 9.1144C20.9504 8.47221 20.5791 7.9693 20.0762 7.62113C19.5965 7.29617 18.9544 7.13368 18.4051 7.35806C18.2581 7.41996 18.1034 7.51281 17.9873 7.62113C17.7166 7.86872 17.5309 8.1782 17.3762 8.54185C16.8346 9.84943 17.2833 11.01 17.9022 12.1706C17.9796 12.3253 18.73 13.6948 18.8306 13.6406C18.9776 13.571 19.1246 13.4704 19.2639 13.3853L19.2561 13.393Z" fill="url(#paint0_radial_199_8807)"/>
<path d="M4.32474 16.5034C4.35568 16.929 4.47173 17.3545 4.64193 17.7646C4.84308 18.2288 5.10612 18.6853 5.47747 19.0644C5.9726 19.5519 6.63794 19.9155 7.31101 20.078C7.95313 20.2327 8.57205 20.1322 9.10586 19.8382C9.61647 19.5596 10.0497 19.049 10.0961 18.4609C10.1116 18.3062 10.0961 18.1282 10.0497 17.9658C9.95687 17.6098 9.75572 17.3004 9.50042 17.0063C8.57205 15.9309 7.33422 15.8071 6.01902 15.838C5.84108 15.838 4.28606 15.8922 4.27832 16.0005C4.27832 16.163 4.30153 16.341 4.30927 16.5034H4.32474Z" fill="url(#paint1_radial_199_8807)"/>
<path d="M8.93576 2.151C8.54893 1.96531 8.11569 1.85699 7.67471 1.80283C7.17185 1.74093 6.63803 1.73319 6.12743 1.87246C5.45436 2.05042 4.80449 2.44501 4.33257 2.94019C3.88386 3.41216 3.66724 3.99244 3.66724 4.59594C3.66724 5.19944 3.89933 5.7952 4.4022 6.1279C4.53372 6.21301 4.69618 6.29038 4.85865 6.3368C5.22226 6.42965 5.59361 6.41418 5.9727 6.34454C7.36526 6.08148 8.07701 5.09112 8.69593 3.94602C8.78103 3.79901 9.49278 2.43727 9.39221 2.38311C9.25295 2.298 9.08275 2.22837 8.93576 2.15874V2.151Z" fill="url(#paint2_radial_199_8807)"/>
<path d="M12.3012 5.6095C12.9743 6.24395 13.7557 6.96351 14.6222 7.23431C15.4113 7.48963 16.4093 7.33489 17.0127 6.72366C18.0804 5.64045 18.1345 4.44893 17.6935 3.33478C17.2371 2.19742 16.2778 1.33859 15.2256 0.851149C13.8795 0.224439 12.5565 0.0542211 11.133 6.09648e-05C9.59347 -0.0540992 7.97656 0.317285 6.59947 1.04458C5.70204 1.52428 4.85103 2.27479 4.20117 3.08719C4.58799 2.60748 5.61694 2.35216 6.15849 2.24384C7.3267 2.01172 8.58774 2.14325 9.67084 3.07171C10.5992 3.86091 11.311 4.67331 12.1929 5.50892C12.2316 5.53987 12.2625 5.57082 12.3012 5.6095Z" fill="url(#paint3_radial_199_8807)"/>
<path d="M5.609 11.869C5.81789 10.9715 6.04225 9.92696 5.8411 9.04492C5.66316 8.23252 5.02877 7.45106 4.19323 7.24216C2.71557 6.86304 1.66342 7.42012 0.920718 8.37179C0.170283 9.33893 -0.0850194 10.6078 0.0232908 11.7607C0.162547 13.223 0.680889 14.4532 1.36943 15.7066C2.10439 17.0606 3.23392 18.2676 4.55685 19.0878C5.42333 19.6216 6.50643 19.9698 7.52764 20.1323C6.91646 20.0394 6.1815 19.2812 5.81789 18.8634C5.02877 17.9736 4.49496 16.813 4.75026 15.4203C4.95914 14.2211 5.29955 13.192 5.57806 12.0083C5.58579 11.9618 5.60127 11.9154 5.609 11.869Z" fill="url(#paint4_linear_199_8807)"/>
<path d="M14.529 14.337C13.6316 14.5613 12.6104 14.8399 11.9141 15.4202C11.2797 15.954 10.8697 16.8748 11.0631 17.7104C11.4035 19.1959 12.3783 19.8845 13.5542 20.1012C14.7611 20.3333 15.9989 19.9774 16.9815 19.3506C18.227 18.5615 19.078 17.5324 19.8826 16.3564C20.7568 15.0875 21.3139 13.5246 21.4376 11.9694C21.515 10.9558 21.3448 9.83394 21.0121 8.85132C21.2056 9.43161 20.8652 10.4452 20.664 10.9558C20.2308 12.0622 19.4416 13.0603 18.08 13.4781C16.9196 13.8341 15.8519 14.0043 14.6683 14.2983C14.6218 14.306 14.5754 14.3215 14.529 14.3292V14.337Z" fill="url(#paint5_linear_199_8807)"/>
</g>
<defs>
<radialGradient id="paint0_radial_199_8807" cx="0" cy="0" r="1" gradientTransform="matrix(-2.31036 5.75064 -5.75011 -2.31058 15.7381 20.6236)" gradientUnits="userSpaceOnUse">
<stop stop-color="#FFF8EE"/>
<stop offset="0.57" stop-color="#9F9B96"/>
<stop offset="0.76" stop-color="#898580"/>
<stop offset="1" stop-color="#726E69"/>
</radialGradient>
<radialGradient id="paint1_radial_199_8807" cx="0" cy="0" r="1" gradientTransform="matrix(-4.10912 -4.65968 4.65925 -4.10951 0.761653 10.8399)" gradientUnits="userSpaceOnUse">
<stop stop-color="#F0F7EE"/>
<stop offset="0.57" stop-color="#959B96"/>
<stop offset="0.76" stop-color="#7F8480"/>
<stop offset="1" stop-color="#6A6D6A"/>
</radialGradient>
<radialGradient id="paint2_radial_199_8807" cx="0" cy="0" r="1" gradientTransform="matrix(6.09698 -1.19187 1.19176 6.09755 4.06541 7.06383)" gradientUnits="userSpaceOnUse">
<stop stop-color="#E4F4FD"/>
<stop offset="0.57" stop-color="#8E999F"/>
<stop offset="0.76" stop-color="#798288"/>
<stop offset="1" stop-color="#656C71"/>
</radialGradient>
<radialGradient id="paint3_radial_199_8807" cx="0" cy="0" r="1" gradientTransform="matrix(17.0609 -3.33516 3.33485 17.0625 3.86511 9.18427)" gradientUnits="userSpaceOnUse">
<stop stop-color="#E4F4FD"/>
<stop offset="0.64" stop-color="#00A1E9"/>
<stop offset="0.84" stop-color="#007EC4"/>
<stop offset="1" stop-color="#0069AD"/>
</radialGradient>
<linearGradient id="paint4_linear_199_8807" x1="6.07729" y1="18.8252" x2="3.06859" y2="11.1491" gradientUnits="userSpaceOnUse">
<stop stop-color="#5F8B10"/>
<stop offset="1" stop-color="#89C122"/>
</linearGradient>
<linearGradient id="paint5_linear_199_8807" x1="10.3085" y1="14.882" x2="23.5778" y2="14.245" gradientUnits="userSpaceOnUse">
<stop stop-color="#FED600"/>
<stop offset="1" stop-color="#E50047"/>
</linearGradient>
<clipPath id="clip0_199_8807">
<rect width="240" height="20.1708" fill="white"/>
</clipPath>
</defs>
</svg>
