<svg xmlns="http://www.w3.org/2000/svg" width="139" height="28" fill="none"><g clip-path="url(#a)"><path fill="#003863" d="M21.615 13.361c-2.432-1.654-5.547-.982-7.187 1.508a5.06 5.06 0 0 1-4.22 2.336c-2.605 0-4.382-1.83-4.91-3.727q-.01-.03-.014-.054c-.007-.023-.01-.043-.017-.063-.206-.792-.26-1.168-.26-2.01 0-4.526 4.65-9.567 11.337-9.567 6.688 0 10.775 5.214 11.786 8.116q-.03-.079-.053-.153C26.134 4.077 20.757 0 14.424 0 6.46 0 0 6.456 0 14.43c0 7.124 5.138 13.217 12.265 13.217 5.683 0 9.503-3.184 11.25-7.577.962-2.403.283-5.225-1.9-6.709"/><path fill="#E4032E" d="M28.22 10.18c-.845-2.829-4.791-8.396-11.876-8.396-6.688 0-11.336 5.041-11.336 9.567 0 .839.053 1.215.26 2.01a4.3 4.3 0 0 1-.13-1.028c0-4.716 4.721-7.984 9.573-7.984 6.571 0 11.895 5.328 11.895 11.897 0 5.148-2.965 9.608-7.267 11.75 5.55-2.006 9.513-7.324 9.513-13.567 0-1.477-.2-2.782-.632-4.246z"/><path fill="#575756" d="M41.43 15.737v-.862h-5.717v-1.54H48.97v1.54h-5.733v.862c.166.05.35.1.512.166.43.183.812.413 1.145.712.333.317.595.663.795 1.062.183.416.283.845.283 1.311s-.1.895-.283 1.291c-.2.413-.466.779-.795 1.075-.333.3-.712.546-1.145.712a3.7 3.7 0 0 1-1.407.267c-.496 0-.979-.084-1.408-.267a3.4 3.4 0 0 1-1.145-.712 3.2 3.2 0 0 1-.778-1.075q-.3-.598-.3-1.29c0-.463.1-.896.3-1.312.183-.4.45-.745.778-1.062.317-.3.696-.529 1.145-.712.166-.066.333-.116.496-.166m6.611-6.779h-4.87l5.137 2.736-.812 1.324-5.154-2.752-5.155 2.752-.811-1.324 5.137-2.736h-4.871V7.434h11.4zm-3.843 10.03a1.77 1.77 0 0 0-.545-1.291c-.383-.35-.812-.532-1.311-.532-.5 0-.929.183-1.291.532a1.71 1.71 0 0 0-.563 1.291c0 .496.183.929.563 1.275q.548.544 1.29.545c.496 0 .929-.183 1.312-.545a1.7 1.7 0 0 0 .545-1.275M56.214 19.035v-4.143h1.806v4.143h5.734v1.59H50.497v-1.59zm.911-8.799-4.804 6.017-1.391-1.045 6.199-7.74 6.199 7.74-1.391 1.045-4.805-6.017zM72.109 15.224h-6.246V7.567h1.707V9.64h2.869V7.567h1.673v7.657zm-5.633 6.183v-4.821h1.79v3.23h10.291v1.592zm3.96-10.226h-2.87v2.503h2.87zm3.513-3.913h1.69v9.148h-1.69v-4.41h-1.507v-1.574h1.507zm2.748-.014h1.724v9.248h-1.724zM84.024 8.779V7.238h1.923v1.54h3.448v1.541H85.73l3.96 8.865-1.491.663-3.214-7.325-3.181 7.441-1.524-.679 3.96-8.965h-3.814V8.78zm7.557 5.8h-2.785v-1.59h2.785V7.253h1.79V21.69h-1.79V14.58M102.754 19.797h-1.79V9.754h-5.533V8.146h7.323zm3.611-12.543h1.79V21.69h-1.79zM118.729 11.031c0 .513-.1.995-.296 1.425-.216.449-.496.828-.845 1.161-.346.33-.745.596-1.211.779-.479.2-.978.3-1.508.3q-.795 0-1.49-.3a3.5 3.5 0 0 1-1.228-.779 3.4 3.4 0 0 1-.829-1.161 3.14 3.14 0 0 1-.316-1.425c0-.512.1-.978.316-1.44.2-.43.463-.83.829-1.162a3.7 3.7 0 0 1 1.228-.795 4 4 0 0 1 1.49-.283c.53 0 1.029.1 1.508.283.462.2.862.462 1.211.795s.629.729.845 1.162c.2.465.296.945.296 1.44m-6.761 4.277h1.757v1.357h7.789v-1.357h1.757v6.1h-11.3v-6.1zm5.038-4.277c0-.579-.217-1.078-.613-1.507-.429-.416-.928-.629-1.507-.629a2.08 2.08 0 0 0-1.507.629 2.05 2.05 0 0 0-.629 1.507c0 .58.2 1.095.629 1.491.416.433.912.63 1.507.63.596 0 1.078-.2 1.507-.63.396-.4.613-.895.613-1.49m4.508 7.092h-7.789v1.79h7.789zm-2.319-7.87h2.286V7.254h1.79v7.641h-1.79V11.83h-2.286v-1.577M125.744 16.386H139v1.59h-5.733v3.71h-1.807v-3.71h-5.716zm2.831-7.062h7.59V7.5h1.774v6.946h-11.137V7.5h1.773zm7.59 1.558h-7.59v1.99h7.59z"/></g><defs><clipPath id="a"><path fill="#fff" d="M0 0h139v28H0z"/></clipPath></defs></svg>