<svg width="140" height="40" viewBox="0 0 140 40" fill="none" xmlns="http://www.w3.org/2000/svg">
<g clip-path="url(#clip0_199_8801)">
<path d="M39.9317 20C39.9317 31.0439 30.9909 40 19.9659 40C8.94083 40 0 31.0439 0 20C0 8.95612 8.94083 0 19.9659 0C30.9909 0 39.9317 8.95612 39.9317 20Z" fill="white"/>
<path d="M29.3315 18.6037C26.1587 16.4428 22.0965 17.3205 19.9592 20.5718C18.1803 23.2846 15.4921 23.6237 14.4566 23.6237C11.0582 23.6237 8.74168 21.2301 8.05138 18.7567C8.05138 18.7567 8.0381 18.7101 8.03146 18.6835C8.02483 18.6569 8.01819 18.6303 8.01155 18.6037C7.73941 17.5665 7.67303 17.0811 7.67303 15.984C7.67303 10.0731 13.7332 3.48405 22.4549 3.48405C31.1767 3.48405 36.5067 10.2992 37.8276 14.0891C37.801 14.016 37.7811 13.9561 37.7612 13.8896C35.219 6.47607 28.2097 1.15027 19.9459 1.15027C9.56475 1.15027 1.13501 9.58777 1.13501 20C1.13501 29.3085 7.83233 37.2673 17.1316 37.2673C24.5391 37.2673 29.524 33.1051 31.8073 27.367C33.0618 24.2287 32.1724 20.5386 29.3315 18.6037Z" fill="#003863"/>
<path d="M37.9405 14.4482C36.8387 10.7514 31.6879 3.47742 22.455 3.47742C13.7332 3.47742 7.6731 10.0665 7.6731 15.9774C7.6731 17.0745 7.73947 17.5665 8.01161 18.5971C7.89877 18.145 7.83904 17.6928 7.83904 17.254C7.83904 11.0905 13.9921 6.82848 20.3243 6.82848C28.8935 6.82848 35.843 13.7833 35.843 22.367C35.843 29.0958 31.9799 34.9202 26.3645 37.7194C33.6061 35.0998 38.7702 28.1516 38.7702 19.9934C38.7702 18.0652 38.5113 16.3631 37.9471 14.4482" fill="#E4032E"/>
<path d="M48.72 13.8895V11.9082H59.5459V13.8895H55.0124L59.9707 25.6582L58.0126 26.5092L54.2026 17.3005L50.4524 26.6489L48.4346 25.7978L53.4128 13.8829H48.7133L48.72 13.8895ZM62.4664 10.8044H64.7033V28.8164H62.4664V10.8044Z" fill="#575756"/>
<path d="M73.1662 10.6981L78.828 19.3617L77.016 20.5319L73.1662 14.5545L69.3363 20.6715L67.4844 19.5013L73.1662 10.6981ZM69.1571 21.988H83.5274V28.6502H81.2906V23.9694H69.1571V21.988ZM81.2906 10.8045H83.5274V20.9175H81.2906V10.8045Z" fill="#575756"/>
<path d="M86.4082 13.8895V11.9082H95.1964V13.8895H91.5657L95.5947 25.9441L93.703 26.5092L90.8621 17.8457L88.0411 26.6489L86.083 26.0837L90.1319 13.8895H86.4016H86.4082ZM100.579 10.8044H102.717V28.8164H100.579V20.359H98.5019V28.7167H96.4244V10.831H98.5019V18.3044H100.579V10.8111V10.8044Z" fill="#575756"/>
<path d="M110.317 10.6981L115.839 19.9268L114.027 21.0173L110.317 14.5944L106.646 21.1569L104.794 20.0665L110.317 10.6981ZM108.359 22.4335V26.4694H120.453V28.4508H106.122V22.4335H108.359ZM119.988 22.3271H117.771V10.7979H119.988V15.0399H122.57V17.2407H119.988V22.3271Z" fill="#575756"/>
<path d="M128.351 12.6995V10.778H130.747V12.6995H135.042V14.6144H130.488L135.407 25.6782L133.555 26.5093L129.566 17.387L125.597 26.6556L123.705 25.8046L128.623 14.621H123.884V12.7061H128.358L128.351 12.6995ZM137.763 19.9468H134.298V17.9455H137.763V10.7979H140V28.8099H137.763V19.9468Z" fill="#575756"/>
</g>
<defs>
<clipPath id="clip0_199_8801">
<rect width="140" height="40" fill="white"/>
</clipPath>
</defs>
</svg>
