<svg xmlns="http://www.w3.org/2000/svg" width="333" height="28" fill="none"><g clip-path="url(#a)"><path fill="#595857" d="M270.526 10.848c4.229 0 6.43-2.149 6.43-4.705s-2.115-4.693-6.43-4.693-6.408 2.234-6.408 4.693c0 2.46 2.2 4.705 6.408 4.705m0-6.874c2.372 0 3.328 1.31 3.328 2.18 0 .805-.966 2.062-3.296 2.062s-3.295-1.257-3.295-2.062c0-.86.923-2.18 3.263-2.18M274.959 18.87h5.582v2.041h3.156V2.846a.95.95 0 0 0-.944-.967h-2.212v14.242h-5.582z"/><path fill="#595857" d="M267.714 19.332h3.295v-4.275c1.653 0 6.698-.354 8.706-.762v-2.89c-1.17.259-6.774.731-9.404.731h-8.179v2.954h5.582zM269.442 20.32h-3.306v6.197h18.109v-2.9h-14.803zM257.977 1.88h-2.211v25.218h3.145V2.846c0-.537-.408-.967-.934-.967M248.939 15.691c-.043-.064-.086-.107-.118-.171-1.556-2.353-1.921-5.725-1.921-7.1V7.368h5.238v-2.9h-13.815v2.9h5.238V8.42c0 1.44-.472 4.565-1.803 6.938-1.095 1.934-2.737 3.566-4.648 4.898-.193.129-.376.247-.558.376l2.619 2.18c1.331-.945 2.383-1.772 3.489-3.029 1.266-1.492 2.061-2.75 2.597-4.178.58 1.203 1.278 2.396 2.34 3.641 1.353 1.58 2.577 2.31 2.577 2.31a1 1 0 0 0 .128.075c.312.204.548.343.687.419l2.04-2.481c-.762-.462-2.641-1.783-4.101-3.845zM309.041 2.846a.96.96 0 0 0-.956-.967h-2.082v18.517h3.038zM300.893 19.816h3.038V3.265a.946.946 0 0 0-.966-.956h-2.072v4.93h-3.488v3.04h3.488z"/><path fill="#595857" d="M295.118 14.575c1.02 1.117 1.976 1.922 2.641 2.212l1.342-1.632.612-.73c-.151-.065-.333-.183-.537-.312a.9.9 0 0 0-.236-.247s-1.17-.881-2.319-2.32c-.053-.065-.086-.118-.139-.183-1.117-1.407-1.6-5.413-1.6-5.413-.053-.515-.129-1.375-.129-1.9v-.516a.937.937 0 0 0-.955-.956h-2.383v2.427c0 2.89-.623 4.726-1.685 6.444-.043.075-.075.15-.129.204-1.073 1.654-2.716 2.932-2.716 2.932a.6.6 0 0 0-.193.204 5 5 0 0 1-.547.376l2.383 2.127c.762-.494 1.492-1.15 2.565-2.374.891-1.03 1.771-2.545 2.007-3.157.29.666 1.203 1.922 2.018 2.814M294.485 18.645h-3.156v7.873h18.248v-2.9h-15.092zM332.055 1.88h-2.2v8.763h-3.854v3.072h3.854v13.372H333V2.846a.96.96 0 0 0-.945-.967"/><path fill="#595857" d="M317.467 18.989h-.858v-4.522h8.061v-3.04h-8.061v-4.06h8.405V4.36h-11.54v17.615c.268 0 5.593.032 8.641-.172 1.879-.13 3.671-.376 5.11-.548v-2.9c-1.374.172-3.51.408-5.367.515a83 83 0 0 1-4.391.119M191.693 12.094c1.6.859 3.811 1.342 6.548 1.342 2.973 0 5.303-.58 6.881-1.514 1.696-1.032 2.565-2.492 2.565-4.19 0-1.922-1.148-3.522-3.295-4.542-1.514-.73-3.618-1.15-6.162-1.15-2.726 0-4.905.484-6.515 1.31-1.933 1.032-2.963 2.579-2.963 4.383s1.02 3.319 2.941 4.36m6.537-7.433c3.618 0 6.022 1.321 6.022 3.126s-2.479 3.007-6.022 3.007c-3.542 0-6.14-1.278-6.14-3.061s2.426-3.072 6.14-3.072M186.251 18.817h6v7.98h2.222c.516 0 .934-.43.934-.945v-7.035h5.808v8.28h2.189a.95.95 0 0 0 .956-.945v-7.324h4.862c.548 0 .967-.44.967-.967v-1.955h-23.927v2.922zM225.002 12.856h7.557v-2.6H217.52v-1.46h13.686c.515 0 .934-.44.934-.956V6.39h-14.62V4.93h13.761c.526 0 .956-.43.956-.945V2.33h-17.991v10.536h7.181v1.858h-10.176v2.76h22.982c.526 0 .956-.44.956-.966v-1.794h-10.198v-1.858zM223.241 18.667c-6.311 0-9.66 1.75-9.66 4.328s3.456 4.436 9.66 4.436 9.694-1.74 9.694-4.318-3.457-4.446-9.694-4.446m0 6.186c-3.51 0-5.796-.763-5.796-1.88 0-1.17 2.319-1.664 5.829-1.664s5.796.58 5.796 1.718c0 1.139-2.361 1.837-5.829 1.837zM81.055 7.873c.236-1.375.493-3.802.493-3.802a.85.85 0 0 0-.859-.956H63.494v2.889h14.513c0 .086-.022.182-.022.28-.214 2.05-.654 4.23-1.008 5.767H60.842v2.9h9.832v4.167h-7.106v2.921h15.06v5.381h3.167v-7.346a.967.967 0 0 0-.955-.967h-6.86V14.94h10.8v-2.9h-4.584c.29-1.17.483-2.256.848-4.178zM56.945 3.19a.967.967 0 0 0-.966-.956h-2.2v18.484h3.166v-8.249h3.371V9.441h-3.37zM50.87 14.252c0-2.427-2.587-4.436-6.795-4.436s-6.86 1.977-6.86 4.436c0 2.288 2.824 4.393 6.817 4.393 4.219 0 6.838-2.062 6.838-4.393m-10.208-.032c0-1.139 1.341-1.826 3.424-1.826 2.082 0 3.37.688 3.37 1.826s-1.277 1.836-3.37 1.836-3.425-.72-3.425-1.836M56.806 23.972H43.377V19.87H40.04v6.992H57.74v-1.944a.94.94 0 0 0-.945-.946zM51.675 7.024c0-.526-.44-.945-.977-.945H36.443v2.653h15.221V7.024zM48.047 3.018a.965.965 0 0 0-.955-.956H40.05v2.642h8.008V3.018zM87.839 11.234l1.277 1.633a17 17 0 0 0 5.27-2.105c1.622-1 2.931-2.213 3.447-3.169.526.956 1.857 2.16 3.477 3.169.097.053.183.107.258.15 1.857 1.106 3.779 1.686 5.024 1.955l1.857-2.352c-1.299-.28-3.789-1.16-5.636-2.395-2.039-1.354-3.102-3.18-3.102-5.016V2.63c0-.257-.419-.472-.945-.472h-2.79v.945c0 1.836-1.042 3.662-3.081 5.016-1.846 1.235-4.723 2.072-4.723 2.072-.086.022-.15.065-.204.097a8 8 0 0 1-.709.172l.58.762h.01zM106.645 23.972h-14.47v-4.306H88.87v7.195h18.721v-1.944a.94.94 0 0 0-.945-.945"/><path fill="#595857" d="M85.864 17.13h10.584v4.952h3.242v-4.951h9.156c.526 0 .955-.44.955-.956v-1.944H85.864zM126.686 5.435h-14.405V7.98h14.405zM123.026 2.9a.95.95 0 0 0-.955-.945h-6.119v2.513h7.074zM131.903 23.94h-13.729v-3.007h-3.382v5.939h18.066v-1.976a.957.957 0 0 0-.955-.956M128.05 18.903v-2.6c-2.008.226-5.904.656-6.72.656v-1.342c2.866-.398 4.787-1.708 4.787-3.373 0-2.008-2.748-3.501-6.548-3.501s-6.58 1.525-6.58 3.501c0 1.6 1.761 2.9 4.434 3.319.15.01.3.053.461.053v1.429h-6.827v2.642h5.357c4.068 0 9.51-.515 11.636-.773zm-11.69-6.67c0-.827 1.599-1.267 3.209-1.267s3.21.44 3.21 1.267-1.664 1.257-3.242 1.257-3.177-.419-3.177-1.257M132.043 3.19a.95.95 0 0 0-.945-.956h-2.211V21.34h3.156v-7.884h2.393c.526 0 .956-.43.956-.945V10.45h-3.349zM157.182 3.19a.965.965 0 0 0-.955-.956h-2.201V27.44h3.167V15.133h2.415c.515 0 .956-.43.956-.967v-2.19h-3.371V3.19zM147.897 16.035c-.021-.053-.086-.107-.118-.172-1.567-2.363-1.857-6.154-1.857-6.154a24 24 0 0 1-.086-1.471V7.71h5.26V5.767a.965.965 0 0 0-.955-.955H137.27V7.7h5.228v1.052c0 1.429-.462 4.554-1.793 6.928-1.095 1.933-2.726 3.555-4.637 4.897a7 7 0 0 1-.558.366l2.608 2.18c1.331-.945 2.383-1.772 3.489-3.04 1.267-1.493 2.061-2.76 2.619-4.178.569 1.203 1.277 2.406 2.34 3.641 1.363 1.58 2.576 2.32 2.576 2.32.043.022.086.032.151.065.289.193.526.343.665.43l2.029-2.493c-.762-.461-2.641-1.772-4.101-3.834zM170.16 11.191c4.208 0 6.409-2.148 6.409-4.693 0-2.546-2.115-4.705-6.409-4.705s-6.43 2.234-6.43 4.705 2.201 4.693 6.43 4.693m0-6.874c2.351 0 3.317 1.321 3.317 2.18 0 .806-.966 2.063-3.295 2.063-2.33 0-3.296-1.267-3.296-2.062 0-.849.924-2.18 3.274-2.18M174.572 19.225h5.582v2.03h3.145V3.19a.953.953 0 0 0-.934-.956h-2.211v14.242h-5.582zM182.902 23.972h-13.847v-3.286h-3.306v6.186h18.108v-1.944a.95.95 0 0 0-.955-.945z"/><path fill="#595857" d="M167.337 19.676h3.285V15.4c1.674 0 6.698-.376 8.716-.773v-2.89c-1.181.27-6.773.753-9.435.753h-8.148v2.953h5.571v4.232z"/><path fill="url(#b)" d="M26.718 18.592c.504-.301.966-.71 1.352-1.182.45-.537.859-1.15 1.084-1.847.3-.913.322-1.966.118-2.91a3.4 3.4 0 0 0-1.417-2.074c-.665-.45-1.556-.676-2.318-.365a2 2 0 0 0-.58.365c-.376.344-.633.773-.848 1.278-.751 1.816-.129 3.427.73 5.038.107.214 1.149 2.115 1.288 2.04.204-.096.408-.236.601-.354z"/><path fill="url(#c)" d="M6 22.909c.043.59.204 1.181.44 1.75.28.645.645 1.279 1.16 1.805a5.6 5.6 0 0 0 2.544 1.407 3.42 3.42 0 0 0 2.49-.333c.709-.387 1.31-1.096 1.374-1.912.022-.215 0-.462-.064-.687-.129-.494-.408-.924-.762-1.332-1.288-1.493-3.006-1.665-4.83-1.622-.248 0-2.405.075-2.416.226 0 .225.032.472.043.698z"/><path fill="url(#d)" d="M12.398 2.986c-.537-.258-1.138-.409-1.75-.484-.697-.086-1.438-.096-2.147.097a5.47 5.47 0 0 0-2.49 1.482 3.29 3.29 0 0 0-.923 2.299c0 .837.322 1.664 1.02 2.126.182.118.408.226.633.29.504.129 1.02.108 1.546.01 1.932-.364 2.92-1.74 3.778-3.329.118-.204 1.106-2.094.966-2.17-.193-.117-.43-.214-.633-.31z"/><path fill="url(#e)" d="M17.067 7.787c.934.88 2.018 1.88 3.22 2.255 1.096.354 2.48.14 3.318-.709 1.481-1.503 1.556-3.157.944-4.704-.633-1.579-1.964-2.771-3.424-3.448C19.257.311 17.422.075 15.447 0c-2.137-.075-4.38.44-6.29 1.45-1.246.666-2.427 1.708-3.328 2.835.536-.666 1.964-1.02 2.715-1.17 1.621-.323 3.371-.14 4.874 1.149 1.288 1.095 2.276 2.223 3.5 3.383.053.043.096.086.15.14"/><path fill="url(#f)" d="M7.782 16.476c.29-1.246.601-2.696.322-3.92-.247-1.128-1.127-2.213-2.286-2.503-2.05-.526-3.51.247-4.54 1.568C.235 12.964-.119 14.725.031 16.325c.193 2.03.912 3.738 1.868 5.478a12.8 12.8 0 0 0 4.422 4.693c1.203.741 2.705 1.225 4.122 1.45-.848-.129-1.867-1.181-2.372-1.761-1.095-1.235-1.836-2.846-1.481-4.78.29-1.664.762-3.093 1.148-4.736.011-.064.032-.129.043-.193"/><path fill="url(#g)" d="M20.159 19.902c-1.245.311-2.662.698-3.628 1.503-.88.741-1.45 2.02-1.18 3.18.471 2.061 1.824 3.017 3.455 3.318 1.675.322 3.393-.172 4.756-1.042 1.728-1.095 2.909-2.524 4.025-4.156a12.7 12.7 0 0 0 2.158-6.09c.107-1.407-.129-2.964-.59-4.328.268.805-.205 2.212-.484 2.921-.6 1.536-1.696 2.921-3.585 3.501-1.61.494-3.091.73-4.734 1.139-.064.01-.129.032-.193.043z"/></g><defs><radialGradient id="b" cx="0" cy="0" r="1" gradientTransform="matrix(-3.20563 7.98273 -7.97827 -3.20742 21.836 28.629)" gradientUnits="userSpaceOnUse"><stop stop-color="#FFF8EE"/><stop offset=".57" stop-color="#9F9B96"/><stop offset=".76" stop-color="#898580"/><stop offset="1" stop-color="#726E69"/></radialGradient><radialGradient id="c" cx="0" cy="0" r="1" gradientTransform="matrix(-5.70141 -6.46832 6.4647 -5.7046 1.057 15.047)" gradientUnits="userSpaceOnUse"><stop stop-color="#F0F7EE"/><stop offset=".57" stop-color="#959B96"/><stop offset=".76" stop-color="#7F8480"/><stop offset="1" stop-color="#6A6D6A"/></radialGradient><radialGradient id="d" cx="0" cy="0" r="1" gradientTransform="matrix(8.45956 -1.65449 1.65357 8.46429 5.64 9.805)" gradientUnits="userSpaceOnUse"><stop stop-color="#E4F4FD"/><stop offset=".57" stop-color="#8E999F"/><stop offset=".76" stop-color="#798288"/><stop offset="1" stop-color="#656C71"/></radialGradient><radialGradient id="e" cx="0" cy="0" r="1" gradientTransform="matrix(23.672 -4.62969 4.62711 23.6852 5.362 12.749)" gradientUnits="userSpaceOnUse"><stop stop-color="#E4F4FD"/><stop offset=".64" stop-color="#00A1E9"/><stop offset=".84" stop-color="#007EC4"/><stop offset="1" stop-color="#0069AD"/></radialGradient><linearGradient id="f" x1="8.432" x2="4.254" y1="26.132" y2="15.478" gradientUnits="userSpaceOnUse"><stop stop-color="#5F8B10"/><stop offset="1" stop-color="#89C122"/></linearGradient><linearGradient id="g" x1="14.303" x2="32.714" y1="20.658" y2="19.775" gradientUnits="userSpaceOnUse"><stop stop-color="#FED600"/><stop offset="1" stop-color="#E50047"/></linearGradient><clipPath id="a"><path fill="#fff" d="M0 0h333v28H0z"/></clipPath></defs></svg>