<svg width="191" height="40" viewBox="0 0 191 40" fill="none" xmlns="http://www.w3.org/2000/svg">
<g clip-path="url(#clip0_199_8798)">
<path d="M40.0002 20C40.0002 31.046 31.0469 40 20.0019 40C8.9569 40 0 31.046 0 20C0 8.95402 8.9569 0 20.0019 0C31.0469 0 40.0002 8.95402 40.0002 20Z" fill="white"/>
<path d="M29.3985 18.5639C26.2187 16.3986 22.1451 17.2852 20.0057 20.5349C18.218 23.2534 15.5217 23.5904 14.4777 23.5904C11.0744 23.5904 8.74453 21.1944 8.05582 18.7177C8.0485 18.6921 8.04483 18.6738 8.03384 18.6481C8.03018 18.6225 8.02285 18.5932 8.01186 18.5639C7.74078 17.5307 7.67483 17.0361 7.67483 15.937C7.67483 10.0129 13.7523 3.41457 22.5078 3.41457C31.2632 3.41457 36.6007 10.24 37.9231 14.0319C37.9048 13.966 37.8829 13.9 37.8572 13.8304C35.3112 6.41512 28.2739 1.07715 19.991 1.07715C9.57245 1.07715 1.12109 9.52925 1.12109 19.9597C1.12109 29.2801 7.83968 37.2559 17.1629 37.2559C24.5959 37.2559 29.5963 33.0867 31.8859 27.3384C33.1425 24.1986 32.2523 20.5056 29.3949 18.5639" fill="#003863"/>
<path d="M38.0367 14.4019C36.934 10.7016 31.7687 3.41455 22.5004 3.41455C13.745 3.41455 7.66748 10.0128 7.66748 15.9333C7.66748 17.0324 7.73342 17.527 8.00451 18.5602C7.89095 18.1095 7.82867 17.6553 7.82867 17.2156C7.82867 11.0423 14.0087 6.77048 20.3573 6.77048C28.9552 6.77048 35.9229 13.7388 35.9229 22.3374C35.9229 29.0749 32.0434 34.9075 26.4092 37.7102C33.6736 35.0834 38.8609 28.126 38.8609 19.9597C38.8609 18.0253 38.6008 16.3217 38.0294 14.4056" fill="#E4032E"/>
<path d="M56.7601 25.7374H54.6133V13.6949H47.9753V11.7678H56.7564V25.7374H56.7601ZM61.0901 10.6943H63.2369V27.9979H61.0901V10.6943Z" fill="#575756"/>
<path d="M66.1968 24.1254V22.2386H82.0921V24.1254H75.2196V27.9979H73.0546V24.1254H66.2004H66.1968ZM80.9784 12.3247V14.1712H77.5825C78.2455 14.9515 78.5753 15.8088 78.5753 16.7357C78.5753 17.2926 78.458 17.8238 78.2162 18.3258C77.9781 18.8314 77.6594 19.2673 77.2638 19.6374C76.8681 20.0111 76.3992 20.3042 75.8644 20.5203C75.3295 20.7401 74.7544 20.85 74.1463 20.85C73.5381 20.85 72.963 20.7401 72.4281 20.5203C71.8896 20.3005 71.4244 20.0074 71.0287 19.6374C70.6331 19.2673 70.3144 18.8314 70.0763 18.3258C69.8381 17.8238 69.7173 17.2926 69.7173 16.7357C69.7173 15.7942 70.047 14.9405 70.71 14.1712H67.3141V12.3247H72.9776V10.4159H75.3002V12.3247H80.9821H80.9784ZM76.4652 16.7357C76.4652 16.1019 76.238 15.556 75.7801 15.1054C75.3222 14.6548 74.7764 14.4313 74.1426 14.4313C73.5088 14.4313 72.9593 14.6548 72.5014 15.1054C72.0435 15.556 71.8164 16.0983 71.8164 16.7357C71.8164 17.3732 72.0435 17.9154 72.5014 18.3661C72.9593 18.8167 73.5052 19.0402 74.1426 19.0402C74.78 19.0402 75.3259 18.8167 75.7801 18.3661C76.238 17.9154 76.4652 17.3732 76.4652 16.7357Z" fill="#575756"/>
<path d="M93.3752 18.879C93.1627 19.8462 92.7012 20.6815 91.9831 21.3813C91.5326 21.8209 90.9977 22.1653 90.3823 22.4254C89.7668 22.6819 89.1147 22.8101 88.426 22.8101C87.7373 22.8101 87.0852 22.6819 86.4698 22.4254C85.8544 22.1653 85.3195 21.8173 84.8689 21.3813C84.4073 20.9306 84.041 20.4104 83.7772 19.8242C83.5135 19.2344 83.3779 18.6079 83.3779 17.9484C83.3779 17.289 83.5098 16.6588 83.7772 16.0689C84.041 15.4791 84.4073 14.9589 84.8689 14.5119C85.3195 14.0722 85.8544 13.7279 86.4698 13.4677C87.0852 13.2076 87.7373 13.0794 88.426 13.0794C89.1147 13.0794 89.7668 13.2076 90.3823 13.4677C90.9977 13.7242 91.5326 14.0722 91.9831 14.5119C92.6719 15.175 93.1334 16.0103 93.3752 17.0142H94.9431V10.7163H96.9507V27.9026H94.9431V18.8826H93.3752V18.879ZM91.3457 17.9484C91.3457 17.5491 91.2688 17.1644 91.1186 16.7944C90.9647 16.4243 90.7559 16.1056 90.4922 15.8418C90.2284 15.578 89.917 15.3692 89.558 15.2153C89.199 15.0651 88.8217 14.9882 88.426 14.9882C88.0304 14.9882 87.6531 15.0651 87.2941 15.2153C86.935 15.3655 86.6237 15.5744 86.3599 15.8418C86.0961 16.1056 85.8873 16.4243 85.7335 16.7944C85.5833 17.1644 85.5063 17.5491 85.5063 17.9484C85.5063 18.3478 85.5833 18.7288 85.7335 19.0988C85.8873 19.4725 86.0961 19.7876 86.3599 20.0514C86.6237 20.3151 86.935 20.524 87.2941 20.6778C87.6531 20.8317 88.0304 20.9087 88.426 20.9087C88.8217 20.9087 89.2027 20.8317 89.558 20.6778C89.917 20.5276 90.2247 20.3188 90.4922 20.0514C90.7596 19.7839 90.9647 19.4688 91.1186 19.0988C91.2688 18.7288 91.3457 18.3441 91.3457 17.9484ZM98.3024 10.6943H100.369V27.9979H98.3024V10.6943Z" fill="#575756"/>
<path d="M105.292 23.6308H112.326V25.5395H103.146V11.6689H105.292V23.6308ZM115.447 10.6943H117.594V27.9979H115.447V18.6995H110.776V16.7907H115.447V10.6907V10.6943Z" fill="#575756"/>
<path d="M120.334 13.6546V11.7678H130.745V13.6546H126.393L131.163 24.9827L129.276 25.796L125.642 16.9556L122.026 25.9352L120.059 25.0999L124.847 13.6546H120.337H120.334ZM133.566 10.6943H135.713V27.9979H133.566V10.6943Z" fill="#575756"/>
<path d="M142.882 11.9876V10.24H145.208V11.9876H149.282V13.7938H147.234C147.842 14.4569 148.146 15.2043 148.146 16.0396C148.146 16.5305 148.036 16.9921 147.82 17.4318C147.6 17.8678 147.307 18.2524 146.937 18.5858C146.435 19.0365 145.824 19.3552 145.109 19.5384V20.491H149.619V22.3191H138.394V20.491H142.962V19.5164C142.299 19.3589 141.702 19.0475 141.175 18.5822C140.805 18.2524 140.508 17.8641 140.292 17.4281C140.072 16.9921 139.966 16.5269 139.966 16.0359C139.966 15.2263 140.27 14.4789 140.878 13.7901H138.753V11.9839H142.886L142.882 11.9876ZM139.625 27.7011V23.4109H141.772V25.8949H153.414V27.7011H139.625ZM146.04 15.981C146.04 15.4387 145.846 14.9771 145.454 14.5998C145.062 14.2224 144.596 14.0356 144.054 14.0356C143.512 14.0356 143.043 14.2261 142.655 14.5998C142.263 14.9771 142.069 15.4387 142.069 15.981C142.069 16.5232 142.263 16.9848 142.655 17.3622C143.047 17.7395 143.512 17.9264 144.054 17.9264C144.596 17.9264 145.065 17.7395 145.454 17.3622C145.846 16.9848 146.04 16.5232 146.04 15.981ZM153.095 23.2717H150.949V10.6943H153.095V15.9004H155.323V17.8091H153.095V23.2717Z" fill="#575756"/>
<path d="M165.47 19.4175H163.323V13.0977H157.085V11.1926H165.47V19.4175ZM171.291 24.3232C171.291 24.9057 171.17 25.4553 170.932 25.9645C170.694 26.4738 170.375 26.9208 169.98 27.3054C169.569 27.6901 169.09 27.9942 168.54 28.2214C167.991 28.4448 167.412 28.5584 166.804 28.5584C166.195 28.5584 165.613 28.4485 165.056 28.2214C164.499 27.9942 164.016 27.6901 163.605 27.3054C163.206 26.9208 162.891 26.4738 162.653 25.9645C162.415 25.4553 162.294 24.9094 162.294 24.3232C162.294 23.737 162.411 23.1911 162.653 22.6746C162.891 22.158 163.21 21.7073 163.605 21.3227C164.016 20.938 164.499 20.6339 165.056 20.4067C165.613 20.1833 166.195 20.0697 166.804 20.0697C167.412 20.0697 167.991 20.1833 168.54 20.4067C169.09 20.6339 169.569 20.938 169.98 21.3227C170.375 21.7073 170.694 22.158 170.932 22.6746C171.17 23.1911 171.291 23.7407 171.291 24.3232ZM169.185 24.3049C169.185 23.6564 168.947 23.0959 168.47 22.6233C167.994 22.1543 167.43 21.9198 166.782 21.9198C166.133 21.9198 165.573 22.1543 165.104 22.6233C164.635 23.0922 164.4 23.6564 164.4 24.3049C164.4 24.9534 164.635 25.5102 165.104 25.9719C165.573 26.4371 166.133 26.668 166.782 26.668C167.43 26.668 167.994 26.4371 168.47 25.9719C168.947 25.5066 169.185 24.9534 169.185 24.3049ZM169.804 10.6943H171.951V19.8755H169.804V17.7103H166.961V15.9444H169.804V14.3543H166.961V12.5848H169.804V10.698V10.6943Z" fill="#575756"/>
<path d="M174.907 21.6414H190.802V23.5502H183.93V28.0015H181.765V23.5502H174.911V21.6414H174.907ZM178.307 13.1783H187.406V10.9911H189.531V19.315H176.182V10.9911H178.307V13.1783ZM187.406 15.0468H178.307V17.4318H187.406V15.0468Z" fill="#575756"/>
</g>
<defs>
<clipPath id="clip0_199_8798">
<rect width="190.802" height="40" fill="white"/>
</clipPath>
</defs>
</svg>
