<svg width="240" height="28" viewBox="0 0 240 28" fill="none" xmlns="http://www.w3.org/2000/svg">
<g clip-path="url(#clip0_199_8805)">
<path d="M37.2794 12.7676V12.6969C39.941 12.0329 41.6447 10.2859 41.6447 6.99878C41.6447 2.30207 37.5407 0.859855 32.9903 0.859855H24.1889V10.8846H18.7785V14.9772H24.1889V25.4863H32.876C38.4986 25.4863 42.6408 23.674 42.6408 18.678C42.6408 15.1296 40.1642 13.2085 37.2794 12.7622M30.0728 5.37697H32.3208C34.6177 5.37697 35.7989 6.19332 35.7989 8.03826C35.7989 9.88321 34.6885 10.8465 32.1793 10.8465H30.0728V5.38242V5.37697ZM32.582 20.9746H30.0674V15.0208H32.7998C35.3907 15.0208 36.6099 15.9786 36.6099 18.0521C36.6099 20.1256 35.1239 20.9692 32.5766 20.9692M47.0061 25.4918H53.037V0.859855H47.0061V25.4918ZM19.5405 2.68847L15.1752 0.0489502L5.99279 11.1785V0.859855H0V25.4918H5.99279V14.1772L13.7219 25.4918H20.7108L11.5719 12.2125L19.5405 2.68847ZM63.9884 20.6481L74.635 4.63682V0.859855H57.2172V5.70895H67.3848L56.809 21.644L59.6884 25.4918H74.9289V20.6481H63.9884Z" fill="#D23345"/>
<path d="M84.1494 21.8617C84.1494 21.0889 84.3126 20.3923 84.6283 19.7665C84.944 19.1406 85.3577 18.5909 85.8857 18.1283C86.4082 17.6712 87.0015 17.2956 87.6819 17.0018C88.3568 16.7133 89.059 16.512 89.7938 16.3922V14.1337H80.5896V11.788H101.97V14.1337H92.7385V16.3922C93.4733 16.4902 94.1863 16.6698 94.8776 16.9256C95.5743 17.1868 96.2002 17.5406 96.7609 17.9814C97.2997 18.4276 97.7406 18.9773 98.0781 19.6304C98.4156 20.2835 98.6006 21.0454 98.6442 21.9162C98.6442 22.8631 98.4373 23.6795 98.0237 24.3761C97.61 25.0727 97.0657 25.6496 96.3907 26.1122C95.6995 26.5748 94.9157 26.9231 94.0502 27.1517C93.1848 27.3802 92.2976 27.5 91.3886 27.5C90.4796 27.5 89.6577 27.3911 88.8031 27.1789C87.9431 26.9666 87.1757 26.6292 86.5007 26.1666C85.8258 25.704 85.2706 25.1162 84.8406 24.4033C84.4052 23.6904 84.1766 22.8414 84.1602 21.8563M82.5872 8.5825C83.0499 8.31039 83.5778 7.96752 84.1766 7.54302C84.7753 7.11852 85.374 6.65593 85.9728 6.15523C86.5715 5.67631 87.1321 5.17017 87.6492 4.63683C88.1718 4.10892 88.5745 3.60279 88.863 3.11842H82.7614V0.859863H99.9178V3.11842H93.8706L100.032 8.78931L98.1543 10.6996L91.3287 4.51165C90.4796 5.53481 89.6196 6.42735 88.7542 7.20016C87.8833 7.97296 87.1049 8.61516 86.4082 9.13762C85.6952 9.65464 85.1182 10.0519 84.6719 10.3186C84.231 10.5907 83.9969 10.7377 83.9806 10.754L82.5926 8.5825H82.5872ZM95.7811 21.9162C95.7811 21.3393 95.6505 20.844 95.4056 20.425C95.1552 20.0114 94.8286 19.6685 94.4258 19.3964C94.0013 19.146 93.5223 18.961 92.9943 18.8358C92.4609 18.7106 91.9275 18.6453 91.3886 18.6453C90.8878 18.6453 90.3762 18.7052 89.8591 18.8195C89.3366 18.9392 88.863 19.1188 88.4385 19.3692C88.0139 19.6413 87.6656 19.9787 87.3988 20.3978C87.1267 20.8114 86.9961 21.3175 86.9961 21.9162C86.9961 22.4767 87.1267 22.9611 87.388 23.3801C87.6492 23.7938 87.9867 24.1366 88.4112 24.4033C88.8195 24.6754 89.2821 24.8713 89.8156 24.9965C90.3435 25.1217 90.8715 25.1816 91.3886 25.1816C91.9057 25.1816 92.401 25.1217 92.9235 25.0074C93.4406 24.8931 93.9142 24.7081 94.3442 24.4577C94.7633 24.1911 95.1116 23.8482 95.3838 23.4291C95.6559 23.0155 95.792 22.5094 95.792 21.9107" fill="#58595B"/>
<path d="M115.795 20.474H125.081V22.787H103.706V20.474H112.905V13.965H115.801V20.474H115.795ZM104.773 12.2017C106.395 10.9663 107.734 9.70914 108.796 8.42476C109.857 7.14037 110.695 5.98116 111.31 4.93623C112.045 3.7226 112.611 2.54706 113.019 1.40417H115.763L124.042 12.4303L121.93 14.1337C120.596 12.414 119.486 10.9609 118.588 9.76357C117.689 8.56626 116.96 7.58664 116.405 6.81383C115.752 5.91041 115.218 5.1757 114.81 4.61514C114.005 6.06279 113.123 7.36351 112.181 8.52272C111.234 9.68193 110.358 10.6724 109.547 11.4997C108.6 12.4684 107.658 13.3228 106.716 14.0739L104.779 12.1963L104.773 12.2017Z" fill="#58595B"/>
<path d="M128.184 18.493C128.956 17.0889 129.659 15.6032 130.295 14.0412C130.562 13.3827 130.834 12.6752 131.106 11.9133C131.379 11.1514 131.629 10.3568 131.858 9.52411C132.07 8.7132 132.26 7.88597 132.424 7.03697C132.587 6.18797 132.696 5.33353 132.756 4.46276H124.161V2.06814H135.76C135.722 3.68995 135.526 5.44237 135.183 7.33085C134.873 8.95266 134.372 10.8248 133.676 12.9419C132.979 15.0644 131.972 17.3012 130.638 19.6522L128.178 18.4985L128.184 18.493ZM140.273 0.359253H143.168V25.0891H140.273V0.359253Z" fill="#58595B"/>
<path d="M164.113 0.391846H167.003V14.4221H164.113V8.20156H159.508C159.432 9.05056 159.214 9.82337 158.861 10.5145C158.501 11.2057 158.039 11.7935 157.456 12.2779C156.879 12.7785 156.204 13.1704 155.432 13.448C154.659 13.731 153.82 13.867 152.911 13.867C152.002 13.867 151.153 13.7201 150.353 13.4371C149.553 13.1486 148.856 12.7241 148.258 12.1636C147.643 11.6248 147.153 10.9608 146.793 10.1662C146.434 9.3771 146.26 8.48456 146.26 7.47229C146.26 6.55254 146.429 5.70354 146.766 4.93073C147.104 4.15793 147.572 3.49941 148.171 2.93341C148.753 2.37285 149.444 1.9429 150.255 1.63269C151.066 1.32248 151.948 1.1701 152.917 1.1701C154.457 1.1701 155.818 1.57827 156.983 2.40006C158.153 3.22185 158.926 4.35385 159.312 5.8015H164.119V0.391846H164.113ZM149.123 7.53216C149.123 8.07095 149.21 8.58797 149.384 9.07778C149.559 9.57303 149.809 10.003 150.135 10.3622C150.44 10.7322 150.832 11.0207 151.306 11.2438C151.779 11.467 152.313 11.5758 152.911 11.5758C153.472 11.5758 153.984 11.467 154.446 11.2547C154.909 11.0424 155.306 10.754 155.633 10.3894C155.96 10.0411 156.221 9.62201 156.4 9.1322C156.585 8.64239 156.678 8.1036 156.678 7.52672C156.678 6.38927 156.351 5.44231 155.693 4.69127C155.04 3.94023 154.109 3.54294 152.917 3.50485C151.763 3.50485 150.838 3.87492 150.157 4.62052C149.471 5.36068 149.129 6.32941 149.129 7.52672M164.287 16.0984H167.003V26.5367H152.106V16.0984H154.795V19.0753H164.282V16.0984H164.287ZM164.287 21.3883H154.8V24.2237H164.287V21.3883Z" fill="#58595B"/>
<path d="M174.689 21.8617C174.689 21.0889 174.847 20.3923 175.162 19.7665C175.484 19.1406 175.903 18.5909 176.425 18.1283C176.942 17.6712 177.547 17.2956 178.216 17.0018C178.891 16.7133 179.599 16.512 180.328 16.3922V14.1337H171.129V11.788H192.509V14.1337H183.278V16.3922C184.013 16.4902 184.726 16.6698 185.423 16.9256C186.119 17.1868 186.745 17.5406 187.3 17.9814C187.839 18.4276 188.28 18.9773 188.618 19.6304C188.955 20.2835 189.14 21.0454 189.184 21.9162C189.184 22.8631 188.971 23.6795 188.563 24.3761C188.15 25.0727 187.6 25.6496 186.925 26.1122C186.234 26.5748 185.45 26.9231 184.584 27.1517C183.713 27.3802 182.826 27.5 181.923 27.5C181.019 27.5 180.192 27.3911 179.332 27.1789C178.477 26.9666 177.71 26.6292 177.035 26.1666C176.36 25.704 175.81 25.1162 175.369 24.4033C174.939 23.6904 174.711 22.8414 174.689 21.8563M173.127 8.5825C173.589 8.31039 174.123 7.96752 174.716 7.54302C175.315 7.11852 175.914 6.65593 176.507 6.15523C177.111 5.67631 177.666 5.17017 178.189 4.63683C178.706 4.10892 179.12 3.60279 179.403 3.11842H173.301V0.859863H190.457V3.11842H184.41L190.572 8.78931L188.688 10.6996L181.863 4.51165C181.014 5.53481 180.159 6.42735 179.288 7.20016C178.423 7.97296 177.639 8.61516 176.942 9.13762C176.229 9.65464 175.652 10.0519 175.206 10.3186C174.76 10.5907 174.536 10.7377 174.515 10.754L173.127 8.5825ZM186.315 21.9162C186.315 21.3393 186.19 20.844 185.94 20.425C185.689 20.0114 185.368 19.6685 184.96 19.3964C184.535 19.146 184.056 18.961 183.528 18.8358C182.995 18.7106 182.462 18.6453 181.923 18.6453C181.422 18.6453 180.91 18.7052 180.393 18.8195C179.871 18.9392 179.397 19.1188 178.978 19.3692C178.553 19.6413 178.205 19.9787 177.933 20.3978C177.666 20.8114 177.53 21.3175 177.53 21.9162C177.53 22.4767 177.661 22.9611 177.917 23.3801C178.178 23.7938 178.521 24.1366 178.945 24.4033C179.348 24.6754 179.816 24.8713 180.35 24.9965C180.878 25.1217 181.406 25.1816 181.923 25.1816C182.44 25.1816 182.935 25.1217 183.458 25.0074C183.98 24.8931 184.454 24.7081 184.873 24.4577C185.297 24.1911 185.646 23.8482 185.912 23.4291C186.185 23.0155 186.315 22.5094 186.315 21.9107" fill="#58595B"/>
<path d="M200.777 13.8779C199.868 13.8779 199.014 13.731 198.219 13.4426C197.419 13.1541 196.717 12.7296 196.124 12.169C195.509 11.6303 195.019 10.9663 194.659 10.1717C194.306 9.38259 194.126 8.4846 194.126 7.48322C194.126 6.55803 194.289 5.70902 194.616 4.92533C194.942 4.14708 195.405 3.47768 196.004 2.91168C196.603 2.35656 197.31 1.92118 198.116 1.61096C198.927 1.30619 199.814 1.14837 200.777 1.14837C201.681 1.14837 202.535 1.30075 203.336 1.59464C204.136 1.89396 204.843 2.31302 205.458 2.85181C206.057 3.41237 206.531 4.08722 206.874 4.87635C207.222 5.66549 207.396 6.55803 207.396 7.53764C207.396 8.46284 207.233 9.31184 206.901 10.0846C206.569 10.8575 206.117 11.5214 205.54 12.082C204.941 12.6589 204.239 13.1106 203.428 13.4153C202.623 13.7201 201.73 13.8779 200.766 13.8779M196.989 7.51587C196.989 8.05466 197.076 8.57168 197.245 9.06149C197.419 9.55674 197.669 9.98124 197.996 10.3513C198.301 10.716 198.693 11.0098 199.166 11.233C199.64 11.4561 200.173 11.565 200.772 11.565C201.327 11.565 201.844 11.4561 202.307 11.2439C202.77 11.0316 203.161 10.7432 203.493 10.3785C203.825 10.0302 204.076 9.61116 204.261 9.12135C204.441 8.6261 204.533 8.09276 204.533 7.51587C204.533 6.37843 204.206 5.43691 203.548 4.69676C202.895 3.9566 201.964 3.55387 200.772 3.49945C199.613 3.49945 198.693 3.86952 198.007 4.60968C197.321 5.34983 196.984 6.31856 196.984 7.51587M213.939 21.5734C213.939 22.5367 213.737 23.3857 213.329 24.1204C212.926 24.8496 212.382 25.4646 211.707 25.9708C211.016 26.4497 210.232 26.8198 209.366 27.0701C208.496 27.3204 207.598 27.4511 206.672 27.4511C205.801 27.4511 204.936 27.3368 204.07 27.1028C203.205 26.8742 202.421 26.515 201.73 26.0361C201.033 25.5354 200.473 24.9204 200.053 24.1857C199.629 23.451 199.417 22.5747 199.417 21.557C199.417 20.5393 199.623 19.723 200.032 18.9991C200.445 18.2753 201.001 17.6712 201.697 17.1923C202.372 16.7079 203.145 16.3433 204.011 16.1038C204.881 15.8644 205.774 15.7338 206.705 15.712C207.57 15.712 208.43 15.8263 209.29 16.0603C210.145 16.2943 210.923 16.6481 211.62 17.1324C212.289 17.6114 212.845 18.2263 213.28 18.9665C213.715 19.7066 213.933 20.5774 213.933 21.5842M206.678 25.1871C207.238 25.1871 207.772 25.1163 208.283 24.9694C208.795 24.8279 209.252 24.6102 209.655 24.3163C210.058 24.0115 210.379 23.6306 210.624 23.1734C210.863 22.7217 211.005 22.1883 211.043 21.5679C211.005 20.9693 210.863 20.4468 210.624 20.006C210.384 19.5597 210.069 19.1842 209.682 18.874C209.279 18.5855 208.817 18.3624 208.294 18.21C207.772 18.0576 207.222 17.9706 206.645 17.9488C206.122 17.9488 205.6 18.0195 205.083 18.1665C204.566 18.3134 204.103 18.5366 203.695 18.8468C203.27 19.1515 202.933 19.5325 202.688 19.9842C202.438 20.4359 202.312 20.9638 202.312 21.5625C202.312 22.1611 202.432 22.6836 202.672 23.1353C202.911 23.587 203.238 23.968 203.64 24.2782C204.043 24.5666 204.506 24.7898 205.028 24.9476C205.551 25.1 206.101 25.1762 206.678 25.1762M213.852 6.73218H217.694V9.13768H213.852V14.7759H211.016V0.370117H213.852V6.73218Z" fill="#58595B"/>
<path d="M233.637 9.77439C233.637 10.5254 233.517 11.2166 233.272 11.8425C233.033 12.4738 232.701 13.0235 232.276 13.5024C231.83 13.9867 231.313 14.384 230.714 14.7051C230.121 15.0262 229.473 15.2494 228.776 15.3854V18.825H235.89V21.2522H219.229V18.825H225.881V15.4398C224.433 15.2276 223.241 14.6507 222.294 13.7037C221.347 12.7568 220.857 11.4397 220.819 9.74174C220.819 8.81654 220.982 8.00564 221.308 7.30902C221.635 6.61785 222.109 5.95933 222.729 5.33891H219.431V3.113H225.734V0H228.657V3.12389H234.96V5.38245H231.748C232.075 5.5566 232.358 5.82327 232.597 6.19335C232.842 6.55799 233.038 6.94439 233.191 7.34712C233.343 7.77162 233.457 8.20156 233.523 8.63695C233.593 9.06689 233.626 9.44785 233.626 9.77983M223.595 9.77439C223.654 10.7975 224.008 11.6411 224.656 12.3051C225.304 12.9745 226.164 13.3065 227.241 13.3065C228.265 13.3065 229.125 12.9854 229.816 12.3486C230.513 11.7119 230.856 10.8465 230.856 9.74718C230.856 8.64783 230.54 7.79883 229.903 7.08589C229.266 6.37295 228.379 6.01375 227.241 6.01375C226.104 6.01375 225.227 6.35662 224.612 7.04235C223.997 7.72808 223.654 8.64239 223.595 9.77983M240 25.051H237.104V0.342866H240V25.0455V25.051Z" fill="#58595B"/>
</g>
<defs>
<clipPath id="clip0_199_8805">
<rect width="240" height="27.5" fill="white"/>
</clipPath>
</defs>
</svg>
