<svg width="240" height="27" viewBox="0 0 240 27" fill="none" xmlns="http://www.w3.org/2000/svg">
<g clip-path="url(#clip0_199_8806)">
<mask id="mask0_199_8806" style="mask-type:luminance" maskUnits="userSpaceOnUse" x="0" y="0" width="27" height="27">
<path d="M26.7291 0H0V26.786H26.7291V0Z" fill="white"/>
</mask>
<g mask="url(#mask0_199_8806)">
<path d="M0.0230749 12.0657L1.12332 18.8988C7.47859 19.3605 13.6877 21.6382 18.9196 25.6318L24.2824 21.2457C17.3116 15.4668 8.73272 12.3504 0.0153809 12.058L0.0230749 12.0657Z" fill="#10357F"/>
<path d="M26.7213 14.7435L25.6211 7.91043C19.2658 7.44873 13.0567 5.17103 7.82478 1.17737H7.81709L2.45435 5.56348C9.42514 11.3501 18.004 14.4588 26.7213 14.7512V14.7435Z" fill="#005221"/>
<path d="M18.9042 25.6395L24.2747 21.2688C21.4971 15.536 20.3661 9.01843 21.2125 2.48544L14.7187 0.0307617C13.1953 8.96457 14.7956 17.9522 18.8966 25.6472L18.9042 25.6395Z" fill="#0061AF"/>
<path d="M7.82478 1.16968L2.45435 5.5327C5.23189 11.2731 6.36292 17.783 5.51657 24.316L12.0026 26.7784C13.5261 17.8446 11.9334 8.85691 7.82478 1.16199V1.16968Z" fill="#007F42"/>
<path d="M21.2048 2.47007L14.7341 0C11.1563 5.27102 6.08598 9.51093 0.00769403 12.0503H0L1.11563 18.8987C9.61754 15.7438 16.6037 9.86489 21.2125 2.47007H21.1971H21.2048Z" fill="#248BCB"/>
<path d="M5.52442 24.316L11.9874 26.7861C15.5651 21.515 20.6432 17.2751 26.7138 14.7358L25.5982 7.88733C17.1039 11.0422 10.1178 16.9135 5.50903 24.316H5.52442Z" fill="#50B848"/>
</g>
<mask id="mask1_199_8806" style="mask-type:luminance" maskUnits="userSpaceOnUse" x="31" y="5" width="209" height="17">
<path d="M240 5.33264H31.8994V21.4535H240V5.33264Z" fill="white"/>
</mask>
<g mask="url(#mask1_199_8806)">
<path d="M33.7998 21.0149C33.269 20.0992 32.8227 19.0988 32.4534 18.0216C32.0841 16.9443 31.8994 15.7131 31.8994 14.3357C31.8994 13.1661 32.0687 12.0118 32.3995 10.8807C32.7381 9.74182 33.1997 8.67222 33.7998 7.65649H35.0309C34.5 8.68761 34.0999 9.75721 33.8229 10.8653C33.5459 11.9733 33.4074 13.1276 33.4074 14.3357C33.4074 15.5438 33.5382 16.698 33.8075 17.8061C34.0691 18.9142 34.4846 19.9838 35.0386 21.0149H33.8075H33.7998Z" fill="#1C3687"/>
<path d="M48.1568 7.65649C48.6877 8.58758 49.134 9.58792 49.5033 10.6652C49.8726 11.7425 50.0573 12.9737 50.0573 14.3511C50.0573 15.5207 49.888 16.6749 49.5571 17.8061C49.2263 18.9449 48.757 20.0145 48.1568 21.0149H46.9258C47.4567 19.9838 47.8568 18.9142 48.1337 17.8138C48.4107 16.7134 48.5492 15.5592 48.5492 14.3511C48.5492 13.143 48.4184 11.981 48.1568 10.873C47.8952 9.7649 47.4798 8.68761 46.9258 7.65649H48.1568Z" fill="#1C3687"/>
<path d="M57.2666 8.81844C57.6513 9.11855 57.959 9.4956 58.1821 9.9496C58.4053 10.4036 58.5207 10.8884 58.5207 11.4116C58.5207 12.3581 58.1821 13.1584 57.5051 13.8278C56.828 14.4973 56.0124 14.8359 55.0661 14.8359C54.1197 14.8359 53.3195 14.4973 52.6347 13.8278C51.95 13.1584 51.6114 12.3504 51.6114 11.4116C51.6114 10.8884 51.7268 10.4036 51.9577 9.9496C52.1885 9.4956 52.4963 9.11855 52.8656 8.81844H51.1113V7.44105H53.935V7.03322H56.1663V7.44105H58.9977V8.81844H57.2589H57.2666ZM55.8432 16.9597V19.0065C55.8432 19.0065 55.7893 19.4451 56.274 19.4374H62.8909V20.8148H56.3279C53.458 20.861 53.6196 19.0989 53.6196 19.0989V15.9516H54.7429C54.7429 15.9516 55.8585 15.9439 55.8585 16.952M54.1351 9.91112C53.8581 10.3266 53.7196 10.8268 53.7196 11.4039C53.7196 11.9811 53.8581 12.4889 54.1351 12.9121C54.4121 13.3354 54.7198 13.5431 55.0584 13.5431C55.3969 13.5431 55.7201 13.3354 55.997 12.9121C56.2663 12.4889 56.4048 11.9888 56.4048 11.4039C56.4048 10.8191 56.2663 10.3266 55.997 9.91112C55.7277 9.4956 55.4123 9.28783 55.0584 9.28783C54.7044 9.28783 54.4044 9.4956 54.1351 9.91112ZM62.4062 6.83315V9.27244H64.6374V10.6652H62.4062V16.9058H60.1749V5.80203H61.2444C61.2444 5.80203 62.4062 5.70969 62.4062 6.82546" fill="#1C3687"/>
<path d="M73.4858 7.71807H66.5381V6.34068H74.8707C74.8707 6.34068 76.0864 6.22526 76.0633 7.47953V9.6418C76.0633 10.0496 76.0094 10.4959 75.9094 10.9807C75.8017 11.4655 75.6786 11.8118 75.5247 12.0349H77.6713V13.4123H72.4086V15.3976H74.8399C74.8399 15.3976 76.1094 15.2976 76.0325 16.5672V20.8379H73.8012V17.1444C73.8012 16.7596 73.4704 16.775 73.4704 16.775H66.4919V15.3976H70.1773V13.4123H65.0146V12.0349H73.5627C73.6704 11.7194 73.7474 11.3578 73.7782 10.9499C73.8089 10.5421 73.8243 10.1189 73.8243 9.69567V8.07204C73.8243 7.69499 73.4781 7.71807 73.4781 7.71807" fill="#1C3687"/>
<path d="M86.9348 13.6586H89.3123V15.0514H85.3267V18.0755H90.3048V19.4529H78.1021V18.0755H83.0955V15.0514H79.0946V13.6586H80.8642V8.29525H79.2408V6.90247H89.1661V8.29525H87.5657V11.6502C87.5657 11.6502 87.5349 13.0815 86.9425 13.6586M85.3267 12.4582V8.28755H83.0955V13.6509H84.942C85.296 13.4893 85.3267 12.4505 85.3267 12.4505" fill="#1C3687"/>
<path d="M91.4434 7.98736V6.60997H98.7681V7.98736H96.2214V8.27977C96.2214 9.67255 96.5676 10.3805 97.2755 11.2577C97.9757 12.1426 98.7758 12.6813 99.6837 12.8736L99.1528 13.9586C98.4604 13.8971 97.1909 13.52 96.4676 12.9583C95.7444 12.3966 95.2904 11.7964 95.1058 11.1577C94.9288 11.7964 94.4749 12.3966 93.7516 12.9506C93.0207 13.5046 91.9435 13.8509 91.0664 13.9278L90.5278 12.8813C91.428 12.689 92.2282 12.1426 92.9284 11.25C93.6208 10.3574 93.9671 9.65716 93.9671 8.28746V7.99506H91.4511L91.4434 7.98736ZM101.353 15.4745C102.154 16.1594 102.554 16.9827 102.554 17.9523C102.554 18.9219 102.154 19.7375 101.353 20.4147C100.553 21.0918 99.5837 21.4304 98.4527 21.4304C97.3217 21.4304 96.3522 21.0918 95.552 20.4147C94.7519 19.7375 94.3518 18.9142 94.3518 17.9523C94.3518 16.9904 94.7519 16.1594 95.552 15.4745C96.3522 14.7897 97.3217 14.4511 98.4527 14.4511C99.5837 14.4511 100.553 14.7897 101.353 15.4745ZM97.3063 16.4903C96.9831 16.9212 96.8139 17.406 96.8139 17.9523C96.8139 18.4986 96.9754 18.9603 97.3063 19.3835C97.6294 19.8068 98.0141 20.0145 98.4604 20.0145C98.9066 20.0145 99.2913 19.8068 99.6145 19.3835C99.9376 18.9603 100.107 18.4832 100.107 17.9523C100.107 17.4213 99.9453 16.9212 99.6145 16.4903C99.2913 16.0593 98.9066 15.8439 98.4604 15.8439C98.0141 15.8439 97.6294 16.0593 97.3063 16.4903ZM102.454 6.90238V8.63374H104.677V9.99574L102.446 10.0111V14.3665H100.215V5.802H101.338C101.338 5.802 102.454 5.79431 102.454 6.90238Z" fill="#1C3687"/>
<path d="M117.742 7.05629V20.8379H115.641V11.2808H114.503V19.9838H112.402V15.8901L112.079 16.6442C111.448 16.5441 110.432 16.1055 109.832 15.4899C109.232 14.8743 108.871 14.251 108.747 13.6201C108.64 14.251 108.278 14.8666 107.67 15.4899C107.062 16.1055 105.862 16.5057 105.224 16.6057L104.777 15.6207C105.616 15.3822 106.301 14.7589 106.839 13.7509C107.378 12.7505 107.64 11.5424 107.64 10.1266V8.5491H105.685V7.17171H111.64V8.5491H109.84V10.1266C109.84 11.4424 110.079 12.5889 110.571 13.5739C111.056 14.5511 111.664 15.1975 112.41 15.513V6.25601H113.372C113.372 6.25601 114.51 6.16367 114.51 7.46412V9.9111H115.649V5.83279H116.549C116.549 5.83279 117.749 5.80971 117.749 7.06398" fill="#1C3687"/>
<path d="M131.46 7.05629V20.8379H129.36V11.2808H128.221V19.9838H126.121V15.8901L125.797 16.6442C125.167 16.5441 124.151 16.1055 123.551 15.4899C122.951 14.8743 122.589 14.251 122.466 13.6201C122.358 14.251 121.997 14.8666 121.389 15.4899C120.781 16.1055 119.581 16.5057 118.942 16.6057L118.496 15.6207C119.334 15.3822 120.019 14.7589 120.558 13.7509C121.096 12.7505 121.358 11.5424 121.358 10.1266V8.5491H119.404V7.17171H125.359V8.5491H123.559V10.1266C123.559 11.4424 123.797 12.5889 124.289 13.5739C124.774 14.5511 125.382 15.1975 126.128 15.513V6.25601H127.09C127.09 6.25601 128.229 6.16367 128.229 7.46412V9.9111H129.368V5.83279H130.268C130.268 5.83279 131.468 5.80971 131.468 7.06398" fill="#1C3687"/>
<path d="M210.301 9.90341V5.8251H211.201C211.201 5.8251 212.401 5.80202 212.401 7.05629V20.8379H210.301V9.90341ZM209.162 11.2808V19.9838H207.062V15.8901L206.739 16.6442C206.108 16.5441 205.092 16.1132 204.492 15.4899C203.892 14.8743 203.53 14.251 203.407 13.6201C203.299 14.251 202.938 14.8743 202.33 15.4899C201.722 16.1055 200.522 16.5057 199.883 16.6057L199.437 15.613C200.276 15.3745 200.96 14.7512 201.499 13.7432C202.038 12.7428 202.299 11.5347 202.299 10.1189V8.54141H200.345V7.16402H206.3V8.54141H204.5V10.1189C204.5 11.4347 204.738 12.5812 205.231 13.5662C205.715 14.5435 206.323 15.1898 207.062 15.5053V6.24832H208.024C208.024 6.24832 209.162 6.15598 209.162 7.45643V11.2808Z" fill="#1C3687"/>
<path d="M144.001 6.8331V9.01846H146.233V10.4112H144.001V14.8512H141.77V14.1818C141.462 14.3357 141.078 14.4742 140.624 14.5896C140.17 14.705 139.693 14.7589 139.193 14.7589H132.691V13.4507H135.738V12.5273C135.122 12.3196 134.615 11.981 134.207 11.4962C133.807 11.0114 133.607 10.4574 133.607 9.82643C133.607 9.50324 133.661 9.19545 133.776 8.91843C133.891 8.64141 134.053 8.38748 134.261 8.15663H132.837V6.87158H135.73V5.81737H136.815C136.815 5.81737 137.962 5.75582 137.962 6.87158H140.87V8.15663H139.431C139.639 8.38748 139.8 8.64141 139.916 8.91843C140.031 9.19545 140.093 9.49555 140.093 9.82643C140.093 10.4574 139.893 11.0114 139.5 11.4962C139.1 11.981 138.592 12.3273 137.962 12.5273V13.4507H139.27C139.808 13.4507 140.293 13.4123 140.716 13.343C141.139 13.2738 141.493 13.1814 141.77 13.0737V5.80198H142.801C142.801 5.80198 144.009 5.68656 144.009 6.82541M134.676 18.9372V17.5367H141.77V16.8673H134.561V15.5438H142.763C142.763 15.5438 144.001 15.4437 144.001 16.7134V18.8064H136.907V19.0142C136.907 19.0142 136.861 19.499 137.446 19.499H144.263V20.8225H136.823C134.507 20.8225 134.669 18.9449 134.669 18.9449M136.061 8.68758C135.838 9.02616 135.723 9.40321 135.723 9.82643C135.723 10.2497 135.838 10.6344 136.061 10.9807C136.284 11.3269 136.554 11.4962 136.861 11.4962C137.169 11.4962 137.438 11.3269 137.654 10.9807C137.877 10.6344 137.985 10.2497 137.985 9.82643C137.985 9.40321 137.877 9.02616 137.654 8.68758C137.431 8.349 137.169 8.17972 136.861 8.17972C136.554 8.17972 136.284 8.349 136.061 8.68758Z" fill="#1C3687"/>
<path d="M158.982 14.4511H146.179V13.0891H149.241V11.4039H150.418C149.911 11.1115 149.503 10.7268 149.203 10.242C148.903 9.75723 148.749 9.23397 148.749 8.66455C148.749 7.73346 149.118 6.94858 149.864 6.29451C150.611 5.64814 151.519 5.32495 152.588 5.32495C153.658 5.32495 154.581 5.64814 155.319 6.29451C156.058 6.94089 156.427 7.73346 156.427 8.66455C156.427 9.23397 156.281 9.75723 155.981 10.242C155.681 10.7268 155.273 11.1115 154.758 11.4039H155.95V13.0891H158.997V14.4511H158.982ZM155.419 15.967C156.204 16.5749 156.604 17.329 156.604 18.2216C156.604 19.1143 156.212 19.8761 155.419 20.507C154.635 21.138 153.688 21.4535 152.58 21.4535C151.472 21.4535 150.511 21.138 149.718 20.507C148.933 19.8761 148.541 19.122 148.541 18.2216C148.541 17.3213 148.933 16.5749 149.718 15.967C150.503 15.3591 151.457 15.0513 152.58 15.0513C153.704 15.0513 154.635 15.3591 155.419 15.967ZM151.396 7.21021C151.057 7.61804 150.888 8.10282 150.888 8.67224C150.888 9.24167 151.057 9.71106 151.396 10.1189C151.734 10.5267 152.126 10.7345 152.58 10.7345C153.034 10.7345 153.442 10.5267 153.773 10.1189C154.104 9.71106 154.265 9.22628 154.265 8.67224C154.265 8.11821 154.104 7.61804 153.773 7.21021C153.442 6.80238 153.042 6.60231 152.58 6.60231C152.119 6.60231 151.734 6.80238 151.396 7.21021ZM151.511 16.952C151.203 17.3367 151.049 17.7599 151.049 18.2216C151.049 18.7064 151.203 19.1373 151.511 19.5221C151.819 19.9068 152.173 20.0915 152.58 20.0915C152.988 20.0915 153.327 19.8991 153.642 19.5221C153.958 19.1373 154.112 18.7064 154.112 18.2216C154.112 17.7369 153.95 17.3367 153.642 16.952C153.327 16.5672 152.973 16.3749 152.58 16.3749C152.188 16.3749 151.819 16.5672 151.511 16.952ZM153.704 13.0968L153.688 11.8426C153.542 11.881 153.365 11.9118 153.157 11.9426C152.95 11.9734 152.757 11.9888 152.58 11.9888C152.403 11.9888 152.219 11.9734 152.026 11.9503C151.834 11.9272 151.642 11.8964 151.457 11.8579V13.0891H153.704V13.0968Z" fill="#1C3687"/>
<path d="M164.46 8.61068V10.1804C164.46 11.6194 164.814 12.8429 165.514 13.8586C166.214 14.8743 167.014 15.4746 167.922 15.6746L167.491 16.7288C166.776 16.6673 165.391 16.3287 164.675 15.7131C163.96 15.0975 163.513 14.4434 163.336 13.7586C163.175 14.4434 162.729 15.0975 162.013 15.7054C161.298 16.3133 160.043 16.6596 159.313 16.7288L158.759 15.6746C159.659 15.4822 160.459 14.8743 161.159 13.8509C161.852 12.8275 162.198 11.604 162.198 10.1804V7.29484H163.19C163.19 7.29484 164.468 7.37949 164.468 8.61068M170.692 7.14864V9.69566H172.923V11.0731H170.692V21.1149H168.461V5.80203H169.346C169.346 5.80203 170.692 5.74047 170.692 7.15634" fill="#1C3687"/>
<path d="M185.449 7.05631V15.2052H183.218V10.5806H181.333C181.202 11.4963 180.779 12.2735 180.079 12.9121C179.371 13.5431 178.532 13.8663 177.563 13.8663C176.524 13.8663 175.639 13.497 174.893 12.7506C174.147 12.0041 173.777 11.1115 173.777 10.0573C173.777 9.00312 174.154 8.11051 174.893 7.3641C175.639 6.6177 176.524 6.24834 177.563 6.24834C178.478 6.24834 179.279 6.52536 179.963 7.07939C180.648 7.63343 181.087 8.34136 181.287 9.20319H183.226V5.81742H184.126C184.126 5.81742 185.457 5.62505 185.457 7.04861M176.478 8.35675C176.162 8.82614 176.009 9.40326 176.009 10.0804C176.009 10.7576 176.162 11.327 176.47 11.8041C176.778 12.2735 177.14 12.512 177.563 12.512C177.986 12.512 178.348 12.2735 178.663 11.8041C178.979 11.3347 179.132 10.7576 179.132 10.0804C179.132 9.40326 178.979 8.82614 178.671 8.35675C178.363 7.88736 177.994 7.64882 177.563 7.64882C177.155 7.64882 176.793 7.88736 176.478 8.35675ZM176.37 19.0527V14.5819H177.301C177.301 14.5819 178.602 14.5358 178.602 15.79V16.3826H183.218V14.5896H185.449V20.8456H178.848C176.201 20.9149 176.37 19.0681 176.37 19.0681M179.025 19.4374H183.218V17.7676H178.602V19.0219C178.602 19.0219 178.571 19.4374 179.025 19.4374Z" fill="#1C3687"/>
<path d="M199.275 13.6586H186.626V12.2812H190.681V9.38788H192.912V12.2812H199.283V13.6586H199.275ZM194.913 7.75655H188.135V6.36377H196.182C196.182 6.36377 197.69 6.20987 197.69 7.74886V9.91113C197.69 10.3574 197.629 10.8268 197.506 11.3116C197.383 11.8041 197.244 12.135 197.09 12.3196H195.151C195.275 12.0042 195.351 11.6425 195.39 11.2424C195.428 10.8345 195.452 10.419 195.452 9.98039V8.2952C195.452 7.69499 194.905 7.74886 194.905 7.74886M195.913 15.5284C196.721 16.1979 197.129 17.0212 197.129 17.9831C197.129 18.945 196.729 19.7529 195.913 20.4224C195.105 21.0919 194.128 21.4304 192.989 21.4304C191.851 21.4304 190.866 21.0919 190.058 20.4224C189.258 19.7529 188.85 18.9373 188.85 17.9831C188.85 17.0289 189.25 16.1979 190.058 15.5284C190.858 14.859 191.835 14.5204 192.989 14.5204C194.144 14.5204 195.098 14.8513 195.913 15.5284ZM191.835 16.5365C191.52 16.9597 191.366 17.4445 191.366 17.9908C191.366 18.5371 191.52 18.9911 191.835 19.4067C192.151 19.8145 192.535 20.0223 192.989 20.0223C193.443 20.0223 193.813 19.8145 194.128 19.4067C194.444 18.9988 194.605 18.5218 194.605 17.9908C194.605 17.4599 194.451 16.9597 194.128 16.5365C193.813 16.1132 193.436 15.9055 192.989 15.9055C192.543 15.9055 192.143 16.1209 191.835 16.5365Z" fill="#1C3687"/>
<path d="M220.742 16.0363V18.0832H225.804V19.4606H213.448V18.0832H218.51V14.7667H219.388C219.388 14.7667 220.742 14.7667 220.742 16.0363ZM214.471 6.89478H224.758V8.28756H220.742V8.6723C220.742 10.142 221.288 11.3655 222.381 12.3351C223.473 13.3046 224.55 13.8125 225.62 13.8587L225.173 14.9129C224.235 14.9129 222.696 14.6128 221.634 14.0126C220.572 13.4124 219.903 12.7121 219.626 11.9042C219.364 12.7275 218.695 13.4355 217.633 14.028C216.572 14.6205 215.025 14.9129 214.071 14.9129L213.625 13.8587C214.694 13.8125 215.771 13.3046 216.864 12.3351C217.956 11.3732 218.503 10.1497 218.503 8.6723V8.28756H214.486V6.89478H214.471Z" fill="#1C3687"/>
<path d="M231.529 6.95628V7.36411H234.36V8.70303H232.721C233.06 9.00313 233.337 9.36479 233.529 9.77262C233.729 10.1805 233.829 10.6191 233.829 11.0808C233.829 11.9734 233.498 12.7429 232.829 13.3892C232.16 14.0356 231.359 14.3588 230.421 14.3588C229.482 14.3588 228.682 14.0356 228.013 13.3892C227.343 12.7429 227.012 11.9734 227.012 11.0808C227.012 10.6191 227.112 10.1881 227.312 9.77262C227.512 9.36479 227.774 9.00313 228.105 8.70303H226.466V7.36411H229.297V5.82512H230.09C230.09 5.82512 231.529 5.73279 231.529 6.96397M228.851 19.0604V15.0667H229.636C229.636 15.0667 231.082 14.9898 231.082 16.2902V16.7519H235.53V15.0667H237.761V20.8148H231.013C228.713 20.9072 228.851 19.0604 228.851 19.0604ZM229.513 9.66489C229.251 10.065 229.113 10.5344 229.113 11.0808C229.113 11.6271 229.244 12.0965 229.513 12.4966C229.774 12.8968 230.082 13.0968 230.421 13.0968C230.759 13.0968 231.082 12.8968 231.336 12.4966C231.59 12.0965 231.721 11.6271 231.721 11.0808C231.721 10.5344 231.59 10.065 231.336 9.66489C231.075 9.26476 230.775 9.06469 230.421 9.06469C230.067 9.06469 229.774 9.26476 229.513 9.66489ZM231.452 19.4374H235.53V18.1524H231.082V19.0604C231.082 19.0604 231.067 19.4374 231.452 19.4374ZM237.761 7.0794V8.98004H239.992V10.3574H237.761V20.8148H235.53V5.80204H236.338C236.338 5.80204 237.761 5.70201 237.761 7.0717" fill="#1C3687"/>
<path d="M53.9351 8.26441V5.80203H55.0045C55.0045 5.80203 56.1663 5.70969 56.1663 6.82546V8.25671H53.9351V8.26441Z" fill="#1C3687"/>
<path d="M208.824 9.90344H205.392V11.2193H208.824V9.90344Z" fill="#1C3687"/>
<path d="M39.6089 10.3266V11.6886C39.6089 12.9352 39.9166 14.0048 40.5245 14.8897C41.1323 15.7746 41.8325 16.2979 42.6173 16.4671L42.2479 17.3828C41.6247 17.329 40.4245 17.0366 39.8012 16.4979C39.178 15.9593 38.7933 15.3975 38.6394 14.7973C38.4933 15.3975 38.1162 15.9593 37.493 16.4902C36.8698 17.0212 35.7773 17.3136 35.1463 17.3828L34.6616 16.4671C35.4464 16.2979 36.1389 15.7746 36.7467 14.882C37.3468 13.9971 37.6546 12.9275 37.6546 11.6886V9.18774H38.5163C38.5163 9.18774 39.6243 9.26469 39.6243 10.3266M45.0255 8.87225V11.0884H46.9644V12.2888H45.0255V21.0148H43.0866V7.70262H43.856C43.856 7.70262 45.0255 7.64876 45.0255 8.87225Z" fill="#1C3687"/>
</g>
</g>
<defs>
<clipPath id="clip0_199_8806">
<rect width="240" height="26.786" fill="white"/>
</clipPath>
</defs>
</svg>
