<svg xmlns="http://www.w3.org/2000/svg" width="245" height="28" fill="none"><g clip-path="url(#a)"><path fill="#D23345" d="M38.056 13v-.072c2.717-.676 4.456-2.455 4.456-5.802 0-4.782-4.19-6.25-8.834-6.25h-8.985v10.207H19.17v4.166h5.523v10.7h8.868c5.74 0 9.968-1.845 9.968-6.932 0-3.612-2.528-5.568-5.473-6.023m-7.357-7.52h2.295c2.345 0 3.55.832 3.55 2.71s-1.133 2.86-3.694 2.86H30.7V5.475m2.562 15.882h-2.567v-6.062h2.79c2.644 0 3.889.975 3.889 3.086s-1.517 2.97-4.118 2.97m14.73 4.605h6.157V.875h-6.157zM19.948 2.737 15.49.05 6.118 11.382V.875H0v25.08h6.118v-11.52l7.89 11.52h7.134l-9.329-13.52zm45.374 18.286L76.19 4.721V.875H58.41v4.938h10.379L57.992 22.038l2.94 3.917H76.49v-4.931z"/><path fill="#58595B" d="M85.903 22.26c0-.788.166-1.497.488-2.134a5.5 5.5 0 0 1 1.284-1.668 7 7 0 0 1 1.834-1.147 9.3 9.3 0 0 1 2.156-.62v-2.3h-9.396v-2.389h21.825v2.389h-9.423v2.3q1.124.15 2.183.542c.711.266 1.35.627 1.923 1.075q.826.682 1.344 1.68c.345.664.534 1.44.578 2.327 0 .964-.211 1.795-.633 2.504a5.6 5.6 0 0 1-1.667 1.768 7.9 7.9 0 0 1-2.39 1.058 10.695 10.695 0 0 1-5.356.028 7.2 7.2 0 0 1-2.35-1.03 5.8 5.8 0 0 1-1.695-1.796c-.444-.726-.678-1.59-.694-2.593M84.308 8.739A23 23 0 0 0 85.93 7.68a29 29 0 0 0 1.834-1.413 18 18 0 0 0 1.711-1.546q.8-.806 1.24-1.546h-6.23v-2.3H102v2.3h-6.173l6.29 5.774-1.917 1.945-6.968-6.3a25.5 25.5 0 0 1-2.628 2.737 38 38 0 0 1-2.395 1.973c-.727.526-1.317.93-1.772 1.202-.45.277-.69.427-.706.444l-1.417-2.211zm13.469 13.576c0-.588-.134-1.092-.384-1.519a3.3 3.3 0 0 0-1-1.047 5.3 5.3 0 0 0-1.461-.57 7.2 7.2 0 0 0-1.64-.195c-.51 0-1.033.061-1.56.178a5 5 0 0 0-1.451.56c-.434.276-.79.62-1.061 1.047-.278.42-.412.936-.412 1.546q0 .853.4 1.49c.267.421.612.77 1.045 1.042.417.277.89.476 1.434.604a7 7 0 0 0 3.172.011 5 5 0 0 0 1.45-.56q.644-.407 1.062-1.047.417-.631.417-1.546M118.208 20.846h9.479v2.355h-21.82v-2.355h9.39V14.22h2.956v6.627zm-11.252-8.422q2.482-1.885 4.106-3.846c1.083-1.308 1.939-2.488 2.567-3.552.75-1.236 1.328-2.433 1.745-3.596h2.8l8.452 11.226-2.156 1.735a353 353 0 0 1-3.412-4.45 195 195 0 0 1-2.228-3.003q-1.002-1.381-1.628-2.239a27.6 27.6 0 0 1-2.684 3.979 45 45 0 0 1-2.689 3.03 32 32 0 0 1-2.89 2.622l-1.978-1.912zM130.854 18.83a43 43 0 0 0 2.156-4.533q.41-1.005.828-2.167.416-1.163.767-2.433.327-1.237.578-2.532c.166-.865.278-1.735.339-2.621h-8.774V2.106h11.841c-.039 1.651-.239 3.435-.589 5.358q-.474 2.478-1.539 5.713c-.712 2.161-1.739 4.439-3.101 6.833l-2.511-1.175zM143.195.365h2.956v25.18h-2.956zM167.532.399h2.951v14.285h-2.951V8.351h-4.701a6.4 6.4 0 0 1-.661 2.355 5.7 5.7 0 0 1-1.433 1.795 6.5 6.5 0 0 1-2.067 1.191c-.789.289-1.645.427-2.573.427s-1.795-.15-2.611-.438a6.15 6.15 0 0 1-2.14-1.296 5.9 5.9 0 0 1-1.494-2.034c-.367-.803-.545-1.712-.545-2.743q0-1.405.517-2.588a6.1 6.1 0 0 1 1.433-2.033 6.2 6.2 0 0 1 2.129-1.325c.827-.316 1.728-.47 2.717-.47 1.572 0 2.961.415 4.15 1.252 1.195.836 1.984 1.989 2.378 3.463h4.907V.399zm-15.302 7.27q0 .824.267 1.574.266.758.766 1.307c.311.377.712.671 1.195.898q.724.34 1.639.338.859 0 1.567-.327.71-.324 1.211-.88c.334-.355.6-.782.784-1.28a4.6 4.6 0 0 0 .283-1.635q.002-1.74-1.006-2.887c-.666-.765-1.616-1.17-2.833-1.208-1.178 0-2.123.376-2.817 1.135q-1.051 1.13-1.051 2.96m15.475 8.727h2.773v10.628h-15.208V16.391h2.745v3.031h9.685v-3.031zm0 5.386h-9.685v2.887h9.685zM178.328 22.26q0-1.18.484-2.134a5.6 5.6 0 0 1 1.289-1.668 7 7 0 0 1 1.828-1.147 9.3 9.3 0 0 1 2.156-.62v-2.3h-9.391v-2.389h21.826v2.389h-9.424v2.3q1.123.15 2.19.542c.711.266 1.35.627 1.917 1.075q.827.682 1.344 1.68c.345.664.534 1.44.578 2.327 0 .964-.217 1.795-.633 2.504a5.6 5.6 0 0 1-1.673 1.768 7.9 7.9 0 0 1-2.389 1.058 10.7 10.7 0 0 1-5.362.028 7.2 7.2 0 0 1-2.345-1.03 5.9 5.9 0 0 1-1.7-1.796q-.66-1.089-.695-2.593m-1.594-13.515a22 22 0 0 0 1.622-1.059 28 28 0 0 0 1.828-1.413 18 18 0 0 0 1.717-1.546c.528-.537.95-1.053 1.239-1.546h-6.229v-2.3h17.514v2.3h-6.173l6.29 5.774-1.923 1.945-6.967-6.3a25 25 0 0 1-2.629 2.737 37 37 0 0 1-2.394 1.973c-.728.526-1.317.93-1.773 1.202-.456.277-.683.427-.706.444zm13.463 13.576q0-.88-.384-1.519a3.3 3.3 0 0 0-1-1.047 5.2 5.2 0 0 0-1.461-.57 7.2 7.2 0 0 0-1.639-.195q-.768.001-1.562.178a5 5 0 0 0-1.444.56 3.5 3.5 0 0 0-1.067 1.047q-.41.63-.411 1.546.001.853.394 1.49.4.633 1.05 1.042a4.3 4.3 0 0 0 1.434.604 7 7 0 0 0 3.173.011 4.8 4.8 0 0 0 1.444-.56q.652-.407 1.062-1.047c.277-.421.411-.936.411-1.546M204.96 14.13q-1.393-.002-2.611-.443a6.1 6.1 0 0 1-2.139-1.297 5.9 5.9 0 0 1-1.495-2.033q-.543-1.207-.545-2.738c0-.942.167-1.806.5-2.604a6 6 0 0 1 1.417-2.05 6.7 6.7 0 0 1 2.156-1.325 7.7 7.7 0 0 1 2.717-.47c.923 0 1.795.155 2.612.454a7 7 0 0 1 2.167 1.28 6.15 6.15 0 0 1 1.445 2.061c.355.804.533 1.712.533 2.71q.001 1.413-.506 2.593a6.2 6.2 0 0 1-1.389 2.034 6.25 6.25 0 0 1-2.156 1.357 7.7 7.7 0 0 1-2.717.471m-3.856-6.477q.001.824.261 1.573c.178.505.434.937.767 1.314q.468.556 1.195.897c.483.228 1.028.338 1.639.338.567 0 1.094-.11 1.567-.327.472-.216.872-.51 1.211-.88.339-.355.595-.782.783-1.28a4.7 4.7 0 0 0 .278-1.635q.002-1.739-1.005-2.87c-.667-.754-1.617-1.164-2.834-1.22q-1.774 0-2.823 1.13c-.7.754-1.044 1.74-1.044 2.96m17.308 14.313q.001 1.47-.622 2.593a5.9 5.9 0 0 1-1.656 1.884 8.2 8.2 0 0 1-2.39 1.12 10 10 0 0 1-2.75.387q-1.332.002-2.656-.354a7.6 7.6 0 0 1-2.389-1.087 5.9 5.9 0 0 1-1.712-1.884q-.65-1.122-.65-2.676c0-1.036.211-1.867.628-2.604a5.55 5.55 0 0 1 1.7-1.84 7.4 7.4 0 0 1 2.362-1.108c.889-.244 1.8-.377 2.75-.4q1.325-.001 2.64.355a7.7 7.7 0 0 1 2.378 1.092 6 6 0 0 1 1.695 1.867c.444.754.666 1.64.666 2.666m-7.406 3.668q.856.001 1.639-.221a4.3 4.3 0 0 0 1.4-.665q.615-.466.989-1.164.368-.689.428-1.635-.06-.916-.428-1.59a3.7 3.7 0 0 0-.961-1.153 4.7 4.7 0 0 0-1.417-.676 7 7 0 0 0-1.684-.266c-.533 0-1.067.072-1.594.222a4.2 4.2 0 0 0-1.417.692c-.434.31-.778.699-1.028 1.159q-.384.691-.384 1.607 0 .913.367 1.601c.245.46.578.848.989 1.164a4.8 4.8 0 0 0 1.417.681 6 6 0 0 0 1.684.233m7.323-18.78h3.923v2.45h-3.923v5.74h-2.895V.378h2.895zM238.504 9.952q.001 1.149-.372 2.106a5.4 5.4 0 0 1-1.017 1.69 6 6 0 0 1-1.595 1.225 6.9 6.9 0 0 1-1.978.692v3.502h7.263v2.472h-17.009v-2.472h6.79v-3.446c-1.478-.216-2.695-.804-3.661-1.768s-1.467-2.305-1.506-4.034q0-1.413.5-2.477.5-1.057 1.45-2.006h-3.367V3.17h6.434V0h2.984v3.18h6.435v2.3h-3.279c.334.178.623.45.867.826q.374.558.606 1.175c.155.432.272.87.339 1.313q.107.657.105 1.164m-10.24-.006q.091 1.562 1.083 2.577.99 1.02 2.639 1.02 1.569-.001 2.629-.976c.711-.648 1.061-1.53 1.061-2.649s-.322-1.983-.972-2.71q-.976-1.089-2.718-1.09-1.741 0-2.683 1.046c-.628.699-.978 1.63-1.039 2.788M245 25.506h-2.956V.35H245v25.157"/></g><defs><clipPath id="a"><path fill="#fff" d="M0 0h245v28H0z"/></clipPath></defs></svg>