<svg width="110" height="40" viewBox="0 0 110 40" fill="none" xmlns="http://www.w3.org/2000/svg">
<g clip-path="url(#clip0_199_8804)">
<path d="M9.93964 12.5591L17.2857 5.45422H12.3159L5.12451 12.5591L16.9652 24.2171H22.0419L9.93595 12.5591H9.93964Z" fill="#004A98"/>
<path d="M29.1782 5.24368V7.57012C32.5639 7.57012 34.6233 9.42758 34.6233 12.5554C34.6233 15.6831 32.5675 17.5849 29.1782 17.5849V19.867C35.3122 19.867 39.2763 17.0051 39.2763 12.5554C39.2763 8.10557 35.3122 5.23999 29.1782 5.23999V5.24368ZM29.1782 5.24368C23.0478 5.24368 19.0874 8.10557 19.0874 12.559C19.0874 17.0125 23.0515 19.8707 29.1782 19.8707V17.5886H29.1266C25.7409 17.5886 23.6778 15.6831 23.6778 12.559C23.6778 9.43497 25.7409 7.57382 29.1266 7.57382H29.1782V5.24738V5.24368Z" fill="#004A98"/>
<path d="M50.2181 19.6049H54.5506V17.5406H52.8596C50.0597 17.5406 49.0539 16.5842 49.0539 14.099V7.57755H54.5543V5.4616H49.0539V0H44.6698V5.45421H40.9673V7.57016H44.6698V15.3619C44.6698 18.1167 46.6187 19.6012 50.2218 19.6012L50.2181 19.6049Z" fill="#004A98"/>
<path d="M82.837 19.6049H91.4984V10.6462C91.4984 7.20459 88.9121 5.45792 83.7875 5.45792H82.837V7.68096C85.0549 7.78805 86.9595 8.26811 86.9595 10.5982V11.3959H82.837V13.4601H87.0148V17.4889H82.837V19.6086V19.6049ZM79.8234 19.6049H82.837V17.4852H81.9897C80.4571 17.4852 78.7145 17.4852 78.7145 15.6278C78.7145 13.6152 80.5676 13.4564 82.3618 13.4564H82.837V11.3922H81.6176C76.2793 11.3922 74.1094 12.6625 74.1094 15.7349C74.1094 18.2238 76.1725 19.6049 79.8197 19.6049H79.8234ZM82.837 5.45422H75.432V7.67727H82.837V5.45422Z" fill="#004A98"/>
<path d="M63.3297 5.45422C59.4651 5.45422 58.2014 6.30356 58.2014 8.84418V19.6012H62.5892V9.64182C62.5892 7.67727 65.4923 7.67727 66.8149 7.67727H71.9431L74.2715 5.45422H63.3334H63.3297Z" fill="#004A98"/>
<path d="M4.33619 19.6049V0H0V19.6049H4.33619Z" fill="#004A98"/>
<path d="M20.3067 36.8611C20.2662 36.887 20.2294 36.9091 20.1962 36.9202C19.9752 36.983 19.7099 37.0347 19.4041 37.079C19.0983 37.1233 18.7778 37.1566 18.4463 37.1861C18.111 37.212 17.7794 37.2304 17.4516 37.2415C17.12 37.2526 16.8289 37.2452 16.5747 37.2267C16.3316 37.212 16.1474 37.1566 16.0221 37.0569C15.8969 36.9535 15.8342 36.7873 15.8342 36.5509V31.7651C15.8342 31.5288 15.8821 31.3626 15.9816 31.2703C16.0774 31.1743 16.2542 31.13 16.5121 31.13H19.441C19.5368 31.13 19.581 31.178 19.581 31.2703V31.9682C19.581 32.0569 19.5331 32.1012 19.441 32.1012H17.19C17.061 32.1012 16.9984 32.1603 16.9984 32.271V35.9638C16.9984 36.0709 17.0168 36.141 17.0537 36.1706C17.0905 36.2001 17.1716 36.2223 17.3005 36.2371C17.4405 36.2592 17.6284 36.2629 17.8568 36.2592C18.0852 36.2518 18.3284 36.2371 18.5899 36.2149C18.8478 36.1927 19.1057 36.1632 19.3562 36.13C19.6068 36.0967 19.8278 36.0598 20.0157 36.0192C20.0636 36.0044 20.1078 36.0044 20.1446 36.0192C20.1852 36.034 20.2109 36.0672 20.2257 36.1189L20.3473 36.7356C20.362 36.7947 20.3473 36.8427 20.3067 36.8685V36.8611ZM22.7898 30.4579C22.7898 30.3693 22.8377 30.325 22.9298 30.325H23.7993C23.8877 30.325 23.9319 30.3693 23.9319 30.4579V39.7969C23.9319 39.8855 23.8877 39.9298 23.7993 39.9298H22.9224C22.834 39.9298 22.7935 39.8855 22.7935 39.7969V35.0111H21.8541V39.4128C21.8541 39.5052 21.8098 39.5532 21.7214 39.5532H20.8925C20.7967 39.5532 20.7525 39.5052 20.7525 39.4128V30.6388C20.7525 30.5502 20.8004 30.5059 20.8925 30.5059H21.7214C21.8098 30.5059 21.8541 30.5502 21.8541 30.6388V34.0399H22.7935V30.4579H22.7898Z" fill="#696A6D"/>
<path d="M30.7105 32.7696C30.6811 32.7991 30.6442 32.8139 30.6037 32.8139H25.2544C25.2139 32.8139 25.177 32.7991 25.1439 32.7622C25.1107 32.7289 25.0923 32.6883 25.0923 32.6403V32.0421C25.0923 32.0088 25.1107 31.9756 25.1475 31.9387C25.1844 31.9055 25.2212 31.8907 25.2618 31.8907H30.6037C30.6442 31.8907 30.6811 31.9055 30.7105 31.935C30.74 31.9645 30.7548 32.0015 30.7548 32.0421V32.6477C30.7548 32.6957 30.74 32.7326 30.7105 32.7622V32.7696ZM28.0101 33.1684C28.3122 33.1684 28.5996 33.2164 28.8685 33.3087C29.1374 33.4047 29.3695 33.5303 29.5685 33.6927C29.7674 33.8552 29.9258 34.0436 30.0364 34.2651C30.1506 34.483 30.2095 34.7193 30.2095 34.9704C30.2095 35.2216 30.1506 35.4653 30.0364 35.6831C29.9221 35.901 29.7637 36.093 29.5685 36.2555C29.3695 36.418 29.1374 36.5436 28.8685 36.6396C28.5996 36.7356 28.3085 36.7799 27.999 36.7799C27.6896 36.7799 27.4133 36.7319 27.1517 36.6396C26.8901 36.5436 26.658 36.418 26.4591 36.2555C26.2601 36.093 26.1054 35.901 25.9912 35.6831C25.877 35.4653 25.8181 35.2252 25.8181 34.9704C25.8181 34.7156 25.877 34.4867 25.9912 34.2651C26.1054 34.0473 26.2638 33.8552 26.4591 33.6927C26.658 33.5303 26.8901 33.401 27.1554 33.3087C27.4206 33.2164 27.7043 33.1684 28.0064 33.1684H28.0101ZM29.4064 31.4069C29.3769 31.4402 29.3327 31.4586 29.2811 31.4586H26.647C26.6212 31.4586 26.588 31.4439 26.5512 31.418C26.5143 31.3922 26.4959 31.3515 26.4959 31.3072V30.709C26.4959 30.6536 26.5143 30.613 26.5512 30.5871C26.588 30.5613 26.6212 30.5465 26.647 30.5465H29.2811C29.329 30.5465 29.3695 30.565 29.4027 30.5982C29.4358 30.6314 29.4543 30.6721 29.4543 30.7201V31.2961C29.4543 31.3368 29.4395 31.3737 29.4101 31.4069H29.4064ZM32.9136 39.7452C32.8805 39.7636 32.8473 39.7747 32.8142 39.7747H27.4833C27.1812 39.7747 26.9749 39.7193 26.868 39.6122C26.7612 39.5052 26.7059 39.3168 26.7059 39.0546V37.4852C26.7059 37.452 26.7207 37.4187 26.7575 37.3855C26.7907 37.3523 26.8238 37.3338 26.857 37.3338H27.7154C27.7633 37.3338 27.8001 37.3523 27.8333 37.3855C27.8627 37.4187 27.8775 37.452 27.8775 37.4852V38.6374C27.8775 38.7038 27.8885 38.7481 27.918 38.7703C27.9438 38.7888 27.9917 38.7998 28.0617 38.7998H32.8142C32.8473 38.7998 32.8805 38.8146 32.9136 38.8405C32.9468 38.8663 32.9652 38.8995 32.9652 38.9328V39.6529C32.9652 39.6935 32.9468 39.723 32.9136 39.7452ZM28.0101 34.0694C27.6933 34.0694 27.4317 34.158 27.2217 34.3316C27.0117 34.5052 26.9085 34.7193 26.9085 34.9704C26.9085 35.2216 27.0117 35.4468 27.2217 35.6278C27.4317 35.8124 27.6933 35.901 28.0101 35.901C28.3269 35.901 28.5996 35.8087 28.8022 35.6278C29.0085 35.4468 29.1116 35.2252 29.1116 34.9704C29.1116 34.7156 29.0085 34.5089 28.8022 34.3316C28.5996 34.1543 28.3343 34.0694 28.0101 34.0694ZM34.041 34.6492C34.0115 34.6713 33.9747 34.6861 33.9341 34.6861H32.571V37.5997C32.571 37.6883 32.5268 37.7326 32.4384 37.7326H31.5395C31.4511 37.7326 31.4068 37.6883 31.4068 37.5997V30.4579C31.4068 30.3693 31.4511 30.325 31.5395 30.325H32.4384C32.5268 30.325 32.571 30.3693 32.571 30.4579V33.7149H33.9341C33.9747 33.7149 34.0078 33.7297 34.041 33.7555C34.0704 33.7851 34.0852 33.8146 34.0852 33.8478V34.5679C34.0852 34.6012 34.0704 34.6307 34.041 34.6529V34.6492Z" fill="#696A6D"/>
<path d="M43.384 36.4513C43.3509 36.4883 43.3177 36.5067 43.2809 36.5067H39.4862V39.712C39.4862 39.808 39.4383 39.8524 39.3425 39.8524H38.4657C38.3699 39.8524 38.3257 39.8044 38.3257 39.712V36.5067H34.4906C34.4501 36.5067 34.4169 36.4883 34.3911 36.4513C34.3616 36.4144 34.3506 36.3812 34.3506 36.3442V35.6869C34.3506 35.6463 34.3653 35.6094 34.3911 35.5798C34.4169 35.5503 34.4501 35.5355 34.4906 35.5355H43.2845C43.3177 35.5355 43.3509 35.554 43.3877 35.5872C43.4209 35.6205 43.4393 35.6537 43.4393 35.6906V36.3479C43.4393 36.3812 43.4209 36.4181 43.3877 36.455L43.384 36.4513ZM41.9141 34.28C41.7998 34.3871 41.6193 34.4425 41.3651 34.4425H36.4579C36.1558 34.4425 35.9495 34.3871 35.8463 34.28C35.7432 34.1729 35.6916 33.9883 35.6916 33.7224V31.2039C35.6916 30.9491 35.7469 30.7682 35.8574 30.6648C35.9679 30.5614 36.1521 30.506 36.4063 30.506H41.3135C41.6156 30.506 41.8183 30.5577 41.9251 30.6574C42.0283 30.7571 42.0798 30.9454 42.0798 31.215V33.7335C42.0798 33.9883 42.0246 34.1729 41.9141 34.28ZM40.9193 31.6101C40.9193 31.5547 40.912 31.5215 40.8936 31.503C40.8751 31.4846 40.842 31.4772 40.7867 31.4772H36.9921C36.9368 31.4772 36.9037 31.4846 36.8853 31.4956C36.8668 31.5104 36.8595 31.5436 36.8595 31.5953V33.3273C36.8595 33.3937 36.8668 33.4343 36.8853 33.4491C36.9 33.4639 36.9368 33.4713 36.9921 33.4713H40.7867C40.842 33.4713 40.8751 33.4639 40.8936 33.4491C40.9083 33.438 40.9193 33.3974 40.9193 33.3273V31.6064V31.6101Z" fill="#696A6D"/>
<path d="M51.8426 35.8198H50.9437C50.8552 35.8198 50.811 35.7755 50.811 35.6905V34.6086H48.7221C48.5011 34.8449 48.2321 35.0258 47.9153 35.1551C47.5985 35.2843 47.2448 35.3471 46.8543 35.3471C46.4969 35.3471 46.1691 35.288 45.8706 35.1735C45.5722 35.0591 45.3143 34.9003 45.1043 34.6935C44.8944 34.4867 44.7286 34.243 44.6107 33.9549C44.4928 33.6669 44.4338 33.3567 44.4338 33.0207C44.4338 32.6846 44.4928 32.3929 44.6107 32.1049C44.7286 31.8168 44.8944 31.5694 45.1043 31.3552C45.318 31.1411 45.5722 30.9749 45.8706 30.853C46.1691 30.7312 46.4969 30.6721 46.8543 30.6721C47.2853 30.6721 47.6722 30.757 48.0148 30.9232C48.3574 31.093 48.6374 31.3183 48.8548 31.599H50.811V30.4579C50.811 30.3693 50.8552 30.325 50.9437 30.325H51.8426C51.931 30.325 51.9752 30.3693 51.9752 30.4579V35.6905C51.9752 35.7792 51.931 35.8198 51.8426 35.8198ZM48.1879 33.0354C48.1879 32.6329 48.0664 32.308 47.8232 32.0642C47.5801 31.8205 47.2559 31.6987 46.8543 31.6987C46.4527 31.6987 46.1469 31.8205 45.9038 32.0642C45.6606 32.308 45.5428 32.6329 45.5428 33.0354C45.5428 33.4379 45.6643 33.774 45.9038 34.0177C46.1433 34.2614 46.4638 34.3833 46.8543 34.3833C47.2448 34.3833 47.5801 34.2614 47.8232 34.0177C48.0664 33.774 48.1879 33.449 48.1879 33.0354ZM51.9273 39.8634C51.8978 39.8929 51.8647 39.9077 51.8315 39.9077H50.9621C50.9215 39.9077 50.8847 39.8929 50.8552 39.8634C50.8258 39.8338 50.811 39.8006 50.811 39.7673V37.4704C50.811 37.3966 50.7963 37.3486 50.7705 37.3301C50.7447 37.308 50.6968 37.3006 50.6305 37.3006H45.9959C45.9627 37.3006 45.9296 37.2895 45.8964 37.2637C45.8633 37.2415 45.8449 37.212 45.8449 37.1787V36.4586C45.8449 36.4106 45.8596 36.3774 45.8964 36.3589C45.9296 36.3368 45.9627 36.3294 45.9959 36.3294H51.3047C51.5589 36.3294 51.7357 36.3848 51.8315 36.4919C51.9273 36.599 51.9715 36.7799 51.9715 37.0384V39.771C51.9715 39.8043 51.9568 39.8375 51.9273 39.867V39.8634ZM49.33 33.017C49.33 33.2533 49.3005 33.4712 49.2416 33.6743H50.8147V32.5295H49.2821C49.3153 32.6994 49.3337 32.8619 49.3337 33.017H49.33Z" fill="#696A6D"/>
<path d="M62.3608 36.7393C62.3276 36.7725 62.2945 36.791 62.2613 36.791H58.4667V39.7157C58.4667 39.8117 58.4188 39.856 58.3267 39.856H57.4462C57.3541 39.856 57.3062 39.808 57.3062 39.7157V36.791H53.4711C53.4305 36.791 53.3974 36.7762 53.3716 36.7393C53.3458 36.7061 53.3311 36.6728 53.3311 36.6396V35.9823C53.3311 35.8752 53.3789 35.8198 53.4747 35.8198H62.2687C62.3019 35.8198 62.335 35.8383 62.3682 35.8715C62.4013 35.9047 62.4197 35.9417 62.4197 35.9823V36.6396C62.4197 36.6728 62.405 36.7061 62.3682 36.7393H62.3608ZM61.1266 34.9188C61.1008 34.9446 61.075 34.9594 61.0419 34.9594H55.3463C55.0773 34.9594 54.8894 34.8966 54.7826 34.7711C54.6758 34.6455 54.6205 34.4646 54.6205 34.2282V31.1706C54.6205 30.9158 54.6758 30.7423 54.79 30.6499C54.9042 30.5576 55.0884 30.5133 55.3463 30.5133H60.9498C61.0419 30.5133 61.0898 30.5576 61.0898 30.6462V31.3036C61.0898 31.3996 61.0419 31.4439 60.9498 31.4439H55.9615C55.8399 31.4439 55.781 31.4993 55.781 31.6174V32.2748H60.8172C60.8503 32.2748 60.8835 32.2895 60.9129 32.3154C60.9424 32.3412 60.9572 32.3745 60.9572 32.4151V33.0318C60.9572 33.0724 60.9424 33.1056 60.9129 33.1278C60.8835 33.1536 60.8503 33.1647 60.8172 33.1647H55.781V33.8036C55.781 33.9513 55.8399 34.0251 55.9615 34.0251H60.9977C61.0529 34.0251 61.0935 34.0325 61.1193 34.0436C61.145 34.0584 61.1598 34.0916 61.1598 34.1433V34.7895C61.1598 34.8449 61.1487 34.8818 61.1229 34.9114L61.1266 34.9188Z" fill="#696A6D"/>
<path d="M63.5213 37.4889C63.466 37.5221 63.4108 37.5369 63.3555 37.5295C63.2965 37.5221 63.2523 37.4926 63.2192 37.4372L62.825 36.9202C62.7771 36.8611 62.7697 36.8021 62.7992 36.7467C62.8287 36.6913 62.8655 36.6507 62.906 36.6248C63.3297 36.3626 63.735 36.0598 64.1181 35.7127C64.5012 35.3693 64.8476 35.0037 65.157 34.6233C65.4665 34.243 65.7281 33.8552 65.9454 33.4601C66.1591 33.065 66.3175 32.6846 66.4096 32.3227C66.4354 32.2083 66.4391 32.1344 66.4207 32.1012C66.4022 32.0679 66.3323 32.0495 66.218 32.0495H63.6134C63.5655 32.0495 63.5323 32.0347 63.5065 32.0015C63.4844 31.9719 63.4697 31.935 63.4697 31.8944V31.2149C63.4697 31.1743 63.4844 31.1411 63.5139 31.1152C63.5434 31.0894 63.5802 31.0746 63.6207 31.0746H66.9107C67.1722 31.0746 67.3785 31.1263 67.5259 31.226C67.6733 31.3294 67.7469 31.4586 67.7469 31.6211C67.7469 31.7097 67.7396 31.7984 67.7285 31.8907C67.7138 31.983 67.699 32.0642 67.6769 32.1381C67.5812 32.5037 67.4559 32.8693 67.3049 33.2348C67.1501 33.6041 66.9585 33.9697 66.7301 34.3316C66.8591 34.5052 67.0064 34.6898 67.1759 34.8855C67.3454 35.0775 67.5148 35.2622 67.6917 35.4431C67.8648 35.6204 68.0417 35.7865 68.2185 35.9379C68.3953 36.0894 68.5501 36.2149 68.6938 36.3183C68.7417 36.3515 68.7711 36.3959 68.7895 36.4512C68.808 36.5066 68.7932 36.5583 68.7527 36.6137L68.318 37.1086C68.2296 37.2083 68.119 37.2156 67.9864 37.127C67.8648 37.0458 67.7248 36.935 67.5627 36.791C67.4006 36.6507 67.2349 36.4919 67.0617 36.3146C66.8885 36.141 66.7191 35.9564 66.5459 35.7644C66.3765 35.5724 66.2217 35.3877 66.0891 35.2105C65.4002 36.0672 64.5455 36.8242 63.525 37.4778L63.5213 37.4889ZM71.9984 34.9704C71.9689 34.9963 71.9358 35.0111 71.9026 35.0111H70.5284V39.7969C70.5284 39.8855 70.4842 39.9298 70.3958 39.9298H69.4969C69.4085 39.9298 69.3643 39.8855 69.3643 39.7969V30.4579C69.3643 30.3693 69.4085 30.325 69.4969 30.325H70.3958C70.4842 30.325 70.5284 30.3693 70.5284 30.4579V34.0399H71.9026C71.9358 34.0399 71.9689 34.0509 71.9984 34.0768C72.0279 34.1026 72.0426 34.1285 72.0426 34.1617V34.8781C72.0426 34.9114 72.0279 34.9446 71.9984 34.9704Z" fill="#696A6D"/>
<path d="M73.3246 36.2334C73.2767 36.2555 73.2214 36.2629 73.1588 36.2629C73.0962 36.2629 73.0446 36.226 73.0041 36.1521L72.702 35.6573C72.6688 35.6019 72.6614 35.5465 72.6762 35.4911C72.6946 35.432 72.7351 35.3877 72.8014 35.3545C73.1699 35.1735 73.5272 34.9557 73.8661 34.7083C74.2051 34.4608 74.5146 34.1913 74.7945 33.9069C75.0745 33.6226 75.3177 33.3346 75.5203 33.0354C75.7266 32.74 75.8777 32.452 75.9808 32.175C76.0066 32.1086 76.0177 32.0532 76.014 32.0088C76.014 31.9645 75.9514 31.9424 75.8371 31.9424H73.3541C73.3062 31.9424 73.273 31.9276 73.2472 31.8981C73.2251 31.8685 73.2104 31.8316 73.2104 31.791V31.1115C73.2104 31.0192 73.262 30.9712 73.3614 30.9712H76.5629C76.8576 30.9712 77.075 31.0266 77.2187 31.1374C77.3624 31.2481 77.4139 31.4143 77.3808 31.6285C77.366 31.7024 77.3513 31.7762 77.3292 31.8501C77.3108 31.9239 77.2887 31.9904 77.2703 32.0532C77.1966 32.308 77.0897 32.5701 76.9461 32.836C76.8061 33.1019 76.6403 33.3678 76.4524 33.63C76.574 33.7666 76.7103 33.8995 76.865 34.0362C77.0197 34.1691 77.1782 34.3021 77.3439 34.4239C77.5097 34.5495 77.6718 34.6639 77.8339 34.7747C77.996 34.8818 78.1434 34.9741 78.276 35.048C78.4123 35.1145 78.4381 35.2179 78.3571 35.3508L78.0255 35.8678C77.9592 35.9823 77.8524 36.0044 77.7124 35.9306C77.5908 35.8678 77.4471 35.7829 77.2813 35.6721C77.1155 35.5613 76.9461 35.4357 76.7655 35.2991C76.5887 35.1588 76.4119 35.0148 76.2424 34.8597C76.0692 34.7046 75.9182 34.5569 75.7819 34.4128C75.4393 34.7784 75.0598 35.1145 74.6398 35.4247C74.2235 35.7348 73.7814 36.0044 73.3172 36.2334H73.3246ZM80.6081 39.7452C80.5749 39.7636 80.5417 39.7747 80.5012 39.7747H75.2219C74.9198 39.7747 74.7135 39.7193 74.6103 39.6122C74.5072 39.5052 74.4519 39.3168 74.4519 39.0546V36.9091C74.4519 36.8759 74.4667 36.8427 74.4961 36.8094C74.5256 36.7762 74.5588 36.7577 74.5919 36.7577H75.4687C75.5093 36.7577 75.5461 36.7725 75.5756 36.8021C75.605 36.8316 75.6198 36.8685 75.6198 36.9091V38.6411C75.6198 38.7075 75.6308 38.7518 75.6603 38.774C75.6898 38.7925 75.734 38.8035 75.8003 38.8035H80.4939C80.527 38.8035 80.5602 38.8183 80.5933 38.8442C80.6265 38.87 80.6449 38.9032 80.6449 38.9365V39.6566C80.6449 39.6972 80.6302 39.7267 80.6007 39.7489L80.6081 39.7452ZM80.3428 37.0827C80.3428 37.1713 80.2986 37.2156 80.2102 37.2156H79.3113C79.2228 37.2156 79.1786 37.1676 79.1786 37.0753V30.4579C79.1786 30.3693 79.2228 30.325 79.3113 30.325H80.2102C80.2986 30.325 80.3428 30.3693 80.3428 30.4579V37.0864V37.0827Z" fill="#696A6D"/>
<path d="M90.8205 36.6692C90.7873 36.7024 90.7542 36.7208 90.721 36.7208H81.9381C81.8976 36.7208 81.8644 36.7061 81.8386 36.6692C81.8128 36.6359 81.7981 36.6027 81.7981 36.5694V35.9712C81.7981 35.8641 81.846 35.8087 81.9381 35.8087H90.6805C90.7136 35.8087 90.7542 35.8235 90.802 35.8604C90.8499 35.8937 90.872 35.9306 90.872 35.9712V36.5694C90.872 36.6027 90.8573 36.6359 90.8205 36.6692ZM89.9252 32.3338C89.8958 32.3634 89.8589 32.3782 89.8184 32.3782H82.8407C82.8075 32.3782 82.7744 32.3597 82.7412 32.3228C82.7081 32.2858 82.6896 32.2452 82.6896 32.2046V31.6692C82.6896 31.6359 82.7081 31.6027 82.7449 31.5658C82.7818 31.5325 82.8186 31.5141 82.8517 31.5141H89.8184C89.8589 31.5141 89.8921 31.5288 89.9252 31.5584C89.9547 31.5879 89.9694 31.6248 89.9694 31.6655V32.212C89.9694 32.2563 89.9547 32.2969 89.9252 32.3265V32.3338ZM89.5384 38.5635C89.5384 38.9882 89.2658 39.3353 88.7205 39.6012C88.1753 39.8671 87.3795 40 86.3259 40C85.2722 40 84.4764 39.8671 83.9349 39.6012C83.3896 39.3353 83.117 38.9882 83.117 38.5635C83.117 38.1389 83.3896 37.7954 83.9349 37.5296C84.4801 37.2674 85.2796 37.1344 86.3259 37.1344C87.3721 37.1344 88.1716 37.2674 88.7205 37.5296C89.2658 37.7917 89.5384 38.1389 89.5384 38.5635ZM86.3295 35.3545C85.8727 35.3545 85.4748 35.3176 85.1396 35.2437C84.8043 35.1699 84.5243 35.0702 84.3033 34.952C84.0822 34.8302 83.9165 34.6898 83.8022 34.531C83.688 34.3723 83.6365 34.2061 83.6365 34.0288C83.6365 33.8516 83.6917 33.6743 83.8022 33.5118C83.9128 33.3494 84.0786 33.209 84.3033 33.0872C84.5243 32.9653 84.8043 32.8693 85.1396 32.7918C85.4748 32.7179 85.8727 32.681 86.3295 32.681C86.7864 32.681 87.1843 32.7179 87.5269 32.7918C87.8658 32.8656 88.1495 32.9653 88.3705 33.0872C88.5916 33.209 88.7574 33.3494 88.8716 33.5118C88.9821 33.6743 89.0374 33.8442 89.0374 34.0288C89.0374 34.2135 88.9821 34.3723 88.8716 34.531C88.7611 34.6898 88.5916 34.8302 88.3705 34.952C88.1495 35.0739 87.8658 35.1699 87.5269 35.2437C87.1879 35.3176 86.7901 35.3545 86.3295 35.3545ZM86.3295 37.9653C85.6554 37.9653 85.1469 38.0281 84.8043 38.1536C84.4617 38.2792 84.2885 38.4195 84.2885 38.5709C84.2885 38.7223 84.458 38.8627 84.8043 38.9845C85.1469 39.1064 85.6554 39.1655 86.3295 39.1655C87.0037 39.1655 87.5121 39.1027 87.8548 38.9845C88.1974 38.8627 88.3705 38.726 88.3705 38.5709C88.3705 38.4158 88.1974 38.2755 87.8548 38.1536C87.5121 38.0281 87.0037 37.9653 86.3295 37.9653ZM87.9174 31.1042C87.8879 31.1374 87.8474 31.1559 87.8032 31.1559H84.867C84.8412 31.1559 84.808 31.1411 84.7712 31.1152C84.7343 31.0894 84.7159 31.0525 84.7159 31.0045V30.4284C84.7159 30.3804 84.7343 30.3434 84.7712 30.3176C84.808 30.2917 84.8412 30.277 84.867 30.277H87.8032C87.8437 30.277 87.8806 30.2954 87.9137 30.3287C87.9469 30.3619 87.9653 30.3988 87.9653 30.4395V30.9971C87.9653 31.0377 87.9505 31.0746 87.9211 31.1078L87.9174 31.1042ZM86.3295 33.4638C85.8175 33.4638 85.4269 33.5192 85.1543 33.6263C84.8817 33.7334 84.7454 33.87 84.7454 34.0325C84.7454 34.195 84.8817 34.3169 85.1543 34.4276C85.4269 34.5347 85.8175 34.5901 86.3295 34.5901C86.8416 34.5901 87.2432 34.5347 87.5158 34.4276C87.7885 34.3169 87.9248 34.1876 87.9248 34.0325C87.9248 33.8774 87.7885 33.7371 87.5158 33.6263C87.2432 33.5192 86.849 33.4638 86.3295 33.4638Z" fill="#696A6D"/>
<path d="M100.311 35.3323C100.278 35.3656 100.244 35.384 100.211 35.384H91.4283C91.3878 35.384 91.3546 35.3693 91.3289 35.3323C91.3031 35.2991 91.2883 35.2659 91.2883 35.2326V34.5753C91.2883 34.5347 91.3031 34.4978 91.3289 34.4645C91.3546 34.4313 91.3878 34.4128 91.4283 34.4128H94.8988V32.8028C94.8988 32.7068 94.9466 32.6625 95.0388 32.6625H95.9156C96.0114 32.6625 96.0556 32.7105 96.0556 32.8028V34.4128H100.163C100.196 34.4128 100.237 34.4313 100.285 34.4682C100.333 34.5051 100.355 34.5421 100.355 34.5753V35.2326C100.355 35.2659 100.34 35.2991 100.303 35.3323H100.311ZM99.0397 37.9653C99.0397 38.2422 98.966 38.497 98.8223 38.7334C98.6786 38.9697 98.4687 39.1765 98.196 39.3501C97.9234 39.5273 97.5881 39.6602 97.1866 39.7599C96.785 39.856 96.3319 39.9077 95.8271 39.9077C95.3224 39.9077 94.8693 39.8597 94.4714 39.7599C94.0698 39.6602 93.7346 39.5236 93.462 39.3501C93.1893 39.1765 92.9793 38.9697 92.8357 38.7334C92.692 38.497 92.6183 38.2422 92.6183 37.9653C92.6183 37.6883 92.692 37.4409 92.8357 37.2046C92.9793 36.9682 93.1893 36.7651 93.462 36.5916C93.7346 36.418 94.0698 36.2851 94.4714 36.1854C94.873 36.0893 95.3224 36.0376 95.8271 36.0376C96.3319 36.0376 96.785 36.0857 97.1866 36.1854C97.5881 36.2851 97.9234 36.418 98.196 36.5916C98.4687 36.7614 98.6786 36.9682 98.8223 37.2046C98.966 37.4409 99.0397 37.692 99.0397 37.9653ZM99.0286 31.2666C99.0286 31.4032 99.0213 31.5842 99.0065 31.8168C98.9918 32.0495 98.9771 32.2895 98.955 32.5369C98.9365 32.7843 98.9107 33.017 98.885 33.2385C98.8592 33.4601 98.8297 33.6263 98.8039 33.7334C98.7892 33.7888 98.7671 33.8331 98.7265 33.8737C98.6897 33.9143 98.6455 33.9328 98.5902 33.9254L97.8129 33.8552C97.7097 33.8478 97.6729 33.7777 97.6913 33.641C97.7097 33.5266 97.7318 33.3826 97.7539 33.209C97.7724 33.0391 97.7908 32.8619 97.8055 32.6846C97.8166 32.5074 97.8313 32.3301 97.8424 32.1639C97.8497 31.9941 97.8571 31.8611 97.8571 31.7577C97.8571 31.6617 97.835 31.6063 97.7908 31.5805C97.7466 31.5583 97.6766 31.5436 97.5845 31.5436H92.8983C92.8651 31.5436 92.832 31.5325 92.7988 31.5066C92.7657 31.4845 92.7472 31.4549 92.7472 31.4217V30.7127C92.7472 30.6721 92.762 30.6425 92.7988 30.6204C92.832 30.5982 92.8651 30.5908 92.8983 30.5908H98.3581C98.535 30.5908 98.6897 30.6388 98.8223 30.7385C98.9586 30.8345 99.025 31.0118 99.025 31.2592L99.0286 31.2666ZM95.8271 36.9239C95.4919 36.9239 95.1935 36.9571 94.9393 37.0199C94.6851 37.0827 94.4714 37.1676 94.2982 37.2673C94.1251 37.367 93.9961 37.4815 93.904 37.6071C93.8119 37.7326 93.7677 37.8545 93.7677 37.9763C93.7677 38.0982 93.8119 38.2201 93.904 38.3456C93.9961 38.4712 94.1251 38.582 94.2982 38.6854C94.4714 38.7851 94.6814 38.87 94.9393 38.9328C95.1935 38.9955 95.4919 39.0288 95.8271 39.0288C96.1624 39.0288 96.4535 38.9955 96.7113 38.9328C96.9692 38.87 97.1866 38.7851 97.3561 38.6854C97.5255 38.5857 97.6581 38.4712 97.7502 38.3456C97.8424 38.2201 97.8866 38.0982 97.8866 37.9763C97.8866 37.8545 97.8424 37.7326 97.7502 37.6071C97.6581 37.4815 97.5292 37.3707 97.3561 37.2673C97.1829 37.1676 96.9692 37.0827 96.7113 37.0199C96.4535 36.9571 96.1587 36.9239 95.8271 36.9239Z" fill="#696A6D"/>
<path d="M101.733 37.692C101.604 37.7917 101.49 37.788 101.379 37.6809L100.904 37.2341C100.808 37.1381 100.819 37.0347 100.933 36.9202C101.372 36.5214 101.744 36.082 102.053 35.5945C102.363 35.1071 102.61 34.5901 102.801 34.0362C102.882 33.7925 102.952 33.5524 103.007 33.3124C103.066 33.0724 103.111 32.8286 103.144 32.5849C103.177 32.3375 103.199 32.0827 103.214 31.8168C103.229 31.5509 103.229 31.2703 103.225 30.9712C103.225 30.9306 103.24 30.8936 103.269 30.8641C103.299 30.8346 103.332 30.8198 103.365 30.8198L104.264 30.8493C104.297 30.8493 104.326 30.8641 104.356 30.8936C104.382 30.9232 104.396 30.9601 104.396 31.0007C104.396 31.4106 104.382 31.7947 104.356 32.1492C104.33 32.5037 104.286 32.8471 104.223 33.1758C104.29 33.4933 104.396 33.8109 104.536 34.1285C104.676 34.4461 104.842 34.7489 105.03 35.0443C105.218 35.336 105.421 35.6056 105.642 35.853C105.859 36.1004 106.076 36.3109 106.294 36.4845C106.401 36.5657 106.408 36.6691 106.316 36.7984L105.892 37.3153C105.859 37.3634 105.811 37.3892 105.756 37.3966C105.701 37.404 105.638 37.3818 105.568 37.3338C105.406 37.2046 105.236 37.0458 105.052 36.8574C104.872 36.6691 104.698 36.4623 104.533 36.2444C104.367 36.0266 104.216 35.7976 104.072 35.565C103.932 35.3323 103.818 35.1071 103.73 34.8929C103.608 35.1772 103.472 35.4542 103.317 35.7238C103.162 35.9933 102.996 36.2481 102.823 36.4882C102.646 36.7282 102.466 36.9498 102.285 37.1566C102.101 37.3597 101.917 37.5406 101.733 37.6883V37.692ZM109.956 34.9483C109.926 34.9741 109.893 34.9889 109.86 34.9889H108.486V39.7969C108.486 39.8855 108.442 39.9298 108.357 39.9298H107.458C107.369 39.9298 107.329 39.8855 107.329 39.7969V30.4579C107.329 30.3693 107.373 30.325 107.458 30.325H108.357C108.445 30.325 108.486 30.3693 108.486 30.4579V34.0177H109.86C109.893 34.0177 109.926 34.0288 109.956 34.0546C109.985 34.0768 110 34.1063 110 34.1396V34.8486C110 34.8892 109.985 34.9224 109.956 34.9483Z" fill="#696A6D"/>
</g>
<defs>
<clipPath id="clip0_199_8804">
<rect width="110" height="40" fill="white"/>
</clipPath>
</defs>
</svg>
