<svg xmlns="http://www.w3.org/2000/svg" width="77" height="28" fill="none"><g clip-path="url(#a)"><path fill="#004A98" d="M6.958 8.791 12.1 3.818H8.621L3.587 8.79l8.289 8.16h3.554l-8.475-8.16z"/><path fill="#004A98" d="M20.425 3.67V5.3c2.37 0 3.811 1.3 3.811 3.489s-1.439 3.52-3.811 3.52v1.598c4.294 0 7.069-2.003 7.069-5.118s-2.775-5.121-7.07-5.121zm0 0c-4.291 0-7.064 2.004-7.064 5.121s2.775 5.118 7.064 5.118v-1.597h-.036c-2.37 0-3.814-1.334-3.814-3.52 0-2.188 1.444-3.49 3.814-3.49h.036V3.67M35.153 13.723h3.033v-1.445h-1.184c-1.96 0-2.664-.67-2.664-2.409V5.304h3.85v-1.48h-3.85V0h-3.069v3.818h-2.592v1.481h2.592v5.454c0 1.929 1.364 2.968 3.886 2.968zM57.986 13.723h6.063v-6.27c0-2.41-1.81-3.633-5.398-3.633h-.665v1.557c1.552.075 2.886.41 2.886 2.042v.558h-2.886v1.445h2.924v2.82h-2.924v1.484zm-2.11 0h2.11V12.24h-.593c-1.073 0-2.293 0-2.293-1.3 0-1.41 1.297-1.52 2.553-1.52h.333V7.973h-.854c-3.737 0-5.255.89-5.255 3.04 0 1.743 1.444 2.71 3.997 2.71zm2.11-9.905h-5.184v1.556h5.184zM44.331 3.818c-2.705 0-3.59.594-3.59 2.373v7.53h3.072V6.749c0-1.375 2.032-1.375 2.958-1.375h3.59l1.63-1.556h-7.66M3.035 13.723V0H0v13.723z"/><path fill="#696A6D" d="M14.215 25.803a.4.4 0 0 1-.078.041 4 4 0 0 1-.554.111 12 12 0 0 1-1.367.114 6 6 0 0 1-.614-.01q-.255-.015-.386-.12-.132-.107-.132-.353v-3.35q0-.25.103-.347.1-.1.372-.098h2.05q.1.001.098.098v.489q-.001.093-.098.093h-1.576q-.135.001-.134.119v2.585q0 .113.039.145.037.03.172.046.149.021.39.015a10 10 0 0 0 1.05-.09q.263-.035.461-.078a.14.14 0 0 1 .09 0q.043.015.057.07l.085.432c.01.041 0 .075-.028.093zm1.738-4.482q0-.094.098-.094h.609q.092 0 .092.094v6.537q0 .093-.092.093h-.614q-.091 0-.09-.093v-3.35h-.658v3.081q0 .098-.093.098h-.58q-.1 0-.098-.098v-6.142q0-.093.098-.093h.58q.093 0 .093.093v2.381h.658v-2.507zM21.497 22.939a.1.1 0 0 1-.075.03h-3.744a.1.1 0 0 1-.077-.035.12.12 0 0 1-.037-.086v-.418q0-.035.04-.073a.12.12 0 0 1 .08-.033h3.738q.044 0 .075.03.03.032.031.076v.424q0 .049-.03.08zm-1.89.279q.318.001.6.098.283.1.49.269.21.17.328.4.121.23.122.494c0 .176-.042.347-.122.5q-.12.229-.327.4-.209.17-.49.269a1.8 1.8 0 0 1-.609.098c-.216 0-.41-.034-.593-.098a1.7 1.7 0 0 1-.485-.27 1.3 1.3 0 0 1-.327-.4 1.07 1.07 0 0 1-.121-.499c0-.178.04-.338.12-.493q.121-.23.328-.401a1.6 1.6 0 0 1 .488-.269q.278-.097.595-.098zm.977-1.233a.11.11 0 0 1-.087.036h-1.844a.13.13 0 0 1-.067-.028.1.1 0 0 1-.039-.078v-.419q0-.057.039-.085.04-.027.067-.028h1.844q.05 0 .085.036a.12.12 0 0 1 .036.085v.403q0 .044-.031.078zm2.455 5.837a.14.14 0 0 1-.07.02h-3.73q-.319 0-.431-.113-.113-.114-.114-.39v-1.1q-.002-.034.036-.07.034-.034.07-.035h.6q.05 0 .083.036.03.034.031.07v.806q-.001.07.028.093.027.02.101.021h3.327q.034 0 .07.028.035.029.036.065v.504q0 .042-.037.065m-3.432-3.973a.84.84 0 0 0-.552.183.56.56 0 0 0-.22.447c0 .176.073.334.22.46q.22.193.552.192a.8.8 0 0 0 .554-.192.6.6 0 0 0 .217-.46.56.56 0 0 0-.217-.447q-.213-.184-.554-.183m4.221.406a.13.13 0 0 1-.074.025H22.8v2.04q0 .093-.093.093h-.63q-.092 0-.092-.093v-5q0-.092.093-.093h.629q.093 0 .093.094v2.28h.954q.04 0 .074.028.032.03.032.065v.504q0 .035-.032.06zM30.369 25.516q-.035.039-.072.039H27.64v2.243q0 .1-.1.099h-.614q-.1 0-.098-.099v-2.243h-2.685a.08.08 0 0 1-.07-.04.11.11 0 0 1-.028-.074v-.46q0-.044.029-.075a.09.09 0 0 1 .07-.031h6.155q.035 0 .072.036.037.034.037.072v.46q0 .037-.037.075zm-1.03-1.52q-.118.113-.383.114H25.52q-.317-.001-.428-.114-.108-.112-.108-.39v-1.763q0-.268.116-.378t.384-.111h3.435q.317 0 .429.106.108.107.108.39v1.763q0 .27-.116.383m-.695-1.87q0-.056-.018-.074-.019-.019-.075-.018h-2.656c-.04 0-.062.005-.075.013q-.019.015-.018.07v1.212q0 .07.018.085.016.016.075.016h2.656q.056 0 .075-.016.016-.012.017-.085v-1.205zM36.29 25.074h-.63q-.092 0-.092-.09v-.758h-1.462a1.6 1.6 0 0 1-.565.383q-.333.135-.743.134-.375 0-.688-.121a1.5 1.5 0 0 1-.537-.337 1.5 1.5 0 0 1-.345-.517 1.7 1.7 0 0 1-.124-.654 1.64 1.64 0 0 1 .47-1.165 1.6 1.6 0 0 1 .536-.352q.313-.127.688-.127.453.001.813.176.36.18.588.473h1.369v-.798q0-.094.093-.094h.63q.092 0 .092.094v3.662c0 .063-.031.09-.093.09m-2.558-1.95q0-.421-.255-.679-.256-.256-.679-.256c-.28 0-.495.085-.665.256q-.254.256-.253.68c0 .282.085.517.253.688q.254.255.665.255c.274 0 .508-.085.679-.256q.255-.254.255-.687m2.617 4.78a.1.1 0 0 1-.067.031h-.608a.1.1 0 0 1-.075-.03.1.1 0 0 1-.031-.068V26.23q0-.077-.028-.098t-.098-.02h-3.245a.1.1 0 0 1-.07-.026q-.034-.025-.035-.06v-.504q-.002-.05.036-.07a.12.12 0 0 1 .07-.02h3.716q.267 0 .368.113.1.112.098.383v1.913q0 .035-.03.067zm-1.818-4.792q0 .247-.062.46h1.102v-.801h-1.073q.035.178.036.341zM43.652 25.718q-.034.035-.07.036h-2.656V27.8q0 .1-.098.098h-.616q-.097 0-.098-.098v-2.047H37.43a.08.08 0 0 1-.07-.036.12.12 0 0 1-.029-.07v-.46q0-.113.101-.114h6.156q.034 0 .07.036a.1.1 0 0 1 .036.078v.46q.002.034-.037.07zm-.864-1.275q-.026.028-.059.029h-3.987q-.282 0-.394-.132t-.114-.38v-2.14q0-.268.119-.365.12-.097.39-.096h3.922q.097 0 .098.093v.46q-.001.1-.098.099h-3.492q-.127-.001-.127.121v.46h3.526q.035 0 .067.029.03.027.03.07v.431a.08.08 0 0 1-.03.067.1.1 0 0 1-.067.026h-3.526v.448q0 .155.127.155h3.525q.058 0 .085.013.028.015.029.07v.452q0 .055-.026.085zM44.465 26.242a.18.18 0 0 1-.116.029.12.12 0 0 1-.095-.065l-.276-.362q-.05-.062-.019-.121a.2.2 0 0 1 .075-.086 6 6 0 0 0 .849-.638q.402-.361.727-.763.325-.399.552-.814.226-.415.325-.796.027-.12.008-.155-.02-.035-.142-.036h-1.824q-.048.001-.074-.034a.13.13 0 0 1-.026-.075v-.476q0-.042.03-.07a.1.1 0 0 1 .076-.028h2.303q.275.001.43.106.155.108.155.277 0 .092-.013.189-.014.096-.036.173a6 6 0 0 1-.26.768 5 5 0 0 1-.403.767q.135.182.312.388.177.201.361.39a6 6 0 0 0 .702.613.18.18 0 0 1 .067.093q.018.057-.026.114l-.304.346q-.093.106-.233.013a3 3 0 0 1-.296-.235 6 6 0 0 1-.35-.334 11 11 0 0 1-.362-.385 6 6 0 0 1-.32-.388q-.723.9-1.794 1.588zm5.934-1.763a.1.1 0 0 1-.067.029h-.962v3.35q0 .093-.093.093h-.63q-.092 0-.092-.093V21.32q0-.094.093-.094h.63q.092 0 .092.094v2.507h.962a.1.1 0 0 1 .067.026q.03.026.03.06v.5q0 .037-.03.065M51.327 25.363a.3.3 0 0 1-.116.021q-.066 0-.108-.077l-.212-.347a.15.15 0 0 1-.018-.116.16.16 0 0 1 .088-.096q.388-.19.745-.452.356-.261.65-.561c.196-.2.366-.4.508-.61.145-.207.25-.409.323-.602a.3.3 0 0 0 .023-.117c0-.03-.044-.046-.124-.046h-1.738a.1.1 0 0 1-.075-.031.13.13 0 0 1-.026-.075v-.476q0-.097.106-.098h2.24q.31 0 .46.116.15.118.113.344-.014.078-.036.155-.02.077-.04.142a2.8 2.8 0 0 1-.228.548 5 5 0 0 1-.345.556q.127.143.288.284.163.143.336.272t.343.245q.17.113.31.192.142.07.056.212l-.232.362q-.072.12-.22.043a3 3 0 0 1-.301-.18 6.744 6.744 0 0 1-1.05-.881q-.359.382-.8.707a6 6 0 0 1-.925.566zm5.099 2.459a.15.15 0 0 1-.075.02h-3.696q-.318 0-.428-.113-.109-.114-.11-.39v-1.502q0-.036.03-.07.031-.037.067-.037h.614q.043 0 .075.032.03.03.03.075v1.212q-.001.069.03.093.028.02.097.02h3.286q.034 0 .07.029.034.028.035.065v.504q0 .042-.03.064zm-.186-1.864q0 .093-.093.093h-.63q-.092-.001-.092-.098V21.32q0-.094.093-.094h.629q.093 0 .093.094v4.64zM63.575 25.668q-.036.037-.07.037h-6.148a.08.08 0 0 1-.07-.037.12.12 0 0 1-.028-.07v-.418q0-.113.098-.114h6.12q.034-.002.085.036.05.035.049.078v.419q.002.034-.036.07m-.627-3.034a.1.1 0 0 1-.075.03h-4.884q-.036 0-.07-.038a.13.13 0 0 1-.036-.083v-.375q0-.034.039-.072.038-.035.074-.036h4.877q.041 0 .075.03.03.032.03.076v.382q0 .048-.03.08zm-.271 4.36q0 .447-.572.727T60.428 28q-1.105 0-1.673-.28-.573-.278-.573-.726 0-.445.572-.723.574-.277 1.674-.277t1.677.277q.572.276.572.723m-2.246-2.246q-.48 0-.833-.077a2.3 2.3 0 0 1-.586-.205 1.04 1.04 0 0 1-.35-.294.6.6 0 0 1-.116-.352.64.64 0 0 1 .116-.362 1 1 0 0 1 .35-.297q.233-.126.586-.207a4 4 0 0 1 .833-.077q.479 0 .838.077.357.079.59.207.232.127.351.297a.63.63 0 0 1 .116.362c0 .13-.038.24-.116.352q-.117.167-.35.294a2.2 2.2 0 0 1-.591.205 4 4 0 0 1-.838.077m0 1.828q-.708 0-1.068.131-.36.133-.36.293-.001.16.36.29.36.126 1.068.126.708-.001 1.068-.127t.36-.29q0-.163-.36-.291-.36-.132-1.068-.132m1.111-4.803a.1.1 0 0 1-.08.036h-2.055q-.028 0-.067-.028a.09.09 0 0 1-.039-.078V21.3a.09.09 0 0 1 .039-.078q.04-.027.067-.028h2.055q.043 0 .078.036a.1.1 0 0 1 .036.078v.39q0 .042-.031.078zm-1.111 1.652q-.538 0-.823.113-.286.113-.286.285c0 .113.095.199.286.276q.285.113.823.114c.358 0 .64-.039.83-.114q.286-.115.286-.276c0-.109-.095-.207-.286-.285q-.285-.113-.83-.113M70.218 24.733q-.036.035-.07.036H64a.08.08 0 0 1-.07-.036.12.12 0 0 1-.028-.07v-.46q0-.044.028-.078a.09.09 0 0 1 .07-.036h2.43v-1.127q0-.1.097-.098h.614q.1 0 .098.098v1.127h2.875q.036 0 .085.039.05.04.05.075v.46q.002.034-.037.07zm-.89 1.843q-.001.29-.152.537-.151.249-.439.432c-.19.124-.425.217-.706.287a4 4 0 0 1-.952.103q-.53.001-.949-.103a2.4 2.4 0 0 1-.707-.287 1.35 1.35 0 0 1-.438-.432 1.01 1.01 0 0 1 0-1.07q.151-.247.438-.429.286-.181.707-.284.42-.102.949-.104.53 0 .952.104.42.104.706.284.287.18.439.43.151.246.152.532m-.008-4.69q0 .143-.015.386t-.037.504q-.02.259-.049.491a3 3 0 0 1-.056.346.2.2 0 0 1-.054.099.1.1 0 0 1-.096.036l-.544-.05q-.106-.007-.085-.15.02-.12.044-.302.02-.18.036-.367l.026-.364c.005-.12.01-.212.01-.285q0-.099-.046-.124a.3.3 0 0 0-.145-.026h-3.28a.1.1 0 0 1-.07-.025q-.035-.025-.036-.06V21.5q-.001-.043.036-.065a.12.12 0 0 1 .07-.02h3.822q.186-.001.325.103.142.102.141.364zm-2.241 3.96q-.354.001-.621.068a1.7 1.7 0 0 0-.45.173.9.9 0 0 0-.275.238.43.43 0 0 0-.096.258q0 .128.096.259a.9.9 0 0 0 .276.238q.18.106.448.173t.622.067c.235 0 .438-.023.619-.067q.272-.068.451-.173a.9.9 0 0 0 .276-.238.43.43 0 0 0 .096-.259q0-.127-.096-.258a.9.9 0 0 0-.276-.238q-.18-.107-.451-.173a2.6 2.6 0 0 0-.619-.067M71.213 26.385c-.09.07-.17.067-.248-.008l-.332-.313q-.1-.1.02-.22.46-.418.784-.928a5.2 5.2 0 0 0 .668-1.597q.06-.253.096-.51a7 7 0 0 0 .056-1.13q0-.042.031-.074a.1.1 0 0 1 .067-.031l.63.02q.034 0 .064.032.028.03.028.075 0 .43-.028.803a6 6 0 0 1-.093.72q.071.332.22.666a4.8 4.8 0 0 0 .773 1.207q.228.26.457.442.112.085.015.22l-.297.362a.13.13 0 0 1-.095.057q-.058.007-.131-.044a4 4 0 0 1-.361-.334 5 5 0 0 1-.364-.429 6 6 0 0 1-.323-.475 3.6 3.6 0 0 1-.24-.47 5.6 5.6 0 0 1-.634 1.116q-.186.251-.376.468a3.5 3.5 0 0 1-.387.372zm5.756-1.921a.1.1 0 0 1-.067.028h-.962v3.366q0 .093-.09.093h-.63q-.09 0-.09-.093V21.32q0-.094.09-.094h.63q.092 0 .09.094v2.491h.962a.1.1 0 0 1 .067.026q.03.025.031.06v.496q0 .043-.031.07"/></g><defs><clipPath id="a"><path fill="#fff" d="M0 0h77v28H0z"/></clipPath></defs></svg>