<svg xmlns="http://www.w3.org/2000/svg" width="154" height="28" fill="none"><g clip-path="url(#a)"><path fill="#010101" d="m52.477 11.92-1.235-.006V7.255H48.74v8.253h-5.658l.014-4.772 4.396-.02v-2.35H40.7v9.525h8.04v3.853h2.502v-7.507l1.235.013v7.494h2.475V7.254h-2.475zM70.091 9.272V7.275h-2.508v8.666h2.508v-4.293h2.61V9.272s-2.576.006-2.61 0M101.677 13.624v-6.35h-9.12v2.33h6.665v4.02H97.08v-2.362h-2.516v2.362h-4.75v2.43h4.03a4 4 0 0 0-.447 1.87c0 1.125.407 2.103 1.22 2.908.808.806 1.789 1.218 2.917 1.218s2.121-.412 2.929-1.218c.8-.805 1.207-1.783 1.207-2.908a4 4 0 0 0-.44-1.87h3.263v-2.43h-2.823zm-2.829 5.611a1.8 1.8 0 0 1-1.308.54 1.78 1.78 0 0 1-1.307-.54 1.78 1.78 0 0 1-.54-1.305c0-.512.18-.945.54-1.317a1.77 1.77 0 0 1 1.307-.546c.514 0 .941.18 1.308.546.367.372.54.798.54 1.317 0 .52-.18.939-.54 1.305M117.07 10.802v5.471h-3.91v-.725a3.8 3.8 0 0 0 1.774-1.292 3.55 3.55 0 0 0 .741-2.216c0-.32-.033-.625-.113-.912-.04-.166-.114-.32-.18-.479h.967V8.36h-3.109V6.783h-2.509V8.36h-3.323v2.29h1.068c-.06.159-.134.305-.18.472a3.6 3.6 0 0 0-.107.912c0 .845.253 1.597.747 2.236a3.83 3.83 0 0 0 1.808 1.298v.698h-3.829v2.35h10.148v3.121h2.502V7.275h-2.502s-.013 2.842 0 3.527zm-5.131 2.67c-.381 0-.694-.134-.968-.407a1.3 1.3 0 0 1-.407-.965c0-.38.134-.692.407-.965.274-.273.587-.406.968-.406.38 0 .694.133.967.406a1.3 1.3 0 0 1 .407.965 1.3 1.3 0 0 1-.407.965 1.3 1.3 0 0 1-.967.406M127.718 15.6c1.201 0 2.235-.432 3.083-1.284.847-.852 1.274-1.883 1.274-3.061s-.427-2.23-1.274-3.075c-.848-.845-1.882-1.271-3.083-1.271s-2.215.426-3.069 1.27c-.854.846-1.288 1.878-1.288 3.076s.434 2.21 1.281 3.061c.854.852 1.889 1.278 3.07 1.278zm-1.381-5.73c.38-.392.834-.579 1.375-.579.54 0 .994.187 1.374.58.387.392.574.845.574 1.384s-.187.991-.567 1.37c-.381.38-.834.567-1.375.567-.54 0-.994-.187-1.381-.566a1.86 1.86 0 0 1-.567-1.371q-.001-.808.567-1.385"/><path fill="#010101" d="M133.763 16.293h-10.595v2.43h10.595v3.068h2.556V7.255h-2.556zM147.955 17.677v-2.522h-2.515v2.522h-6.112v2.376h14.686v-2.376h-6.058999999999999M64.233 14.842a3.64 3.64 0 0 0 1.1-2.655q-.002-.618-.173-1.165a4 4 0 0 0-.307-.68h.868V8.22h-3.036V6.709h-2.222v1.51h-3.116v2.144h.94a4 4 0 0 0-.293.659 3.6 3.6 0 0 0-.187 1.171c0 1.032.367 1.93 1.101 2.656a3.64 3.64 0 0 0 2.663 1.098 3.67 3.67 0 0 0 2.662-1.098zm-4.117-2.629c0-.812.66-1.477 1.481-1.477s1.482.659 1.482 1.477-.661 1.478-1.482 1.478c-.82 0-1.48-.66-1.48-1.478M63.893 19.375v-2.63H61.47v4.999h8.634v-2.37s-6.186.02-6.212 0M86.338 9.81V7.275h-2.502v6.562l-.387-.3s-1.722-1.484-2.349-2.056-1.154-1.165-1.154-1.178c.04-.266.167-.839.167-1.557V7.268h-2.696v1.478c0 1.896-1.381 3.041-1.928 3.574-.554.532-2.209 1.657-2.209 1.657l1.568 1.744s1.321-.832 2.015-1.425c.66-.559 1.235-1.144 1.722-1.743a62 62 0 0 0 1.888 1.61c-.434.2-.834.473-1.195.839a3.98 3.98 0 0 0-1.22 2.922c0 1.138.406 2.103 1.22 2.908.808.805 1.795 1.218 2.916 1.218s2.122-.413 2.93-1.218c.8-.805 1.207-1.784 1.207-2.908v-5.757h2.602V9.804h-2.602zm-2.83 9.425a1.8 1.8 0 0 1-1.307.539 1.78 1.78 0 0 1-1.308-.54 1.76 1.76 0 0 1-.54-1.304c0-.512.18-.945.54-1.317a1.77 1.77 0 0 1 1.308-.546c.514 0 .94.18 1.308.546.367.372.54.798.54 1.317 0 .52-.18.939-.54 1.305"/><path fill="#010101" d="M146.574 11.987c1.748 1.803 4.837 3.454 4.837 3.454l1.528-1.924c-3.062-1.71-4.503-3.121-5.071-3.773.154-.473.241-.972.241-1.484V7.208h-2.656v.985c0 .466.047 2.582-4.931 5.338l1.655 1.777s2.636-1.231 4.397-3.321"/><path fill="url(#b)" d="M38.331.013H13.177v27.96h25.154z"/><path fill="#fff" d="M20.67 1.743a.467.467 0 0 0 .454-.472c0-.26-.2-.473-.454-.473a.46.46 0 0 0-.454.473c0 .26.2.472.454.472M25.994 15.847c0 .113.087.206.194.206.1 0 .193-.093.193-.206s-.087-.206-.193-.206-.194.093-.194.206M26.215 19.927c-.12 0-.227.106-.227.24 0 .132.1.232.227.232a.23.23 0 0 0 .227-.233c0-.126-.1-.24-.227-.24M22.031 5.21c-.18 0-.32.147-.32.334 0 .186.14.34.32.34.16 0 .32-.154.32-.34a.323.323 0 0 0-.32-.333M25.147 12.812a.336.336 0 0 0-.327-.346.336.336 0 0 0-.327.346c0 .193.147.346.327.346.16 0 .327-.153.327-.346M24.813 16.346c.207 0 .407-.193.407-.433s-.18-.426-.407-.426a.417.417 0 0 0-.407.426c0 .233.18.433.407.433M24.673 14.396a.17.17 0 0 0 .167.173c.08 0 .16-.08.16-.173 0-.094-.073-.173-.16-.173a.175.175 0 0 0-.167.173M23.392 14.003c-.2 0-.36.166-.36.373 0 .206.16.379.36.379.18 0 .354-.173.354-.38a.364.364 0 0 0-.354-.372M26.368 12.872a.15.15 0 0 0-.147-.153.15.15 0 0 0-.147.153.15.15 0 0 0 .147.153.154.154 0 0 0 .147-.153M26.174 8.805c.134 0 .26-.126.26-.273 0-.146-.12-.273-.26-.273s-.26.127-.26.273.12.28.26.273M26.175 10.363c.186 0 .367-.18.367-.393s-.167-.393-.367-.393-.367.173-.367.393.166.393.367.393M26.502 11.374c0-.186-.14-.333-.314-.333a.33.33 0 0 0-.32.333c0 .18.14.34.32.333.16 0 .314-.153.314-.333M16.466 1.524c.174 0 .314-.146.314-.333a.316.316 0 0 0-.314-.326.32.32 0 0 0-.313.326c0 .18.14.333.313.333M17.94 1.524c.148 0 .261-.126.261-.28a.263.263 0 0 0-.26-.272.267.267 0 0 0-.26.273c0 .146.12.28.26.28M22.045 6.782a.28.28 0 0 0-.274.286c0 .16.12.293.274.286a.29.29 0 0 0 .273-.286c0-.16-.12-.286-.273-.286M23.486 7.334c.126 0 .247-.12.247-.26s-.114-.26-.247-.26a.253.253 0 0 0-.247.26c0 .147.113.26.247.26M24.853 7.294c.107 0 .207-.1.207-.22s-.093-.219-.207-.219-.207.1-.207.22.094.22.207.22M23.446 2.815c.086 0 .16-.08.16-.166s-.074-.167-.16-.167a.164.164 0 0 0-.16.167c0 .093.066.166.16.166M23.446 4.266c.086 0 .16-.073.16-.167a.164.164 0 0 0-.16-.166.164.164 0 0 0-.16.166c0 .094.066.167.16.167M22.044 1.524c.147 0 .26-.126.26-.28a.263.263 0 0 0-.26-.272.267.267 0 0 0-.26.273c0 .146.114.28.26.28M19.342 1.71c.227 0 .42-.2.42-.439 0-.24-.186-.446-.42-.446s-.42.2-.42.446.187.44.42.44M26.168 17.65a.35.35 0 0 0 .34-.359.35.35 0 0 0-.34-.36.35.35 0 0 0-.34.36c0 .2.153.36.34.36M26.188 18.35c-.2 0-.36.165-.36.378s.16.373.36.373.354-.166.354-.372c0-.207-.16-.38-.354-.38M16.5 25.55c-.24 0-.427.2-.427.453a.44.44 0 0 0 .427.453.44.44 0 0 0 .427-.453.44.44 0 0 0-.427-.452M24.82 19.694c-.227 0-.407.193-.407.433s.18.432.407.432.407-.193.407-.433-.18-.432-.407-.432M22.278 21.644c0-.146-.113-.273-.253-.273s-.254.12-.254.273.113.266.253.266a.26.26 0 0 0 .254-.266M21.65 23.188c0 .206.161.372.355.372a.364.364 0 0 0 .353-.372.364.364 0 0 0-.354-.373.364.364 0 0 0-.353.373M21.99 25.59c-.22 0-.393.187-.393.42s.174.412.394.412.393-.186.393-.412c0-.227-.173-.42-.393-.42M23.439 25.89a.164.164 0 0 0-.16.166c0 .094.073.167.16.167s.16-.073.16-.166a.164.164 0 0 0-.16-.167M23.425 24.426c-.1 0-.173.08-.173.186 0 .107.08.187.173.187.094 0 .174-.08.174-.187 0-.106-.08-.186-.174-.186M23.486 21.438c-.094 0-.174.08-.174.186s.08.186.173.186c.094 0 .174-.08.174-.186 0-.107-.08-.186-.174-.186M24.88 21.478c-.08 0-.14.066-.14.146s.06.146.14.146.133-.066.133-.146-.06-.146-.133-.146"/><path fill="#fff" d="M24.98 9.244v-.04c0-.292.234-.306.28-.605.054-.326-.26-.68-.647-.473a.42.42 0 0 0-.227.4c0 .3.234.339.234.625 0 .24-.174.473-.414.473-.313 0-.467-.22-.467-.5 0-.239.274-.359.274-.625 0-.293-.187-.493-.48-.493-.328 0-.428.433-.761.433-.294 0-.387-.42-.694-.42-.354 0-.287.227-.667.34-.04.014-.134.06-.287-.013-.314-.147-.334-.446-.334-.56 0-.072.087-.299.14-.339a.54.54 0 0 0 .247-.432c0-.293-.193-.513-.474-.513-.333 0-.313.2-.547.267-.273.073-.54-.12-.54-.46 0-.26.213-.446.42-.446.287 0 .307.227.6.227.147 0 .254-.04.374-.153a.555.555 0 0 0 .107-.653c-.047-.1-.127-.193-.187-.286a.6.6 0 0 1 0-.506.46.46 0 0 1 .454-.226c.1.013.207.067.26.113.2.16.44.233.674.033a.43.43 0 0 0 .133-.392.43.43 0 0 0-.2-.326c-.367-.22-.52.106-.74.173a.47.47 0 0 1-.34-.027c-.207-.133-.334-.293-.26-.606.086-.266.393-.525.813-.246.1.08.214.14.307.14.214 0 .427-.2.427-.453a.44.44 0 0 0-.427-.452c-.14 0-.227.06-.333.16s-.234.166-.428.106c-.146-.06-.193-.14-.253-.24-.073-.253-.187-.332-.334-.332-.206 0-.253.12-.36.306-.1.14-.253.153-.347.153-.127 0-.273-.067-.434-.226-.08-.08-.14-.147-.227-.147-.16 0-.273.167-.387.28-.093.093-.2.173-.36.173a.37.37 0 0 1-.287-.133c-.166-.213-.473-.233-.62-.12-.36.273-.24.612-.08.832a.45.45 0 0 1-.007.565.45.45 0 0 1-.32.174.43.43 0 0 1-.367-.167c-.127-.14-.127-.413-.04-.532.1-.147.167-.253.127-.446-.074-.386-.454-.526-.728-.36a.4.4 0 0 0-.113.107.44.44 0 0 1-.36.16.57.57 0 0 1-.32-.147c-.381-.566.206-.752.16-1.264-.02-.233-.2-.36-.314-.56-.013-.046-.02-.093-.034-.146.014-.146.174-.273.254-.426H12.85v6.762c-3.73.04-6.739 3.241-6.739 7.188s3.01 7.148 6.74 7.188v6.862h2.535c.093-.126.213-.266.227-.426.026-.366-.307-.472-.334-.759q-.002-.092.047-.173c.1-.173.313-.312.353-.505.067-.36-.434-.533-.22-.999.1-.22.34-.3.54-.233.327.12.24.42.54.42s.261-.233.421-.347c.28-.192.574-.08.7.14.1.173.074.393.008.493-.067.106-.16.2-.16.38 0 .259.2.465.44.465s.44-.206.44-.466a.47.47 0 0 0-.167-.36c-.06-.066-.086-.186-.086-.299 0-.253.18-.426.447-.459.1-.013.246.053.306.12.067.073.094.146.12.213.067.22-.053.392-.16.579a.53.53 0 0 0-.1.306c0 .28.22.513.487.513a.48.48 0 0 0 .307-.12c.174-.113.347-.28.58-.213.1.026.161.086.234.153a.5.5 0 0 0 .374.173.52.52 0 0 0 .507-.533.5.5 0 0 0-.047-.213.555.555 0 0 0-.133-.193.5.5 0 0 1-.14-.266.58.58 0 0 1 .073-.4c.087-.159.34-.239.52-.199.06.014.114.053.167.093.08.113.207.18.347.18.24 0 .434-.206.434-.46 0-.252-.193-.458-.434-.458-.293 0-.287.286-.633.286a.44.44 0 0 1-.4-.226c-.128-.2-.074-.433-.014-.553.047-.086.113-.166.167-.253.08-.1.127-.22.127-.36 0-.305-.234-.558-.528-.558a.54.54 0 0 0-.32.113c-.007 0-.013.013-.02.02 0 0-.02.026-.033.033-.007 0-.014.013-.02.02a.4.4 0 0 1-.127.087c-.32.153-.68-.227-.52-.566.053-.12.133-.22.253-.246.314-.067.36.086.487.18.067.046.147.06.227.06.267 0 .48-.227.48-.507a.52.52 0 0 0-.226-.432q-.02-.02-.04-.02a.43.43 0 0 0-.207-.053c-.247 0-.28.153-.447.213a.424.424 0 0 1-.554-.247c-.147-.346.14-.759.54-.639.154.047.24.173.334.227a.4.4 0 0 0 .22.06.514.514 0 0 0 .48-.66v-.02c-.013-.126-.146-.232-.213-.339-.133-.22-.033-.499.18-.639.1-.066.267-.08.38-.04.194.067.38.38.267.593-.113.22-.207.26-.207.432 0 .273.254.46.407.46.087 0 .247-.02.34-.134.22-.266.128-.465 0-.692a.47.47 0 0 1 0-.479.48.48 0 0 1 .308-.24c.28-.053.58.194.553.52-.013.18-.086.226-.166.359-.134.22.02.526.227.626.306.146.687-.134.613-.526-.046-.233-.186-.246-.22-.413-.02-.12-.053-.206.08-.426.14-.24.454-.253.707-.06.087.067.154.153.247.187a.47.47 0 0 0 .474-.107.54.54 0 0 0 .147-.592c-.067-.186-.274-.306-.28-.586-.007-.286.206-.452.293-.659.06-.133.08-.293-.06-.506a.4.4 0 0 0-.267-.173.57.57 0 0 0-.38.087c-.154.1-.327.253-.534.2-.053-.014-.187-.027-.26-.12-.247-.306-.087-.546.027-.799.093-.206.14-.44-.08-.652-.167-.16-.447-.133-.628 0-.086.06-.153.093-.233.16-.227.086-.4.033-.527-.094a.56.56 0 0 1-.14-.359c.013-.286.307-.366.307-.752 0-.44-.374-.42-.374-.905 0-.107.073-.266.16-.346.114-.094.2-.133.274-.133.473 0 .353.306.754.306.126 0 .26-.073.347-.167.2-.213.133-.545.033-.659a.53.53 0 0 1-.073-.625.45.45 0 0 1 .56-.213c.153.06.14.146.32.24.274.16.587 0 .694-.24.207-.473-.213-.572-.227-.892-.013-.346.334-.453.367-.739.04-.306-.373-.479-.427-.765zm-4.964-6.203c.16 0 .287.14.287.307s-.147.306-.287.306a.303.303 0 0 1-.293-.306c0-.167.133-.307.293-.307m.034 1.498c.18 0 .326.153.326.34 0 .186-.16.339-.327.345a.336.336 0 0 1-.326-.346.33.33 0 0 1 .326-.34m0 19.022c.16 0 .286.133.286.306s-.126.306-.287.306-.286-.14-.286-.306c0-.167.126-.306.286-.306m-.034 1.457c.194 0 .354.166.354.373 0 .206-.16.373-.354.373a.364.364 0 0 1-.353-.373c0-.206.16-.373.353-.373M18.602 6.13a.17.17 0 0 1 .166.173c0 .093-.08.173-.166.173a.17.17 0 0 1-.167-.173.17.17 0 0 1 .167-.173m-.167-1.332a.17.17 0 0 1 .167-.173.17.17 0 0 1 .166.173c0 .094-.08.174-.166.174a.17.17 0 0 1-.167-.174m.14-1.883c.207 0 .367.173.367.386a.404.404 0 0 1-.367.393c-.2 0-.367-.173-.367-.393s.167-.386.367-.386m-4.317.44c0-.134.107-.247.234-.247a.24.24 0 0 1 .233.246c0 .14-.1.246-.233.246-.134 0-.234-.106-.234-.246m1.381 1.443a.21.21 0 0 1 .207-.212.21.21 0 0 1 .207.212c0 .12-.1.213-.207.22-.113 0-.207-.1-.207-.22m1.595-.266c.14 0 .253.12.253.266s-.126.267-.253.267a.26.26 0 0 1-.254-.267.26.26 0 0 1 .254-.266m-1.375-1.657c.234 0 .42.2.42.44 0 .239-.186.445-.42.445s-.42-.2-.42-.446.187-.439.42-.439M14.532.066c.206 0 .373.18.373.393a.386.386 0 0 1-.373.393.386.386 0 0 1-.374-.393c0-.213.167-.393.374-.393m-.027 1.458c.193 0 .347.166.347.366s-.16.366-.347.366-.347-.166-.347-.366.153-.366.347-.366m0 23.56c.147 0 .267.127.267.28s-.12.28-.267.28a.275.275 0 0 1-.267-.28c0-.153.12-.28.267-.28m-.207-1.19c0-.08.06-.147.14-.147s.14.067.14.146c0 .08-.06.147-.14.147a.14.14 0 0 1-.14-.147m.247 3.274a.364.364 0 0 1-.354-.373c0-.206.16-.373.354-.373s.354.167.354.373-.16.373-.354.373m1.301-3.028c-.12 0-.213-.1-.213-.227 0-.126.093-.226.213-.226s.213.1.213.226c0 .127-.093.227-.213.227m1.348.066c-.147 0-.267-.126-.267-.286s.12-.286.267-.286.267.133.267.286-.12.286-.267.286m1.414-.126c-.1 0-.173-.087-.173-.187s.08-.186.173-.186c.094 0 .174.087.174.186 0 .1-.08.187-.174.187m-.14-1.684c0-.087.067-.16.154-.16.086 0 .153.073.153.16 0 .086-.067.16-.153.16a.157.157 0 0 1-.154-.16m.174-1.258c-.1 0-.174-.08-.174-.186 0-.107.08-.187.174-.187s.173.08.173.187c0 .106-.08.186-.173.186m1.374-1.311c-.173 0-.313-.147-.313-.333s.14-.333.313-.333c.174 0 .314.147.314.333s-.14.333-.314.333m-.22-10.636c0-.14.113-.26.247-.26.133 0 .247.114.247.26s-.12.26-.247.26a.253.253 0 0 1-.247-.26m.26-1.005a.44.44 0 0 1-.427-.446c0-.246.187-.446.427-.446s.42.2.42.446c0 .247-.206.446-.42.446m1.361.566c.214 0 .387.18.387.406a.41.41 0 0 1-.387.406.396.396 0 0 1-.387-.406c0-.226.174-.406.387-.406m-.013 3.181c.14 0 .253.12.253.267 0 .146-.126.266-.253.266a.26.26 0 0 1-.254-.266.26.26 0 0 1 .254-.267m-.174-1.251c0-.08.06-.14.134-.14.073 0 .133.06.133.14a.14.14 0 0 1-.133.14.135.135 0 0 1-.134-.14m.16 7.547a.19.19 0 0 1-.186-.193c0-.106.087-.193.187-.193s.186.087.186.193-.08.193-.186.193m0-1.497a.19.19 0 0 1-.186-.193c0-.107.087-.2.187-.2s.186.087.186.2-.08.193-.186.193m.067-1.318c-.18 0-.333-.16-.333-.353s.153-.352.333-.352.334.16.334.352c0 .193-.154.353-.334.353m.014-1.41c-.2 0-.36-.174-.36-.38s.16-.38.36-.38.36.174.36.38-.18.38-.36.38m2.722 3.646c.193 0 .354.167.354.373s-.16.373-.354.373a.364.364 0 0 1-.354-.373c0-.206.16-.373.354-.373m-1.408.606c-.12 0-.213-.106-.213-.233 0-.126.093-.226.213-.226s.22.1.22.226c0 .127-.1.233-.22.233m.04-2.136c.187 0 .34.16.34.359 0 .2-.153.36-.34.36a.35.35 0 0 1-.34-.36c0-.2.153-.36.34-.36m-.013-5.664c.12 0 .22.106.22.233 0 .126-.107.233-.22.233-.12 0-.22-.107-.22-.233 0-.127.1-.233.22-.233m.006 2.223c-.233 0-.42-.2-.42-.446 0-.247.187-.446.42-.446.234 0 .42.2.42.446s-.206.439-.42.446m1.368-1.571c-.2 0-.36-.166-.36-.38 0-.212.16-.379.36-.379s.36.167.36.38a.38.38 0 0 1-.36.379M22.058 27.248c-.12 0-.214.1-.214.226s.094.226.214.226.213-.1.213-.226c0-.127-.093-.226-.213-.226M20.677 27.095c-.187 0-.334.16-.334.353s.147.352.334.352.334-.16.334-.352c0-.194-.154-.353-.334-.353M19.342 27.095c-.186 0-.333.16-.333.353s.153.352.333.352.334-.16.334-.352c0-.194-.147-.353-.334-.353"/><path fill="#fff" d="M17.934 27.268c-.107 0-.193.093-.193.206s.087.206.193.206.2-.093.2-.206a.2.2 0 0 0-.2-.206M16.48 27.188a.29.29 0 0 0-.287.3c0 .166.127.299.287.299s.28-.133.28-.3-.127-.299-.28-.299"/><path fill="url(#c)" d="M8.4 13.883c0-2.841 2.182-5.151 4.877-5.151V.013h-.787c-.354 0-.614.28-.654.62l-.32 2.01c-.08.379-.547.525-.547.525q-.45.097-.88.246c-.068.013-.481.093-.708-.166l-1.228-1.57c-.2-.274-.56-.38-.86-.194L5.97 2.29c-.3.187-.4.566-.273.886l.674 1.91c.107.366-.227.739-.227.739h.007c-.22.212-.44.439-.641.672 0 0-.354.352-.7.24l-1.809-.713a.65.65 0 0 0-.84.286l-.768 1.398a.74.74 0 0 0 .18.912l1.488 1.298c.247.24.167.678.154.745-.094.306-.167.612-.234.932 0 0-.14.486-.493.572L.58 12.5a.683.683 0 0 0-.587.692v1.61c0 .367.267.646.587.693l1.909.34c.353.086.493.579.493.579.067.306.14.619.234.925.013.073.093.505-.154.745l-1.488 1.298a.72.72 0 0 0-.18.912l.768 1.397c.173.32.533.42.84.287l1.808-.713c.347-.113.701.24.701.24.207.226.42.453.64.672h-.006s.334.366.227.739l-.674 1.91c-.127.32-.034.699.273.885l1.322.806c.3.186.667.08.86-.193l1.228-1.571c.233-.266.66-.173.714-.16q.43.148.88.247h-.006s.467.146.547.519l.32 2.01c.047.339.307.625.654.625h.787v-8.938c-2.695 0-4.877-2.303-4.877-5.145z"/></g><defs><linearGradient id="b" x1="37.129" x2="5.328" y1="12.568" y2="12.568" gradientUnits="userSpaceOnUse"><stop stop-color="#fff"/><stop offset=".02" stop-color="#EFFAFE"/><stop offset=".1" stop-color="#B1E6FA"/><stop offset=".19" stop-color="#7BD5F6"/><stop offset=".27" stop-color="#4EC7F3"/><stop offset=".35" stop-color="#2CBCF1"/><stop offset=".42" stop-color="#14B4F0"/><stop offset=".49" stop-color="#05AFEF"/><stop offset=".54" stop-color="#00AEEF"/><stop offset=".62" stop-color="#04A1E5"/><stop offset=".75" stop-color="#117FCC"/><stop offset=".93" stop-color="#2549A3"/><stop offset="1" stop-color="#2E3192"/></linearGradient><linearGradient id="c" x1="43.552" x2="3.695" y1="12.568" y2="12.568" gradientUnits="userSpaceOnUse"><stop stop-color="#fff"/><stop offset=".02" stop-color="#EFFAFE"/><stop offset=".1" stop-color="#B1E6FA"/><stop offset=".19" stop-color="#7BD5F6"/><stop offset=".27" stop-color="#4EC7F3"/><stop offset=".35" stop-color="#2CBCF1"/><stop offset=".42" stop-color="#14B4F0"/><stop offset=".49" stop-color="#05AFEF"/><stop offset=".54" stop-color="#00AEEF"/><stop offset=".62" stop-color="#04A1E5"/><stop offset=".75" stop-color="#117FCC"/><stop offset=".93" stop-color="#2549A3"/><stop offset="1" stop-color="#2E3192"/></linearGradient><clipPath id="a"><path fill="#fff" d="M0 0h154v28H0z"/></clipPath></defs></svg>