<svg xmlns="http://www.w3.org/2000/svg" width="250" height="28" fill="none"><g clip-path="url(#a)"><mask id="b" width="28" height="28" x="0" y="0" maskUnits="userSpaceOnUse" style="mask-type:luminance"><path fill="#fff" d="M27.843 0H0v28h27.843z"/></mask><g mask="url(#b)"><path fill="#10357F" d="m.024 12.613 1.146 7.142a34.6 34.6 0 0 1 18.538 7.039l5.586-4.585A41.7 41.7 0 0 0 .016 12.605z"/><path fill="#005221" d="m27.835 15.412-1.146-7.143A34.6 34.6 0 0 1 8.15 1.23h-.008L2.557 5.815c7.26 6.05 16.197 9.299 25.278 9.604z"/><path fill="#0061AF" d="m19.692 26.802 5.594-4.57a34.9 34.9 0 0 1-3.19-19.634L15.332.032c-1.587 9.339.08 18.734 4.352 26.778z"/><path fill="#007F42" d="M8.15 1.222 2.558 5.783a34.9 34.9 0 0 1 3.19 19.635l6.756 2.574C14.09 18.653 12.43 9.258 8.15 1.214z"/><path fill="#248BCB" d="M22.088 2.582 15.348 0A34.75 34.75 0 0 1 .008 12.596H0l1.162 7.16c8.856-3.299 16.133-9.444 20.934-17.174h-.016z"/><path fill="#50B848" d="M5.754 25.418 12.487 28a34.8 34.8 0 0 1 15.34-12.596l-1.163-7.16C17.816 11.544 10.54 17.68 5.738 25.419z"/></g><mask id="c" width="217" height="18" x="33" y="5" maskUnits="userSpaceOnUse" style="mask-type:luminance"><path fill="#fff" d="M250 5.574H33.229v16.852H250z"/></mask><g fill="#1C3687" mask="url(#c)"><path d="M35.208 21.967a17.6 17.6 0 0 1-1.402-3.129c-.385-1.126-.578-2.413-.578-3.853 0-1.222.177-2.429.521-3.611.353-1.19.834-2.309 1.46-3.37h1.281a15.6 15.6 0 0 0-1.258 3.354 15 15 0 0 0-.433 3.627q-.001 1.893.417 3.628a13.8 13.8 0 0 0 1.282 3.354h-1.29M50.163 8.003a18.3 18.3 0 0 1 1.403 3.146c.384 1.126.577 2.413.577 3.852 0 1.223-.176 2.43-.521 3.612a14.2 14.2 0 0 1-1.459 3.354h-1.282c.553-1.078.97-2.196 1.258-3.346q.433-1.725.433-3.62c0-1.262-.136-2.477-.409-3.635a13.8 13.8 0 0 0-1.282-3.363zM59.653 9.218c.4.314.721.708.954 1.182q.35.71.352 1.529c0 .99-.352 1.826-1.058 2.525-.705.7-1.555 1.054-2.54 1.054s-1.82-.354-2.533-1.053c-.713-.7-1.066-1.545-1.066-2.526 0-.547.12-1.054.36-1.529.241-.474.562-.868.947-1.182H53.24v-1.44h2.942v-.426h2.324v.426h2.95v1.44h-1.812zm-1.483 8.51v2.14s-.056.458.449.45h6.893v1.44h-6.837c-2.99.048-2.821-1.794-2.821-1.794v-3.29h1.17s1.162-.008 1.162 1.046m-1.795-7.36q-.433.654-.433 1.56c0 .604.144 1.135.433 1.577.288.443.61.66.962.66s.689-.217.977-.66q.423-.661.425-1.576c0-.612-.144-1.126-.425-1.56-.28-.435-.609-.652-.977-.652-.369 0-.681.217-.962.651m8.616-3.217v2.55h2.324v1.456h-2.324v6.523h-2.325V6.065h1.114s1.21-.097 1.21 1.07M76.548 8.068H69.31v-1.44h8.68s1.266-.12 1.242 1.19v2.261c0 .426-.056.893-.16 1.4-.113.507-.241.868-.401 1.102h2.236v1.44h-5.482v2.075h2.532s1.323-.105 1.243 1.222v4.465h-2.325v-3.861c0-.402-.344-.386-.344-.386h-7.27v-1.44h3.84V14.02h-5.378v-1.44h8.904c.112-.33.192-.708.224-1.134.032-.427.048-.87.048-1.312V8.438c0-.394-.36-.37-.36-.37M90.557 14.278h2.477v1.456h-4.152v3.16h5.186v1.44H81.356v-1.44h5.202v-3.16H82.39v-1.456h1.844V8.67h-1.691V7.215H92.88v1.456h-1.667v3.507s-.032 1.496-.649 2.1m-1.683-1.255v-4.36h-2.324v5.607h1.923c.37-.17.401-1.255.401-1.255M95.254 8.35V6.91h7.629v1.44h-2.652v.305c0 1.456.36 2.196 1.098 3.113.729.925 1.562 1.488 2.508 1.69l-.553 1.133c-.721-.064-2.044-.458-2.797-1.045q-1.13-.881-1.418-1.883-.28 1.004-1.411 1.874c-.761.58-1.883.942-2.797 1.022l-.561-1.094c.938-.201 1.771-.772 2.5-1.705.722-.933 1.082-1.665 1.082-3.097v-.306h-2.62zm10.322 7.826c.834.716 1.251 1.576 1.251 2.59s-.417 1.866-1.251 2.574-1.843 1.062-3.021 1.062-2.188-.354-3.022-1.062-1.25-1.569-1.25-2.574c0-1.006.417-1.874 1.25-2.59q1.253-1.072 3.022-1.07c1.178 0 2.188.354 3.021 1.07m-4.215 1.062c-.337.45-.513.957-.513 1.528s.168 1.054.513 1.496q.504.662 1.202.66.697.002 1.202-.66c.337-.442.513-.941.513-1.496s-.168-1.078-.513-1.528q-.505-.675-1.202-.676-.698 0-1.202.676m5.361-10.023v1.81h2.317v1.424l-2.325.016v4.553h-2.324V6.065h1.17s1.162-.008 1.162 1.15M122.648 7.376v14.406h-2.188v-9.99h-1.186v9.098h-2.188v-4.28l-.337.788c-.657-.104-1.715-.562-2.34-1.206q-.938-.965-1.13-1.955c-.113.66-.489 1.303-1.122 1.955-.634.643-1.884 1.062-2.549 1.166l-.465-1.03c.874-.249 1.587-.9 2.148-1.954.561-1.046.834-2.308.834-3.788v-1.65h-2.036v-1.44h6.203v1.44h-1.875v1.65c0 1.375.248 2.573.761 3.603.505 1.022 1.138 1.697 1.916 2.027V6.54h1.001s1.187-.097 1.187 1.262v2.558h1.186V6.097h.937s1.251-.024 1.251 1.287M136.938 7.376v14.406h-2.188v-9.99h-1.186v9.098h-2.188v-4.28l-.337.788c-.657-.104-1.715-.562-2.34-1.206q-.938-.965-1.13-1.955c-.113.66-.489 1.303-1.122 1.955-.634.643-1.884 1.062-2.549 1.166l-.465-1.03c.874-.249 1.587-.9 2.148-1.954.561-1.046.834-2.308.834-3.788v-1.65h-2.036v-1.44h6.203v1.44h-1.875v1.65c0 1.375.248 2.573.761 3.603.505 1.022 1.138 1.697 1.916 2.027V6.54h1.001s1.187-.097 1.187 1.262v2.558h1.186V6.097h.937s1.251-.024 1.251 1.287M219.064 10.353V6.088h.937s1.251-.024 1.251 1.287v14.407h-2.188zm-1.186 1.44v9.097h-2.188v-4.28l-.337.789c-.657-.105-1.715-.555-2.34-1.207q-.938-.965-1.13-1.954-.171.989-1.122 1.954c-.634.644-1.884 1.062-2.549 1.167l-.465-1.038c.874-.25 1.587-.901 2.148-1.955.561-1.045.834-2.308.834-3.788v-1.65h-2.036V7.49h6.203v1.44h-1.875v1.649c0 1.375.248 2.574.761 3.603.505 1.022 1.138 1.698 1.908 2.027V6.532h1.001s1.187-.097 1.187 1.263zM150.002 7.143v2.284h2.324v1.456h-2.324v4.641h-2.325v-.7c-.32.161-.721.306-1.194.427a6 6 0 0 1-1.49.177h-6.773V14.06h3.174v-.965a3.5 3.5 0 0 1-1.595-1.078 2.66 2.66 0 0 1-.625-1.745c0-.338.056-.66.176-.95q.18-.433.505-.796h-1.483V7.183h3.014V6.081h1.13s1.194-.064 1.194 1.102h3.03v1.343h-1.499q.325.362.505.797c.12.29.184.603.184.949q-.002.988-.617 1.745a3.34 3.34 0 0 1-1.603 1.078v.965h1.363c.561 0 1.066-.04 1.506-.112.441-.073.81-.17 1.098-.282V6.065h1.074s1.259-.12 1.259 1.07m-9.722 12.66v-1.464h7.389v-.7h-7.509v-1.383h8.543s1.291-.104 1.291 1.223v2.188h-7.39v.217s-.048.507.561.507h7.101v1.383h-7.75c-2.412 0-2.244-1.962-2.244-1.962m1.451-10.723a2.1 2.1 0 0 0-.353 1.19q.002.664.353 1.207c.232.362.513.54.833.54.321 0 .601-.178.826-.54.232-.362.344-.764.344-1.206 0-.443-.112-.837-.344-1.19-.233-.355-.505-.532-.826-.532s-.601.177-.833.531M165.606 15.106H152.27v-1.424h3.189v-1.761h1.227a3.54 3.54 0 0 1-1.267-1.215 3.1 3.1 0 0 1-.473-1.649c0-.973.385-1.793 1.163-2.477q1.166-1.014 2.837-1.014c1.114 0 2.075.338 2.845 1.014q1.154 1.016 1.154 2.477c0 .596-.152 1.143-.465 1.65a3.5 3.5 0 0 1-1.274 1.214h1.242v1.761h3.174v1.424zm-3.711 1.585c.818.635 1.234 1.424 1.234 2.357s-.408 1.729-1.234 2.389q-1.226.99-2.957.989c-1.154 0-2.156-.33-2.982-.99-.817-.659-1.226-1.447-1.226-2.388s.409-1.722 1.226-2.357q1.227-.956 2.982-.957c1.17 0 2.14.321 2.957.957m-4.192-9.154q-.528.637-.529 1.528c0 .596.177 1.086.529 1.513s.762.643 1.235.643.897-.217 1.242-.643.513-.933.513-1.513-.168-1.102-.513-1.528q-.519-.637-1.242-.635c-.481 0-.882.209-1.235.635m.121 10.183a2.117 2.117 0 0 0 0 2.687c.32.402.689.595 1.114.595.424 0 .777-.2 1.106-.595q.49-.601.489-1.36c0-.506-.169-.924-.489-1.327q-.494-.603-1.106-.603c-.409 0-.794.201-1.114.603m2.284-4.03-.016-1.31c-.152.04-.337.072-.553.104a4 4 0 0 1-.601.048 5 5 0 0 1-.577-.04 7 7 0 0 1-.593-.097v1.287h2.34zM171.312 9.001v1.641c0 1.504.369 2.783 1.098 3.845s1.563 1.69 2.509 1.898l-.449 1.102c-.745-.064-2.188-.418-2.933-1.061-.746-.644-1.21-1.328-1.395-2.043-.168.715-.633 1.4-1.378 2.035-.746.635-2.052.997-2.813 1.07l-.577-1.103q1.406-.3 2.5-1.906 1.082-1.605 1.082-3.837V7.626h1.034s1.33.088 1.33 1.375m6.484-1.528v2.662h2.324v1.44h-2.324v10.497h-2.324V6.065h.922s1.402-.064 1.402 1.416M193.176 7.376v8.519h-2.324V11.06h-1.964c-.136.958-.577 1.77-1.306 2.438a3.8 3.8 0 0 1-2.621.997c-1.082 0-2.003-.386-2.781-1.166-.777-.78-1.162-1.714-1.162-2.816s.393-2.035 1.162-2.815c.778-.78 1.699-1.166 2.781-1.166q1.431 0 2.501.869 1.068.868 1.378 2.22h2.02V6.08h.938s1.386-.2 1.386 1.287m-9.353 1.368c-.328.49-.489 1.094-.489 1.802 0 .707.161 1.303.481 1.801.321.491.697.74 1.138.74s.818-.249 1.146-.74c.329-.49.489-1.094.489-1.801 0-.708-.16-1.312-.481-1.802s-.705-.74-1.154-.74c-.425 0-.801.25-1.13.74m-.112 11.18v-4.673h.97s1.354-.048 1.354 1.263v.62h4.809V15.25h2.324v6.54H186.3c-2.757.072-2.581-1.858-2.581-1.858m2.765.386h4.368v-1.746h-4.809v1.311s-.032.435.441.435M207.578 14.278h-13.176v-1.44h4.224V9.814h2.324v3.024h6.636v1.44zm-4.544-6.17h-7.061V6.652h8.383s1.571-.16 1.571 1.448v2.26c0 .467-.064.958-.192 1.465-.128.514-.272.86-.433 1.053h-2.019c.128-.33.208-.708.248-1.126.04-.426.064-.86.064-1.32v-1.76c0-.628-.569-.572-.569-.572m1.05 8.132c.842.7 1.266 1.56 1.266 2.566s-.416 1.85-1.266 2.55c-.842.7-1.859 1.054-3.046 1.054s-2.212-.354-3.053-1.054c-.834-.7-1.258-1.552-1.258-2.55s.416-1.866 1.258-2.566q1.25-1.052 3.053-1.053c1.203 0 2.196.346 3.046 1.053m-4.248 1.054q-.49.664-.489 1.52c0 .572.161 1.046.489 1.48q.494.642 1.202.644c.473 0 .858-.217 1.187-.644.328-.426.496-.925.496-1.48s-.16-1.078-.496-1.52c-.329-.442-.722-.66-1.187-.66-.464 0-.881.226-1.202.66M229.939 16.763v2.14h5.274v1.44h-12.872v-1.44h5.274v-3.467h.914s1.41 0 1.41 1.327m-6.532-9.555h10.716v1.455h-4.184v.403c0 1.536.569 2.815 1.707 3.828 1.138 1.014 2.26 1.545 3.374 1.593l-.464 1.102c-.978 0-2.581-.314-3.687-.941q-1.659-.94-2.092-2.204c-.272.86-.97 1.6-2.076 2.22s-2.717.925-3.711.925l-.464-1.102q1.669-.073 3.374-1.593c1.138-1.005 1.707-2.284 1.707-3.828v-.403h-4.184V7.208zM241.176 7.272v.426h2.949v1.4h-1.707c.353.313.641.691.842 1.118.208.426.312.885.312 1.367 0 .933-.344 1.738-1.042 2.413a3.47 3.47 0 0 1-2.508 1.014 3.47 3.47 0 0 1-2.509-1.014q-1.044-1.013-1.042-2.413c0-.482.105-.933.313-1.367.208-.427.481-.805.825-1.118h-1.707v-1.4h2.95V6.089h.825s1.499-.096 1.499 1.19m-2.789 12.645V15.75h.817s1.507-.08 1.507 1.279v.482h4.633V15.75h2.324v6.008h-7.029c-2.396.097-2.252-1.834-2.252-1.834m.689-9.82c-.272.417-.417.908-.417 1.48 0 .57.137 1.06.417 1.48.273.417.593.627.946.627s.689-.21.954-.628c.264-.418.4-.909.4-1.48s-.136-1.062-.4-1.48c-.273-.418-.585-.627-.954-.627s-.673.209-.946.627m2.02 10.215h4.248v-1.344h-4.633v.95s-.016.393.385.393M247.668 7.4v1.987h2.324v1.44h-2.324v10.931h-2.324V6.065h.841s1.483-.104 1.483 1.327"/><path d="M56.183 8.639V6.065h1.114s1.21-.097 1.21 1.07V8.63h-2.324zM217.525 10.353h-3.575v1.375h3.575zM41.26 10.795v1.424q.002 1.956.953 3.346c.633.925 1.363 1.472 2.18 1.649l-.385.957c-.649-.056-1.9-.362-2.548-.925-.65-.563-1.05-1.15-1.21-1.778-.153.628-.545 1.215-1.195 1.77-.649.555-1.787.86-2.444.933l-.505-.957c.817-.177 1.539-.724 2.172-1.657.625-.925.946-2.043.946-3.338V9.605h.897s1.154.08 1.154 1.19m5.627-1.52v2.316h2.02v1.255h-2.02v9.122h-2.02V8.052h.801s1.219-.056 1.219 1.223"/></g></g><defs><clipPath id="a"><path fill="#fff" d="M0 0h250v28H0z"/></clipPath></defs></svg>