<svg width="228" height="40" viewBox="0 0 228 40" fill="none" xmlns="http://www.w3.org/2000/svg">
<rect width="227.914" height="40" fill="black"/>
<path d="M36.8763 13.2344V17.5938H38.7982V19.2188H36.8763V23.8438H34.8763V13.2344H36.8763ZM34.0326 14.7188V16.2969H25.5951V14.7188H28.8294V13.2031H30.8138V14.7188H34.0326ZM29.8138 16.7969C31.8763 16.7969 33.3138 17.9062 33.3138 19.5469C33.3138 21.1875 31.8763 22.2656 29.8138 22.2656C27.7357 22.2656 26.2826 21.1875 26.2826 19.5469C26.2826 17.9062 27.7357 16.7969 29.8138 16.7969ZM29.8138 18.3125C28.8607 18.3281 28.2201 18.7656 28.2357 19.5469C28.2201 20.3281 28.8607 20.75 29.8138 20.75C30.7669 20.75 31.4232 20.3281 31.4232 19.5469C31.4232 18.7656 30.7669 18.3281 29.8138 18.3125ZM37.3919 25.5938V27.1875H27.6576V23.0312H29.6419V25.5938H37.3919ZM50.7159 13.8438V14.9531C50.7159 16 50.7159 17.2031 50.4347 18.7344H52.2628V20.3281H46.7316V22.375H50.7316V27.4375H48.7316V23.9375H40.5597V22.375H44.7316V20.3281H39.2472V18.7344H48.4191C48.6847 17.4062 48.7238 16.3594 48.7316 15.4219H40.8409V13.8438H50.7159ZM64.8524 13.2188V27.4375H62.8368V13.2188H64.8524ZM60.5868 14.7031C60.5868 19.0156 59.0712 22.5938 53.9931 25L52.9462 23.4062C56.6181 21.6719 58.2353 19.4219 58.5556 16.2656H53.7118V14.7031H60.5868ZM78.8796 13.2188V27.4375H77.0046V13.2188H78.8796ZM75.9108 13.5312V26.8125H74.0202V22.125H72.0046V20.5156H74.0202V18.5781H72.2702C71.6061 20.9219 70.1686 22.9062 67.5046 24.4844L66.3327 23.0781C69.2155 21.375 70.4811 19.3047 70.7546 16.5156H67.1608V14.9062H72.7389C72.7389 15.6172 72.6921 16.3047 72.6139 16.9688H74.0202V13.5312H75.9108ZM86.6098 22.0781C89.7192 22.0781 91.6723 23.0625 91.6879 24.7656C91.6723 26.4375 89.7192 27.4375 86.6098 27.4375C83.5317 27.4375 81.5473 26.4375 81.5473 24.7656C81.5473 23.0625 83.5317 22.0781 86.6098 22.0781ZM86.6098 23.5625C84.6567 23.5625 83.5317 23.9688 83.5317 24.7656C83.5317 25.5312 84.6567 25.9219 86.6098 25.9219C88.5629 25.9219 89.7036 25.5312 89.7036 24.7656C89.7036 23.9688 88.5629 23.5625 86.6098 23.5625ZM91.6098 13.8594V15.0156C91.6098 16.1406 91.6098 17.3594 91.2036 18.8281L89.2504 18.6406C89.5629 17.3516 89.602 16.3906 89.6254 15.4219H81.6879V13.8594H91.6098ZM93.1411 19.5625V21.1719H80.2348V19.5625H85.0786V17.0781H87.0473V19.5625H93.1411ZM97.8244 13.8281C99.6448 13.8125 101.09 14.8516 101.481 16.375H103.856V13.2188H105.84V20.8594H103.856V17.9688H101.496C101.121 19.5312 99.6604 20.5938 97.8244 20.5938C95.6369 20.5938 94.0276 19.1719 94.0432 17.1875C94.0276 15.2344 95.6369 13.8125 97.8244 13.8281ZM97.8244 15.4844C96.7151 15.4688 95.9182 16.125 95.9338 17.1875C95.9182 18.25 96.7151 18.9219 97.8244 18.9219C98.9026 18.9219 99.6838 18.25 99.6838 17.1875C99.6838 16.125 98.9026 15.4688 97.8244 15.4844ZM98.3244 21.4844V22.8594H103.856V21.4844H105.84V27.2812H96.3557V21.4844H98.3244ZM98.3244 25.6719H103.856V24.3906H98.3244V25.6719ZM115.445 14.4531V16.0156H107.539V14.4531H110.602V13.0938H112.586V14.4531H115.445ZM111.57 16.4219C113.523 16.4219 114.93 17.4844 114.945 19.0156C114.93 20.5469 113.523 21.5938 111.57 21.5938C109.602 21.5938 108.227 20.5469 108.242 19.0156C108.227 17.4844 109.602 16.4219 111.57 16.4219ZM111.57 17.9062C110.664 17.9062 110.086 18.2969 110.102 19.0156C110.086 19.7344 110.664 20.1406 111.57 20.1406C112.461 20.1406 113.086 19.7344 113.086 19.0156C113.086 18.2969 112.461 17.9062 111.57 17.9062ZM119.492 13.2188V21.6875H117.508V20.6562H115.57V19.0625H117.508V17.8594H115.602V16.25H117.508V13.2188H119.492ZM111.898 22.2188V23.2656H117.523V22.2188H119.492V27.2812H109.898V22.2188H111.898ZM111.898 25.75H117.523V24.75H111.898V25.75ZM134.16 19.9375V21.5H121.16V19.9375H126.691V18.7188H122.738V13.8438H132.597V15.3906H124.722V17.1562H132.676V18.7188H128.644V19.9375H134.16ZM127.629 22.2188C130.707 22.2188 132.566 23.1562 132.582 24.8438C132.566 26.5 130.707 27.4531 127.629 27.4531C124.519 27.4531 122.644 26.5 122.644 24.8438C122.644 23.1562 124.519 22.2188 127.629 22.2188ZM127.629 23.7344C125.66 23.7344 124.66 24.1094 124.676 24.8438C124.66 25.5938 125.66 25.9375 127.629 25.9375C129.551 25.9375 130.566 25.5938 130.582 24.8438C130.566 24.1094 129.551 23.7344 127.629 23.7344ZM147.828 24.1719V25.7812H134.812V24.1719H140.312V21H142.312V24.1719H147.828ZM146.687 14.2969V15.9062H142.359C142.523 17.7812 144.289 19.5234 147.343 19.9688L146.562 21.5469C144.07 21.1094 142.226 19.8906 141.312 18.2031C140.406 19.9219 138.578 21.1719 136.125 21.625L135.343 20.0469C138.296 19.5703 140.07 17.7891 140.234 15.9062H135.89V14.2969H146.687ZM159.745 13.2188V16.6406H161.667V18.2969H159.745V21.5469H157.745V13.2188H159.745ZM152.417 22.0938V23.1719H157.745V22.0938H159.745V27.2812H150.433V22.0938H152.417ZM152.417 25.7188H157.745V24.7031H152.417V25.7188ZM156.902 14.4688V16.0312H148.464V14.4688H151.699V13.125H153.683V14.4688H156.902ZM152.683 16.4375C154.745 16.4375 156.183 17.4375 156.183 18.9531C156.183 20.4688 154.745 21.4688 152.683 21.4688C150.589 21.4688 149.152 20.4688 149.152 18.9531C149.152 17.4375 150.589 16.4375 152.683 16.4375ZM152.683 17.9062C151.73 17.8906 151.089 18.2812 151.105 18.9531C151.089 19.6406 151.73 20.0156 152.683 20.0156C153.636 20.0156 154.292 19.6406 154.292 18.9531C154.292 18.2812 153.636 17.8906 152.683 17.9062ZM174.101 13.2344V23.625H172.116V20.25H168.866C168.179 20.9766 167.187 21.4219 166.085 21.4219C163.929 21.4219 162.288 19.8594 162.304 17.75C162.288 15.6094 163.929 14.0625 166.085 14.0469C167.187 14.0547 168.171 14.4922 168.866 15.2188H172.116V13.2344H174.101ZM174.444 25.5938V27.1875H164.663V22.5781H166.663V25.5938H174.444ZM166.085 15.8281C164.976 15.8281 164.179 16.5469 164.194 17.75C164.179 18.9375 164.976 19.6562 166.085 19.6562C167.132 19.6562 167.944 18.9375 167.944 17.75C167.944 16.5469 167.132 15.8281 166.085 15.8281ZM169.726 16.8125C169.796 17.1094 169.835 17.4219 169.835 17.75C169.835 18.0625 169.796 18.3672 169.726 18.6562H172.116V16.8125H169.726ZM187.05 13.2188V16.6406H188.972V18.2969H187.05V21.5469H185.05V13.2188H187.05ZM179.722 22.0938V23.1719H185.05V22.0938H187.05V27.2812H177.737V22.0938H179.722ZM179.722 25.7188H185.05V24.7031H179.722V25.7188ZM184.206 14.4688V16.0312H175.768V14.4688H179.003V13.125H180.987V14.4688H184.206ZM179.987 16.4375C182.05 16.4375 183.487 17.4375 183.487 18.9531C183.487 20.4688 182.05 21.4688 179.987 21.4688C177.893 21.4688 176.456 20.4688 176.456 18.9531C176.456 17.4375 177.893 16.4375 179.987 16.4375ZM179.987 17.9062C179.034 17.8906 178.393 18.2812 178.409 18.9531C178.393 19.6406 179.034 20.0156 179.987 20.0156C180.94 20.0156 181.597 19.6406 181.597 18.9531C181.597 18.2812 180.94 17.8906 179.987 17.9062ZM201.374 13.2188V27.4375H199.389V13.2188H201.374ZM189.483 23.4219C190.569 23.4141 191.811 23.4141 193.108 23.375V22.1719C191.546 21.8984 190.53 20.9297 190.546 19.5938C190.53 18 191.983 16.9219 194.077 16.9219C196.186 16.9219 197.655 18 197.655 19.5938C197.655 20.9219 196.639 21.8906 195.077 22.1719V23.3125C196.264 23.2578 197.467 23.1641 198.608 23.0156L198.749 24.4844C195.639 25.0156 192.28 25.0469 189.749 25.0469L189.483 23.4219ZM198.405 14.7969V16.3594H189.764V14.7969H193.108V13.2812H195.092V14.7969H198.405ZM194.077 18.4375C193.108 18.4375 192.421 18.8594 192.436 19.5938C192.421 20.3438 193.108 20.75 194.077 20.75C195.077 20.75 195.749 20.3438 195.749 19.5938C195.749 18.8594 195.077 18.4375 194.077 18.4375Z" fill="white"/>
</svg>
