<svg width="228" height="40" viewBox="0 0 228 40" fill="none" xmlns="http://www.w3.org/2000/svg">
<rect width="227.914" height="40" fill="black"/>
<path d="M57.8545 13.2344V17.5938H59.7764V19.2188H57.8545V23.8438H55.8545V13.2344H57.8545ZM55.0107 14.7188V16.2969H46.5732V14.7188H49.8076V13.2031H51.792V14.7188H55.0107ZM50.792 16.7969C52.8545 16.7969 54.292 17.9062 54.292 19.5469C54.292 21.1875 52.8545 22.2656 50.792 22.2656C48.7139 22.2656 47.2607 21.1875 47.2607 19.5469C47.2607 17.9062 48.7139 16.7969 50.792 16.7969ZM50.792 18.3125C49.8389 18.3281 49.1982 18.7656 49.2139 19.5469C49.1982 20.3281 49.8389 20.75 50.792 20.75C51.7451 20.75 52.4014 20.3281 52.4014 19.5469C52.4014 18.7656 51.7451 18.3281 50.792 18.3125ZM58.3701 25.5938V27.1875H48.6357V23.0312H50.6201V25.5938H58.3701ZM71.6941 13.8438V14.9531C71.6941 16 71.6941 17.2031 71.4129 18.7344H73.241V20.3281H67.7098V22.375H71.7098V27.4375H69.7098V23.9375H61.5379V22.375H65.7098V20.3281H60.2254V18.7344H69.3973C69.6629 17.4062 69.7019 16.3594 69.7098 15.4219H61.8191V13.8438H71.6941ZM80.3619 13.4844C83.5181 13.4844 85.5181 14.5312 85.5338 16.2656C85.5181 17.9844 83.5181 19.0312 80.3619 19.0156C77.2213 19.0312 75.1744 17.9844 75.1744 16.2656C75.1744 14.5312 77.2213 13.4844 80.3619 13.4844ZM80.3619 15.0312C78.3775 15.0312 77.2369 15.4531 77.2525 16.2656C77.2369 17.0625 78.3775 17.4688 80.3619 17.4688C82.3306 17.4688 83.4713 17.0625 83.4713 16.2656C83.4713 15.4531 82.3306 15.0312 80.3619 15.0312ZM85.2994 22.4375V27.2812H75.3775V22.4375H85.2994ZM77.3463 24.0156V25.6875H83.3463V24.0156H77.3463ZM86.8463 19.8438V21.4375H73.8775V19.8438H86.8463ZM92.9827 15.2344C92.9671 17.0156 93.9827 18.7344 96.3265 19.4375L95.3265 21C93.7093 20.4844 92.5921 19.4766 91.9515 18.1719C91.3109 19.5781 90.1546 20.6797 88.4827 21.2188L87.4827 19.6562C89.8577 18.8906 90.9046 17.0469 90.9046 15.2344V13.875H92.9827V15.2344ZM99.4359 22.3125V27.4375H97.4359V23.9062H89.6546V22.3125H99.4359ZM99.4359 13.2188V21.7031H97.4359V13.2188H99.4359ZM114.151 18.8594V20.4375H108.651V21.3438H112.572V24.9844H104.651V25.8438H112.947V27.3438H102.697V23.5781H110.604V22.8438H102.682V21.3438H106.651V20.4375H101.182V18.8594H114.151ZM112.51 13.625V18.1094H102.791V13.625H112.51ZM104.744 15.1719V16.5781H110.526V15.1719H104.744ZM126.115 13.2188V16.3281H128.037V17.9688H126.115V21.1719H124.115V13.2188H126.115ZM122.131 14.0469C122.115 17.8125 119.74 20.3594 115.475 21.4844L114.678 19.9062C117.865 19.1172 119.623 17.5391 119.959 15.6406H115.381V14.0469H122.131ZM126.115 21.7031V27.2656H116.818V21.7031H126.115ZM118.803 23.3125V25.7031H124.146V23.3125H118.803ZM141.689 15.125V16.7812H139.767V18.1406H141.689V19.7812H139.767V21.8125H137.767V13.2344H139.767V15.125H141.689ZM135.517 14.0781V18.3125H130.986V19.5625C133.338 19.5469 134.931 19.4531 136.736 19.1406L136.955 20.7344C134.908 21.1094 133.08 21.1875 130.205 21.1875H129.002V16.8125H133.58V15.6406H128.986V14.0781H135.517ZM135.08 22.0312C138.033 22.0312 139.908 23.0625 139.908 24.7656C139.908 26.4531 138.033 27.4219 135.08 27.4219C132.064 27.4219 130.205 26.4531 130.205 24.7656C130.205 23.0625 132.064 22.0312 135.08 22.0312ZM135.08 23.5781C133.189 23.5781 132.158 23.9688 132.174 24.7656C132.158 25.5312 133.189 25.9375 135.08 25.9375C136.955 25.9375 137.939 25.5312 137.939 24.7656C137.939 23.9688 136.955 23.5781 135.08 23.5781ZM154.091 13.2188V27.4375H152.076V13.2188H154.091ZM149.826 14.7031C149.826 19.0156 148.31 22.5938 143.232 25L142.185 23.4062C145.857 21.6719 147.474 19.4219 147.794 16.2656H142.951V14.7031H149.826ZM163.728 14.4531V16.0156H155.822V14.4531H158.884V13.0938H160.868V14.4531H163.728ZM159.853 16.4219C161.806 16.4219 163.212 17.4844 163.228 19.0156C163.212 20.5469 161.806 21.5938 159.853 21.5938C157.884 21.5938 156.509 20.5469 156.525 19.0156C156.509 17.4844 157.884 16.4219 159.853 16.4219ZM159.853 17.9062C158.947 17.9062 158.368 18.2969 158.384 19.0156C158.368 19.7344 158.947 20.1406 159.853 20.1406C160.743 20.1406 161.368 19.7344 161.368 19.0156C161.368 18.2969 160.743 17.9062 159.853 17.9062ZM167.775 13.2188V21.6875H165.79V20.6562H163.853V19.0625H165.79V17.8594H163.884V16.25H165.79V13.2188H167.775ZM160.181 22.2188V23.2656H165.806V22.2188H167.775V27.2812H158.181V22.2188H160.181ZM160.181 25.75H165.806V24.75H160.181V25.75ZM181.396 13.2188V27.4375H179.411V13.2188H181.396ZM169.505 23.4219C170.591 23.4141 171.833 23.4141 173.13 23.375V22.1719C171.567 21.8984 170.552 20.9297 170.567 19.5938C170.552 18 172.005 16.9219 174.099 16.9219C176.208 16.9219 177.677 18 177.677 19.5938C177.677 20.9219 176.661 21.8906 175.099 22.1719V23.3125C176.286 23.2578 177.489 23.1641 178.63 23.0156L178.771 24.4844C175.661 25.0156 172.302 25.0469 169.771 25.0469L169.505 23.4219ZM178.427 14.7969V16.3594H169.786V14.7969H173.13V13.2812H175.114V14.7969H178.427ZM174.099 18.4375C173.13 18.4375 172.442 18.8594 172.458 19.5938C172.442 20.3438 173.13 20.75 174.099 20.75C175.099 20.75 175.771 20.3438 175.771 19.5938C175.771 18.8594 175.099 18.4375 174.099 18.4375Z" fill="white"/>
</svg>
