<svg width="240" height="28" viewBox="0 0 240 28" fill="none" xmlns="http://www.w3.org/2000/svg">
<g clip-path="url(#clip0_199_8809)">
<path d="M98.0422 8.24708C98.0422 6.62297 96.6419 5.31006 94.9109 5.31006H77.4166V8.20818H94.1719L94.5122 8.29571V10.6006H76.1719V13.4987H86.3145C86.0228 13.8294 85.8477 14.267 85.8477 14.7435C85.8477 15.2201 86.013 15.6383 86.2853 15.9689H77.4069V18.8768H94.1621L94.5025 18.9643V23.1656H98.0228V18.906C98.0228 17.2818 96.6224 15.9689 94.9012 15.9689H89.2318C89.5139 15.6383 89.6792 15.2104 89.6792 14.7435C89.6792 14.2767 89.5041 13.8294 89.2124 13.4987H99.3453V10.6006H98.0325V8.23736L98.0422 8.24708Z" fill="#004FA3"/>
<path d="M72.6906 8.43184C72.0488 8.43184 71.4848 8.73332 71.1153 9.19041V4.65845H67.595V20.2675H53.9905V17.3985H50.4702V20.2383C50.4702 21.8624 51.8705 23.1753 53.5918 23.1753H71.0861H71.1055V11.6801C71.4751 12.1469 72.0391 12.4386 72.6809 12.4386C73.7895 12.4386 74.6842 11.5439 74.6842 10.4352C74.6842 9.32656 73.7895 8.43184 72.6809 8.43184H72.6906Z" fill="#004FA3"/>
<path d="M51.6662 12.2247C51.6662 15.1228 54.0195 17.4666 56.9077 17.4666C59.7959 17.4666 62.1492 15.1228 62.1492 12.2247C62.1492 11.2716 61.8866 10.3671 61.4393 9.59884H64.6192V6.70071H57.9385C58.4636 6.36033 58.8137 5.76709 58.8137 5.09605C58.8137 4.04572 57.958 3.18018 56.898 3.18018C55.838 3.18018 54.9823 4.036 54.9823 5.09605C54.9823 5.76709 55.3323 6.36033 55.8575 6.70071H49.1768V9.59884H52.3567C51.9093 10.3671 51.6468 11.2716 51.6468 12.2247H51.6662ZM56.9174 14.3837C55.7213 14.3837 54.7586 13.4209 54.7586 12.2247C54.7586 11.0284 55.7213 10.0656 56.9174 10.0656C58.1135 10.0656 59.0763 11.0382 59.0763 12.2247C59.0763 13.4111 58.1038 14.3837 56.9174 14.3837Z" fill="#004FA3"/>
<path d="M185.621 15.4243L189.919 8.25681L194.188 15.4146H198.049L193.751 8.20818H197.631V5.31006H182.188V8.20818H186.088L181.76 15.4243H185.621Z" fill="#004FA3"/>
<path d="M204.117 4.66821H200.597V8.88897C200.227 8.43188 199.663 8.1304 199.031 8.1304C197.922 8.1304 197.028 9.02512 197.028 10.1338C197.028 11.2425 197.922 12.1372 199.031 12.1372C199.663 12.1372 200.237 11.8454 200.597 11.3786V20.2675H187.011V16.7567H183.491V20.2383C183.491 21.8624 184.892 23.1754 186.613 23.1754H200.587H201.608H204.107V20.2675V4.66821H204.117Z" fill="#004FA3"/>
<path d="M147.335 8.53882C146.966 8.07201 146.402 7.78025 145.77 7.78025C144.661 7.78025 143.767 8.67497 143.767 9.78365C143.767 10.8923 144.661 11.7871 145.77 11.7871C146.402 11.7871 146.976 11.4856 147.335 11.0285V23.1753H150.856V4.65845H147.335V8.53882Z" fill="#004FA3"/>
<path d="M137.776 5.31006H135.511H133.906L128.305 14.6366H132.165L136.639 7.19676L141.122 14.6366H144.982L139.371 5.31006H137.776Z" fill="#004FA3"/>
<path d="M170.509 12.604V11.7093V5.31006H166.989V6.35066H158.577V5.31006H155.057V9.88092C155.057 11.3883 156.36 12.604 157.965 12.604H170.499H170.509ZM166.999 8.87922V10.056H158.587V8.87922H166.999Z" fill="#004FA3"/>
<path d="M178.571 8.43184C177.938 8.43184 177.365 8.73332 176.995 9.19041V4.65845H173.475V13.6446H156.36V16.1926H173.465V17.1554H156.35V19.6839V20.462C156.35 21.9694 157.653 23.185 159.258 23.185H176.985V20.637H159.87V19.6839H176.985V19.4311V16.3774C176.985 16.3774 176.985 16.3482 176.985 16.3385V11.6898C177.355 12.1566 177.919 12.4484 178.561 12.4484C179.669 12.4484 180.564 11.5536 180.564 10.445C180.564 9.33629 179.669 8.44157 178.561 8.44157L178.571 8.43184Z" fill="#004FA3"/>
<path d="M115.799 12.7304H124.347V9.82257H107.251V8.20818H124.347V5.31006H106.24H103.721V9.7934C103.721 11.4175 105.122 12.7304 106.852 12.7304H112.279V13.771H102.457V16.6691H109.429C109.021 17.418 108.788 18.2738 108.788 19.1783C108.788 22.0764 111.141 24.4202 114.029 24.4202C116.917 24.4202 119.271 22.0667 119.271 19.1783C119.271 18.2641 119.037 17.4083 118.629 16.6691H125.621V13.771H115.78V12.7304H115.799ZM114.039 21.3373C112.843 21.3373 111.88 20.3745 111.88 19.1783C111.88 17.9821 112.843 17.0193 114.039 17.0193C115.235 17.0193 116.198 17.9821 116.198 19.1783C116.198 20.3745 115.235 21.3373 114.039 21.3373Z" fill="#004FA3"/>
<path d="M240 4.0166H239.028V23.8269H240V4.0166Z" fill="#004FA3"/>
<path d="M211.575 4.0166H210.603V23.8269H211.575V4.0166Z" fill="#004FA3"/>
<path d="M213.715 18.8766H223.546V23.1752H227.067V18.8766H236.888V15.9785H213.715V18.8766Z" fill="#004FA3"/>
<path d="M218.879 14.6463L225.307 8.21791L231.725 14.6463H236.402L229.974 8.20818H235.614V5.31006H214.989V8.20818H220.629L214.201 14.6463H218.879Z" fill="#004FA3"/>
<path d="M29.5818 0C26.6451 0 23.9319 0.914173 21.6953 2.47994C19.4587 0.923898 16.7455 0 13.8088 0C6.18476 0 0 6.18525 0 13.8001C0 21.415 6.18476 27.6002 13.799 27.6002C16.7358 27.6002 19.4489 26.6861 21.6856 25.1203C23.9222 26.6763 26.6353 27.6002 29.5721 27.6002C37.1961 27.6002 43.3712 21.415 43.3712 13.8001C43.3712 6.18525 37.1961 0 29.5818 0Z" fill="white"/>
<path d="M42.3308 8.54859C42.1071 8.00398 41.8445 7.47882 41.5625 6.96338L26.9175 18.1182L21.6954 22.0959L19.6533 23.3893L13.0115 27.5809C13.274 27.5906 13.5463 27.6003 13.8089 27.6003C14.6646 27.6003 15.4912 27.5225 16.3081 27.3767L20.159 23.8853L21.6954 22.4946L26.4896 19.2561L42.3308 8.54859Z" fill="#ED1C2E"/>
<path d="M42.5738 9.18066L21.8315 25.2176C24.039 26.7153 26.7035 27.6003 29.5819 27.6003C37.1962 27.6003 43.3712 21.4247 43.3712 13.8099C43.3712 12.1955 43.0892 10.6395 42.5738 9.19039V9.18066Z" fill="#ED1C2E"/>
<path d="M13.8088 0.00976562C6.19457 0.00976562 0.0195312 6.1853 0.0195312 13.8002C0.0195312 15.4243 0.301541 16.9803 0.816938 18.4197L21.5495 2.39245C19.3421 0.885038 16.6776 0.00976562 13.8088 0.00976562Z" fill="#ED1C2E"/>
<path d="M21.6857 11.1647L26.3535 8.08177L36.1071 1.65339C35.5334 1.34218 34.9402 1.06987 34.3178 0.846191L26.0034 7.37183L21.676 10.7659L15.7927 14.7047L3.50098 22.9711C3.88996 23.4088 4.30811 23.8269 4.75543 24.2062L15.8997 15.6286L21.6955 11.1744L21.6857 11.1647Z" fill="#ED1C2E"/>
<path d="M21.6856 14.0044L27.1605 10.3574L38.1783 3.02461C37.7018 2.64533 37.2059 2.29522 36.6808 1.98401L26.9271 9.54052L21.6856 13.6057L16.2107 17.2526L5.20264 24.5855C5.67914 24.9648 6.17508 25.3149 6.70021 25.6261L16.4539 18.0598L21.6953 13.9947L21.6856 14.0044Z" fill="#ED1C2E"/>
<path d="M21.6857 16.8246L27.569 12.8859L39.8802 4.63891C39.4912 4.20128 39.0731 3.78309 38.6257 3.40381L27.4718 11.9815L21.676 16.4356L16.9985 19.5185L7.24487 25.9469C7.81862 26.2581 8.41181 26.5304 9.03418 26.7541L17.3486 20.2285L21.676 16.8246H21.6857Z" fill="#ED1C2E"/>
<path d="M21.6858 8.33457L25.206 6.04914L33.5885 0.603002C32.8786 0.389046 32.159 0.233443 31.4005 0.126465L24.7781 5.44617L21.6858 7.93583L15.9191 11.8259L2.12012 21.1233C2.4313 21.6193 2.77166 22.0861 3.13146 22.5334L15.8122 12.8276L21.6858 8.33457Z" fill="#ED1C2E"/>
<path d="M21.6856 5.50453L23.718 4.2208L30.3696 0.0292161C30.107 0.00976562 29.8445 0.00976562 29.5722 0.00976562C28.7261 0.00976562 27.8996 0.0875676 27.0924 0.233446L23.2221 3.72481L21.6856 5.10579L16.8915 8.3443L1.05029 19.0615C1.27396 19.6061 1.53652 20.141 1.81853 20.6467L16.4636 9.49188L21.6856 5.51425V5.50453Z" fill="#ED1C2E"/>
<path d="M21.6858 19.6646L27.4524 15.7842L41.2611 6.49659C40.9499 6.0006 40.6096 5.53379 40.2498 5.08643L27.5691 14.7825L21.6955 19.2756L18.1655 21.5707L9.79272 27.0169C10.4929 27.2308 11.2222 27.3961 11.971 27.4934L18.5934 22.164L21.6955 19.6743L21.6858 19.6646Z" fill="#ED1C2E"/>
<path d="M8.97559 13.7418C8.97559 15.93 10.7552 17.7 12.9334 17.7H17.2608V15.5604H13.1279C12.525 15.5604 11.9999 15.2686 11.6693 14.8116H17.2803V12.6623H11.6693C11.9999 12.2149 12.525 11.9134 13.1279 11.9134H17.3095V9.76416H12.9432C10.7552 9.76416 8.98531 11.5342 8.98531 13.7223L8.97559 13.7418Z" fill="#ED1C2E" stroke="#ED1C2E" stroke-width="0.83"/>
<path d="M33.1214 9.78369H27.7048V11.9232H33.1214C33.5298 11.9232 33.8604 12.2539 33.8604 12.6721C33.8604 13.0903 33.5298 13.4209 33.1214 13.4209H27.734V15.5605V17.7H30.1749V15.5605H33.1214C34.7162 15.5605 36.0095 14.267 36.0095 12.6721C36.0095 11.0771 34.7162 9.78369 33.1214 9.78369Z" fill="#ED1C2E" stroke="#ED1C2E" stroke-width="0.83"/>
<path d="M25.0696 14.9381C25.0696 15.3465 24.7389 15.6772 24.3208 15.6772C23.9026 15.6772 23.5817 15.3465 23.5817 14.9381V9.78369H21.4326V14.9381C21.4326 15.3465 21.102 15.6772 20.6838 15.6772C20.2657 15.6772 19.9448 15.3465 19.9448 14.9381V9.78369H17.7957V14.9381C17.7957 16.533 19.089 17.8265 20.6838 17.8265C21.3743 17.8265 22.0064 17.5833 22.5023 17.1846C22.9982 17.5833 23.6303 17.8265 24.3208 17.8265C25.9156 17.8265 27.2089 16.533 27.2089 14.9381V9.78369H25.0598V14.9381H25.0696Z" fill="#ED1C2E" stroke="#ED1C2E" stroke-width="0.83"/>
<path d="M8.97559 13.7418C8.97559 15.93 10.7552 17.7 12.9334 17.7H17.2608V15.5604H13.1279C12.525 15.5604 11.9999 15.2686 11.6693 14.8116H17.2803V12.6623H11.6693C11.9999 12.2149 12.525 11.9134 13.1279 11.9134H17.3095V9.76416H12.9432C10.7552 9.76416 8.98531 11.5342 8.98531 13.7223L8.97559 13.7418Z" fill="white"/>
<path d="M33.1214 9.78369H27.7048V11.9232H33.1214C33.5298 11.9232 33.8604 12.2539 33.8604 12.6721C33.8604 13.0903 33.5298 13.4209 33.1214 13.4209H27.734V15.5605V17.7H30.1749V15.5605H33.1214C34.7162 15.5605 36.0095 14.267 36.0095 12.6721C36.0095 11.0771 34.7162 9.78369 33.1214 9.78369Z" fill="white"/>
<path d="M25.0696 14.9381C25.0696 15.3465 24.7389 15.6772 24.3208 15.6772C23.9026 15.6772 23.5817 15.3465 23.5817 14.9381V9.78369H21.4326V14.9381C21.4326 15.3465 21.102 15.6772 20.6838 15.6772C20.2657 15.6772 19.9448 15.3465 19.9448 14.9381V9.78369H17.7957V14.9381C17.7957 16.533 19.089 17.8265 20.6838 17.8265C21.3743 17.8265 22.0064 17.5833 22.5023 17.1846C22.9982 17.5833 23.6303 17.8265 24.3208 17.8265C25.9156 17.8265 27.2089 16.533 27.2089 14.9381V9.78369H25.0598V14.9381H25.0696Z" fill="white"/>
</g>
<defs>
<clipPath id="clip0_199_8809">
<rect width="240" height="27.61" fill="white"/>
</clipPath>
</defs>
</svg>
