<svg width="100" height="100" viewBox="0 0 100 100" fill="none" xmlns="http://www.w3.org/2000/svg">
<path d="M45.1042 65.6224L61.7708 50.6224L60.8333 47.9141L48.4375 46.7682L56.5625 36.0391L55 34.1641L38.4375 49.1641L39.2708 51.9766L51.6667 53.0182L43.6458 63.9557L45.1042 65.6224Z" fill="#FDD000"/>
<path d="M50.104 76.8737C57.5346 76.8737 63.854 74.2522 69.0623 69.0091C74.2707 63.7661 76.8748 57.4046 76.8748 49.9247V23.1237H50.0738C42.5939 23.1237 36.2325 25.7279 30.9894 30.9362C25.7464 36.1445 23.1248 42.464 23.1248 49.8945C23.1248 57.3945 25.7391 63.7661 30.9675 69.0091C36.196 74.2522 42.5748 76.8737 50.104 76.8737ZM50.104 79.1654C46.2825 79.1654 42.671 78.4883 39.2696 77.1341C35.8675 75.7799 32.8328 73.8876 30.1655 71.457L21.979 79.582L20.4165 78.0195L28.5415 69.8331C26.1109 67.1657 24.2186 64.131 22.8644 60.7289C21.5103 57.3275 20.8332 53.7161 20.8332 49.8945C20.8332 41.7827 23.6804 34.9112 29.3748 29.2799C35.0693 23.648 41.9741 20.832 50.0894 20.832H79.1665V49.9091C79.1665 58.0244 76.3505 64.9293 70.7186 70.6237C65.0873 76.3181 58.2158 79.1654 50.104 79.1654Z" fill="#006AFF"/>
</svg>
