<svg width="100" height="100" viewBox="0 0 100 100" fill="none" xmlns="http://www.w3.org/2000/svg">
<path d="M24.3478 24.3615C21.0867 27.626 18.5051 31.4653 16.603 35.8792C16.0346 37.1982 15.5511 38.9914 15.1526 40.8576L16.8749 42.2917L37.2915 62.7083V66.9792C37.2915 69.3403 38.1044 71.3542 39.7301 73.0208C41.3565 74.6875 43.3561 75.5208 45.729 75.5208V83.75V86.0096C47.1334 86.1699 48.5629 86.25 50.0176 86.25C55.0301 86.25 59.7405 85.2976 64.1488 83.3927C68.312 81.5942 71.9637 79.1885 75.104 76.1756V72.9167C74.5596 71.166 73.5381 69.7385 72.0395 68.6344C70.5408 67.5309 68.8395 66.9792 66.9353 66.9792H62.7082V54.2708C62.7082 53.0903 62.3162 52.0833 61.5322 51.25C60.7481 50.4167 59.7513 50 58.5415 50H33.0207V41.4583H41.4947C42.6509 41.4583 43.6457 41.0663 44.479 40.2823C45.3124 39.4983 45.729 38.5014 45.729 37.2917V28.75H54.2707C56.6436 28.75 58.6433 27.9167 60.2697 26.25C61.8954 24.5833 62.7082 22.5816 62.7082 20.2448V18.2292V16.0308C58.7052 14.5103 54.4632 13.75 49.9822 13.75C44.9697 13.75 40.2592 14.7024 35.8509 16.6073C31.4433 18.5115 27.6089 21.0962 24.3478 24.3615Z" fill="#FDD000"/>
<path d="M49.9824 14.6504C54.877 14.6504 59.4681 15.5782 63.7646 17.4297C68.0785 19.2887 71.8221 21.807 75.0029 24.9844C77.9856 27.9633 80.3879 31.4356 82.21 35.4072L82.5664 36.208C84.4204 40.4987 85.3496 45.0872 85.3496 49.9824C85.3496 54.877 84.4218 59.4681 82.5703 63.7646C80.7113 68.0785 78.193 71.8221 75.0156 75.0029C72.0367 77.9856 68.5644 80.3879 64.5928 82.21L63.792 82.5664C59.5013 84.4204 54.9128 85.3496 50.0176 85.3496C45.123 85.3496 40.5319 84.4218 36.2354 82.5703C31.9215 80.7113 28.1779 78.193 24.9971 75.0156C22.0144 72.0367 19.6121 68.5644 17.79 64.5928L17.4336 63.792C15.5796 59.5013 14.6504 54.9128 14.6504 50.0176C14.6504 45.123 15.5782 40.5319 17.4297 36.2354C19.2887 31.9215 21.807 28.1779 24.9844 24.9971C27.9633 22.0144 31.4356 19.6121 35.4072 17.79L36.208 17.4336C40.4987 15.5796 45.0872 14.6504 49.9824 14.6504Z" stroke="#006AFF" stroke-width="1.8"/>
</svg>
