<svg width="100" height="100" viewBox="0 0 100 100" fill="none" xmlns="http://www.w3.org/2000/svg">
<path d="M50.4167 77.2904C51.0417 77.2209 51.5105 77.082 51.823 76.8737C52.1355 76.6654 52.2917 76.3529 52.2917 75.9362C52.2917 75.5195 52.1181 75.2244 51.7709 75.0508C51.4236 74.8772 50.9723 74.7904 50.4167 74.7904C47.5695 74.9293 44.3577 73.9744 40.7813 71.9258C37.2049 69.8772 35 66.5265 34.1667 61.8737C34.0973 61.2487 33.941 60.8147 33.698 60.5716C33.4549 60.3286 33.1598 60.207 32.8125 60.207C32.4653 60.207 32.1702 60.3459 31.9271 60.6237C31.6841 60.9015 31.5973 61.3529 31.6667 61.9779C32.7084 67.5334 35.2778 71.4918 39.375 73.8529C43.4723 76.214 47.1528 77.3598 50.4167 77.2904Z" fill="#FDD000"/>
<path d="M30.0522 78.0221C24.7397 72.536 22.0835 65.6957 22.0835 57.5013C22.0835 51.8069 24.3925 45.4701 29.0106 38.4909C33.6286 31.5117 40.6252 23.8207 50.0002 15.418C59.3752 23.8207 66.3717 31.5117 70.9897 38.4909C75.6078 45.4701 77.9168 51.8069 77.9168 57.5013C77.9168 65.6957 75.2606 72.536 69.9481 78.0221C64.6356 83.5082 57.9863 86.2513 50.0002 86.2513C42.0141 86.2513 35.3647 83.5082 30.0522 78.0221ZM68.3335 76.4076C73.1946 71.3728 75.6252 65.0707 75.6252 57.5013C75.6252 52.293 73.455 46.4076 69.1147 39.8451C64.7745 33.2826 58.4029 26.1819 50.0002 18.543C41.5974 26.1819 35.2259 33.2826 30.8856 39.8451C26.5453 46.4076 24.3752 52.293 24.3752 57.5013C24.3752 65.0707 26.8057 71.3728 31.6668 76.4076C36.5279 81.4423 42.6391 83.9596 50.0002 83.9596C57.3613 83.9596 63.4724 81.4423 68.3335 76.4076Z" fill="#006AFF"/>
</svg>
