<svg width="100" height="100" viewBox="0 0 100 100" fill="none" xmlns="http://www.w3.org/2000/svg">
<path d="M48.1251 79.3737C45.8334 79.3737 43.8542 78.7661 42.1876 77.5508C40.5209 76.3355 39.3751 74.6515 38.7501 72.4987H41.5626C42.0487 73.957 42.8647 75.0855 44.0105 75.8841C45.1563 76.6827 46.5279 77.082 48.1251 77.082C50.2084 77.082 51.9272 76.4049 53.2813 75.0508C54.6355 73.6966 55.3126 71.9431 55.3126 69.7904C55.3126 67.6376 54.6355 65.8668 53.2813 64.4779C51.9272 63.089 50.2084 62.3945 48.1251 62.3945H11.0417V60.1029H48.1251C50.9029 60.1029 53.1772 60.9883 54.948 62.7591C56.7188 64.5299 57.6042 66.8737 57.6042 69.7904C57.6042 72.6376 56.7188 74.9466 54.948 76.7174C53.1772 78.4883 50.9029 79.3737 48.1251 79.3737ZM11.0417 39.9987V37.707H64.7917C67.5695 37.707 69.8265 36.839 71.5626 35.1029C73.2987 33.3668 74.1667 31.0751 74.1667 28.2279C74.1667 25.3806 73.2987 23.089 71.5626 21.3529C69.8265 19.6168 67.5695 18.7487 64.7917 18.7487C62.5001 18.7487 60.573 19.3737 59.0105 20.6237C57.448 21.8737 56.4237 23.4709 55.9376 25.4154H53.4376C54.0626 22.707 55.3994 20.5369 57.448 18.9049C59.4966 17.273 61.9445 16.457 64.7917 16.457C68.1945 16.457 70.9897 17.5508 73.1772 19.7383C75.3647 21.9258 76.4584 24.7556 76.4584 28.2279C76.4584 31.7001 75.3647 34.5299 73.1772 36.7174C70.9897 38.9049 68.1945 39.9987 64.7917 39.9987H11.0417ZM80.2084 72.1862V69.6862C82.1529 69.1306 83.7154 68.0543 84.8959 66.457C86.0765 64.8598 86.6667 62.9154 86.6667 60.6237C86.6667 57.8459 85.7813 55.589 84.0105 53.8529C82.2397 52.1168 80.0001 51.2487 77.2917 51.2487H11.0417V48.957H77.2917C80.764 48.957 83.5765 50.0508 85.7292 52.2383C87.882 54.4258 88.9584 57.2209 88.9584 60.6237C88.9584 63.5404 88.1945 66.0404 86.6667 68.1237C85.139 70.207 82.9862 71.5612 80.2084 72.1862Z" fill="#006AFF"/>
</svg>
