<svg width="48" height="48" viewBox="0 0 48 48" fill="none" xmlns="http://www.w3.org/2000/svg">
<path d="M35.3643 22.501C36.1908 22.501 36.8611 23.1612 36.8613 23.9756C36.8613 24.7901 36.1909 25.4512 35.3643 25.4512C34.5377 25.451 33.8682 24.79 33.8682 23.9756C33.8684 23.1613 34.5378 22.5011 35.3643 22.501Z" fill="#FEFEFE"/>
<path d="M26.5117 22.5547C27.3392 22.5548 28.0096 23.216 28.0098 24.0312C28.0098 24.8467 27.3393 25.5077 26.5117 25.5078C25.6841 25.5078 25.0127 24.8467 25.0127 24.0312C25.0128 23.2159 25.6842 22.5547 26.5117 22.5547Z" fill="#FEFEFE"/>
<path d="M12.0957 23.0068C12.67 22.4034 13.6856 22.3896 14.2686 22.9922C14.5287 23.2613 14.6224 23.602 14.6475 23.9492C14.7013 24.6987 14.2366 25.3649 13.4629 25.4902L13.3037 25.5088C12.515 25.5643 11.8276 25.0702 11.7373 24.2588C11.6882 23.8165 11.7866 23.3317 12.0957 23.0068Z" fill="#FEFEFE"/>
<path fill-rule="evenodd" clip-rule="evenodd" d="M36.3721 10C36.3669 10.0202 36.367 10.0466 36.375 10.0615C36.3853 10.0798 39.068 10.1996 41.1465 12.5527C42.1146 13.6491 42.7302 14.9904 42.9229 16.4414L42.918 16.5459C42.9167 16.5705 42.9651 16.5881 43 16.5732V29.084C42.9837 29.0793 42.9518 29.0775 42.9375 29.0859C42.9013 29.1076 42.8447 31.2722 41.0127 33.2295C39.74 34.5895 38.064 35.4108 36.1787 35.6074L26.9932 35.6162L26.4639 36.6709L24.5068 40.5908C24.3483 40.9084 24.0437 40.888 24.0625 41H23.8906C23.9096 40.8879 23.6048 40.9085 23.4463 40.5908L21.4893 36.6709L20.96 35.6152L11.7725 35.6094C10.1986 35.4323 8.75797 34.8532 7.57617 33.835L6.74023 33.0059C5.7528 31.8776 5.19227 30.5147 5.00098 29.0195L5 16.6348C5.187 15.1064 5.7852 13.6916 6.81152 12.5557C7.039 12.2754 7.26554 12.0567 7.54688 11.8291C8.64599 10.8771 9.9921 10.2759 11.4492 10.0771C11.4872 10.0723 11.5555 10.1034 11.5791 10.0615C11.5872 10.0466 11.5872 10.0203 11.582 10H36.3721ZM35.1016 20.5332C34.1067 20.4474 33.1174 20.8273 32.4521 21.5713C31.4202 22.7264 31.2457 24.579 32.0088 25.9209C32.5848 26.934 33.6824 27.4932 34.8662 27.4355C35.4586 27.4067 35.9978 27.2034 36.4502 26.8281L36.7529 26.5771C36.7813 27.0772 36.7377 27.5626 36.5293 28.0059C36.2109 28.6836 35.4417 28.7746 34.6924 28.7402L34.6953 30.8223L35.6738 30.8086C36.2723 30.7466 36.8524 30.6239 37.3682 30.3203C37.8105 30.06 38.1692 29.728 38.4307 29.2822C38.7917 28.667 39.0155 27.9726 39.0186 27.2334L39.0469 20.7285H36.7598L36.7373 21.4229C36.3444 20.8634 35.7645 20.5901 35.1016 20.5332ZM30.1211 22.6436C29.3313 20.671 26.6587 20.0441 24.6689 20.8955C23.3764 21.4488 22.617 22.6543 22.6299 24.0391C22.6503 26.2343 24.3748 27.537 26.5156 27.5273C28.0533 27.5201 29.4829 26.8683 30.1025 25.4463C30.4903 24.5563 30.4851 23.5523 30.1211 22.6436ZM9.51562 17.7178V27.3027H11.7949L11.8076 26.584L12.0312 26.8613C12.5306 27.3858 13.2257 27.5499 13.9521 27.5215C14.6306 27.4951 15.2539 27.2601 15.7949 26.8008C17.384 25.4521 17.427 22.7767 15.9121 21.3418C14.7423 20.2844 12.9026 20.1985 11.8018 21.3574L11.7959 17.7168L9.51562 17.7178ZM17.7373 19.7539C18.0753 19.8113 18.3457 19.9736 18.5283 20.2529C18.6739 20.5776 18.7999 20.9174 18.8008 21.2998L18.8145 27.3047L21.1006 27.2988L21.0723 20.8428C21.0688 20.0325 20.7549 19.3032 20.3193 18.6611C20.2077 18.6051 20.185 18.5043 20.1113 18.4316C19.4789 17.807 18.6393 17.4873 17.7363 17.5059L17.7373 19.7539Z" fill="#FEFEFE"/>
</svg>
