<svg width="50" height="60" viewBox="0 0 50 60" fill="none" xmlns="http://www.w3.org/2000/svg">
<path d="M4.23083 60V50.9233C3.18806 50.1328 2.22222 49.0142 1.33333 47.5675C0.444444 46.1208 0 44.4958 0 42.6925V11.6667C0 7.63278 2.00528 4.67972 6.01583 2.8075C10.0269 0.935834 16.355 0 25 0C33.9572 0 40.3631 0.899723 44.2175 2.69917C48.0725 4.49806 50 7.48722 50 11.6667V42.6925C50 44.4958 49.5556 46.1208 48.6667 47.5675C47.7778 49.0142 46.8119 50.1328 45.7692 50.9233V60H38.7183V53.3333H11.2817V60H4.23083ZM25.1025 9.23084H44.2825H5.92333H25.1025ZM38.3333 31.6667H5H45H38.3333ZM5 26.6667H45V14.2308H5V26.6667ZM16.4258 43.0925C17.2703 42.2486 17.6925 41.2178 17.6925 40C17.6925 38.7822 17.2703 37.7514 16.4258 36.9075C15.5819 36.0631 14.5511 35.6408 13.3333 35.6408C12.1156 35.6408 11.0847 36.0631 10.2408 36.9075C9.39639 37.7514 8.97417 38.7822 8.97417 40C8.97417 41.2178 9.39639 42.2486 10.2408 43.0925C11.0847 43.9369 12.1156 44.3592 13.3333 44.3592C14.5511 44.3592 15.5819 43.9369 16.4258 43.0925ZM39.7592 43.0925C40.6036 42.2486 41.0258 41.2178 41.0258 40C41.0258 38.7822 40.6036 37.7514 39.7592 36.9075C38.9153 36.0631 37.8844 35.6408 36.6667 35.6408C35.4489 35.6408 34.4181 36.0631 33.5742 36.9075C32.7297 37.7514 32.3075 38.7822 32.3075 40C32.3075 41.2178 32.7297 42.2486 33.5742 43.0925C34.4181 43.9369 35.4489 44.3592 36.6667 44.3592C37.8844 44.3592 38.9153 43.9369 39.7592 43.0925ZM5.92333 9.23084H44.2825C43.5769 7.90195 41.7906 6.86444 38.9233 6.11833C36.0556 5.37278 31.4486 5 25.1025 5C18.8592 5 14.3036 5.39 11.4358 6.17C8.56806 6.95 6.73056 7.97028 5.92333 9.23084ZM11.6667 48.3333H38.3333C40.1667 48.3333 41.7361 47.6806 43.0417 46.375C44.3472 45.0694 45 43.5 45 41.6667V31.6667H5V41.6667C5 43.5 5.65278 45.0694 6.95833 46.375C8.26389 47.6806 9.83333 48.3333 11.6667 48.3333Z" fill="white"/>
</svg>
