<svg width="48" height="48" viewBox="0 0 48 48" fill="none" xmlns="http://www.w3.org/2000/svg">
<path d="M17.0424 7.31769C15.2549 7.40203 14.0342 7.68729 12.967 8.10662C11.8626 8.53704 10.9265 9.11463 9.9951 10.0494C9.0637 10.9841 8.49014 11.9209 8.06274 13.027C7.64912 14.0965 7.3689 15.3182 7.28994 17.1067C7.21097 18.8953 7.1935 19.4702 7.20224 24.0324C7.21097 28.5946 7.23113 29.1665 7.31782 30.9587C7.40317 32.7459 7.68743 33.9663 8.10676 35.0338C8.53785 36.1382 9.11477 37.074 10.0499 38.0057C10.985 38.9374 11.9211 39.5096 13.0299 39.9377C14.0984 40.3506 15.3204 40.6322 17.1086 40.7105C18.8968 40.7888 19.4724 40.8069 24.0333 40.7982C28.5942 40.7895 29.1685 40.7693 30.9604 40.6843C32.7523 40.5993 33.9663 40.313 35.0341 39.8957C36.1385 39.4636 37.075 38.8877 38.006 37.9523C38.9371 37.0168 39.5103 36.0794 39.9374 34.9726C40.3513 33.9041 40.6326 32.6821 40.7102 30.8952C40.7885 29.102 40.8069 28.5294 40.7982 23.9679C40.7895 19.4063 40.769 18.8345 40.684 17.0429C40.599 15.2514 40.3144 14.0347 39.8954 12.9665C39.4636 11.8621 38.8874 10.927 37.9526 9.99461C37.0178 9.06221 36.0797 8.48933 34.9733 8.06328C33.9041 7.64966 32.6827 7.36776 30.8945 7.29047C29.1063 7.21319 28.5307 7.19337 23.9681 7.20211C19.4055 7.21084 18.8343 7.23033 17.0424 7.31769ZM17.2387 37.6882C15.6006 37.6169 14.7112 37.3448 14.1185 37.117C13.3336 36.8146 12.7745 36.449 12.1838 35.864C11.5931 35.279 11.2302 34.7179 10.9238 33.9347C10.6937 33.342 10.4164 32.4536 10.3398 30.8156C10.2565 29.0452 10.239 28.5137 10.2293 24.0284C10.2195 19.5431 10.2367 19.0122 10.3143 17.2411C10.3842 15.6045 10.658 14.7141 10.8855 14.1217C11.1879 13.3358 11.5521 12.7777 12.1385 12.1874C12.7248 11.597 13.2842 11.2334 14.0681 10.927C14.6602 10.6958 15.5486 10.421 17.1859 10.343C18.9577 10.259 19.4885 10.2422 23.9732 10.2325C28.4578 10.2228 28.99 10.2396 30.7625 10.3175C32.3991 10.3887 33.2899 10.6599 33.8816 10.8887C34.6668 11.1911 35.2256 11.5543 35.816 12.1417C36.4063 12.729 36.7702 13.2864 37.0766 14.072C37.3081 14.6623 37.583 15.5504 37.6603 17.1887C37.7446 18.9605 37.7638 19.4917 37.7718 23.976C37.7799 28.4602 37.7641 28.9928 37.6865 30.7632C37.6149 32.4012 37.3434 33.2909 37.1153 33.8843C36.8129 34.6689 36.4483 35.2283 35.8617 35.8183C35.275 36.4083 34.7162 36.7719 33.932 37.0783C33.3406 37.3092 32.4512 37.5847 30.8152 37.6626C29.0435 37.746 28.5126 37.7634 24.0263 37.7732C19.5399 37.7829 19.0107 37.7648 17.239 37.6882M30.9345 15.0212C30.9352 15.4199 31.0541 15.8095 31.2762 16.1407C31.4983 16.4719 31.8136 16.7298 32.1823 16.8817C32.551 17.0337 32.9564 17.0729 33.3474 16.9944C33.7383 16.9159 34.0972 16.7232 34.3787 16.4407C34.6601 16.1583 34.8515 15.7987 34.9285 15.4074C35.0056 15.0162 34.9649 14.6109 34.8116 14.2428C34.6583 13.8747 34.3993 13.5603 34.0673 13.3394C33.7353 13.1185 33.3452 13.001 32.9465 13.0018C32.4119 13.0029 31.8997 13.2162 31.5224 13.5949C31.1451 13.9736 30.9336 14.4866 30.9345 15.0212ZM15.3742 24.017C15.3836 28.7814 19.253 32.635 24.0165 32.626C28.78 32.6169 32.6364 28.7478 32.6273 23.9833C32.6182 19.2189 28.7478 15.3642 23.9836 15.3737C19.2194 15.3831 15.3651 19.2531 15.3742 24.017ZM18.4002 24.0109C18.398 22.9033 18.7243 21.8199 19.3379 20.8978C19.9514 19.9756 20.8246 19.2561 21.8471 18.8302C22.8695 18.4043 23.9953 18.2912 25.082 18.5051C26.1688 18.7191 27.1677 19.2505 27.9524 20.0321C28.7372 20.8137 29.2725 21.8105 29.4908 22.8964C29.709 23.9823 29.6003 25.1085 29.1785 26.1327C28.7567 27.1568 28.0406 28.0328 27.1209 28.65C26.2012 29.2672 25.1191 29.5977 24.0115 29.5999C23.276 29.6015 22.5475 29.4581 21.8674 29.1781C21.1874 28.898 20.5692 28.4868 20.0481 27.9677C19.527 27.4487 19.1133 26.8322 18.8306 26.1532C18.5478 25.4743 18.4016 24.7463 18.4002 24.0109Z" fill="white"/>
</svg>
