<svg width="34" height="34" viewBox="0 0 34 34" fill="none" xmlns="http://www.w3.org/2000/svg">
<path d="M9.84224 0.117496C8.0547 0.201832 6.834 0.487097 5.76685 0.906426C4.66241 1.33684 3.72631 1.91443 2.7949 2.84919C1.8635 3.78394 1.28994 4.72071 0.862548 5.82683C0.448928 6.89632 0.168701 8.11802 0.0897402 9.90655C0.0107794 11.6951 -0.00669283 12.27 0.00204326 16.8322C0.0107794 21.3944 0.0309396 21.9663 0.117628 23.7585C0.202973 25.5457 0.487232 26.7661 0.906564 27.8336C1.33766 28.938 1.91457 29.8738 2.84967 30.8055C3.78477 31.7372 4.72088 32.3094 5.82969 32.7375C6.89818 33.1504 8.12022 33.432 9.90843 33.5103C11.6966 33.5886 12.2722 33.6067 16.8331 33.598C21.394 33.5893 21.9683 33.5691 23.7602 33.4841C25.5521 33.3991 26.7661 33.1128 27.8339 32.6955C28.9383 32.2634 29.8748 31.6875 30.8058 30.7521C31.7369 29.8166 32.3101 28.8792 32.7372 27.7724C33.1511 26.7039 33.4324 25.4819 33.51 23.695C33.5883 21.9018 33.6068 21.3293 33.598 16.7677C33.5893 12.2061 33.5688 11.6343 33.4838 9.84271C33.3988 8.05116 33.1142 6.8345 32.6952 5.76635C32.2634 4.66191 31.6872 3.72682 30.7524 2.79442C29.8176 1.86201 28.8795 1.28913 27.7731 0.863082C26.7039 0.449465 25.4825 0.16756 23.6943 0.0902795C21.9061 0.0129992 21.3305 -0.00682484 16.7679 0.00191119C12.2054 0.0106472 11.6341 0.0301353 9.84224 0.117496ZM10.0385 30.488C8.40045 30.4167 7.51105 30.1446 6.91834 29.9168C6.13343 29.6144 5.57432 29.2488 4.98363 28.6638C4.39294 28.0788 4.03005 27.5177 3.72362 26.7345C3.49345 26.1418 3.21625 25.2534 3.13964 23.6154C3.05631 21.845 3.03884 21.3135 3.0291 16.8282C3.01935 12.3429 3.03649 11.812 3.11411 10.041C3.184 8.40429 3.45784 7.51389 3.68531 6.92152C3.98772 6.13561 4.35194 5.57751 4.93827 4.98716C5.5246 4.39681 6.08404 4.03325 6.86794 3.72682C7.45997 3.49565 8.34837 3.2208 9.98571 3.14285C11.7575 3.05885 12.2883 3.04205 16.773 3.03231C21.2576 3.02256 21.7898 3.03936 23.5623 3.11731C25.1989 3.18855 26.0897 3.4597 26.6814 3.68852C27.4666 3.99092 28.0254 4.35414 28.6158 4.94146C29.2061 5.5288 29.57 6.08622 29.8764 6.87179C30.1079 7.46215 30.3828 8.3502 30.4601 9.98854C30.5444 11.7603 30.5636 12.2915 30.5716 16.7758C30.5797 21.26 30.5639 21.7926 30.4863 23.563C30.4147 25.201 30.1432 26.0907 29.9151 26.6841C29.6127 27.4687 29.2481 28.0281 28.6615 28.6181C28.0748 29.2081 27.516 29.5717 26.7318 29.8781C26.1404 30.109 25.251 30.3845 23.615 30.4624C21.8433 30.5458 21.3124 30.5632 16.8261 30.573C12.3398 30.5827 11.8105 30.5646 10.0388 30.488M23.7343 7.82099C23.735 8.21975 23.8539 8.60935 24.076 8.94053C24.2981 9.2717 24.6134 9.52957 24.9821 9.68153C25.3508 9.83348 25.7562 9.87269 26.1472 9.79419C26.5381 9.7157 26.897 9.52303 27.1785 9.24055C27.4599 8.95807 27.6513 8.59847 27.7283 8.20723C27.8054 7.81599 27.7647 7.41068 27.6114 7.04257C27.4581 6.67446 27.1991 6.36008 26.8671 6.13919C26.5351 5.9183 26.145 5.80083 25.7463 5.80163C25.2117 5.8027 24.6995 6.01603 24.3222 6.39471C23.9449 6.7734 23.7334 7.28643 23.7343 7.82099ZM8.17398 16.8168C8.18339 21.5813 12.0528 25.4348 16.8163 25.4258C21.5798 25.4167 25.4362 21.5477 25.4271 16.7832C25.418 12.0187 21.5476 8.16405 16.7834 8.17346C12.0192 8.18287 8.16491 12.0529 8.17398 16.8168ZM11.2 16.8107C11.1978 15.7031 11.5241 14.6197 12.1377 13.6976C12.7512 12.7754 13.6244 12.0559 14.6469 11.63C15.6693 11.2041 16.7951 11.091 17.8818 11.305C18.9686 11.5189 19.9675 12.0503 20.7523 12.8319C21.537 13.6135 22.0723 14.6103 22.2906 15.6962C22.5088 16.7821 22.4001 17.9083 21.9783 18.9325C21.5565 19.9566 20.8404 20.8326 19.9207 21.4498C19.001 22.067 17.9189 22.3976 16.8113 22.3997C16.0758 22.4013 15.3473 22.2579 14.6672 21.9779C13.9872 21.6978 13.369 21.2866 12.8479 20.7676C12.3268 20.2485 11.9131 19.632 11.6304 18.953C11.3476 18.2741 11.2014 17.5462 11.2 16.8107Z" fill="white"/>
</svg>
