<svg width="48" height="48" viewBox="0 0 48 48" fill="none" xmlns="http://www.w3.org/2000/svg">
<path d="M17.0424 7.31745C15.2549 7.40178 14.0342 7.68705 12.967 8.10638C11.8626 8.5368 10.9265 9.11438 9.9951 10.0491C9.0637 10.9839 8.49014 11.9207 8.06274 13.0268C7.64912 14.0963 7.3689 15.318 7.28994 17.1065C7.21097 18.895 7.1935 19.4699 7.20224 24.0322C7.21097 28.5944 7.23113 29.1663 7.31782 30.9585C7.40317 32.7457 7.68743 33.966 8.10676 35.0335C8.53785 36.1379 9.11477 37.0737 10.0499 38.0054C10.985 38.9372 11.9211 39.5094 13.0299 39.9375C14.0984 40.3504 15.3204 40.632 17.1086 40.7103C18.8968 40.7885 19.4724 40.8067 24.0333 40.7979C28.5942 40.7892 29.1685 40.7691 30.9604 40.684C32.7523 40.599 33.9663 40.3128 35.0341 39.8955C36.1385 39.4634 37.075 38.8874 38.006 37.952C38.9371 37.0166 39.5103 36.0791 39.9374 34.9724C40.3513 33.9039 40.6326 32.6818 40.7102 30.895C40.7885 29.1017 40.8069 28.5292 40.7982 23.9676C40.7895 19.4061 40.769 18.8342 40.684 17.0427C40.599 15.2511 40.3144 14.0344 39.8954 12.9663C39.4636 11.8619 38.8874 10.9268 37.9526 9.99437C37.0178 9.06196 36.0797 8.48908 34.9733 8.06303C33.9041 7.64942 32.6827 7.36751 30.8945 7.29023C29.1063 7.21295 28.5307 7.19313 23.9681 7.20186C19.4055 7.2106 18.8343 7.23009 17.0424 7.31745ZM17.2387 37.6879C15.6006 37.6167 14.7112 37.3445 14.1185 37.1167C13.3336 36.8143 12.7745 36.4487 12.1838 35.8638C11.5931 35.2788 11.2302 34.7177 10.9238 33.9345C10.6937 33.3417 10.4164 32.4534 10.3398 30.8154C10.2565 29.045 10.239 28.5134 10.2293 24.0281C10.2195 19.5428 10.2367 19.012 10.3143 17.2409C10.3842 15.6042 10.658 14.7138 10.8855 14.1215C11.1879 13.3356 11.5521 12.7775 12.1385 12.1871C12.7248 11.5968 13.2842 11.2332 14.0681 10.9268C14.6602 10.6956 15.5486 10.4208 17.1859 10.3428C18.9577 10.2588 19.4885 10.242 23.9732 10.2323C28.4578 10.2225 28.99 10.2393 30.7625 10.3173C32.3991 10.3885 33.2899 10.6597 33.8816 10.8885C34.6668 11.1909 35.2256 11.5541 35.816 12.1414C36.4063 12.7287 36.7702 13.2862 37.0766 14.0717C37.3081 14.6621 37.583 15.5501 37.6603 17.1885C37.7446 18.9602 37.7638 19.4914 37.7718 23.9757C37.7799 28.46 37.7641 28.9925 37.6865 30.7629C37.6149 32.4009 37.3434 33.2907 37.1153 33.8841C36.8129 34.6686 36.4483 35.2281 35.8617 35.8181C35.275 36.4081 34.7162 36.7716 33.932 37.0781C33.3406 37.3089 32.4512 37.5844 30.8152 37.6624C29.0435 37.7457 28.5126 37.7632 24.0263 37.7729C19.5399 37.7827 19.0107 37.7645 17.239 37.6879M30.9345 15.0209C30.9352 15.4197 31.0541 15.8093 31.2762 16.1405C31.4983 16.4717 31.8136 16.7295 32.1823 16.8815C32.551 17.0334 32.9564 17.0726 33.3474 16.9941C33.7383 16.9156 34.0972 16.723 34.3787 16.4405C34.6601 16.158 34.8515 15.7984 34.9285 15.4072C35.0056 15.0159 34.9649 14.6106 34.8116 14.2425C34.6583 13.8744 34.3993 13.56 34.0673 13.3391C33.7353 13.1183 33.3452 13.0008 32.9465 13.0016C32.4119 13.0026 31.8997 13.216 31.5224 13.5947C31.1451 13.9734 30.9336 14.4864 30.9345 15.0209ZM15.3742 24.0167C15.3836 28.7812 19.253 32.6348 24.0165 32.6257C28.78 32.6167 32.6364 28.7476 32.6273 23.9831C32.6182 19.2186 28.7478 15.364 23.9836 15.3734C19.2194 15.3828 15.3651 19.2529 15.3742 24.0167ZM18.4002 24.0107C18.398 22.9031 18.7243 21.8197 19.3379 20.8975C19.9514 19.9754 20.8246 19.2559 21.8471 18.83C22.8695 18.4041 23.9953 18.291 25.082 18.5049C26.1688 18.7188 27.1677 19.2502 27.9524 20.0319C28.7372 20.8135 29.2725 21.8103 29.4908 22.8962C29.709 23.9821 29.6003 25.1083 29.1785 26.1324C28.7567 27.1565 28.0406 28.0326 27.1209 28.6497C26.2012 29.2669 25.1191 29.5975 24.0115 29.5997C23.276 29.6012 22.5475 29.4579 21.8674 29.1778C21.1874 28.8978 20.5692 28.4865 20.0481 27.9675C19.527 27.4485 19.1133 26.8319 18.8306 26.153C18.5478 25.4741 18.4016 24.7461 18.4002 24.0107Z" fill="white"/>
</svg>
