<svg xmlns="http://www.w3.org/2000/svg" width="166" height="36" fill="none"><g fill="#fff" clip-path="url(#a)"><path d="M50.582 6.976 53.805 0H16.627L0 36h37.275l3.175-6.88H22.726l3.877-8.391h16.744l2.994-6.472H29.596l3.363-7.281h17.633zm23.031 13.763L83.193 0h-9.328l-5.602 12.127L65.061 0h-9.397l-9.58 20.74h9.397L60.89 9.035l2.865 11.703zm25.917-.021L115.52 0h-11.931l-2.527 3.82a265 265 0 0 1-3.46 5.168A933 933 0 0 1 92.736 16a238 238 0 0 1 1.628-7.93A366 366 0 0 1 96.307 0h-11.83L82.1 20.718h17.436zm36.858-16.704L138.241 0h-21.393l-9.569 20.713h22.206l1.832-3.955h-10.956l2.227-4.83h9.639l1.719-3.724h-9.633l1.933-4.19zM166 0h-9.382l-6.201 6.139q-.328-1.395-.439-3.472c-.026-1.256.006-2.147.107-2.667h-10.956l.916 9.154L129.55 20.74h11.009l2.608-3.327a36 36 0 0 1 1.81-2.264 48 48 0 0 1 2.495-2.645l.247 4.105c.037 1.024.085 1.76.144 2.216.038.74.097 1.373.193 1.91h10.447l-1.44-11.564zM154.38 23.84l-4.787 11.006h1.435l3.641-8.365-1.933 8.365h2.045l4.788-11.005h-1.451l-3.642 8.376 1.842-8.376h-1.938m-7.925 7.964 2.243-5.151a3.1 3.1 0 0 1 .734-1.052q.57-.531 1.205-.531c.423 0 .648.166.723.504.075.284.016.644-.166 1.073l-2.223 5.103c-.224.515-.487.928-.776 1.245-.391.419-.819.633-1.28.633-.46 0-.68-.209-.712-.633q-.055-.49.252-1.191m-1.221-.505c-.471 1.1-.702 1.922-.675 2.469q.057 1.294 1.719 1.293c1.108 0 2.046-.43 2.833-1.293.514-.564 1.006-1.39 1.488-2.469l1.767-4.061c.445-1.02.643-1.809.616-2.367-.059-.848-.632-1.266-1.719-1.266s-2.051.418-2.838 1.266q-.763.82-1.429 2.367l-1.773 4.061zm1.14-7.458-4.792 11.005h1.467l4.793-11.005zm-4.45 1.427-4.166 9.578h1.468l4.166-9.578h1.96l.621-1.427h-5.061l-.621 1.427h1.6329999999999998m-2.805-1.427-4.793 11.005h1.467l4.793-11.005zm-6.801 4.523 1.392-3.198h.177c.562 0 .937 0 1.13.027.284.027.476.075.589.15.107.086.144.22.123.403q-.025.24-.252.772-.313.686-.466.977c-.133.241-.262.43-.385.542a1.03 1.03 0 0 1-.477.241 3 3 0 0 1-.707.065h-.669c-.155 0-.305 0-.45.021m-.514 1.31c.648 0 1.071.01 1.285.021q.507.025.691.14c.134.075.193.203.177.375q-.023.248-.246.746l-.45 1.041c-.161.365-.3.628-.429.794q-.208.298-.487.419a2 2 0 0 1-.712.166c-.204.022-.573.027-1.119.027l-.397.01 1.628-3.745h.065zm1.044-5.833-4.798 11.005h2.962q1.436.002 2.126-.472c.503-.338.99-1.035 1.451-2.098l.45-1.036q.474-1.102.396-1.593c-.043-.349-.305-.601-.777-.746.552-.145.97-.343 1.237-.596q.402-.378.82-1.336l.401-.923c.37-.858.471-1.443.295-1.744q-.282-.457-1.671-.456h-2.897zm-2.297 0-4.787 11.005h1.467l4.787-11.005zm-6.244 0-4.787 11.01h1.462l2.265-5.199h2.388l-2.259 5.2h1.467l4.792-11.011h-1.467l-1.911 4.4h-2.389l1.917-4.4h-1.478m-6.479 5.21-4.503 5.795h1.611l1.511-1.9c.283-.37.492-.66.642-.858.171-.236.37-.52.605-.848l-.112 1.771-.123 1.835h1.59l.364-5.811 3.957-5.2h-1.569l-2.275 3.038c.037-.274.069-.612.107-1.025q.023-.364.085-1.138l.07-.87h-1.612l-.348 5.217zm-3.952-5.21-4.787 11h4.005l.638-1.47h-2.576l1.537-3.536h2.34l.6-1.374h-2.34l1.381-3.177h2.501l.632-1.448h-3.931zm-7.277 0-4.793 11.016h3.717l.648-1.486h-2.249l4.15-9.53h-1.4729999999999999m-6.833 6.675 2.79-4.722-1.333 4.722zm2.56-6.675-6.597 11.005h1.462l1.676-2.822h1.949l-.766 2.822h1.446l2.982-11.005zm-5.832 1.427-4.171 9.578h1.462l4.171-9.578h1.96l.621-1.427h-5.055l-.62 1.427h1.638zm-6.42-1.427-4.793 11.005h1.436l3.64-8.365-1.927 8.365h2.046l4.787-11.005h-1.446l-3.647 8.376 1.842-8.376H90.08m-4.498 0-4.787 11h4.01l.643-1.47h-2.576l1.537-3.536h2.34l.595-1.374h-2.335l1.382-3.177h2.495l.632-1.448h-3.93zm-7.904 0L72.89 34.846h1.435l4.01-9.224-2.564 9.224h1.419l5.43-9.224-4.011 9.224h1.43l4.798-11.005h-2.528l-4.67 8.322 1.784-5.526.83-2.796h-2.5759999999999996m-5.906 0-4.787 11.005h1.435l3.641-8.365-1.933 8.365h2.045l4.793-11.005h-1.451l-3.641 8.376 1.842-8.376H71.77m-7.93 7.963 2.243-5.151c.182-.414.423-.762.739-1.052q.57-.531 1.205-.531c.423 0 .648.166.728.504.07.284.016.644-.171 1.073l-2.223 5.103c-.224.515-.487.928-.776 1.245-.386.419-.814.633-1.285.633q-.658.002-.712-.633c-.038-.327.048-.724.246-1.191m-1.21-.505q-.717 1.65-.67 2.469.048 1.294 1.72 1.293c1.113 0 2.034-.43 2.832-1.293.509-.564 1.007-1.39 1.483-2.469l1.767-4.061q.669-1.53.621-2.367c-.053-.848-.631-1.266-1.724-1.266s-2.05.418-2.827 1.266q-.77.82-1.435 2.367zm-2.919-2.967 1.355-3.112c.6 0 1.007 0 1.205.01.3.011.498.038.61.092q.169.074.161.236c0 .096-.053.258-.155.494l-.637 1.465c-.102.22-.182.375-.258.466a.8.8 0 0 1-.353.242c-.14.043-.348.07-.626.091q-.275.009-1.071.01h-.241zm.525-4.491-4.793 11.005h1.436l2.243-5.162c.552 0 .964.022 1.248.065.278.043.46.112.562.204.086.09.107.225.065.391q-.026.169-.22.596l-.027.064-1.67 3.848h1.456l1.258-2.898.097-.215c.176-.402.3-.692.353-.858q.154-.418.16-.698.017-.33-.128-.58c-.101-.176-.273-.337-.514-.493.584-.123 1.044-.349 1.366-.687.246-.257.508-.703.782-1.325l.647-1.492c.3-.676.247-1.148-.139-1.416q-.506-.338-1.976-.338h-2.206zm-2.286 0-4.788 11.005h1.468l4.787-11.005zm-6.57 0L48.37 34.846h2.42l6.624-11.005H55.91l-1.67 2.796q-.819 1.377-1.806 3.02c-.38.634-.963 1.594-1.74 2.887l-.423.709 2.554-9.412H51.37zm-5.602 0-4.787 11.005h1.435l3.636-8.365-1.933 8.365h2.045l4.788-11.005H49.51l-3.647 8.376 1.848-8.376z"/></g><defs><clipPath id="a"><path fill="#fff" d="M0 0h166v36H0z"/></clipPath></defs></svg>