<svg width="64" height="64" viewBox="0 0 64 64" fill="none" xmlns="http://www.w3.org/2000/svg">
<path d="M0 63.3333V20.6925C0 16.4786 1.11111 12.7725 3.33333 9.57417C5.55556 6.37528 8.62833 3.98528 12.5517 2.40416C15.47 1.30139 18.6206 0.625 22.0033 0.375C25.3856 0.125 28.6067 0 31.6667 0C34.7267 0 37.9564 0.125 41.3558 0.375C44.7553 0.625 47.9144 1.30139 50.8333 2.40416C54.7778 3.98528 57.8472 6.37528 60.0417 9.57417C62.2361 12.7725 63.3333 16.4786 63.3333 20.6925V63.3333H0ZM20.3908 59.5508L26.66 53.0258H36.6733L42.9742 59.5508H46.0767V57.8842L41.3783 52.9617C43.9678 52.8761 46.1589 51.985 47.9517 50.2883C49.7444 48.5917 50.6408 46.2733 50.6408 43.3333V21.4808C50.6408 17.9725 48.7658 15.62 45.0158 14.4233C41.2658 13.2267 36.8161 12.6283 31.6667 12.6283C26.0128 12.6283 21.4369 13.2267 17.9392 14.4233C14.4414 15.62 12.6925 17.9725 12.6925 21.4808V43.3333C12.6925 46.4528 13.6817 48.8267 15.66 50.455C17.6389 52.0833 19.7372 52.9189 21.955 52.9617L17.2567 57.8842V59.5508H20.3908ZM15.7692 36.1283V21.4808H47.5958V36.1283H15.7692ZM40.5033 45.5225C39.9456 44.9647 39.6667 44.2564 39.6667 43.3975C39.6667 42.5386 39.9456 41.8303 40.5033 41.2725C41.0611 40.7147 41.7694 40.4358 42.6283 40.4358C43.4872 40.4358 44.1956 40.7147 44.7533 41.2725C45.3111 41.8303 45.59 42.5386 45.59 43.3975C45.59 44.2564 45.3111 44.9647 44.7533 45.5225C44.1956 46.0803 43.4872 46.3592 42.6283 46.3592C41.7694 46.3592 41.0611 46.0803 40.5033 45.5225ZM18.58 45.5225C18.0222 44.9647 17.7433 44.2564 17.7433 43.3975C17.7433 42.5386 18.0222 41.8303 18.58 41.2725C19.1378 40.7147 19.8461 40.4358 20.705 40.4358C21.5639 40.4358 22.2722 40.7147 22.83 41.2725C23.3878 41.8303 23.6667 42.5386 23.6667 43.3975C23.6667 44.2564 23.3878 44.9647 22.83 45.5225C22.2722 46.0803 21.5639 46.3592 20.705 46.3592C19.8461 46.3592 19.1378 46.0803 18.58 45.5225Z" fill="white"/>
</svg>
