<svg width="48" height="48" viewBox="0 0 48 48" fill="none" xmlns="http://www.w3.org/2000/svg">
<g clip-path="url(#clip0_466_2123)">
<path d="M9.16387 37.1835C7.52611 36.7335 6.24964 35.4096 5.77719 33.7767C5 30.7645 5 24.4854 5 24.4854C5 24.4854 5 18.2073 5.77719 15.2233C6.24868 13.5622 7.52611 12.2665 9.16387 11.8165C12.1059 11 23.9861 11 23.9861 11C23.9861 11 35.8941 11 38.8361 11.8165C40.5017 12.2665 41.7504 13.5622 42.195 15.2233C43 18.2073 43 24.4854 43 24.4854C43 24.4854 43 30.7635 42.195 33.7767C41.7504 35.4096 40.5017 36.7325 38.8361 37.1835C35.8941 38 23.9861 38 23.9861 38C23.9861 38 12.1059 38 9.16387 37.1835ZM20.2113 30.2853L30.0656 24.4854L20.2113 18.7137V30.2853Z" fill="white"/>
</g>
<defs>
<clipPath id="clip0_466_2123">
<rect width="38" height="27" fill="white" transform="translate(5 11)"/>
</clipPath>
</defs>
</svg>
